<svg width="14" height="14" viewBox="0 0 14 14" fill="none" xmlns="http://www.w3.org/2000/svg">
<g clip-path="url(#clip0_981_56)">
<mask id="mask0_981_56" style="mask-type:luminance" maskUnits="userSpaceOnUse" x="0" y="0" width="14" height="14">
<path d="M2.96613 0H11.0339C12.6719 0 14 1.32813 14 2.96613V11.0339C14 12.6719 12.6719 14 11.0339 14H2.96613C1.32813 14 0 12.6719 0 11.0339V2.96613C0 1.32813 1.32813 0 2.96613 0Z" fill="white"/>
</mask>
<g mask="url(#mask0_981_56)">
<path d="M14 0H0V14H14V0Z" fill="#005BFF"/>
<path fill-rule="evenodd" clip-rule="evenodd" d="M6.89434 7.02033L6.689 6.22139L8.04887 5.30859L9.6766 5.42059L9.91367 6.20179L17.3299 14.1799L5.73047 17.6949L6.89434 7.02033Z" fill="#F91155"/>
<path fill-rule="evenodd" clip-rule="evenodd" d="M1.48856 9.35855C0.962157 9.57602 0.374157 9.22509 0.292957 8.64455C0.23789 8.24882 0.455357 7.85962 0.813757 7.71122C1.34016 7.49375 1.92816 7.84469 2.00936 8.42522C2.06442 8.82095 1.84696 9.21015 1.48856 9.35855ZM0.880957 6.88709C-0.136376 7.05135 -0.734643 8.12282 -0.363176 9.11682C-0.0887764 9.85229 0.668157 10.304 1.42136 10.1818C2.43869 10.0175 3.03696 8.94602 2.66549 7.95202C2.39109 7.21655 1.63416 6.76482 0.880957 6.88709Z" fill="white"/>
<path fill-rule="evenodd" clip-rule="evenodd" d="M3.1556 6.31025C2.92693 6.37185 2.80373 6.63132 2.91573 6.85905C2.99786 7.02612 3.19293 7.10358 3.37026 7.05598L4.39973 6.77972L3.37213 9.35665C3.33853 9.44158 3.41506 9.52932 3.50186 9.50598L6.01626 8.83212C6.1936 8.78452 6.32426 8.62025 6.31213 8.43452C6.29533 8.18065 6.05826 8.01825 5.8296 8.07892L4.5752 8.41492L5.60186 5.83985C5.63546 5.75492 5.55893 5.66532 5.47026 5.68958L3.1556 6.31025Z" fill="white"/>
<path fill-rule="evenodd" clip-rule="evenodd" d="M13.1944 3.60346C13.032 3.68652 12.9574 3.87972 13.005 4.05706L13.3391 5.30492L10.8984 4.23439C10.8135 4.19706 10.7239 4.27546 10.7482 4.36506L11.4388 6.94106C11.4864 7.11839 11.6479 7.24906 11.8299 7.23972C12.0838 7.22666 12.2462 6.98586 12.1836 6.75252L11.8467 5.49439L14.2874 6.56492C14.3723 6.60226 14.4619 6.52386 14.4376 6.43426L13.7451 3.84892C13.6826 3.61559 13.4212 3.48866 13.1954 3.60346H13.1944Z" fill="white"/>
<path fill-rule="evenodd" clip-rule="evenodd" d="M7.95373 4.94009C6.73106 5.26769 5.934 6.25516 6.17293 7.14556C6.41186 8.03596 7.59627 8.49236 8.818 8.16476C10.0397 7.83716 10.8377 6.84969 10.5988 5.95929C10.3599 5.06889 9.1764 4.61249 7.95373 4.94009ZM8.15533 5.69236C9 5.46649 9.75227 5.75116 9.86147 6.15716C9.97067 6.56316 9.46106 7.18662 8.6164 7.41249C7.77173 7.63836 7.01946 7.35369 6.91026 6.94769C6.80106 6.54169 7.31066 5.91822 8.15533 5.69236Z" fill="white"/>
</g>
</g>
<defs>
<clipPath id="clip0_981_56">
<rect width="14" height="14" fill="white"/>
</clipPath>
</defs>
</svg>
