<svg width="14" height="14" viewBox="0 0 14 14" fill="none" xmlns="http://www.w3.org/2000/svg">
<rect width="14" height="14" rx="3" fill="white"/>
<path d="M9.40738 6.58421C9.40464 6.51146 9.23922 4.3516 8.99245 3.26362C8.89557 2.83699 8.94711 2.361 8.57733 2.01845C8.20754 1.67608 7.48753 1.60352 6.91704 1.60352C6.34673 1.60352 5.62653 1.67608 5.25674 2.01845C4.88696 2.361 4.84181 3.26362 4.84181 3.26362M3.09524 3.28227L2.3829 11.1597C2.34251 11.6704 2.55637 11.9232 2.72947 12.0972C2.90258 12.2714 3.16653 12.3794 3.37655 12.3951H10.5723C10.7781 12.3951 11.0803 12.261 11.243 12.1277C11.4057 11.9945 11.6616 11.6819 11.6153 11.2161L10.9125 3.28227H3.09524Z" stroke="#6933B0" strokeWidth="1.4" strokeLinecap="round" strokeLinejoin="round"/>
</svg>
