<svg width="12" height="12" viewBox="0 0 12 12" fill="none" xmlns="http://www.w3.org/2000/svg">
<g clip-path="url(#clip0_972_20)">
<path fill-rule="evenodd" clip-rule="evenodd" d="M5.99826 0C2.69057 0 0 2.69132 0 5.99995C0 7.31211 0.423161 8.52901 1.1425 9.51674L0.394897 11.7459L2.70111 11.0089C3.64965 11.6367 4.78161 12 6.00174 12C9.30943 12 12 9.30858 12 6.00005C12 2.69142 9.30943 9.91821e-05 6.00174 9.91821e-05L5.99826 0ZM4.32321 3.04771C4.20687 2.76907 4.1187 2.75852 3.94244 2.75135C3.88243 2.74787 3.81555 2.74438 3.74141 2.74438C3.51211 2.74438 3.27237 2.81138 3.12776 2.95951C2.95151 3.1394 2.51421 3.55909 2.51421 4.4198C2.51421 5.28051 3.14189 6.11294 3.22649 6.22941C3.31466 6.34568 4.4502 8.13758 6.21332 8.86788C7.59209 9.43929 8.00123 9.38633 8.31502 9.31933C8.77341 9.22058 9.34826 8.88181 9.49286 8.47276C9.63746 8.06352 9.63746 7.71429 9.59506 7.64023C9.55277 7.56616 9.43632 7.52395 9.26007 7.43565C9.08382 7.34745 8.22684 6.92417 8.06462 6.86772C7.90588 6.80779 7.75432 6.829 7.63449 6.99833C7.46521 7.23466 7.29951 7.47458 7.16545 7.61913C7.05966 7.73202 6.88678 7.74615 6.74228 7.68612C6.54831 7.60509 6.00533 7.41445 5.33525 6.81834C4.81684 6.35633 4.46424 5.78144 4.36203 5.60862C4.25972 5.43232 4.35147 5.32988 4.43248 5.23471C4.52066 5.12531 4.60526 5.04776 4.69344 4.94542C4.78161 4.84318 4.83098 4.79022 4.88741 4.67027C4.94742 4.55389 4.90501 4.43393 4.86272 4.34573C4.82042 4.25753 4.46782 3.39683 4.32321 3.04771Z" fill="#67C15E"/>
<path d="M4.32321 3.04771C4.20687 2.76907 4.1187 2.75852 3.94244 2.75135C3.88243 2.74787 3.81555 2.74438 3.74141 2.74438C3.51211 2.74438 3.27237 2.81138 3.12776 2.95951C2.95151 3.1394 2.51421 3.55909 2.51421 4.4198C2.51421 5.28051 3.14189 6.11294 3.22649 6.22941C3.31466 6.34568 4.4502 8.13758 6.21332 8.86788C7.59209 9.43929 8.00123 9.38633 8.31502 9.31933C8.77341 9.22058 9.34826 8.88181 9.49286 8.47276C9.63746 8.06352 9.63746 7.71429 9.59506 7.64023C9.55277 7.56616 9.43632 7.52395 9.26007 7.43565C9.08382 7.34745 8.22684 6.92417 8.06462 6.86772C7.90588 6.80779 7.75432 6.829 7.63449 6.99833C7.46521 7.23466 7.29951 7.47458 7.16545 7.61913C7.05966 7.73202 6.88678 7.74615 6.74228 7.68612C6.54831 7.60509 6.00533 7.41445 5.33525 6.81834C4.81684 6.35633 4.46424 5.78144 4.36203 5.60862C4.25972 5.43232 4.35147 5.32988 4.43248 5.23471C4.52066 5.12531 4.60526 5.04776 4.69344 4.94542C4.78161 4.84318 4.83098 4.79022 4.88741 4.67027C4.94742 4.55389 4.90501 4.43393 4.86272 4.34573C4.82042 4.25753 4.46782 3.39683 4.32321 3.04771Z" fill="white" fill-opacity="0.88"/>
</g>
<defs>
<clipPath id="clip0_972_20">
<rect width="12" height="12" fill="white"/>
</clipPath>
</defs>
</svg>
