<svg width="14" height="14" viewBox="0 0 14 14" fill="none" xmlns="http://www.w3.org/2000/svg">
<g clip-path="url(#clip0_981_69)">
<path d="M0 6.57245C0 4.27187 0 3.12159 0.447723 2.24289C0.841549 1.46996 1.46996 0.841549 2.24289 0.447723C3.12159 0 4.27187 0 6.57245 0H7.42755C9.72813 0 10.8784 0 11.7571 0.447723C12.53 0.841549 13.1585 1.46996 13.5523 2.24289C14 3.12159 14 4.27187 14 6.57245V7.42755C14 9.72813 14 10.8784 13.5523 11.7571C13.1585 12.53 12.53 13.1585 11.7571 13.5523C10.8784 14 9.72813 14 7.42755 14H6.57245C4.27187 14 3.12159 14 2.24289 13.5523C1.46996 13.1585 0.841549 12.53 0.447723 11.7571C0 10.8784 0 9.72813 0 7.42755V6.57245Z" fill="url(#paint0_linear_981_69)"/>
<path d="M10.5926 4.93997C10.0912 4.93997 9.63835 5.09161 9.25175 5.35113V2.98242H8.18221V7.35086C8.18221 8.67993 9.2635 9.74947 10.5867 9.74947C11.9099 9.74947 13.0035 8.68631 13.0035 7.33858C13.0035 5.99082 11.9339 4.93997 10.5926 4.93997ZM5.73874 7.6595L4.75997 5.10978H4.01079L3.02612 7.6595L2.04149 5.10978H0.874756L2.59682 9.59302H3.346L4.37922 6.92261L5.41834 9.59302H6.16752L7.88372 5.10978H6.72338L5.73874 7.6595ZM10.5872 8.68045C9.86209 8.68045 9.25175 8.10056 9.25175 7.345C9.25175 6.58941 9.82578 6.01593 10.5931 6.01593C11.3604 6.01593 11.9344 6.61396 11.9344 7.345C11.9344 8.076 11.3241 8.68045 10.5872 8.68045Z" fill="white"/>
</g>
<defs>
<linearGradient id="paint0_linear_981_69" x1="4.7091" y1="15.2091" x2="13.3" y2="0.89091" gradientUnits="userSpaceOnUse">
<stop stop-color="#6F01FB"/>
<stop offset="1" stop-color="#FF49D7"/>
</linearGradient>
<clipPath id="clip0_981_69">
<rect width="14" height="14" fill="white"/>
</clipPath>
</defs>
</svg>
