<svg width="47" height="11" viewBox="0 0 47 11" fill="none" xmlns="http://www.w3.org/2000/svg">
<path d="M1.12462 3.27558L4.92462 1.07269C5.00216 1.02773 5.09784 1.02773 5.17538 1.07269L8.97538 3.27558C9.05252 3.3203 9.1 3.40271 9.1 3.49187V7.50813C9.1 7.59729 9.05252 7.6797 8.97538 7.72442L5.17538 9.92731C5.09784 9.97227 5.00216 9.97227 4.92462 9.92731L1.12462 7.72442C1.04748 7.6797 1 7.59729 1 7.50813V3.49187C1 3.40271 1.04748 3.3203 1.12462 3.27558Z" fill="#CF4E32" stroke="#CF4E32"/>
<path d="M5.0614 3.85938H1.84023C1.78501 3.85938 1.74023 3.90415 1.74023 3.95938V6.43938H5.19024L5.16139 3.95821C5.16076 3.90344 5.11618 3.85938 5.0614 3.85938Z" fill="#CF4E32" stroke="white" stroke-width="0.2"/>
<path d="M5.18945 5.24023H5.63945" stroke="white" stroke-width="0.2"/>
<path d="M7.40519 3.85938H5.94063L5.79063 6.43938H8.49063V5.74847C8.49063 5.70945 8.48302 5.67081 8.46823 5.6347L7.86784 4.16976C7.79089 3.98201 7.6081 3.85938 7.40519 3.85938Z" fill="#CF4E32"/>
<path d="M5.64062 6.43938H5.79063M5.79063 6.43938H8.49063V5.74847C8.49063 5.70945 8.48302 5.67081 8.46822 5.6347L7.86784 4.16976C7.79089 3.98201 7.6081 3.85938 7.40519 3.85938L5.94063 3.85938L5.79063 6.43938Z" stroke="white" stroke-width="0.2"/>
<path d="M6.9096 4.25H7.86546L8.30482 5.24L6.90903 5.24C6.68764 5.24 6.50836 5.06018 6.50903 4.83879L6.5096 4.64879C6.51027 4.42835 6.68916 4.25 6.9096 4.25Z" fill="#CF4E32" stroke="white" stroke-width="0.15"/>
<path d="M6.52539 5.83789H6.70519" stroke="white" stroke-width="0.15" stroke-linecap="round" stroke-linejoin="round"/>
<path d="M8.49118 6.26953C8.41236 6.2452 8.34456 6.21422 8.28622 6.1792C8.06084 6.04393 8.22831 5.76953 8.49118 5.76953V6.26953Z" fill="#CF4E32" stroke="white" stroke-width="0.12"/>
<path d="M1.74023 6.58945V6.43945H8.49025V6.58945C8.49025 6.75514 8.35594 6.88945 8.19025 6.88945H2.04023C1.87455 6.88945 1.74023 6.75514 1.74023 6.58945Z" fill="#CF4E32" stroke="white" stroke-width="0.2"/>
<path d="M5.18945 6.43555H5.78945" stroke="white" stroke-width="0.2"/>
<path d="M4.10938 4.55078V5.54078" stroke="white" stroke-width="0.25" stroke-linecap="round"/>
<path d="M3.45117 4.55078V5.54078" stroke="white" stroke-width="0.25" stroke-linecap="round"/>
<path d="M2.79102 4.55078V5.54078" stroke="white" stroke-width="0.25" stroke-linecap="round"/>
<path d="M6.00008 3.67945V6.46946H5.64008V3.67945C5.64008 3.58004 5.72067 3.49945 5.82008 3.49945C5.91949 3.49945 6.00008 3.58004 6.00008 3.67945Z" fill="#CF4E32" stroke="white" stroke-width="0.12"/>
<circle cx="3.25383" cy="6.93547" r="0.605002" fill="#CF4E32" stroke="white" stroke-width="0.2"/>
<circle cx="6.94524" cy="6.93547" r="0.605002" fill="#CF4E32" stroke="white" stroke-width="0.2"/>
<path d="M3.51946 6.94391C3.51946 7.09026 3.40081 7.20891 3.25445 7.20891C3.1081 7.20891 2.98945 7.09026 2.98945 6.94391C2.98945 6.79755 3.1081 6.67891 3.25445 6.67891C3.40081 6.67891 3.51946 6.79755 3.51946 6.94391Z" stroke="white" stroke-width="0.1"/>
<path d="M7.20891 6.94C7.20891 7.08636 7.09026 7.205 6.94391 7.205C6.79755 7.205 6.67891 7.08636 6.67891 6.94C6.67891 6.79364 6.79755 6.675 6.94391 6.675C7.09026 6.675 7.20891 6.79364 7.20891 6.94Z" stroke="white" stroke-width="0.1"/>
<path d="M13.6663 3.01961C14.2029 3.01961 14.6413 3.19461 14.9813 3.54461C15.3246 3.88794 15.4963 4.32294 15.4963 4.84961C15.4963 5.37628 15.3246 5.81294 14.9813 6.15961C14.6413 6.50628 14.2029 6.67961 13.6663 6.67961C13.3429 6.67961 13.0429 6.60294 12.7662 6.44961C12.4929 6.29628 12.2813 6.08794 12.1313 5.82461L13.0013 5.32461C13.0613 5.44794 13.1513 5.54628 13.2713 5.61961C13.3946 5.68961 13.5346 5.72461 13.6913 5.72461C14.0379 5.72461 14.2813 5.58294 14.4213 5.29961H13.3663V4.39961H14.4213C14.2813 4.11628 14.0379 3.97461 13.6913 3.97461C13.5413 3.97461 13.4029 4.01128 13.2763 4.08461C13.1529 4.15461 13.0613 4.24961 13.0013 4.36961L12.1313 3.86961C12.2879 3.61294 12.5013 3.40794 12.7713 3.25461C13.0479 3.09794 13.3463 3.01961 13.6663 3.01961ZM18.2601 4.79961L19.3501 6.59961H18.2401L17.3701 5.09961V6.59961H16.3701V3.09961H17.3701V4.49961L18.1901 3.09961H19.3001L18.2601 4.79961ZM22.8448 6.15461C22.4881 6.50461 22.0498 6.67961 21.5298 6.67961C21.0098 6.67961 20.5698 6.50461 20.2098 6.15461C19.8531 5.79794 19.6748 5.36294 19.6748 4.84961C19.6748 4.33294 19.8531 3.89961 20.2098 3.54961C20.5665 3.19628 21.0065 3.01961 21.5298 3.01961C22.0531 3.01961 22.4915 3.19628 22.8448 3.54961C23.2048 3.89961 23.3848 4.33294 23.3848 4.84961C23.3848 5.36294 23.2048 5.79794 22.8448 6.15461ZM20.9148 5.45961C21.0781 5.61961 21.2831 5.69961 21.5298 5.69961C21.7765 5.69961 21.9798 5.61961 22.1398 5.45961C22.3031 5.29628 22.3848 5.09294 22.3848 4.84961C22.3848 4.60628 22.3031 4.40461 22.1398 4.24461C21.9798 4.08128 21.7765 3.99961 21.5298 3.99961C21.2831 3.99961 21.0781 4.08128 20.9148 4.24461C20.7548 4.40461 20.6748 4.60628 20.6748 4.84961C20.6748 5.08961 20.7548 5.29294 20.9148 5.45961ZM25.9796 4.82961L27.0346 6.59961H25.9246L25.4246 5.75961L24.9196 6.59961H23.8096L24.8696 4.82961L23.8346 3.09961H24.9446L25.4246 3.89961L25.8996 3.09961H27.0096L25.9796 4.82961ZM30.5782 6.15461C30.2215 6.50461 29.7832 6.67961 29.2632 6.67961C28.7432 6.67961 28.3032 6.50461 27.9432 6.15461C27.5865 5.79794 27.4082 5.36294 27.4082 4.84961C27.4082 4.33294 27.5865 3.89961 27.9432 3.54961C28.2999 3.19628 28.7399 3.01961 29.2632 3.01961C29.7865 3.01961 30.2249 3.19628 30.5782 3.54961C30.9382 3.89961 31.1182 4.33294 31.1182 4.84961C31.1182 5.36294 30.9382 5.79794 30.5782 6.15461ZM28.6482 5.45961C28.8115 5.61961 29.0165 5.69961 29.2632 5.69961C29.5099 5.69961 29.7132 5.61961 29.8732 5.45961C30.0365 5.29628 30.1182 5.09294 30.1182 4.84961C30.1182 4.60628 30.0365 4.40461 29.8732 4.24461C29.7132 4.08128 29.5099 3.99961 29.2632 3.99961C29.0165 3.99961 28.8115 4.08128 28.6482 4.24461C28.4882 4.40461 28.4082 4.60628 28.4082 4.84961C28.4082 5.08961 28.4882 5.29294 28.6482 5.45961ZM33.7786 4.80461C34.0919 4.97794 34.2486 5.24961 34.2486 5.61961C34.2486 5.93628 34.1302 6.19294 33.8936 6.38961C33.6602 6.58294 33.3352 6.67961 32.9186 6.67961C32.2186 6.67961 31.7602 6.41128 31.5436 5.87461L32.3886 5.37961C32.4919 5.61294 32.6686 5.72961 32.9186 5.72961C33.1386 5.72961 33.2486 5.64961 33.2486 5.48961C33.2486 5.35628 33.1652 5.28128 32.9986 5.26461L32.4686 5.25961V4.40961L32.8836 4.40461C33.0569 4.39461 33.1436 4.31961 33.1436 4.17961C33.1436 4.02628 33.0419 3.94961 32.8386 3.94961C32.6219 3.94961 32.4752 4.05294 32.3986 4.25961L31.5686 3.77461C31.6686 3.53794 31.8352 3.35294 32.0686 3.21961C32.3019 3.08628 32.5669 3.01961 32.8636 3.01961C33.2436 3.01961 33.5519 3.11794 33.7886 3.31461C34.0252 3.51128 34.1436 3.76794 34.1436 4.08461C34.1436 4.40128 34.0219 4.64128 33.7786 4.80461Z" fill="#CF4E32"/>
<path d="M36.0713 4.37961H36.6213C36.978 4.37961 37.258 4.47961 37.4613 4.67961C37.668 4.87628 37.7713 5.14128 37.7713 5.47461C37.7713 5.81128 37.668 6.08294 37.4613 6.28961C37.2546 6.49628 36.9746 6.59961 36.6213 6.59961H35.0713V3.09961H37.4713V4.06961H36.0713V4.37961ZM36.0713 5.69961H36.5463C36.6396 5.70961 36.7046 5.67461 36.7413 5.59461C36.7813 5.51461 36.7813 5.43461 36.7413 5.35461C36.7046 5.27461 36.6396 5.23961 36.5463 5.24961H36.0713V5.69961ZM39.9693 6.60461H38.5693V3.10461H39.5693V4.09461H39.9693C40.3293 4.09461 40.6327 4.20961 40.8793 4.43961C41.1227 4.66294 41.2443 4.96628 41.2443 5.34961C41.2443 5.72961 41.1227 6.03461 40.8793 6.26461C40.6327 6.49128 40.3293 6.60461 39.9693 6.60461ZM42.5193 6.60461H41.5193V3.10461H42.5193V6.60461ZM39.5693 5.06461V5.63461H39.9693C40.0493 5.63461 40.1143 5.60961 40.1643 5.55961C40.2177 5.50628 40.2443 5.43628 40.2443 5.34961C40.2443 5.26294 40.2177 5.19461 40.1643 5.14461C40.1143 5.09128 40.0493 5.06461 39.9693 5.06461H39.5693ZM43.3176 3.09961H45.9676V4.06961H45.1426V6.59961H44.1426V4.06961H43.3176V3.09961Z" fill="black"/>
<path d="M18.1615 7.91461V8.11189H17.9573V8.59961H17.7518V8.11189H17.545V7.91461H18.1615ZM18.9467 8.51467C18.8764 8.58408 18.7905 8.61879 18.6892 8.61879C18.5878 8.61879 18.5019 8.58408 18.4316 8.51467C18.3613 8.44434 18.3261 8.35849 18.3261 8.25711C18.3261 8.15573 18.3613 8.07033 18.4316 8.00092C18.5019 7.93059 18.5878 7.89543 18.6892 7.89543C18.7905 7.89543 18.8764 7.93059 18.9467 8.00092C19.0171 8.07033 19.0522 8.15573 19.0522 8.25711C19.0522 8.35849 19.0171 8.44434 18.9467 8.51467ZM18.5768 8.37356C18.607 8.4037 18.6444 8.41877 18.6892 8.41877C18.7339 8.41877 18.7714 8.4037 18.8015 8.37356C18.8316 8.34342 18.8467 8.3046 18.8467 8.25711C18.8467 8.20962 18.8316 8.1708 18.8015 8.14066C18.7714 8.11052 18.7339 8.09545 18.6892 8.09545C18.6444 8.09545 18.607 8.11052 18.5768 8.14066C18.5467 8.1708 18.5316 8.20962 18.5316 8.25711C18.5316 8.3046 18.5467 8.34342 18.5768 8.37356ZM19.8165 8.24889C19.8777 8.28177 19.9083 8.33337 19.9083 8.4037C19.9083 8.46215 19.8877 8.50965 19.8466 8.54618C19.8064 8.5818 19.7493 8.59961 19.6754 8.59961H19.3055V7.91461H19.648C19.7219 7.91461 19.779 7.93288 19.8192 7.96941C19.8603 8.00503 19.8809 8.05207 19.8809 8.11052C19.8809 8.1708 19.8594 8.21692 19.8165 8.24889ZM19.626 8.07901H19.4973V8.17491H19.626C19.6662 8.17491 19.6863 8.15938 19.6863 8.12833C19.6863 8.09545 19.6662 8.07901 19.626 8.07901ZM19.648 8.42973C19.6881 8.42973 19.7082 8.41283 19.7082 8.37904C19.7082 8.34707 19.6881 8.33109 19.648 8.33109H19.4973V8.42973H19.648ZM20.6448 7.91461H20.8503V8.59961H20.6448V8.53522C20.5964 8.59093 20.5284 8.61879 20.4407 8.61879C20.3503 8.61879 20.2731 8.58408 20.2092 8.51467C20.1452 8.44434 20.1133 8.35849 20.1133 8.25711C20.1133 8.15573 20.1452 8.07033 20.2092 8.00092C20.2731 7.93059 20.3503 7.89543 20.4407 7.89543C20.5284 7.89543 20.5964 7.92329 20.6448 7.979V7.91461ZM20.364 8.37904C20.3941 8.40918 20.4334 8.42425 20.4818 8.42425C20.5302 8.42425 20.5695 8.40918 20.5996 8.37904C20.6298 8.3489 20.6448 8.30826 20.6448 8.25711C20.6448 8.20596 20.6298 8.16532 20.5996 8.13518C20.5695 8.10504 20.5302 8.08997 20.4818 8.08997C20.4334 8.08997 20.3941 8.10504 20.364 8.13518C20.3338 8.16532 20.3188 8.20596 20.3188 8.25711C20.3188 8.30826 20.3338 8.3489 20.364 8.37904ZM21.5477 7.89543C21.6381 7.89543 21.7153 7.93059 21.7793 8.00092C21.8432 8.07033 21.8752 8.15573 21.8752 8.25711C21.8752 8.35849 21.8432 8.44434 21.7793 8.51467C21.7153 8.58408 21.6381 8.61879 21.5477 8.61879C21.46 8.61879 21.392 8.59093 21.3436 8.53522V8.87361H21.1381V7.91461H21.3436V7.979C21.392 7.92329 21.46 7.89543 21.5477 7.89543ZM21.3888 8.37904C21.4199 8.40918 21.4591 8.42425 21.5066 8.42425C21.5541 8.42425 21.5929 8.40918 21.6231 8.37904C21.6541 8.3489 21.6697 8.30826 21.6697 8.25711C21.6697 8.20596 21.6541 8.16532 21.6231 8.13518C21.5929 8.10504 21.5541 8.08997 21.5066 8.08997C21.4591 8.08997 21.4199 8.10504 21.3888 8.13518C21.3587 8.16532 21.3436 8.20596 21.3436 8.25711C21.3436 8.30826 21.3587 8.3489 21.3888 8.37904ZM22.4493 8.12011C22.5315 8.12011 22.5968 8.14203 22.6452 8.18587C22.6936 8.22971 22.7178 8.28771 22.7178 8.35986C22.7178 8.43201 22.6936 8.49001 22.6452 8.53385C22.5968 8.57769 22.5315 8.59961 22.4493 8.59961H22.1287V7.91461H22.3342V8.12011H22.4493ZM22.7863 7.91461H22.9918V8.59961H22.7863V7.91461ZM22.4506 8.42151C22.4707 8.42151 22.4867 8.41603 22.4986 8.40507C22.5114 8.3932 22.5178 8.37813 22.5178 8.35986C22.5178 8.34159 22.5114 8.32698 22.4986 8.31602C22.4867 8.30415 22.4707 8.29821 22.4506 8.29821H22.3342V8.42151H22.4506ZM24.3895 8.40781H24.4785V8.78319H24.2785V8.59961H23.8977V8.78319H23.6976V8.40781H23.7826C23.8191 8.35118 23.8374 8.27218 23.8374 8.1708V7.91461H24.3895V8.40781ZM23.9977 8.40781H24.1895V8.09819H24.0374V8.1708C24.0374 8.26579 24.0242 8.34479 23.9977 8.40781ZM25.3137 7.91461V8.59961H25.1082V8.11189H24.9602V8.31602C24.9602 8.42014 24.9342 8.4964 24.8822 8.54481C24.831 8.59322 24.7557 8.61148 24.6561 8.59961V8.40781C24.6881 8.41694 24.7123 8.41238 24.7287 8.39411C24.7461 8.37584 24.7547 8.34525 24.7547 8.30232V7.91461H25.3137ZM26.1698 7.91461V8.59961H25.9698V8.40233H25.9274L25.7862 8.59961H25.5533L25.7136 8.37356C25.6725 8.35255 25.6401 8.32241 25.6164 8.28314C25.5926 8.24387 25.5807 8.20231 25.5807 8.15847C25.5807 8.09362 25.6036 8.037 25.6492 7.98859C25.6949 7.93927 25.757 7.91461 25.8356 7.91461H26.1698ZM25.8534 8.09545C25.8315 8.09545 25.8136 8.10184 25.7999 8.11463C25.7872 8.1265 25.7808 8.1434 25.7808 8.16532C25.7808 8.18633 25.7872 8.20277 25.7999 8.21464C25.8136 8.22651 25.8315 8.23245 25.8534 8.23245H25.9698V8.09545H25.8534ZM27.5678 8.40781H27.6568V8.78319H27.4568V8.59961H27.076V8.78319H26.8759V8.40781H26.9609C26.9974 8.35118 27.0157 8.27218 27.0157 8.1708V7.91461H27.5678V8.40781ZM27.176 8.40781H27.3678V8.09819H27.2157V8.1708C27.2157 8.26579 27.2025 8.34479 27.176 8.40781ZM28.4557 8.51467C28.3853 8.58408 28.2995 8.61879 28.1981 8.61879C28.0967 8.61879 28.0109 8.58408 27.9405 8.51467C27.8702 8.44434 27.835 8.35849 27.835 8.25711C27.835 8.15573 27.8702 8.07033 27.9405 8.00092C28.0109 7.93059 28.0967 7.89543 28.1981 7.89543C28.2995 7.89543 28.3853 7.93059 28.4557 8.00092C28.526 8.07033 28.5611 8.15573 28.5611 8.25711C28.5611 8.35849 28.526 8.44434 28.4557 8.51467ZM28.0858 8.37356C28.1159 8.4037 28.1533 8.41877 28.1981 8.41877C28.2428 8.41877 28.2803 8.4037 28.3104 8.37356C28.3406 8.34342 28.3556 8.3046 28.3556 8.25711C28.3556 8.20962 28.3406 8.1708 28.3104 8.14066C28.2803 8.11052 28.2428 8.09545 28.1981 8.09545C28.1533 8.09545 28.1159 8.11052 28.0858 8.14066C28.0556 8.1708 28.0405 8.20962 28.0405 8.25711C28.0405 8.3046 28.0556 8.34342 28.0858 8.37356ZM29.5405 7.91461V8.59961H29.3432V8.24615L29.1898 8.48453H29.1651L29.0117 8.24615V8.59961H28.8144V7.91461H29.0117L29.1774 8.17354L29.3432 7.91461H29.5405ZM30.325 7.91461H30.5305V8.59961H30.325V8.53522C30.2766 8.59093 30.2086 8.61879 30.1209 8.61879C30.0305 8.61879 29.9533 8.58408 29.8893 8.51467C29.8254 8.44434 29.7934 8.35849 29.7934 8.25711C29.7934 8.15573 29.8254 8.07033 29.8893 8.00092C29.9533 7.93059 30.0305 7.89543 30.1209 7.89543C30.2086 7.89543 30.2766 7.92329 30.325 7.979V7.91461ZM30.0442 8.37904C30.0743 8.40918 30.1136 8.42425 30.162 8.42425C30.2104 8.42425 30.2497 8.40918 30.2798 8.37904C30.3099 8.3489 30.325 8.30826 30.325 8.25711C30.325 8.20596 30.3099 8.16532 30.2798 8.13518C30.2497 8.10504 30.2104 8.08997 30.162 8.08997C30.1136 8.08997 30.0743 8.10504 30.0442 8.13518C30.014 8.16532 29.9989 8.20596 29.9989 8.25711C29.9989 8.30826 30.014 8.3489 30.0442 8.37904ZM31.6266 8.61879C31.5224 8.61879 31.4357 8.58408 31.3663 8.51467C31.2978 8.44526 31.2635 8.3594 31.2635 8.25711C31.2635 8.15482 31.2978 8.06896 31.3663 7.99955C31.4357 7.93014 31.5224 7.89543 31.6266 7.89543C31.6923 7.89543 31.7526 7.91141 31.8074 7.94338C31.8631 7.97535 31.906 8.01782 31.9362 8.07079L31.7567 8.17491C31.7321 8.12376 31.6878 8.09819 31.6238 8.09819C31.5791 8.09819 31.5421 8.11326 31.5129 8.1434C31.4836 8.17263 31.469 8.21053 31.469 8.25711C31.469 8.30369 31.4836 8.34205 31.5129 8.37219C31.5421 8.40142 31.5791 8.41603 31.6238 8.41603C31.6887 8.41603 31.733 8.39046 31.7567 8.33931L31.9362 8.44206C31.906 8.49595 31.8636 8.53887 31.8088 8.57084C31.754 8.60281 31.6932 8.61879 31.6266 8.61879ZM33.2723 8.40781H33.3613V8.78319H33.1613V8.59961H32.7805V8.78319H32.5804V8.40781H32.6654C32.7019 8.35118 32.7202 8.27218 32.7202 8.1708V7.91461H33.2723V8.40781ZM32.8805 8.40781H33.0723V8.09819H32.9202V8.1708C32.9202 8.26579 32.9069 8.34479 32.8805 8.40781ZM34.1601 8.51467C34.0898 8.58408 34.004 8.61879 33.9026 8.61879C33.8012 8.61879 33.7154 8.58408 33.645 8.51467C33.5747 8.44434 33.5395 8.35849 33.5395 8.25711C33.5395 8.15573 33.5747 8.07033 33.645 8.00092C33.7154 7.93059 33.8012 7.89543 33.9026 7.89543C34.004 7.89543 34.0898 7.93059 34.1601 8.00092C34.2305 8.07033 34.2656 8.15573 34.2656 8.25711C34.2656 8.35849 34.2305 8.44434 34.1601 8.51467ZM33.7902 8.37356C33.8204 8.4037 33.8578 8.41877 33.9026 8.41877C33.9473 8.41877 33.9848 8.4037 34.0149 8.37356C34.0451 8.34342 34.0601 8.3046 34.0601 8.25711C34.0601 8.20962 34.0451 8.1708 34.0149 8.14066C33.9848 8.11052 33.9473 8.09545 33.9026 8.09545C33.8578 8.09545 33.8204 8.11052 33.7902 8.14066C33.7601 8.1708 33.745 8.20962 33.745 8.25711C33.745 8.3046 33.7601 8.34342 33.7902 8.37356ZM34.8477 8.61879C34.7436 8.61879 34.6568 8.58408 34.5874 8.51467C34.5189 8.44526 34.4846 8.3594 34.4846 8.25711C34.4846 8.15482 34.5189 8.06896 34.5874 7.99955C34.6568 7.93014 34.7436 7.89543 34.8477 7.89543C34.9134 7.89543 34.9737 7.91141 35.0285 7.94338C35.0842 7.97535 35.1272 8.01782 35.1573 8.07079L34.9778 8.17491C34.9532 8.12376 34.9089 8.09819 34.8449 8.09819C34.8002 8.09819 34.7632 8.11326 34.734 8.1434C34.7047 8.17263 34.6901 8.21053 34.6901 8.25711C34.6901 8.30369 34.7047 8.34205 34.734 8.37219C34.7632 8.40142 34.8002 8.41603 34.8449 8.41603C34.9098 8.41603 34.9541 8.39046 34.9778 8.33931L35.1573 8.44206C35.1272 8.49595 35.0847 8.53887 35.0299 8.57084C34.9751 8.60281 34.9143 8.61879 34.8477 8.61879ZM35.9318 7.91461V8.11189H35.7277V8.59961H35.5222V8.11189H35.3153V7.91461H35.9318ZM36.6281 7.91461H36.8336V8.59961H36.6281V8.53522C36.5797 8.59093 36.5116 8.61879 36.4239 8.61879C36.3335 8.61879 36.2563 8.58408 36.1924 8.51467C36.1285 8.44434 36.0965 8.35849 36.0965 8.25711C36.0965 8.15573 36.1285 8.07033 36.1924 8.00092C36.2563 7.93059 36.3335 7.89543 36.4239 7.89543C36.5116 7.89543 36.5797 7.92329 36.6281 7.979V7.91461ZM36.3472 8.37904C36.3774 8.40918 36.4166 8.42425 36.465 8.42425C36.5135 8.42425 36.5527 8.40918 36.5829 8.37904C36.613 8.3489 36.6281 8.30826 36.6281 8.25711C36.6281 8.20596 36.613 8.16532 36.5829 8.13518C36.5527 8.10504 36.5135 8.08997 36.465 8.08997C36.4166 8.08997 36.3774 8.10504 36.3472 8.13518C36.3171 8.16532 36.302 8.20596 36.302 8.25711C36.302 8.30826 36.3171 8.3489 36.3472 8.37904ZM37.6324 8.24889C37.6935 8.28177 37.7241 8.33337 37.7241 8.4037C37.7241 8.46215 37.7036 8.50965 37.6625 8.54618C37.6223 8.5818 37.5652 8.59961 37.4912 8.59961H37.1213V7.91461H37.4638C37.5378 7.91461 37.5949 7.93288 37.6351 7.96941C37.6762 8.00503 37.6967 8.05207 37.6967 8.11052C37.6967 8.1708 37.6753 8.21692 37.6324 8.24889ZM37.4419 8.07901H37.3131V8.17491H37.4419C37.4821 8.17491 37.5022 8.15938 37.5022 8.12833C37.5022 8.09545 37.4821 8.07901 37.4419 8.07901ZM37.4638 8.42973C37.504 8.42973 37.5241 8.41283 37.5241 8.37904C37.5241 8.34707 37.504 8.33109 37.4638 8.33109H37.3131V8.42973H37.4638ZM38.621 8.59961H38.3881L38.1689 8.29684V8.59961H37.9634V7.91461H38.1689V8.21464L38.3744 7.91461H38.6142L38.3648 8.25711L38.621 8.59961ZM39.3785 8.51467C39.3081 8.58408 39.2223 8.61879 39.1209 8.61879C39.0195 8.61879 38.9337 8.58408 38.8633 8.51467C38.793 8.44434 38.7578 8.35849 38.7578 8.25711C38.7578 8.15573 38.793 8.07033 38.8633 8.00092C38.9337 7.93059 39.0195 7.89543 39.1209 7.89543C39.2223 7.89543 39.3081 7.93059 39.3785 8.00092C39.4488 8.07033 39.4839 8.15573 39.4839 8.25711C39.4839 8.35849 39.4488 8.44434 39.3785 8.51467ZM39.0086 8.37356C39.0387 8.4037 39.0761 8.41877 39.1209 8.41877C39.1657 8.41877 39.2031 8.4037 39.2332 8.37356C39.2634 8.34342 39.2784 8.3046 39.2784 8.25711C39.2784 8.20962 39.2634 8.1708 39.2332 8.14066C39.2031 8.11052 39.1657 8.09545 39.1209 8.09545C39.0761 8.09545 39.0387 8.11052 39.0086 8.14066C38.9784 8.1708 38.9633 8.20962 38.9633 8.25711C38.9633 8.3046 38.9784 8.34342 39.0086 8.37356ZM39.8536 7.83378V7.65568H40.2646V7.83378H39.8536ZM40.2304 7.91461H40.3811V8.59961H40.1811V8.25711L39.8879 8.59961H39.7372V7.91461H39.9372V8.25711L40.2304 7.91461Z" fill="black"/>
<line x1="12" y1="8.19883" x2="17" y2="8.19883" stroke="black" stroke-width="0.2"/>
<line x1="41.25" y1="8.19883" x2="46.25" y2="8.19883" stroke="black" stroke-width="0.2"/>
</svg>
