<svg width="140" height="34" viewBox="0 0 140 34" fill="none" xmlns="http://www.w3.org/2000/svg">
<path d="M14.208 10.04L13.44 6.752C14.016 6.464 14.592 6.256 15.168 6.128C15.744 5.984 16.32 5.912 16.896 5.912C17.648 5.912 18.304 6.032 18.864 6.272C19.44 6.512 19.928 6.848 20.328 7.28C20.728 7.696 21.024 8.2 21.216 8.792C21.424 9.384 21.528 10.032 21.528 10.736V18.584C21.528 19.32 21.424 19.976 21.216 20.552C21.008 21.128 20.704 21.624 20.304 22.04C19.904 22.44 19.408 22.752 18.816 22.976C18.24 23.184 17.576 23.288 16.824 23.288C16.184 23.288 15.536 23.208 14.88 23.048C14.24 22.904 13.568 22.704 12.864 22.448L13.2 18.992C13.296 19.04 13.464 19.104 13.704 19.184C13.96 19.264 14.248 19.336 14.568 19.4C14.904 19.448 15.232 19.472 15.552 19.472C15.84 19.472 16.088 19.448 16.296 19.4C16.504 19.336 16.672 19.248 16.8 19.136C16.944 19.008 17.048 18.848 17.112 18.656C17.176 18.448 17.208 18.208 17.208 17.936V16.304H15.528L14.664 12.488H17.208V11.408C17.208 11.088 17.16 10.832 17.064 10.64C16.984 10.432 16.856 10.272 16.68 10.16C16.504 10.048 16.296 9.968 16.056 9.92C15.816 9.872 15.552 9.848 15.264 9.848C15.104 9.848 14.944 9.864 14.784 9.896C14.624 9.912 14.432 9.96 14.208 10.04ZM28.5062 11.36L30.1142 6.2H34.8902L31.5542 13.76L35.0582 23H30.2822L28.8182 17.816L28.5062 18.464V23H24.1862V6.2H28.5062V11.36ZM37.4012 10.808C37.4012 9.176 37.8572 7.936 38.7692 7.088C39.6812 6.224 40.9292 5.792 42.5132 5.792C44.0972 5.792 45.3292 6.24 46.2092 7.136C47.0892 8.032 47.5292 9.264 47.5292 10.832V18.536C47.5292 19.512 47.3212 20.36 46.9052 21.08C46.4892 21.784 45.8972 22.328 45.1292 22.712C44.3772 23.08 43.4972 23.264 42.4892 23.264C41.5452 23.264 40.6892 23.088 39.9212 22.736C39.1532 22.384 38.5372 21.856 38.0732 21.152C37.6252 20.448 37.4012 19.576 37.4012 18.536V10.808ZM41.7452 18.128C41.7452 18.432 41.7692 18.68 41.8172 18.872C41.8812 19.064 41.9692 19.208 42.0812 19.304C42.1932 19.384 42.3292 19.424 42.4892 19.424C42.6492 19.424 42.7852 19.376 42.8972 19.28C43.0092 19.184 43.0892 19.04 43.1372 18.848C43.2012 18.656 43.2332 18.416 43.2332 18.128V11.024C43.2332 10.688 43.2012 10.424 43.1372 10.232C43.0732 10.04 42.9852 9.912 42.8732 9.848C42.7612 9.768 42.6252 9.728 42.4652 9.728C42.3052 9.728 42.1692 9.768 42.0572 9.848C41.9612 9.912 41.8812 10.04 41.8172 10.232C41.7692 10.424 41.7452 10.696 41.7452 11.048V18.128ZM56.94 10.496L58.908 6.2H63.564L59.292 14.264L63.9 23H59.388L56.94 18.224L54.516 23H50.004L54.588 14.264L50.292 6.2H54.9L56.94 10.496ZM66.2978 10.808C66.2978 9.176 66.7538 7.936 67.6658 7.088C68.5778 6.224 69.8258 5.792 71.4098 5.792C72.9938 5.792 74.2258 6.24 75.1058 7.136C75.9858 8.032 76.4258 9.264 76.4258 10.832V18.536C76.4258 19.512 76.2178 20.36 75.8018 21.08C75.3858 21.784 74.7938 22.328 74.0258 22.712C73.2738 23.08 72.3938 23.264 71.3858 23.264C70.4418 23.264 69.5858 23.088 68.8178 22.736C68.0498 22.384 67.4338 21.856 66.9698 21.152C66.5218 20.448 66.2978 19.576 66.2978 18.536V10.808ZM70.6418 18.128C70.6418 18.432 70.6658 18.68 70.7138 18.872C70.7778 19.064 70.8658 19.208 70.9778 19.304C71.0898 19.384 71.2258 19.424 71.3858 19.424C71.5458 19.424 71.6818 19.376 71.7938 19.28C71.9058 19.184 71.9858 19.04 72.0338 18.848C72.0978 18.656 72.1298 18.416 72.1298 18.128V11.024C72.1298 10.688 72.0978 10.424 72.0338 10.232C71.9698 10.04 71.8818 9.912 71.7698 9.848C71.6578 9.768 71.5218 9.728 71.3618 9.728C71.2018 9.728 71.0658 9.768 70.9538 9.848C70.8578 9.912 70.7778 10.04 70.7138 10.232C70.6658 10.424 70.6418 10.696 70.6418 11.048V18.128ZM80.4606 12.464H82.0686C82.3886 12.464 82.6686 12.424 82.9086 12.344C83.1486 12.264 83.3326 12.144 83.4606 11.984C83.6046 11.808 83.6766 11.584 83.6766 11.312C83.6766 11.072 83.6446 10.864 83.5806 10.688C83.5166 10.496 83.4206 10.336 83.2926 10.208C83.1646 10.08 83.0126 9.984 82.8366 9.92C82.6606 9.856 82.4526 9.824 82.2126 9.824C82.0686 9.824 81.8926 9.84 81.6846 9.872C81.4766 9.888 81.2766 9.92 81.0846 9.968C80.8926 10.016 80.7326 10.072 80.6046 10.136L79.5726 6.896C79.9566 6.704 80.3646 6.536 80.7966 6.392C81.2446 6.248 81.6846 6.144 82.1166 6.08C82.5486 6 82.9566 5.96 83.3406 5.96C84.2206 5.96 85.0046 6.144 85.6926 6.512C86.3966 6.864 86.9486 7.368 87.3486 8.024C87.7486 8.664 87.9486 9.408 87.9486 10.256C87.9486 10.768 87.9086 11.24 87.8286 11.672C87.7486 12.104 87.6286 12.488 87.4686 12.824C87.3086 13.16 87.1086 13.464 86.8686 13.736C87.4126 14.104 87.8446 14.64 88.1646 15.344C88.4846 16.048 88.6446 16.92 88.6446 17.96C88.6446 18.632 88.5326 19.288 88.3086 19.928C88.0846 20.552 87.7326 21.12 87.2526 21.632C86.7726 22.128 86.1406 22.528 85.3566 22.832C84.5726 23.136 83.6206 23.288 82.5006 23.288C82.0206 23.288 81.5486 23.248 81.0846 23.168C80.6206 23.088 80.2046 23 79.8366 22.904C79.4686 22.792 79.1726 22.696 78.9486 22.616C78.7406 22.536 78.6366 22.496 78.6366 22.496L79.0206 18.848C79.0206 18.848 79.1086 18.88 79.2846 18.944C79.4606 19.008 79.6926 19.088 79.9806 19.184C80.2846 19.264 80.6206 19.336 80.9886 19.4C81.3566 19.464 81.7246 19.496 82.0926 19.496C82.6366 19.496 83.0606 19.432 83.3646 19.304C83.6846 19.176 83.9086 18.984 84.0366 18.728C84.1806 18.456 84.2526 18.112 84.2526 17.696C84.2526 17.488 84.2126 17.304 84.1326 17.144C84.0526 16.968 83.9326 16.816 83.7726 16.688C83.6126 16.56 83.4126 16.464 83.1726 16.4C82.9486 16.32 82.6926 16.28 82.4046 16.28H81.5646L80.4606 12.464Z" fill="#CF4E32"/>
<path d="M91.3071 10.064V6.2H99.3231V10.064H91.3071ZM97.4031 13.136C97.8511 13.136 98.2671 13.208 98.6511 13.352C99.0351 13.48 99.3711 13.688 99.6591 13.976C99.9471 14.264 100.171 14.632 100.331 15.08C100.491 15.528 100.571 16.056 100.571 16.664V19.256C100.571 20.024 100.451 20.664 100.211 21.176C99.9711 21.688 99.6511 22.104 99.2511 22.424C98.8511 22.728 98.4191 22.944 97.9551 23.072C97.4911 23.2 97.0351 23.264 96.5871 23.264C96.0751 23.264 95.5631 23.256 95.0511 23.24C94.5391 23.224 94.0591 23.2 93.6111 23.168C93.1631 23.136 92.7631 23.104 92.4111 23.072C92.0751 23.056 91.8031 23.04 91.5951 23.024C91.4031 23.008 91.3071 23 91.3071 23V6.2H95.6511V13.136H97.4031ZM96.3231 19.04V17.336C96.3231 17.24 96.3071 17.168 96.2751 17.12C96.2591 17.056 96.2271 17.008 96.1791 16.976C96.1471 16.944 96.1071 16.92 96.0591 16.904C96.0111 16.888 95.9631 16.88 95.9151 16.88H95.6511V19.448C95.6511 19.448 95.6591 19.448 95.6751 19.448C95.6911 19.448 95.7071 19.456 95.7231 19.472C95.7391 19.472 95.7551 19.48 95.7711 19.496C95.8031 19.496 95.8351 19.496 95.8671 19.496C95.8991 19.496 95.9231 19.496 95.9391 19.496C96.0031 19.496 96.0591 19.488 96.1071 19.472C96.1551 19.44 96.1951 19.408 96.2271 19.376C96.2591 19.344 96.2831 19.296 96.2991 19.232C96.3151 19.168 96.3231 19.104 96.3231 19.04ZM112.475 9.752V6.2H118.427V23H114.107V9.8L112.475 9.752ZM109.355 13.136C109.803 13.136 110.219 13.208 110.603 13.352C110.987 13.48 111.323 13.688 111.611 13.976C111.899 14.264 112.123 14.632 112.283 15.08C112.443 15.528 112.523 16.056 112.523 16.664V19.256C112.523 20.024 112.403 20.664 112.163 21.176C111.923 21.688 111.603 22.104 111.203 22.424C110.803 22.728 110.371 22.944 109.907 23.072C109.443 23.2 108.987 23.264 108.539 23.264C108.027 23.264 107.515 23.256 107.003 23.24C106.491 23.224 106.011 23.2 105.563 23.168C105.115 23.136 104.715 23.104 104.363 23.072C104.027 23.056 103.755 23.04 103.547 23.024C103.355 23.008 103.259 23 103.259 23V6.2H107.603V13.136H109.355ZM108.275 19.04V17.336C108.275 17.24 108.259 17.168 108.227 17.12C108.211 17.056 108.179 17.008 108.131 16.976C108.099 16.944 108.059 16.92 108.011 16.904C107.963 16.888 107.915 16.88 107.867 16.88H107.603V19.448C107.603 19.448 107.611 19.448 107.627 19.448C107.643 19.448 107.659 19.456 107.675 19.472C107.691 19.472 107.707 19.48 107.723 19.496C107.755 19.496 107.787 19.496 107.819 19.496C107.851 19.496 107.875 19.496 107.891 19.496C107.955 19.496 108.011 19.488 108.059 19.472C108.107 19.44 108.147 19.408 108.179 19.376C108.211 19.344 108.235 19.296 108.251 19.232C108.267 19.168 108.275 19.104 108.275 19.04ZM127.663 10.064V23H123.391V10.064H120.703V6.2H130.399V10.064H127.663Z" fill="#442005"/>
<path d="M14.6351 29.67C14.6351 29.85 14.6551 30.0133 14.6951 30.16C14.7351 30.3067 14.8017 30.4333 14.8951 30.54C14.9951 30.6467 15.1351 30.73 15.3151 30.79L15.1851 31.13C14.9984 31.0767 14.8417 31.0067 14.7151 30.92C14.5884 30.8267 14.4851 30.7233 14.4051 30.61C14.3317 30.49 14.2784 30.3533 14.2451 30.2C14.2117 30.04 14.1951 29.8633 14.1951 29.67V26.42H12.9151V26H15.9551V26.42H14.6351V29.67ZM20.1616 29.15C20.1616 29.7367 20.0116 30.21 19.7116 30.57C19.4116 30.9233 18.9583 31.1 18.3516 31.1C17.9316 31.1 17.5816 31.0133 17.3016 30.84C17.0216 30.66 16.8116 30.4233 16.6716 30.13C16.5316 29.8367 16.4616 29.51 16.4616 29.15V27.84C16.4616 27.4133 16.535 27.0567 16.6816 26.77C16.8283 26.4767 17.0416 26.2567 17.3216 26.11C17.6083 25.9567 17.9483 25.88 18.3416 25.88C18.935 25.88 19.385 26.0533 19.6916 26.4C20.005 26.7467 20.1616 27.2267 20.1616 27.84V29.15ZM19.7316 27.83C19.7316 27.4833 19.6783 27.1967 19.5716 26.97C19.4716 26.7367 19.3183 26.5633 19.1116 26.45C18.9116 26.33 18.6583 26.27 18.3516 26.27C18.0316 26.27 17.765 26.33 17.5516 26.45C17.3383 26.57 17.175 26.7467 17.0616 26.98C16.955 27.2067 16.9016 27.49 16.9016 27.83V29.22C16.9016 29.5067 16.9583 29.7633 17.0716 29.99C17.185 30.21 17.3483 30.3867 17.5616 30.52C17.7816 30.6467 18.045 30.71 18.3516 30.71C18.665 30.71 18.9216 30.6467 19.1216 30.52C19.3283 30.3933 19.4816 30.22 19.5816 30C19.6816 29.7733 19.7316 29.5133 19.7316 29.22V27.83ZM23.7188 28.16C24.0121 28.26 24.2388 28.4333 24.3988 28.68C24.5654 28.9267 24.6488 29.2 24.6488 29.5C24.6488 29.7667 24.5854 30.0267 24.4588 30.28C24.3388 30.5267 24.1454 30.7267 23.8788 30.88C23.6121 31.0333 23.2621 31.11 22.8288 31.11C22.6554 31.11 22.4754 31.1067 22.2888 31.1C22.1021 31.0933 21.9221 31.0833 21.7488 31.07C21.5821 31.0567 21.4288 31.0433 21.2888 31.03C21.1488 31.0233 21.0354 31.0167 20.9488 31.01C20.8688 31.0033 20.8254 31 20.8188 31V25.99C20.8188 25.99 20.8721 25.9867 20.9788 25.98C21.0854 25.9667 21.2321 25.9533 21.4188 25.94C21.6121 25.9267 21.8254 25.9167 22.0588 25.91C22.2988 25.8967 22.5488 25.89 22.8088 25.89C23.0754 25.89 23.3054 25.9233 23.4988 25.99C23.6988 26.0567 23.8621 26.15 23.9888 26.27C24.1154 26.39 24.2088 26.5267 24.2688 26.68C24.3354 26.8267 24.3688 26.9867 24.3688 27.16C24.3688 27.3533 24.3088 27.5467 24.1888 27.74C24.0754 27.9333 23.9188 28.0733 23.7188 28.16ZM22.7588 26.28C22.5988 26.28 22.4354 26.2833 22.2688 26.29C22.1088 26.2967 21.9554 26.3033 21.8088 26.31C21.6688 26.3167 21.5488 26.3233 21.4488 26.33C21.3488 26.3367 21.2854 26.3433 21.2588 26.35V27.99H23.0387C23.1988 27.99 23.3454 27.95 23.4788 27.87C23.6121 27.79 23.7188 27.6867 23.7988 27.56C23.8788 27.4267 23.9188 27.2867 23.9188 27.14C23.9188 26.9733 23.8854 26.8333 23.8188 26.72C23.7521 26.6067 23.6621 26.52 23.5488 26.46C23.4354 26.3933 23.3088 26.3467 23.1688 26.32C23.0354 26.2933 22.8988 26.28 22.7588 26.28ZM22.7688 30.69C23.0688 30.69 23.3254 30.64 23.5388 30.54C23.7521 30.44 23.9188 30.3033 24.0388 30.13C24.1588 29.95 24.2188 29.75 24.2188 29.53C24.2188 29.3367 24.1821 29.1733 24.1088 29.04C24.0421 28.9 23.9521 28.7833 23.8388 28.69C23.7254 28.5967 23.5954 28.5267 23.4488 28.48C23.3088 28.4333 23.1654 28.41 23.0188 28.41H21.2588V30.63C21.2854 30.63 21.3421 30.6333 21.4288 30.64C21.5221 30.6467 21.6354 30.6567 21.7688 30.67C21.9088 30.6767 22.0654 30.6833 22.2388 30.69C22.4121 30.69 22.5888 30.69 22.7688 30.69ZM28.9812 26.13C28.9812 26.13 28.9678 26.2067 28.9412 26.36C28.9212 26.5067 28.9112 26.6833 28.9112 26.89V30.96C28.9178 30.96 28.8778 30.9633 28.7912 30.97C28.7045 30.97 28.5912 30.9767 28.4512 30.99C28.3178 30.9967 28.1712 31.0033 28.0112 31.01C27.8512 31.0167 27.6945 31.0233 27.5412 31.03C27.3878 31.0367 27.2578 31.04 27.1512 31.04C26.8778 31.0467 26.6245 31.0233 26.3912 30.97C26.1645 30.91 25.9645 30.8133 25.7912 30.68C25.6178 30.5467 25.4845 30.37 25.3912 30.15C25.3045 29.93 25.2612 29.6633 25.2612 29.35V27.46C25.2612 27.16 25.3012 26.91 25.3812 26.71C25.4678 26.51 25.5812 26.3533 25.7212 26.24C25.8678 26.1267 26.0312 26.0467 26.2112 26C26.3912 25.9467 26.5778 25.92 26.7712 25.92C26.9578 25.92 27.1512 25.94 27.3512 25.98C27.5512 26.02 27.7478 26.0767 27.9412 26.15C28.1412 26.2167 28.3345 26.2933 28.5212 26.38C28.5212 26.3533 28.5312 26.2967 28.5512 26.21C28.5778 26.1167 28.6045 26.04 28.6312 25.98L28.9812 26.13ZM25.6912 29.37C25.6912 29.6433 25.7378 29.8767 25.8312 30.07C25.9312 30.2567 26.0812 30.4 26.2812 30.5C26.4812 30.6 26.7245 30.65 27.0112 30.65C27.1912 30.65 27.3678 30.6467 27.5412 30.64C27.7145 30.6267 27.8712 30.6167 28.0112 30.61C28.1512 30.6033 28.2612 30.5967 28.3412 30.59C28.4278 30.5833 28.4712 30.58 28.4712 30.58V26.79C28.3112 26.71 28.1512 26.6433 27.9912 26.59C27.8378 26.53 27.6878 26.4833 27.5412 26.45C27.3945 26.41 27.2512 26.38 27.1112 26.36C26.9778 26.34 26.8545 26.33 26.7412 26.33C26.6145 26.33 26.4878 26.3467 26.3612 26.38C26.2345 26.4133 26.1212 26.4733 26.0212 26.56C25.9212 26.64 25.8412 26.7567 25.7812 26.91C25.7212 27.0567 25.6912 27.25 25.6912 27.49V29.37ZM33.4641 29.29C33.4641 29.6967 33.3974 30.0433 33.2641 30.33C33.1374 30.61 32.9474 30.8233 32.6941 30.97C32.4407 31.11 32.1274 31.18 31.7541 31.18C31.5941 31.18 31.4341 31.16 31.2741 31.12C31.1207 31.0867 30.9741 31.0333 30.8341 30.96C30.7007 30.88 30.5774 30.7933 30.4641 30.7C30.3574 30.6 30.2741 30.49 30.2141 30.37V33.12L29.7641 32.94V27.89C29.7641 27.2567 29.9274 26.77 30.2541 26.43C30.5874 26.09 31.0474 25.92 31.6341 25.92C32.2274 25.92 32.6807 26.0967 32.9941 26.45C33.3074 26.7967 33.4641 27.2767 33.4641 27.89V29.29ZM33.0241 27.87C33.0241 27.5233 32.9707 27.2367 32.8641 27.01C32.7574 26.7833 32.6007 26.6133 32.3941 26.5C32.1941 26.3867 31.9474 26.33 31.6541 26.33C31.3341 26.33 31.0674 26.39 30.8541 26.51C30.6407 26.6233 30.4807 26.7967 30.3741 27.03C30.2674 27.2567 30.2141 27.5367 30.2141 27.87V29.4C30.2141 29.6267 30.2574 29.8267 30.3441 30C30.4374 30.1733 30.5574 30.32 30.7041 30.44C30.8507 30.5533 31.0174 30.64 31.2041 30.7C31.3907 30.7533 31.5807 30.7767 31.7741 30.77C32.0407 30.7633 32.2674 30.7067 32.4541 30.6C32.6407 30.4867 32.7807 30.33 32.8741 30.13C32.9741 29.9233 33.0241 29.6667 33.0241 29.36V27.87ZM38.6684 31V26H39.1084V31H38.6684ZM36.5184 27.97C36.7984 27.97 37.055 28.03 37.2884 28.15C37.5217 28.27 37.7084 28.4433 37.8484 28.67C37.9884 28.89 38.0584 29.1567 38.0584 29.47C38.0584 29.7367 37.995 29.9967 37.8684 30.25C37.7484 30.4967 37.555 30.6967 37.2884 30.85C37.0217 31.0033 36.6717 31.08 36.2384 31.08C36.0717 31.08 35.8984 31.0767 35.7184 31.07C35.5384 31.0633 35.365 31.0533 35.1984 31.04C35.0317 31.0333 34.8784 31.0233 34.7384 31.01C34.605 31.0033 34.4917 30.9967 34.3984 30.99C34.305 30.9767 34.245 30.97 34.2184 30.97V26H34.6584V27.97H36.5184ZM36.1784 30.66C36.4784 30.66 36.735 30.61 36.9484 30.51C37.1617 30.41 37.3284 30.2733 37.4484 30.1C37.5684 29.92 37.6284 29.72 37.6284 29.5C37.6284 29.3067 37.5984 29.14 37.5384 29C37.4784 28.86 37.395 28.7467 37.2884 28.66C37.1884 28.5667 37.0717 28.5 36.9384 28.46C36.8117 28.42 36.6784 28.4 36.5384 28.4H34.6584V30.6C34.685 30.6067 34.7417 30.6133 34.8284 30.62C34.9217 30.62 35.0384 30.6267 35.1784 30.64C35.3184 30.6467 35.475 30.6533 35.6484 30.66C35.8217 30.66 35.9984 30.66 36.1784 30.66ZM46.744 30.56H47.304V31.99H46.944L46.864 31H42.864L42.784 31.99H42.434V30.56H42.954L43.934 27.32C43.9673 27.2133 44.0107 27.0867 44.064 26.94C44.124 26.7867 44.2073 26.64 44.314 26.5C44.4273 26.36 44.574 26.2433 44.754 26.15C44.934 26.05 45.164 26 45.444 26H46.744V30.56ZM43.394 30.56H46.304V26.41H45.494C45.3207 26.41 45.1707 26.4333 45.044 26.48C44.924 26.52 44.8207 26.58 44.734 26.66C44.654 26.7333 44.5873 26.82 44.534 26.92C44.4873 27.0133 44.4473 27.1133 44.414 27.22L43.394 30.56ZM50.5123 26H51.8023V31H51.3523V26.41H50.5523C50.3323 26.41 50.149 26.45 50.0023 26.53C49.8623 26.6033 49.7523 26.7 49.6723 26.82C49.5923 26.94 49.529 27.0733 49.4823 27.22L48.6723 29.88C48.6057 30.1067 48.5323 30.3 48.4523 30.46C48.3723 30.62 48.2723 30.75 48.1523 30.85C48.0323 30.95 47.8757 31.0333 47.6823 31.1L47.4023 30.85C47.5957 30.7767 47.749 30.6733 47.8623 30.54C47.9823 30.4067 48.0723 30.27 48.1323 30.13C48.199 29.99 48.2457 29.8733 48.2723 29.78L49.0023 27.32C49.0357 27.2067 49.079 27.0767 49.1323 26.93C49.1923 26.7833 49.2757 26.64 49.3823 26.5C49.4957 26.3533 49.6423 26.2333 49.8223 26.14C50.0023 26.0467 50.2323 26 50.5123 26ZM54.307 25.9C54.5004 25.9 54.6904 25.9033 54.877 25.91C55.0704 25.9167 55.2504 25.9267 55.417 25.94C55.5837 25.9467 55.7304 25.9567 55.857 25.97C55.9904 25.9833 56.097 25.9933 56.177 26C56.257 26.0067 56.3004 26.01 56.307 26.01V31H55.877V29.03H54.227C54.207 29.03 54.167 29.03 54.107 29.03C54.047 29.03 53.987 29.03 53.927 29.03C53.8737 29.0233 53.8337 29.02 53.807 29.02L52.997 31H52.547L53.407 28.91C53.2204 28.8433 53.057 28.7467 52.917 28.62C52.777 28.4867 52.667 28.3267 52.587 28.14C52.5137 27.9533 52.477 27.7433 52.477 27.51C52.477 27.2367 52.537 26.9767 52.657 26.73C52.7837 26.4833 52.9837 26.2833 53.257 26.13C53.5304 25.9767 53.8804 25.9 54.307 25.9ZM54.007 28.6H55.877V26.38C55.857 26.38 55.8004 26.3767 55.707 26.37C55.6204 26.3633 55.507 26.3567 55.367 26.35C55.227 26.3367 55.0704 26.33 54.897 26.33C54.7237 26.3233 54.547 26.32 54.367 26.32C53.9204 26.32 53.567 26.43 53.307 26.65C53.047 26.87 52.917 27.1467 52.917 27.48C52.917 27.6733 52.947 27.84 53.007 27.98C53.067 28.12 53.147 28.2367 53.247 28.33C53.3537 28.4233 53.4704 28.4933 53.597 28.54C53.7304 28.58 53.867 28.6 54.007 28.6ZM63.951 30.56H64.511V31.99H64.151L64.071 31H60.071L59.991 31.99H59.641V30.56H60.161L61.141 27.32C61.1743 27.2133 61.2177 27.0867 61.271 26.94C61.331 26.7867 61.4143 26.64 61.521 26.5C61.6343 26.36 61.781 26.2433 61.961 26.15C62.141 26.05 62.371 26 62.651 26H63.951V30.56ZM60.601 30.56H63.511V26.41H62.701C62.5277 26.41 62.3777 26.4333 62.251 26.48C62.131 26.52 62.0277 26.58 61.941 26.66C61.861 26.7333 61.7943 26.82 61.741 26.92C61.6943 27.0133 61.6543 27.1133 61.621 27.22L60.601 30.56ZM68.5894 29.15C68.5894 29.7367 68.4394 30.21 68.1394 30.57C67.8394 30.9233 67.386 31.1 66.7794 31.1C66.3594 31.1 66.0094 31.0133 65.7294 30.84C65.4494 30.66 65.2394 30.4233 65.0994 30.13C64.9594 29.8367 64.8894 29.51 64.8894 29.15V27.84C64.8894 27.4133 64.9627 27.0567 65.1094 26.77C65.256 26.4767 65.4694 26.2567 65.7494 26.11C66.036 25.9567 66.376 25.88 66.7694 25.88C67.3627 25.88 67.8127 26.0533 68.1194 26.4C68.4327 26.7467 68.5894 27.2267 68.5894 27.84V29.15ZM68.1594 27.83C68.1594 27.4833 68.106 27.1967 67.9994 26.97C67.8994 26.7367 67.746 26.5633 67.5394 26.45C67.3394 26.33 67.086 26.27 66.7794 26.27C66.4594 26.27 66.1927 26.33 65.9794 26.45C65.766 26.57 65.6027 26.7467 65.4894 26.98C65.3827 27.2067 65.3294 27.49 65.3294 27.83V29.22C65.3294 29.5067 65.386 29.7633 65.4994 29.99C65.6127 30.21 65.776 30.3867 65.9894 30.52C66.2094 30.6467 66.4727 30.71 66.7794 30.71C67.0927 30.71 67.3494 30.6467 67.5494 30.52C67.756 30.3933 67.9094 30.22 68.0094 30C68.1094 29.7733 68.1594 29.5133 68.1594 29.22V27.83ZM73.8565 26H74.3965V31H73.9565V26.77L72.0565 31H71.6165L69.6965 26.77V31H69.2565V26H69.7965L71.8365 30.5L73.8565 26ZM78.8152 26.13C78.8152 26.13 78.8018 26.2067 78.7752 26.36C78.7552 26.5067 78.7452 26.6833 78.7452 26.89V30.96C78.7518 30.96 78.7118 30.9633 78.6252 30.97C78.5385 30.97 78.4252 30.9767 78.2852 30.99C78.1518 30.9967 78.0052 31.0033 77.8452 31.01C77.6852 31.0167 77.5285 31.0233 77.3752 31.03C77.2218 31.0367 77.0918 31.04 76.9852 31.04C76.7118 31.0467 76.4585 31.0233 76.2252 30.97C75.9985 30.91 75.7985 30.8133 75.6252 30.68C75.4518 30.5467 75.3185 30.37 75.2252 30.15C75.1385 29.93 75.0952 29.6633 75.0952 29.35V27.46C75.0952 27.16 75.1352 26.91 75.2152 26.71C75.3018 26.51 75.4152 26.3533 75.5552 26.24C75.7018 26.1267 75.8652 26.0467 76.0452 26C76.2252 25.9467 76.4118 25.92 76.6052 25.92C76.7918 25.92 76.9852 25.94 77.1852 25.98C77.3852 26.02 77.5818 26.0767 77.7752 26.15C77.9752 26.2167 78.1685 26.2933 78.3552 26.38C78.3552 26.3533 78.3652 26.2967 78.3852 26.21C78.4118 26.1167 78.4385 26.04 78.4652 25.98L78.8152 26.13ZM75.5252 29.37C75.5252 29.6433 75.5718 29.8767 75.6652 30.07C75.7652 30.2567 75.9152 30.4 76.1152 30.5C76.3152 30.6 76.5585 30.65 76.8452 30.65C77.0252 30.65 77.2018 30.6467 77.3752 30.64C77.5485 30.6267 77.7052 30.6167 77.8452 30.61C77.9852 30.6033 78.0952 30.5967 78.1752 30.59C78.2618 30.5833 78.3052 30.58 78.3052 30.58V26.79C78.1452 26.71 77.9852 26.6433 77.8252 26.59C77.6718 26.53 77.5218 26.4833 77.3752 26.45C77.2285 26.41 77.0852 26.38 76.9452 26.36C76.8118 26.34 76.6885 26.33 76.5752 26.33C76.4485 26.33 76.3218 26.3467 76.1952 26.38C76.0685 26.4133 75.9552 26.4733 75.8552 26.56C75.7552 26.64 75.6752 26.7567 75.6152 26.91C75.5552 27.0567 75.5252 27.25 75.5252 27.49V29.37ZM85.4208 26.58C85.2341 26.4933 85.0341 26.4267 84.8208 26.38C84.6074 26.3333 84.4008 26.3067 84.2008 26.3C83.8741 26.3 83.6041 26.3667 83.3908 26.5C83.1841 26.6333 83.0308 26.82 82.9308 27.06C82.8308 27.2933 82.7774 27.5667 82.7708 27.88V29.17C82.7708 29.4433 82.8008 29.6767 82.8608 29.87C82.9208 30.0633 83.0141 30.22 83.1408 30.34C83.2741 30.46 83.4341 30.55 83.6208 30.61C83.8074 30.6633 84.0241 30.6933 84.2708 30.7C84.4241 30.7 84.5708 30.6933 84.7108 30.68C84.8508 30.6667 84.9774 30.65 85.0908 30.63C85.2041 30.61 85.2941 30.5933 85.3608 30.58C85.4274 30.56 85.4641 30.55 85.4708 30.55L85.5608 30.95C85.3541 31.0033 85.1374 31.0433 84.9108 31.07C84.6908 31.1033 84.4708 31.1167 84.2508 31.11C83.8708 31.1033 83.5341 31.0367 83.2408 30.91C82.9541 30.7767 82.7308 30.5767 82.5708 30.31C82.4174 30.0367 82.3408 29.6867 82.3408 29.26V27.83C82.3408 27.4433 82.4074 27.1067 82.5408 26.82C82.6741 26.5333 82.8774 26.31 83.1508 26.15C83.4308 25.9833 83.7774 25.9 84.1908 25.9C84.4174 25.9 84.6441 25.93 84.8708 25.99C85.1041 26.0433 85.3274 26.12 85.5408 26.22L85.4208 26.58ZM93.0623 30.56H93.6223V31.99H93.2623L93.1823 31H89.1823L89.1023 31.99H88.7523V30.56H89.2723L90.2523 27.32C90.2857 27.2133 90.329 27.0867 90.3823 26.94C90.4423 26.7867 90.5257 26.64 90.6323 26.5C90.7457 26.36 90.8923 26.2433 91.0723 26.15C91.2523 26.05 91.4823 26 91.7623 26H93.0623V30.56ZM89.7123 30.56H92.6223V26.41H91.8123C91.639 26.41 91.489 26.4333 91.3623 26.48C91.2423 26.52 91.139 26.58 91.0523 26.66C90.9723 26.7333 90.9057 26.82 90.8523 26.92C90.8057 27.0133 90.7657 27.1133 90.7323 27.22L89.7123 30.56ZM97.7007 29.15C97.7007 29.7367 97.5507 30.21 97.2507 30.57C96.9507 30.9233 96.4974 31.1 95.8907 31.1C95.4707 31.1 95.1207 31.0133 94.8407 30.84C94.5607 30.66 94.3507 30.4233 94.2107 30.13C94.0707 29.8367 94.0007 29.51 94.0007 29.15V27.84C94.0007 27.4133 94.074 27.0567 94.2207 26.77C94.3674 26.4767 94.5807 26.2567 94.8607 26.11C95.1474 25.9567 95.4874 25.88 95.8807 25.88C96.474 25.88 96.924 26.0533 97.2307 26.4C97.544 26.7467 97.7007 27.2267 97.7007 27.84V29.15ZM97.2707 27.83C97.2707 27.4833 97.2174 27.1967 97.1107 26.97C97.0107 26.7367 96.8574 26.5633 96.6507 26.45C96.4507 26.33 96.1974 26.27 95.8907 26.27C95.5707 26.27 95.304 26.33 95.0907 26.45C94.8774 26.57 94.714 26.7467 94.6007 26.98C94.494 27.2067 94.4407 27.49 94.4407 27.83V29.22C94.4407 29.5067 94.4974 29.7633 94.6107 29.99C94.724 30.21 94.8874 30.3867 95.1007 30.52C95.3207 30.6467 95.584 30.71 95.8907 30.71C96.204 30.71 96.4607 30.6467 96.6607 30.52C96.8674 30.3933 97.0207 30.22 97.1207 30C97.2207 29.7733 97.2707 29.5133 97.2707 29.22V27.83ZM101.378 26.58C101.191 26.4933 100.991 26.4267 100.778 26.38C100.564 26.3333 100.358 26.3067 100.158 26.3C99.8311 26.3 99.5611 26.3667 99.3478 26.5C99.1411 26.6333 98.9878 26.82 98.8878 27.06C98.7878 27.2933 98.7345 27.5667 98.7278 27.88V29.17C98.7278 29.4433 98.7578 29.6767 98.8178 29.87C98.8778 30.0633 98.9711 30.22 99.0978 30.34C99.2311 30.46 99.3911 30.55 99.5778 30.61C99.7645 30.6633 99.9811 30.6933 100.228 30.7C100.381 30.7 100.528 30.6933 100.668 30.68C100.808 30.6667 100.934 30.65 101.048 30.63C101.161 30.61 101.251 30.5933 101.318 30.58C101.384 30.56 101.421 30.55 101.428 30.55L101.518 30.95C101.311 31.0033 101.094 31.0433 100.868 31.07C100.648 31.1033 100.428 31.1167 100.208 31.11C99.8278 31.1033 99.4911 31.0367 99.1978 30.91C98.9111 30.7767 98.6878 30.5767 98.5278 30.31C98.3745 30.0367 98.2978 29.6867 98.2978 29.26V27.83C98.2978 27.4433 98.3645 27.1067 98.4978 26.82C98.6311 26.5333 98.8345 26.31 99.1078 26.15C99.3878 25.9833 99.7345 25.9 100.148 25.9C100.374 25.9 100.601 25.93 100.828 25.99C101.061 26.0433 101.284 26.12 101.498 26.22L101.378 26.58ZM103.737 29.67C103.737 29.85 103.757 30.0133 103.797 30.16C103.837 30.3067 103.903 30.4333 103.997 30.54C104.097 30.6467 104.237 30.73 104.417 30.79L104.287 31.13C104.1 31.0767 103.943 31.0067 103.817 30.92C103.69 30.8267 103.587 30.7233 103.507 30.61C103.433 30.49 103.38 30.3533 103.347 30.2C103.313 30.04 103.297 29.8633 103.297 29.67V26.42H102.017V26H105.057V26.42H103.737V29.67ZM109.313 26.13C109.313 26.13 109.3 26.2067 109.273 26.36C109.253 26.5067 109.243 26.6833 109.243 26.89V30.96C109.25 30.96 109.21 30.9633 109.123 30.97C109.037 30.97 108.923 30.9767 108.783 30.99C108.65 30.9967 108.503 31.0033 108.343 31.01C108.183 31.0167 108.027 31.0233 107.873 31.03C107.72 31.0367 107.59 31.04 107.483 31.04C107.21 31.0467 106.957 31.0233 106.723 30.97C106.497 30.91 106.297 30.8133 106.123 30.68C105.95 30.5467 105.817 30.37 105.723 30.15C105.637 29.93 105.593 29.6633 105.593 29.35V27.46C105.593 27.16 105.633 26.91 105.713 26.71C105.8 26.51 105.913 26.3533 106.053 26.24C106.2 26.1267 106.363 26.0467 106.543 26C106.723 25.9467 106.91 25.92 107.103 25.92C107.29 25.92 107.483 25.94 107.683 25.98C107.883 26.02 108.08 26.0767 108.273 26.15C108.473 26.2167 108.667 26.2933 108.853 26.38C108.853 26.3533 108.863 26.2967 108.883 26.21C108.91 26.1167 108.937 26.04 108.963 25.98L109.313 26.13ZM106.023 29.37C106.023 29.6433 106.07 29.8767 106.163 30.07C106.263 30.2567 106.413 30.4 106.613 30.5C106.813 30.6 107.057 30.65 107.343 30.65C107.523 30.65 107.7 30.6467 107.873 30.64C108.047 30.6267 108.203 30.6167 108.343 30.61C108.483 30.6033 108.593 30.5967 108.673 30.59C108.76 30.5833 108.803 30.58 108.803 30.58V26.79C108.643 26.71 108.483 26.6433 108.323 26.59C108.17 26.53 108.02 26.4833 107.873 26.45C107.727 26.41 107.583 26.38 107.443 26.36C107.31 26.34 107.187 26.33 107.073 26.33C106.947 26.33 106.82 26.3467 106.693 26.38C106.567 26.4133 106.453 26.4733 106.353 26.56C106.253 26.64 106.173 26.7567 106.113 26.91C106.053 27.0567 106.023 27.25 106.023 27.49V29.37ZM112.996 28.16C113.289 28.26 113.516 28.4333 113.676 28.68C113.843 28.9267 113.926 29.2 113.926 29.5C113.926 29.7667 113.863 30.0267 113.736 30.28C113.616 30.5267 113.423 30.7267 113.156 30.88C112.889 31.0333 112.539 31.11 112.106 31.11C111.933 31.11 111.753 31.1067 111.566 31.1C111.379 31.0933 111.199 31.0833 111.026 31.07C110.859 31.0567 110.706 31.0433 110.566 31.03C110.426 31.0233 110.313 31.0167 110.226 31.01C110.146 31.0033 110.103 31 110.096 31V25.99C110.096 25.99 110.149 25.9867 110.256 25.98C110.363 25.9667 110.509 25.9533 110.696 25.94C110.889 25.9267 111.103 25.9167 111.336 25.91C111.576 25.8967 111.826 25.89 112.086 25.89C112.353 25.89 112.583 25.9233 112.776 25.99C112.976 26.0567 113.139 26.15 113.266 26.27C113.393 26.39 113.486 26.5267 113.546 26.68C113.613 26.8267 113.646 26.9867 113.646 27.16C113.646 27.3533 113.586 27.5467 113.466 27.74C113.353 27.9333 113.196 28.0733 112.996 28.16ZM112.036 26.28C111.876 26.28 111.713 26.2833 111.546 26.29C111.386 26.2967 111.233 26.3033 111.086 26.31C110.946 26.3167 110.826 26.3233 110.726 26.33C110.626 26.3367 110.563 26.3433 110.536 26.35V27.99H112.316C112.476 27.99 112.623 27.95 112.756 27.87C112.889 27.79 112.996 27.6867 113.076 27.56C113.156 27.4267 113.196 27.2867 113.196 27.14C113.196 26.9733 113.163 26.8333 113.096 26.72C113.029 26.6067 112.939 26.52 112.826 26.46C112.713 26.3933 112.586 26.3467 112.446 26.32C112.313 26.2933 112.176 26.28 112.036 26.28ZM112.046 30.69C112.346 30.69 112.603 30.64 112.816 30.54C113.029 30.44 113.196 30.3033 113.316 30.13C113.436 29.95 113.496 29.75 113.496 29.53C113.496 29.3367 113.459 29.1733 113.386 29.04C113.319 28.9 113.229 28.7833 113.116 28.69C113.003 28.5967 112.873 28.5267 112.726 28.48C112.586 28.4333 112.443 28.41 112.296 28.41H110.536V30.63C110.563 30.63 110.619 30.6333 110.706 30.64C110.799 30.6467 110.913 30.6567 111.046 30.67C111.186 30.6767 111.343 30.6833 111.516 30.69C111.689 30.69 111.866 30.69 112.046 30.69ZM117.299 29.84C117.425 30.0067 117.545 30.15 117.659 30.27C117.779 30.39 117.892 30.48 117.999 30.54C118.105 30.5933 118.202 30.62 118.289 30.62H118.319V31H118.309C118.095 31 117.902 30.95 117.729 30.85C117.555 30.7433 117.399 30.61 117.259 30.45C117.125 30.29 117.002 30.13 116.889 29.97L115.739 28.38L115.049 29.08V31H114.609V25.88L115.049 25.98V28.5L117.349 25.99H117.919L116.029 28.05L117.299 29.84ZM122.525 29.15C122.525 29.7367 122.375 30.21 122.075 30.57C121.775 30.9233 121.322 31.1 120.715 31.1C120.295 31.1 119.945 31.0133 119.665 30.84C119.385 30.66 119.175 30.4233 119.035 30.13C118.895 29.8367 118.825 29.51 118.825 29.15V27.84C118.825 27.4133 118.898 27.0567 119.045 26.77C119.192 26.4767 119.405 26.2567 119.685 26.11C119.972 25.9567 120.312 25.88 120.705 25.88C121.298 25.88 121.748 26.0533 122.055 26.4C122.368 26.7467 122.525 27.2267 122.525 27.84V29.15ZM122.095 27.83C122.095 27.4833 122.042 27.1967 121.935 26.97C121.835 26.7367 121.682 26.5633 121.475 26.45C121.275 26.33 121.022 26.27 120.715 26.27C120.395 26.27 120.128 26.33 119.915 26.45C119.702 26.57 119.538 26.7467 119.425 26.98C119.318 27.2067 119.265 27.49 119.265 27.83V29.22C119.265 29.5067 119.322 29.7633 119.435 29.99C119.548 30.21 119.712 30.3867 119.925 30.52C120.145 30.6467 120.408 30.71 120.715 30.71C121.028 30.71 121.285 30.6467 121.485 30.52C121.692 30.3933 121.845 30.22 121.945 30C122.045 29.7733 122.095 29.5133 122.095 29.22V27.83ZM126.192 24.32V24.39C126.192 24.5967 126.142 24.7867 126.042 24.96C125.942 25.1267 125.805 25.2633 125.632 25.37C125.465 25.47 125.279 25.52 125.072 25.52C124.865 25.52 124.675 25.47 124.502 25.37C124.329 25.2633 124.189 25.1267 124.082 24.96C123.982 24.7867 123.932 24.5967 123.932 24.39V24.32H124.302V24.39C124.302 24.5967 124.379 24.7767 124.532 24.93C124.685 25.0767 124.865 25.15 125.072 25.15C125.285 25.15 125.462 25.0767 125.602 24.93C125.749 24.7767 125.822 24.5967 125.822 24.39V24.32H126.192ZM123.652 26V30.33L126.382 26H126.902V31H126.462V26.67L123.732 31H123.212V26H123.652Z" fill="#442005"/>
</svg>
