<svg width="198" height="36" viewBox="0 0 198 36" fill="none" xmlns="http://www.w3.org/2000/svg">
<circle cx="18" cy="18" r="18" fill="#CF4E32"/>
<path d="M17.8362 11.4316L4.64492 11.4316C4.58969 11.4316 4.54492 11.4764 4.54492 11.5316V21.5329H18.0525L17.9362 11.5305C17.9355 11.4757 17.8909 11.4316 17.8362 11.4316Z" fill="#CF4E32" stroke="white" stroke-width="0.8"/>
<path d="M18.0547 16.834H19.8153" stroke="white" stroke-width="0.8"/>
<path d="M27.701 11.4316L20.989 11.4316L20.4017 21.5329H30.9729V18.6556C30.9729 18.6166 30.9652 18.5779 30.9504 18.5418L28.1636 11.742C28.0867 11.5543 27.9039 11.4316 27.701 11.4316Z" fill="#CF4E32"/>
<path d="M19.8145 21.5329H20.4017M20.4017 21.5329H30.9729V18.6556C30.9729 18.6166 30.9652 18.5779 30.9505 18.5418L28.1636 11.742C28.0867 11.5543 27.9039 11.4316 27.701 11.4316L20.989 11.4316L20.4017 21.5329Z" stroke="white" stroke-width="0.8"/>
<path d="M23.6215 12.9648H28.5264L30.2466 16.8409L23.6122 16.8409C23.3908 16.8409 23.2115 16.6611 23.2122 16.4397L23.2215 13.3636C23.2221 13.1432 23.401 12.9648 23.6215 12.9648Z" fill="#CF4E32" stroke="white" stroke-width="0.6"/>
<path d="M23.2793 19.1816H23.9823" stroke="white" stroke-width="0.6" stroke-linecap="round" stroke-linejoin="round"/>
<path d="M29.5786 18.918H30.9799V20.8742C30.0314 20.5814 29.4909 20.0422 29.1794 19.5553C28.9927 19.2636 29.2323 18.918 29.5786 18.918Z" fill="#CF4E32" stroke="white" stroke-width="0.5"/>
<path d="M4.54492 23.0341V21.5723H30.9727V23.0341C30.9727 23.1998 30.8384 23.3341 30.6727 23.3341H4.84492C4.67924 23.3341 4.54492 23.1998 4.54492 23.0341Z" fill="#CF4E32" stroke="white" stroke-width="0.8"/>
<path d="M18.0547 21.5156H20.4022" stroke="white" stroke-width="0.8"/>
<path d="M13.8203 14.1406V18.0167" stroke="white" stroke-width="0.8" stroke-linecap="round"/>
<path d="M11.2422 14.1406V18.0167" stroke="white" stroke-width="0.8" stroke-linecap="round"/>
<path d="M8.66016 14.1406V18.0167" stroke="white" stroke-width="0.8" stroke-linecap="round"/>
<path d="M21.1613 10.7287V21.5871H19.882V10.7287C19.882 10.3754 20.1684 10.0891 20.5217 10.0891C20.875 10.0891 21.1613 10.3754 21.1613 10.7287Z" fill="#CF4E32" stroke="white" stroke-width="0.6"/>
<circle cx="10.4673" cy="23.479" r="2.31024" fill="#CF4E32" stroke="white" stroke-width="0.9"/>
<circle cx="24.9204" cy="23.479" r="2.31024" fill="#CF4E32" stroke="white" stroke-width="0.9"/>
<path d="M11.4012 23.5098C11.4012 24.0247 10.9837 24.4422 10.4688 24.4422C9.95379 24.4422 9.53633 24.0247 9.53633 23.5098C9.53633 22.9948 9.95379 22.5773 10.4688 22.5773C10.9837 22.5773 11.4012 22.9948 11.4012 23.5098Z" stroke="white" stroke-width="0.6"/>
<path d="M25.8465 23.4902C25.8465 24.0052 25.429 24.4227 24.9141 24.4227C24.3991 24.4227 23.9816 24.0052 23.9816 23.4902C23.9816 22.9753 24.3991 22.5578 24.9141 22.5578C25.429 22.5578 25.8465 22.9753 25.8465 23.4902Z" stroke="white" stroke-width="0.6"/>
<path d="M55.194 4.248C57.5553 4.248 59.484 5.018 60.98 6.558C62.4907 8.06867 63.246 9.98267 63.246 12.3C63.246 14.6173 62.4907 16.5387 60.98 18.064C59.484 19.5893 57.5553 20.352 55.194 20.352C53.7713 20.352 52.4513 20.0147 51.234 19.34C50.0313 18.6653 49.1 17.7487 48.44 16.59L52.268 14.39C52.532 14.9327 52.928 15.3653 53.456 15.688C53.9987 15.996 54.6147 16.15 55.304 16.15C56.8293 16.15 57.9 15.5267 58.516 14.28H53.874V10.32H58.516C57.9 9.07333 56.8293 8.45 55.304 8.45C54.644 8.45 54.0353 8.61133 53.478 8.934C52.9353 9.242 52.532 9.66 52.268 10.188L48.44 7.988C49.1293 6.85867 50.068 5.95667 51.256 5.282C52.4733 4.59267 53.786 4.248 55.194 4.248ZM75.407 12.08L80.203 20H75.319L71.491 13.4V20H67.091V4.6H71.491V10.76L75.099 4.6H79.983L75.407 12.08ZM95.5796 18.042C94.0103 19.582 92.0816 20.352 89.7936 20.352C87.5056 20.352 85.5696 19.582 83.9856 18.042C82.4163 16.4727 81.6316 14.5587 81.6316 12.3C81.6316 10.0267 82.4163 8.12 83.9856 6.58C85.555 5.02533 87.491 4.248 89.7936 4.248C92.0963 4.248 94.025 5.02533 95.5796 6.58C97.1636 8.12 97.9556 10.0267 97.9556 12.3C97.9556 14.5587 97.1636 16.4727 95.5796 18.042ZM87.0876 14.984C87.8063 15.688 88.7083 16.04 89.7936 16.04C90.879 16.04 91.7736 15.688 92.4776 14.984C93.1963 14.2653 93.5556 13.3707 93.5556 12.3C93.5556 11.2293 93.1963 10.342 92.4776 9.638C91.7736 8.91933 90.879 8.56 89.7936 8.56C88.7083 8.56 87.8063 8.91933 87.0876 9.638C86.3836 10.342 86.0316 11.2293 86.0316 12.3C86.0316 13.356 86.3836 14.2507 87.0876 14.984ZM109.373 12.212L114.015 20H109.131L106.931 16.304L104.709 20H99.8246L104.489 12.212L99.9346 4.6H104.819L106.931 8.12L109.021 4.6H113.905L109.373 12.212ZM129.607 18.042C128.037 19.582 126.109 20.352 123.821 20.352C121.533 20.352 119.597 19.582 118.013 18.042C116.443 16.4727 115.659 14.5587 115.659 12.3C115.659 10.0267 116.443 8.12 118.013 6.58C119.582 5.02533 121.518 4.248 123.821 4.248C126.123 4.248 128.052 5.02533 129.607 6.58C131.191 8.12 131.983 10.0267 131.983 12.3C131.983 14.5587 131.191 16.4727 129.607 18.042ZM121.115 14.984C121.833 15.688 122.735 16.04 123.821 16.04C124.906 16.04 125.801 15.688 126.505 14.984C127.223 14.2653 127.583 13.3707 127.583 12.3C127.583 11.2293 127.223 10.342 126.505 9.638C125.801 8.91933 124.906 8.56 123.821 8.56C122.735 8.56 121.833 8.91933 121.115 9.638C120.411 10.342 120.059 11.2293 120.059 12.3C120.059 13.356 120.411 14.2507 121.115 14.984ZM143.688 12.102C145.067 12.8647 145.756 14.06 145.756 15.688C145.756 17.0813 145.235 18.2107 144.194 19.076C143.167 19.9267 141.737 20.352 139.904 20.352C136.824 20.352 134.807 19.1713 133.854 16.81L137.572 14.632C138.027 15.6587 138.804 16.172 139.904 16.172C140.872 16.172 141.356 15.82 141.356 15.116C141.356 14.5293 140.989 14.1993 140.256 14.126L137.924 14.104V10.364L139.75 10.342C140.513 10.298 140.894 9.968 140.894 9.352C140.894 8.67733 140.447 8.34 139.552 8.34C138.599 8.34 137.953 8.79467 137.616 9.704L133.964 7.57C134.404 6.52867 135.137 5.71467 136.164 5.128C137.191 4.54133 138.357 4.248 139.662 4.248C141.334 4.248 142.691 4.68067 143.732 5.546C144.773 6.41133 145.294 7.54067 145.294 8.934C145.294 10.3273 144.759 11.3833 143.688 12.102Z" fill="#CF4E32"/>
<path d="M153.776 10.232H156.196C157.766 10.232 158.998 10.672 159.892 11.552C160.802 12.4173 161.256 13.5833 161.256 15.05C161.256 16.5313 160.802 17.7267 159.892 18.636C158.983 19.5453 157.751 20 156.196 20H149.376V4.6H159.936V8.868H153.776V10.232ZM153.776 16.04H155.866C156.277 16.084 156.563 15.93 156.724 15.578C156.9 15.226 156.9 14.874 156.724 14.522C156.563 14.17 156.277 14.016 155.866 14.06H153.776V16.04ZM170.928 20.022H164.768V4.622H169.168V8.978H170.928C172.512 8.978 173.846 9.484 174.932 10.496C176.002 11.4787 176.538 12.8133 176.538 14.5C176.538 16.172 176.002 17.514 174.932 18.526C173.846 19.5233 172.512 20.022 170.928 20.022ZM182.148 20.022H177.748V4.622H182.148V20.022ZM169.168 13.246V15.754H170.928C171.28 15.754 171.566 15.644 171.786 15.424C172.02 15.1893 172.138 14.8813 172.138 14.5C172.138 14.1187 172.02 13.818 171.786 13.598C171.566 13.3633 171.28 13.246 170.928 13.246H169.168ZM185.66 4.6H197.32V8.868H193.69V20H189.29V8.868H185.66V4.6Z" fill="#442005"/>
<path d="M67.22 27.5V28.508H66.177V31H65.127V28.508H64.07V27.5H67.22ZM71.2324 30.566C70.873 30.9207 70.4344 31.098 69.9164 31.098C69.3984 31.098 68.9597 30.9207 68.6004 30.566C68.241 30.2067 68.0614 29.768 68.0614 29.25C68.0614 28.732 68.241 28.2957 68.6004 27.941C68.9597 27.5817 69.3984 27.402 69.9164 27.402C70.4344 27.402 70.873 27.5817 71.2324 27.941C71.5917 28.2957 71.7714 28.732 71.7714 29.25C71.7714 29.768 71.5917 30.2067 71.2324 30.566ZM69.3424 29.845C69.4964 29.999 69.6877 30.076 69.9164 30.076C70.145 30.076 70.3364 29.999 70.4904 29.845C70.6444 29.691 70.7214 29.4927 70.7214 29.25C70.7214 29.0073 70.6444 28.809 70.4904 28.655C70.3364 28.501 70.145 28.424 69.9164 28.424C69.6877 28.424 69.4964 28.501 69.3424 28.655C69.1884 28.809 69.1114 29.0073 69.1114 29.25C69.1114 29.4927 69.1884 29.691 69.3424 29.845ZM75.6763 29.208C75.9889 29.376 76.1453 29.6397 76.1453 29.999C76.1453 30.2977 76.0403 30.5403 75.8303 30.727C75.6249 30.909 75.3333 31 74.9553 31H73.0653V27.5H74.8153C75.1933 27.5 75.4849 27.5933 75.6903 27.78C75.9003 27.962 76.0053 28.2023 76.0053 28.501C76.0053 28.809 75.8956 29.0447 75.6763 29.208ZM74.7033 28.34H74.0453V28.83H74.7033C74.9086 28.83 75.0113 28.7507 75.0113 28.592C75.0113 28.424 74.9086 28.34 74.7033 28.34ZM74.8153 30.132C75.0206 30.132 75.1233 30.0457 75.1233 29.873C75.1233 29.7097 75.0206 29.628 74.8153 29.628H74.0453V30.132H74.8153ZM79.9088 27.5H80.9588V31H79.9088V30.671C79.6615 30.9557 79.3138 31.098 78.8658 31.098C78.4038 31.098 78.0095 30.9207 77.6828 30.566C77.3561 30.2067 77.1928 29.768 77.1928 29.25C77.1928 28.732 77.3561 28.2957 77.6828 27.941C78.0095 27.5817 78.4038 27.402 78.8658 27.402C79.3138 27.402 79.6615 27.5443 79.9088 27.829V27.5ZM78.4738 29.873C78.6278 30.027 78.8285 30.104 79.0758 30.104C79.3231 30.104 79.5238 30.027 79.6778 29.873C79.8318 29.719 79.9088 29.5113 79.9088 29.25C79.9088 28.9887 79.8318 28.781 79.6778 28.627C79.5238 28.473 79.3231 28.396 79.0758 28.396C78.8285 28.396 78.6278 28.473 78.4738 28.627C78.3198 28.781 78.2428 28.9887 78.2428 29.25C78.2428 29.5113 78.3198 29.719 78.4738 29.873ZM84.5221 27.402C84.9841 27.402 85.3785 27.5817 85.7051 27.941C86.0318 28.2957 86.1951 28.732 86.1951 29.25C86.1951 29.768 86.0318 30.2067 85.7051 30.566C85.3785 30.9207 84.9841 31.098 84.5221 31.098C84.0741 31.098 83.7265 30.9557 83.4791 30.671V32.4H82.4291V27.5H83.4791V27.829C83.7265 27.5443 84.0741 27.402 84.5221 27.402ZM83.7101 29.873C83.8688 30.027 84.0695 30.104 84.3121 30.104C84.5548 30.104 84.7531 30.027 84.9071 29.873C85.0658 29.719 85.1451 29.5113 85.1451 29.25C85.1451 28.9887 85.0658 28.781 84.9071 28.627C84.7531 28.473 84.5548 28.396 84.3121 28.396C84.0695 28.396 83.8688 28.473 83.7101 28.627C83.5561 28.781 83.4791 28.9887 83.4791 29.25C83.4791 29.5113 83.5561 29.719 83.7101 29.873ZM89.1285 28.55C89.5485 28.55 89.8821 28.662 90.1295 28.886C90.3768 29.11 90.5005 29.4063 90.5005 29.775C90.5005 30.1437 90.3768 30.44 90.1295 30.664C89.8821 30.888 89.5485 31 89.1285 31H87.4905V27.5H88.5405V28.55H89.1285ZM90.8505 27.5H91.9005V31H90.8505V27.5ZM89.1355 30.09C89.2381 30.09 89.3198 30.062 89.3805 30.006C89.4458 29.9453 89.4785 29.8683 89.4785 29.775C89.4785 29.6817 89.4458 29.607 89.3805 29.551C89.3198 29.4903 89.2381 29.46 89.1355 29.46H88.5405V30.09H89.1355ZM99.0421 30.02H99.4971V31.938H98.4751V31H96.5291V31.938H95.5071V30.02H95.9411C96.1278 29.7307 96.2211 29.327 96.2211 28.809V27.5H99.0421V30.02ZM97.0401 30.02H98.0201V28.438H97.2431V28.809C97.2431 29.2943 97.1754 29.698 97.0401 30.02ZM103.764 27.5V31H102.714V28.508H101.958V29.551C101.958 30.083 101.825 30.4727 101.559 30.72C101.298 30.9673 100.913 31.0607 100.404 31V30.02C100.568 30.0667 100.691 30.0433 100.775 29.95C100.864 29.8567 100.908 29.7003 100.908 29.481V27.5H103.764ZM108.139 27.5V31H107.117V29.992H106.9L106.179 31H104.989L105.808 29.845C105.598 29.7377 105.432 29.5837 105.311 29.383C105.189 29.1823 105.129 28.97 105.129 28.746C105.129 28.4147 105.245 28.1253 105.479 27.878C105.712 27.626 106.029 27.5 106.431 27.5H108.139ZM106.522 28.424C106.41 28.424 106.319 28.4567 106.249 28.522C106.183 28.5827 106.151 28.669 106.151 28.781C106.151 28.8883 106.183 28.9723 106.249 29.033C106.319 29.0937 106.41 29.124 106.522 29.124H107.117V28.424H106.522ZM115.282 30.02H115.737V31.938H114.715V31H112.769V31.938H111.747V30.02H112.181C112.367 29.7307 112.461 29.327 112.461 28.809V27.5H115.282V30.02ZM113.28 30.02H114.26V28.438H113.483V28.809C113.483 29.2943 113.415 29.698 113.28 30.02ZM119.818 30.566C119.459 30.9207 119.02 31.098 118.502 31.098C117.984 31.098 117.545 30.9207 117.186 30.566C116.827 30.2067 116.647 29.768 116.647 29.25C116.647 28.732 116.827 28.2957 117.186 27.941C117.545 27.5817 117.984 27.402 118.502 27.402C119.02 27.402 119.459 27.5817 119.818 27.941C120.177 28.2957 120.357 28.732 120.357 29.25C120.357 29.768 120.177 30.2067 119.818 30.566ZM117.928 29.845C118.082 29.999 118.273 30.076 118.502 30.076C118.731 30.076 118.922 29.999 119.076 29.845C119.23 29.691 119.307 29.4927 119.307 29.25C119.307 29.0073 119.23 28.809 119.076 28.655C118.922 28.501 118.731 28.424 118.502 28.424C118.273 28.424 118.082 28.501 117.928 28.655C117.774 28.809 117.697 29.0073 117.697 29.25C117.697 29.4927 117.774 29.691 117.928 29.845ZM125.361 27.5V31H124.353V29.194L123.569 30.412H123.443L122.659 29.194V31H121.651V27.5H122.659L123.506 28.823L124.353 27.5H125.361ZM129.37 27.5H130.42V31H129.37V30.671C129.122 30.9557 128.775 31.098 128.327 31.098C127.865 31.098 127.47 30.9207 127.144 30.566C126.817 30.2067 126.654 29.768 126.654 29.25C126.654 28.732 126.817 28.2957 127.144 27.941C127.47 27.5817 127.865 27.402 128.327 27.402C128.775 27.402 129.122 27.5443 129.37 27.829V27.5ZM127.935 29.873C128.089 30.027 128.289 30.104 128.537 30.104C128.784 30.104 128.985 30.027 129.139 29.873C129.293 29.719 129.37 29.5113 129.37 29.25C129.37 28.9887 129.293 28.781 129.139 28.627C128.985 28.473 128.784 28.396 128.537 28.396C128.289 28.396 128.089 28.473 127.935 28.627C127.781 28.781 127.704 28.9887 127.704 29.25C127.704 29.5113 127.781 29.719 127.935 29.873ZM136.02 31.098C135.488 31.098 135.045 30.9207 134.69 30.566C134.34 30.2113 134.165 29.7727 134.165 29.25C134.165 28.7273 134.34 28.2887 134.69 27.934C135.045 27.5793 135.488 27.402 136.02 27.402C136.356 27.402 136.664 27.4837 136.944 27.647C137.229 27.8103 137.448 28.0273 137.602 28.298L136.685 28.83C136.559 28.5687 136.333 28.438 136.006 28.438C135.777 28.438 135.588 28.515 135.439 28.669C135.29 28.8183 135.215 29.012 135.215 29.25C135.215 29.488 135.29 29.684 135.439 29.838C135.588 29.9873 135.777 30.062 136.006 30.062C136.337 30.062 136.564 29.9313 136.685 29.67L137.602 30.195C137.448 30.4703 137.231 30.6897 136.951 30.853C136.671 31.0163 136.361 31.098 136.02 31.098ZM144.429 30.02H144.884V31.938H143.862V31H141.916V31.938H140.894V30.02H141.328C141.514 29.7307 141.608 29.327 141.608 28.809V27.5H144.429V30.02ZM142.427 30.02H143.407V28.438H142.63V28.809C142.63 29.2943 142.562 29.698 142.427 30.02ZM148.965 30.566C148.606 30.9207 148.167 31.098 147.649 31.098C147.131 31.098 146.693 30.9207 146.333 30.566C145.974 30.2067 145.794 29.768 145.794 29.25C145.794 28.732 145.974 28.2957 146.333 27.941C146.693 27.5817 147.131 27.402 147.649 27.402C148.167 27.402 148.606 27.5817 148.965 27.941C149.325 28.2957 149.504 28.732 149.504 29.25C149.504 29.768 149.325 30.2067 148.965 30.566ZM147.075 29.845C147.229 29.999 147.421 30.076 147.649 30.076C147.878 30.076 148.069 29.999 148.223 29.845C148.377 29.691 148.454 29.4927 148.454 29.25C148.454 29.0073 148.377 28.809 148.223 28.655C148.069 28.501 147.878 28.424 147.649 28.424C147.421 28.424 147.229 28.501 147.075 28.655C146.921 28.809 146.844 29.0073 146.844 29.25C146.844 29.4927 146.921 29.691 147.075 29.845ZM152.478 31.098C151.946 31.098 151.503 30.9207 151.148 30.566C150.798 30.2113 150.623 29.7727 150.623 29.25C150.623 28.7273 150.798 28.2887 151.148 27.934C151.503 27.5793 151.946 27.402 152.478 27.402C152.814 27.402 153.122 27.4837 153.402 27.647C153.687 27.8103 153.906 28.0273 154.06 28.298L153.143 28.83C153.017 28.5687 152.791 28.438 152.464 28.438C152.235 28.438 152.046 28.515 151.897 28.669C151.748 28.8183 151.673 29.012 151.673 29.25C151.673 29.488 151.748 29.684 151.897 29.838C152.046 29.9873 152.235 30.062 152.464 30.062C152.795 30.062 153.022 29.9313 153.143 29.67L154.06 30.195C153.906 30.4703 153.689 30.6897 153.409 30.853C153.129 31.0163 152.819 31.098 152.478 31.098ZM158.018 27.5V28.508H156.975V31H155.925V28.508H154.868V27.5H158.018ZM161.575 27.5H162.625V31H161.575V30.671C161.328 30.9557 160.98 31.098 160.532 31.098C160.07 31.098 159.676 30.9207 159.349 30.566C159.022 30.2067 158.859 29.768 158.859 29.25C158.859 28.732 159.022 28.2957 159.349 27.941C159.676 27.5817 160.07 27.402 160.532 27.402C160.98 27.402 161.328 27.5443 161.575 27.829V27.5ZM160.14 29.873C160.294 30.027 160.495 30.104 160.742 30.104C160.989 30.104 161.19 30.027 161.344 29.873C161.498 29.719 161.575 29.5113 161.575 29.25C161.575 28.9887 161.498 28.781 161.344 28.627C161.19 28.473 160.989 28.396 160.742 28.396C160.495 28.396 160.294 28.473 160.14 28.627C159.986 28.781 159.909 28.9887 159.909 29.25C159.909 29.5113 159.986 29.719 160.14 29.873ZM166.706 29.208C167.019 29.376 167.175 29.6397 167.175 29.999C167.175 30.2977 167.07 30.5403 166.86 30.727C166.655 30.909 166.363 31 165.985 31H164.095V27.5H165.845C166.223 27.5 166.515 27.5933 166.72 27.78C166.93 27.962 167.035 28.2023 167.035 28.501C167.035 28.809 166.926 29.0447 166.706 29.208ZM165.733 28.34H165.075V28.83H165.733C165.939 28.83 166.041 28.7507 166.041 28.592C166.041 28.424 165.939 28.34 165.733 28.34ZM165.845 30.132C166.051 30.132 166.153 30.0457 166.153 29.873C166.153 29.7097 166.051 29.628 165.845 29.628H165.075V30.132H165.845ZM171.758 31H170.568L169.448 29.453V31H168.398V27.5H169.448V29.033L170.498 27.5H171.723L170.449 29.25L171.758 31ZM175.628 30.566C175.269 30.9207 174.83 31.098 174.312 31.098C173.794 31.098 173.355 30.9207 172.996 30.566C172.637 30.2067 172.457 29.768 172.457 29.25C172.457 28.732 172.637 28.2957 172.996 27.941C173.355 27.5817 173.794 27.402 174.312 27.402C174.83 27.402 175.269 27.5817 175.628 27.941C175.987 28.2957 176.167 28.732 176.167 29.25C176.167 29.768 175.987 30.2067 175.628 30.566ZM173.738 29.845C173.892 29.999 174.083 30.076 174.312 30.076C174.541 30.076 174.732 29.999 174.886 29.845C175.04 29.691 175.117 29.4927 175.117 29.25C175.117 29.0073 175.04 28.809 174.886 28.655C174.732 28.501 174.541 28.424 174.312 28.424C174.083 28.424 173.892 28.501 173.738 28.655C173.584 28.809 173.507 29.0073 173.507 29.25C173.507 29.4927 173.584 29.691 173.738 29.845ZM178.056 27.087V26.177H180.156V27.087H178.056ZM179.981 27.5H180.751V31H179.729V29.25L178.231 31H177.461V27.5H178.483V29.25L179.981 27.5Z" fill="#442005"/>
<line x1="47.9989" y1="29.4508" x2="60.9988" y2="29.409" stroke="#442005" stroke-width="0.7"/>
<line x1="184.999" y1="29.4508" x2="197.999" y2="29.409" stroke="#442005" stroke-width="0.7"/>
</svg>
