<svg width="198" height="40" viewBox="0 0 198 40" fill="none" xmlns="http://www.w3.org/2000/svg">
<circle cx="20" cy="20" r="20" fill="#CF4E32"/>
<path d="M20.1641 12.5781L5.21719 12.5781C5.16196 12.5781 5.11719 12.6229 5.11719 12.6781V24.0039H20.3958L20.2641 12.677C20.2635 12.6222 20.2189 12.5781 20.1641 12.5781Z" fill="#CF4E32" stroke="white" stroke-width="0.8"/>
<path d="M20.3984 18.6875H22.3899" stroke="white" stroke-width="0.8"/>
<path d="M31.3533 12.5781L23.7172 12.5781L23.053 24.0039H35.0101V20.7415C35.0101 20.7025 35.0025 20.6639 34.9877 20.6278L31.8159 12.8885C31.739 12.7008 31.5562 12.5781 31.3533 12.5781Z" fill="#CF4E32"/>
<path d="M22.3887 24.0039H23.053M23.053 24.0039H35.0101V20.7415C35.0101 20.7025 35.0025 20.6639 34.9877 20.6278L31.8159 12.8885C31.739 12.7008 31.5562 12.5781 31.3533 12.5781L23.7172 12.5781L23.053 24.0039Z" stroke="white" stroke-width="0.8"/>
<path d="M26.6425 14.3105H32.2429L34.1886 18.6948L26.6317 18.6948C26.4103 18.6948 26.231 18.515 26.2317 18.2936L26.2425 14.7093C26.2432 14.4889 26.4221 14.3105 26.6425 14.3105Z" fill="#CF4E32" stroke="white" stroke-width="0.6"/>
<path d="M26.3086 21.3438H27.1038" stroke="white" stroke-width="0.6" stroke-linecap="round" stroke-linejoin="round"/>
<path d="M33.3403 21.0449H35.0187V23.2576C33.894 22.9105 33.2765 22.2571 32.9328 21.6866C32.7541 21.3899 32.994 21.0449 33.3403 21.0449Z" fill="#CF4E32" stroke="white" stroke-width="0.5"/>
<path d="M5.11719 25.7397V24.0469H35.0101V25.7397C35.0101 25.9054 34.8758 26.0397 34.7101 26.0397H5.41719C5.2515 26.0397 5.11719 25.9054 5.11719 25.7397Z" fill="#CF4E32" stroke="white" stroke-width="0.8"/>
<path d="M20.3984 23.9844H23.0537" stroke="white" stroke-width="0.8"/>
<path d="M15.6094 15.6406V20.0249" stroke="white" stroke-width="0.8" stroke-linecap="round"/>
<path d="M12.6934 15.6406V20.0249" stroke="white" stroke-width="0.8" stroke-linecap="round"/>
<path d="M9.77148 15.6406V20.0249" stroke="white" stroke-width="0.8" stroke-linecap="round"/>
<path d="M23.9507 11.7816V24.1031H22.425V11.7816C22.425 11.3603 22.7665 11.0188 23.1879 11.0188C23.6092 11.0188 23.9507 11.3603 23.9507 11.7816Z" fill="#CF4E32" stroke="white" stroke-width="0.6"/>
<path d="M14.4896 26.2022C14.4896 27.678 13.2933 28.8744 11.8175 28.8744C10.3417 28.8744 9.14531 27.678 9.14531 26.2022C9.14531 24.7264 10.3417 23.5301 11.8175 23.5301C13.2933 23.5301 14.4896 24.7264 14.4896 26.2022Z" fill="#CF4E32" stroke="white" stroke-width="0.9"/>
<path d="M30.8373 26.2022C30.8373 27.678 29.6409 28.8744 28.1651 28.8744C26.6893 28.8744 25.493 27.678 25.493 26.2022C25.493 24.7264 26.6893 23.5301 28.1651 23.5301C29.6409 23.5301 30.8373 24.7264 30.8373 26.2022Z" fill="#CF4E32" stroke="white" stroke-width="0.9"/>
<path d="M12.9119 26.2378C12.9119 26.842 12.4221 27.3318 11.8178 27.3318C11.2136 27.3318 10.7238 26.842 10.7238 26.2378C10.7238 25.6336 11.2136 25.1438 11.8178 25.1438C12.4221 25.1438 12.9119 25.6336 12.9119 26.2378Z" stroke="white" stroke-width="0.6"/>
<path d="M29.2517 26.2163C29.2517 26.8205 28.7619 27.3103 28.1577 27.3103C27.5535 27.3103 27.0637 26.8205 27.0637 26.2163C27.0637 25.6121 27.5535 25.1223 28.1577 25.1223C28.7619 25.1223 29.2517 25.6121 29.2517 26.2163Z" stroke="white" stroke-width="0.6"/>
<path d="M55.194 6.248C57.5553 6.248 59.484 7.018 60.98 8.558C62.4907 10.0687 63.246 11.9827 63.246 14.3C63.246 16.6173 62.4907 18.5387 60.98 20.064C59.484 21.5893 57.5553 22.352 55.194 22.352C53.7713 22.352 52.4513 22.0147 51.234 21.34C50.0313 20.6653 49.1 19.7487 48.44 18.59L52.268 16.39C52.532 16.9327 52.928 17.3653 53.456 17.688C53.9987 17.996 54.6147 18.15 55.304 18.15C56.8293 18.15 57.9 17.5267 58.516 16.28H53.874V12.32H58.516C57.9 11.0733 56.8293 10.45 55.304 10.45C54.644 10.45 54.0353 10.6113 53.478 10.934C52.9353 11.242 52.532 11.66 52.268 12.188L48.44 9.988C49.1293 8.85867 50.068 7.95667 51.256 7.282C52.4733 6.59267 53.786 6.248 55.194 6.248ZM75.407 14.08L80.203 22H75.319L71.491 15.4V22H67.091V6.6H71.491V12.76L75.099 6.6H79.983L75.407 14.08ZM95.5796 20.042C94.0103 21.582 92.0816 22.352 89.7936 22.352C87.5056 22.352 85.5696 21.582 83.9856 20.042C82.4163 18.4727 81.6316 16.5587 81.6316 14.3C81.6316 12.0267 82.4163 10.12 83.9856 8.58C85.555 7.02533 87.491 6.248 89.7936 6.248C92.0963 6.248 94.025 7.02533 95.5796 8.58C97.1636 10.12 97.9556 12.0267 97.9556 14.3C97.9556 16.5587 97.1636 18.4727 95.5796 20.042ZM87.0876 16.984C87.8063 17.688 88.7083 18.04 89.7936 18.04C90.879 18.04 91.7736 17.688 92.4776 16.984C93.1963 16.2653 93.5556 15.3707 93.5556 14.3C93.5556 13.2293 93.1963 12.342 92.4776 11.638C91.7736 10.9193 90.879 10.56 89.7936 10.56C88.7083 10.56 87.8063 10.9193 87.0876 11.638C86.3836 12.342 86.0316 13.2293 86.0316 14.3C86.0316 15.356 86.3836 16.2507 87.0876 16.984ZM109.373 14.212L114.015 22H109.131L106.931 18.304L104.709 22H99.8246L104.489 14.212L99.9346 6.6H104.819L106.931 10.12L109.021 6.6H113.905L109.373 14.212ZM129.607 20.042C128.037 21.582 126.109 22.352 123.821 22.352C121.533 22.352 119.597 21.582 118.013 20.042C116.443 18.4727 115.659 16.5587 115.659 14.3C115.659 12.0267 116.443 10.12 118.013 8.58C119.582 7.02533 121.518 6.248 123.821 6.248C126.123 6.248 128.052 7.02533 129.607 8.58C131.191 10.12 131.983 12.0267 131.983 14.3C131.983 16.5587 131.191 18.4727 129.607 20.042ZM121.115 16.984C121.833 17.688 122.735 18.04 123.821 18.04C124.906 18.04 125.801 17.688 126.505 16.984C127.223 16.2653 127.583 15.3707 127.583 14.3C127.583 13.2293 127.223 12.342 126.505 11.638C125.801 10.9193 124.906 10.56 123.821 10.56C122.735 10.56 121.833 10.9193 121.115 11.638C120.411 12.342 120.059 13.2293 120.059 14.3C120.059 15.356 120.411 16.2507 121.115 16.984ZM143.688 14.102C145.067 14.8647 145.756 16.06 145.756 17.688C145.756 19.0813 145.235 20.2107 144.194 21.076C143.167 21.9267 141.737 22.352 139.904 22.352C136.824 22.352 134.807 21.1713 133.854 18.81L137.572 16.632C138.027 17.6587 138.804 18.172 139.904 18.172C140.872 18.172 141.356 17.82 141.356 17.116C141.356 16.5293 140.989 16.1993 140.256 16.126L137.924 16.104V12.364L139.75 12.342C140.513 12.298 140.894 11.968 140.894 11.352C140.894 10.6773 140.447 10.34 139.552 10.34C138.599 10.34 137.953 10.7947 137.616 11.704L133.964 9.57C134.404 8.52867 135.137 7.71467 136.164 7.128C137.191 6.54133 138.357 6.248 139.662 6.248C141.334 6.248 142.691 6.68067 143.732 7.546C144.773 8.41133 145.294 9.54067 145.294 10.934C145.294 12.3273 144.759 13.3833 143.688 14.102Z" fill="#CF4E32"/>
<path d="M153.776 12.232H156.196C157.766 12.232 158.998 12.672 159.892 13.552C160.802 14.4173 161.256 15.5833 161.256 17.05C161.256 18.5313 160.802 19.7267 159.892 20.636C158.983 21.5453 157.751 22 156.196 22H149.376V6.6H159.936V10.868H153.776V12.232ZM153.776 18.04H155.866C156.277 18.084 156.563 17.93 156.724 17.578C156.9 17.226 156.9 16.874 156.724 16.522C156.563 16.17 156.277 16.016 155.866 16.06H153.776V18.04ZM170.928 22.022H164.768V6.622H169.168V10.978H170.928C172.512 10.978 173.846 11.484 174.932 12.496C176.002 13.4787 176.538 14.8133 176.538 16.5C176.538 18.172 176.002 19.514 174.932 20.526C173.846 21.5233 172.512 22.022 170.928 22.022ZM182.148 22.022H177.748V6.622H182.148V22.022ZM169.168 15.246V17.754H170.928C171.28 17.754 171.566 17.644 171.786 17.424C172.02 17.1893 172.138 16.8813 172.138 16.5C172.138 16.1187 172.02 15.818 171.786 15.598C171.566 15.3633 171.28 15.246 170.928 15.246H169.168ZM185.66 6.6H197.32V10.868H193.69V22H189.29V10.868H185.66V6.6Z" fill="#442005"/>
<path d="M67.22 29.5V30.508H66.177V33H65.127V30.508H64.07V29.5H67.22ZM71.2324 32.566C70.873 32.9207 70.4344 33.098 69.9164 33.098C69.3984 33.098 68.9597 32.9207 68.6004 32.566C68.241 32.2067 68.0614 31.768 68.0614 31.25C68.0614 30.732 68.241 30.2957 68.6004 29.941C68.9597 29.5817 69.3984 29.402 69.9164 29.402C70.4344 29.402 70.873 29.5817 71.2324 29.941C71.5917 30.2957 71.7714 30.732 71.7714 31.25C71.7714 31.768 71.5917 32.2067 71.2324 32.566ZM69.3424 31.845C69.4964 31.999 69.6877 32.076 69.9164 32.076C70.145 32.076 70.3364 31.999 70.4904 31.845C70.6444 31.691 70.7214 31.4927 70.7214 31.25C70.7214 31.0073 70.6444 30.809 70.4904 30.655C70.3364 30.501 70.145 30.424 69.9164 30.424C69.6877 30.424 69.4964 30.501 69.3424 30.655C69.1884 30.809 69.1114 31.0073 69.1114 31.25C69.1114 31.4927 69.1884 31.691 69.3424 31.845ZM75.6763 31.208C75.9889 31.376 76.1453 31.6397 76.1453 31.999C76.1453 32.2977 76.0403 32.5403 75.8303 32.727C75.6249 32.909 75.3333 33 74.9553 33H73.0653V29.5H74.8153C75.1933 29.5 75.4849 29.5933 75.6903 29.78C75.9003 29.962 76.0053 30.2023 76.0053 30.501C76.0053 30.809 75.8956 31.0447 75.6763 31.208ZM74.7033 30.34H74.0453V30.83H74.7033C74.9086 30.83 75.0113 30.7507 75.0113 30.592C75.0113 30.424 74.9086 30.34 74.7033 30.34ZM74.8153 32.132C75.0206 32.132 75.1233 32.0457 75.1233 31.873C75.1233 31.7097 75.0206 31.628 74.8153 31.628H74.0453V32.132H74.8153ZM79.9088 29.5H80.9588V33H79.9088V32.671C79.6615 32.9557 79.3138 33.098 78.8658 33.098C78.4038 33.098 78.0095 32.9207 77.6828 32.566C77.3561 32.2067 77.1928 31.768 77.1928 31.25C77.1928 30.732 77.3561 30.2957 77.6828 29.941C78.0095 29.5817 78.4038 29.402 78.8658 29.402C79.3138 29.402 79.6615 29.5443 79.9088 29.829V29.5ZM78.4738 31.873C78.6278 32.027 78.8285 32.104 79.0758 32.104C79.3231 32.104 79.5238 32.027 79.6778 31.873C79.8318 31.719 79.9088 31.5113 79.9088 31.25C79.9088 30.9887 79.8318 30.781 79.6778 30.627C79.5238 30.473 79.3231 30.396 79.0758 30.396C78.8285 30.396 78.6278 30.473 78.4738 30.627C78.3198 30.781 78.2428 30.9887 78.2428 31.25C78.2428 31.5113 78.3198 31.719 78.4738 31.873ZM84.5221 29.402C84.9841 29.402 85.3785 29.5817 85.7051 29.941C86.0318 30.2957 86.1951 30.732 86.1951 31.25C86.1951 31.768 86.0318 32.2067 85.7051 32.566C85.3785 32.9207 84.9841 33.098 84.5221 33.098C84.0741 33.098 83.7265 32.9557 83.4791 32.671V34.4H82.4291V29.5H83.4791V29.829C83.7265 29.5443 84.0741 29.402 84.5221 29.402ZM83.7101 31.873C83.8688 32.027 84.0695 32.104 84.3121 32.104C84.5548 32.104 84.7531 32.027 84.9071 31.873C85.0658 31.719 85.1451 31.5113 85.1451 31.25C85.1451 30.9887 85.0658 30.781 84.9071 30.627C84.7531 30.473 84.5548 30.396 84.3121 30.396C84.0695 30.396 83.8688 30.473 83.7101 30.627C83.5561 30.781 83.4791 30.9887 83.4791 31.25C83.4791 31.5113 83.5561 31.719 83.7101 31.873ZM89.1285 30.55C89.5485 30.55 89.8821 30.662 90.1295 30.886C90.3768 31.11 90.5005 31.4063 90.5005 31.775C90.5005 32.1437 90.3768 32.44 90.1295 32.664C89.8821 32.888 89.5485 33 89.1285 33H87.4905V29.5H88.5405V30.55H89.1285ZM90.8505 29.5H91.9005V33H90.8505V29.5ZM89.1355 32.09C89.2381 32.09 89.3198 32.062 89.3805 32.006C89.4458 31.9453 89.4785 31.8683 89.4785 31.775C89.4785 31.6817 89.4458 31.607 89.3805 31.551C89.3198 31.4903 89.2381 31.46 89.1355 31.46H88.5405V32.09H89.1355ZM99.0421 32.02H99.4971V33.938H98.4751V33H96.5291V33.938H95.5071V32.02H95.9411C96.1278 31.7307 96.2211 31.327 96.2211 30.809V29.5H99.0421V32.02ZM97.0401 32.02H98.0201V30.438H97.2431V30.809C97.2431 31.2943 97.1754 31.698 97.0401 32.02ZM103.764 29.5V33H102.714V30.508H101.958V31.551C101.958 32.083 101.825 32.4727 101.559 32.72C101.298 32.9673 100.913 33.0607 100.404 33V32.02C100.568 32.0667 100.691 32.0433 100.775 31.95C100.864 31.8567 100.908 31.7003 100.908 31.481V29.5H103.764ZM108.139 29.5V33H107.117V31.992H106.9L106.179 33H104.989L105.808 31.845C105.598 31.7377 105.432 31.5837 105.311 31.383C105.189 31.1823 105.129 30.97 105.129 30.746C105.129 30.4147 105.245 30.1253 105.479 29.878C105.712 29.626 106.029 29.5 106.431 29.5H108.139ZM106.522 30.424C106.41 30.424 106.319 30.4567 106.249 30.522C106.183 30.5827 106.151 30.669 106.151 30.781C106.151 30.8883 106.183 30.9723 106.249 31.033C106.319 31.0937 106.41 31.124 106.522 31.124H107.117V30.424H106.522ZM115.282 32.02H115.737V33.938H114.715V33H112.769V33.938H111.747V32.02H112.181C112.367 31.7307 112.461 31.327 112.461 30.809V29.5H115.282V32.02ZM113.28 32.02H114.26V30.438H113.483V30.809C113.483 31.2943 113.415 31.698 113.28 32.02ZM119.818 32.566C119.459 32.9207 119.02 33.098 118.502 33.098C117.984 33.098 117.545 32.9207 117.186 32.566C116.827 32.2067 116.647 31.768 116.647 31.25C116.647 30.732 116.827 30.2957 117.186 29.941C117.545 29.5817 117.984 29.402 118.502 29.402C119.02 29.402 119.459 29.5817 119.818 29.941C120.177 30.2957 120.357 30.732 120.357 31.25C120.357 31.768 120.177 32.2067 119.818 32.566ZM117.928 31.845C118.082 31.999 118.273 32.076 118.502 32.076C118.731 32.076 118.922 31.999 119.076 31.845C119.23 31.691 119.307 31.4927 119.307 31.25C119.307 31.0073 119.23 30.809 119.076 30.655C118.922 30.501 118.731 30.424 118.502 30.424C118.273 30.424 118.082 30.501 117.928 30.655C117.774 30.809 117.697 31.0073 117.697 31.25C117.697 31.4927 117.774 31.691 117.928 31.845ZM125.361 29.5V33H124.353V31.194L123.569 32.412H123.443L122.659 31.194V33H121.651V29.5H122.659L123.506 30.823L124.353 29.5H125.361ZM129.37 29.5H130.42V33H129.37V32.671C129.122 32.9557 128.775 33.098 128.327 33.098C127.865 33.098 127.47 32.9207 127.144 32.566C126.817 32.2067 126.654 31.768 126.654 31.25C126.654 30.732 126.817 30.2957 127.144 29.941C127.47 29.5817 127.865 29.402 128.327 29.402C128.775 29.402 129.122 29.5443 129.37 29.829V29.5ZM127.935 31.873C128.089 32.027 128.289 32.104 128.537 32.104C128.784 32.104 128.985 32.027 129.139 31.873C129.293 31.719 129.37 31.5113 129.37 31.25C129.37 30.9887 129.293 30.781 129.139 30.627C128.985 30.473 128.784 30.396 128.537 30.396C128.289 30.396 128.089 30.473 127.935 30.627C127.781 30.781 127.704 30.9887 127.704 31.25C127.704 31.5113 127.781 31.719 127.935 31.873ZM136.02 33.098C135.488 33.098 135.045 32.9207 134.69 32.566C134.34 32.2113 134.165 31.7727 134.165 31.25C134.165 30.7273 134.34 30.2887 134.69 29.934C135.045 29.5793 135.488 29.402 136.02 29.402C136.356 29.402 136.664 29.4837 136.944 29.647C137.229 29.8103 137.448 30.0273 137.602 30.298L136.685 30.83C136.559 30.5687 136.333 30.438 136.006 30.438C135.777 30.438 135.588 30.515 135.439 30.669C135.29 30.8183 135.215 31.012 135.215 31.25C135.215 31.488 135.29 31.684 135.439 31.838C135.588 31.9873 135.777 32.062 136.006 32.062C136.337 32.062 136.564 31.9313 136.685 31.67L137.602 32.195C137.448 32.4703 137.231 32.6897 136.951 32.853C136.671 33.0163 136.361 33.098 136.02 33.098ZM144.429 32.02H144.884V33.938H143.862V33H141.916V33.938H140.894V32.02H141.328C141.514 31.7307 141.608 31.327 141.608 30.809V29.5H144.429V32.02ZM142.427 32.02H143.407V30.438H142.63V30.809C142.63 31.2943 142.562 31.698 142.427 32.02ZM148.965 32.566C148.606 32.9207 148.167 33.098 147.649 33.098C147.131 33.098 146.693 32.9207 146.333 32.566C145.974 32.2067 145.794 31.768 145.794 31.25C145.794 30.732 145.974 30.2957 146.333 29.941C146.693 29.5817 147.131 29.402 147.649 29.402C148.167 29.402 148.606 29.5817 148.965 29.941C149.325 30.2957 149.504 30.732 149.504 31.25C149.504 31.768 149.325 32.2067 148.965 32.566ZM147.075 31.845C147.229 31.999 147.421 32.076 147.649 32.076C147.878 32.076 148.069 31.999 148.223 31.845C148.377 31.691 148.454 31.4927 148.454 31.25C148.454 31.0073 148.377 30.809 148.223 30.655C148.069 30.501 147.878 30.424 147.649 30.424C147.421 30.424 147.229 30.501 147.075 30.655C146.921 30.809 146.844 31.0073 146.844 31.25C146.844 31.4927 146.921 31.691 147.075 31.845ZM152.478 33.098C151.946 33.098 151.503 32.9207 151.148 32.566C150.798 32.2113 150.623 31.7727 150.623 31.25C150.623 30.7273 150.798 30.2887 151.148 29.934C151.503 29.5793 151.946 29.402 152.478 29.402C152.814 29.402 153.122 29.4837 153.402 29.647C153.687 29.8103 153.906 30.0273 154.06 30.298L153.143 30.83C153.017 30.5687 152.791 30.438 152.464 30.438C152.235 30.438 152.046 30.515 151.897 30.669C151.748 30.8183 151.673 31.012 151.673 31.25C151.673 31.488 151.748 31.684 151.897 31.838C152.046 31.9873 152.235 32.062 152.464 32.062C152.795 32.062 153.022 31.9313 153.143 31.67L154.06 32.195C153.906 32.4703 153.689 32.6897 153.409 32.853C153.129 33.0163 152.819 33.098 152.478 33.098ZM158.018 29.5V30.508H156.975V33H155.925V30.508H154.868V29.5H158.018ZM161.575 29.5H162.625V33H161.575V32.671C161.328 32.9557 160.98 33.098 160.532 33.098C160.07 33.098 159.676 32.9207 159.349 32.566C159.022 32.2067 158.859 31.768 158.859 31.25C158.859 30.732 159.022 30.2957 159.349 29.941C159.676 29.5817 160.07 29.402 160.532 29.402C160.98 29.402 161.328 29.5443 161.575 29.829V29.5ZM160.14 31.873C160.294 32.027 160.495 32.104 160.742 32.104C160.989 32.104 161.19 32.027 161.344 31.873C161.498 31.719 161.575 31.5113 161.575 31.25C161.575 30.9887 161.498 30.781 161.344 30.627C161.19 30.473 160.989 30.396 160.742 30.396C160.495 30.396 160.294 30.473 160.14 30.627C159.986 30.781 159.909 30.9887 159.909 31.25C159.909 31.5113 159.986 31.719 160.14 31.873ZM166.706 31.208C167.019 31.376 167.175 31.6397 167.175 31.999C167.175 32.2977 167.07 32.5403 166.86 32.727C166.655 32.909 166.363 33 165.985 33H164.095V29.5H165.845C166.223 29.5 166.515 29.5933 166.72 29.78C166.93 29.962 167.035 30.2023 167.035 30.501C167.035 30.809 166.926 31.0447 166.706 31.208ZM165.733 30.34H165.075V30.83H165.733C165.939 30.83 166.041 30.7507 166.041 30.592C166.041 30.424 165.939 30.34 165.733 30.34ZM165.845 32.132C166.051 32.132 166.153 32.0457 166.153 31.873C166.153 31.7097 166.051 31.628 165.845 31.628H165.075V32.132H165.845ZM171.758 33H170.568L169.448 31.453V33H168.398V29.5H169.448V31.033L170.498 29.5H171.723L170.449 31.25L171.758 33ZM175.628 32.566C175.269 32.9207 174.83 33.098 174.312 33.098C173.794 33.098 173.355 32.9207 172.996 32.566C172.637 32.2067 172.457 31.768 172.457 31.25C172.457 30.732 172.637 30.2957 172.996 29.941C173.355 29.5817 173.794 29.402 174.312 29.402C174.83 29.402 175.269 29.5817 175.628 29.941C175.987 30.2957 176.167 30.732 176.167 31.25C176.167 31.768 175.987 32.2067 175.628 32.566ZM173.738 31.845C173.892 31.999 174.083 32.076 174.312 32.076C174.541 32.076 174.732 31.999 174.886 31.845C175.04 31.691 175.117 31.4927 175.117 31.25C175.117 31.0073 175.04 30.809 174.886 30.655C174.732 30.501 174.541 30.424 174.312 30.424C174.083 30.424 173.892 30.501 173.738 30.655C173.584 30.809 173.507 31.0073 173.507 31.25C173.507 31.4927 173.584 31.691 173.738 31.845ZM178.056 29.087V28.177H180.156V29.087H178.056ZM179.981 29.5H180.751V33H179.729V31.25L178.231 33H177.461V29.5H178.483V31.25L179.981 29.5Z" fill="#442005"/>
<line x1="47.9989" y1="31.4508" x2="60.9988" y2="31.409" stroke="#442005" stroke-width="0.7"/>
<line x1="184.999" y1="31.4508" x2="197.999" y2="31.409" stroke="#442005" stroke-width="0.7"/>
</svg>
