<svg width="183" height="41" viewBox="0 0 183 41" fill="none" xmlns="http://www.w3.org/2000/svg">
<path d="M1.57487 10.6131L19.0749 1.48268C19.6545 1.18024 20.3455 1.18024 20.9251 1.48268L38.4251 10.6131C39.0858 10.9578 39.5 11.6411 39.5 12.3863V28.6137C39.5 29.3589 39.0858 30.0422 38.4251 30.3869L20.9251 39.5173C20.3455 39.8198 19.6545 39.8198 19.0749 39.5173L1.57487 30.3869C0.914239 30.0422 0.5 29.3589 0.5 28.6137V12.3863C0.5 11.6411 0.91424 10.9578 1.57487 10.6131Z" fill="#CF4E32" stroke="#CF4E32"/>
<path d="M20.2561 12.8027L5.86758 12.8027C5.81235 12.8027 5.76758 12.8475 5.76758 12.9027V23.8073H20.4829L20.3561 12.9016C20.3555 12.8468 20.3109 12.8027 20.2561 12.8027Z" fill="#CF4E32" stroke="white" stroke-width="0.8"/>
<path d="M20.4844 18.6875H22.4038" stroke="white" stroke-width="0.8"/>
<path d="M31.0241 12.8027L23.6819 12.8027L23.0421 23.8073H34.5585V20.6674C34.5585 20.6283 34.5509 20.5897 34.5361 20.5536L31.4867 13.1131C31.4098 12.9254 31.227 12.8027 31.0241 12.8027Z" fill="#CF4E32"/>
<path d="M22.4023 23.8073H23.0421M23.0421 23.8073H34.5585V20.6674C34.5585 20.6283 34.5509 20.5897 34.5361 20.5536L31.4867 13.1131C31.4098 12.9254 31.227 12.8027 31.0241 12.8027L23.6819 12.8027L23.0421 23.8073Z" stroke="white" stroke-width="0.8"/>
<path d="M26.5151 14.4688H31.8943L33.7683 18.6914L26.5047 18.6914C26.2833 18.6914 26.1041 18.5116 26.1047 18.2902L26.1151 14.8675C26.1158 14.6471 26.2947 14.4688 26.5151 14.4688Z" fill="#CF4E32" stroke="white" stroke-width="0.6"/>
<path d="M26.1777 21.2441H26.9446" stroke="white" stroke-width="0.6" stroke-linecap="round" stroke-linejoin="round"/>
<path d="M32.9751 20.957H34.567V23.0897C33.4974 22.7596 32.9038 22.1421 32.57 21.5975C32.389 21.3022 32.6288 20.957 32.9751 20.957Z" fill="#CF4E32" stroke="white" stroke-width="0.5"/>
<path d="M5.76758 25.469V23.8496H34.5585V25.469C34.5585 25.6347 34.4242 25.769 34.2585 25.769H6.06758C5.90189 25.769 5.76758 25.6347 5.76758 25.469Z" fill="#CF4E32" stroke="white" stroke-width="0.8"/>
<path d="M20.4844 23.7871H23.0436" stroke="white" stroke-width="0.8"/>
<path d="M15.8711 15.752V19.9746" stroke="white" stroke-width="0.8" stroke-linecap="round"/>
<path d="M13.0625 15.752V19.9746" stroke="white" stroke-width="0.8" stroke-linecap="round"/>
<path d="M10.252 15.752V19.9746" stroke="white" stroke-width="0.8" stroke-linecap="round"/>
<path d="M23.8958 12.0354V23.8916H22.4484V12.0354C22.4484 11.6357 22.7724 11.3117 23.1721 11.3117C23.5718 11.3117 23.8958 11.6357 23.8958 12.0354Z" fill="#CF4E32" stroke="white" stroke-width="0.6"/>
<path d="M14.777 25.925C14.777 27.3372 13.6322 28.4821 12.2199 28.4821C10.8077 28.4821 9.66289 27.3372 9.66289 25.925C9.66289 24.5128 10.8077 23.368 12.2199 23.368C13.6322 23.368 14.777 24.5128 14.777 25.925Z" fill="#CF4E32" stroke="white" stroke-width="0.9"/>
<path d="M30.5231 25.925C30.5231 27.3372 29.3783 28.4821 27.966 28.4821C26.5538 28.4821 25.409 27.3372 25.409 25.925C25.409 24.5128 26.5538 23.368 27.966 23.368C29.3783 23.368 30.5231 24.5128 30.5231 25.925Z" fill="#CF4E32" stroke="white" stroke-width="0.9"/>
<path d="M13.2661 25.9588C13.2661 26.5352 12.7988 27.0024 12.2225 27.0024C11.6461 27.0024 11.1789 26.5352 11.1789 25.9588C11.1789 25.3825 11.6461 24.9152 12.2225 24.9152C12.7988 24.9152 13.2661 25.3825 13.2661 25.9588Z" stroke="white" stroke-width="0.6"/>
<path d="M29.0004 25.9373C29.0004 26.5137 28.5332 26.9809 27.9569 26.9809C27.3805 26.9809 26.9133 26.5137 26.9133 25.9373C26.9133 25.361 27.3805 24.8938 27.9569 24.8938C28.5332 24.8938 29.0004 25.361 29.0004 25.9373Z" stroke="white" stroke-width="0.6"/>
<path d="M53.886 9.112C55.818 9.112 57.396 9.742 58.62 11.002C59.856 12.238 60.474 13.804 60.474 15.7C60.474 17.596 59.856 19.168 58.62 20.416C57.396 21.664 55.818 22.288 53.886 22.288C52.722 22.288 51.642 22.012 50.646 21.46C49.662 20.908 48.9 20.158 48.36 19.21L51.492 17.41C51.708 17.854 52.032 18.208 52.464 18.472C52.908 18.724 53.412 18.85 53.976 18.85C55.224 18.85 56.1 18.34 56.604 17.32H52.806V14.08H56.604C56.1 13.06 55.224 12.55 53.976 12.55C53.436 12.55 52.938 12.682 52.482 12.946C52.038 13.198 51.708 13.54 51.492 13.972L48.36 12.172C48.924 11.248 49.692 10.51 50.664 9.958C51.66 9.394 52.734 9.112 53.886 9.112ZM70.4239 15.52L74.3479 22H70.3519L67.2199 16.6V22H63.6199V9.4H67.2199V14.44L70.1719 9.4H74.1679L70.4239 15.52ZM86.9288 20.398C85.6448 21.658 84.0668 22.288 82.1948 22.288C80.3228 22.288 78.7388 21.658 77.4428 20.398C76.1588 19.114 75.5168 17.548 75.5168 15.7C75.5168 13.84 76.1588 12.28 77.4428 11.02C78.7268 9.748 80.3108 9.112 82.1948 9.112C84.0788 9.112 85.6568 9.748 86.9288 11.02C88.2248 12.28 88.8728 13.84 88.8728 15.7C88.8728 17.548 88.2248 19.114 86.9288 20.398ZM79.9808 17.896C80.5688 18.472 81.3068 18.76 82.1948 18.76C83.0828 18.76 83.8148 18.472 84.3908 17.896C84.9788 17.308 85.2728 16.576 85.2728 15.7C85.2728 14.824 84.9788 14.098 84.3908 13.522C83.8148 12.934 83.0828 12.64 82.1948 12.64C81.3068 12.64 80.5688 12.934 79.9808 13.522C79.4048 14.098 79.1168 14.824 79.1168 15.7C79.1168 16.564 79.4048 17.296 79.9808 17.896ZM98.214 15.628L102.012 22H98.016L96.216 18.976L94.398 22H90.402L94.218 15.628L90.492 9.4H94.488L96.216 12.28L97.926 9.4H101.922L98.214 15.628ZM114.769 20.398C113.485 21.658 111.907 22.288 110.035 22.288C108.163 22.288 106.579 21.658 105.283 20.398C103.999 19.114 103.357 17.548 103.357 15.7C103.357 13.84 103.999 12.28 105.283 11.02C106.567 9.748 108.151 9.112 110.035 9.112C111.919 9.112 113.497 9.748 114.769 11.02C116.065 12.28 116.713 13.84 116.713 15.7C116.713 17.548 116.065 19.114 114.769 20.398ZM107.821 17.896C108.409 18.472 109.147 18.76 110.035 18.76C110.923 18.76 111.655 18.472 112.231 17.896C112.819 17.308 113.113 16.576 113.113 15.7C113.113 14.824 112.819 14.098 112.231 13.522C111.655 12.934 110.923 12.64 110.035 12.64C109.147 12.64 108.409 12.934 107.821 13.522C107.245 14.098 106.957 14.824 106.957 15.7C106.957 16.564 107.245 17.296 107.821 17.896ZM126.29 15.538C127.418 16.162 127.982 17.14 127.982 18.472C127.982 19.612 127.556 20.536 126.704 21.244C125.864 21.94 124.694 22.288 123.194 22.288C120.674 22.288 119.024 21.322 118.244 19.39L121.286 17.608C121.658 18.448 122.294 18.868 123.194 18.868C123.986 18.868 124.382 18.58 124.382 18.004C124.382 17.524 124.082 17.254 123.482 17.194L121.574 17.176V14.116L123.068 14.098C123.692 14.062 124.004 13.792 124.004 13.288C124.004 12.736 123.638 12.46 122.906 12.46C122.126 12.46 121.598 12.832 121.322 13.576L118.334 11.83C118.694 10.978 119.294 10.312 120.134 9.832C120.974 9.352 121.928 9.112 122.996 9.112C124.364 9.112 125.474 9.466 126.326 10.174C127.178 10.882 127.604 11.806 127.604 12.946C127.604 14.086 127.166 14.95 126.29 15.538Z" fill="#CF4E32"/>
<path d="M134.544 14.008H136.524C137.808 14.008 138.816 14.368 139.548 15.088C140.292 15.796 140.664 16.75 140.664 17.95C140.664 19.162 140.292 20.14 139.548 20.884C138.804 21.628 137.796 22 136.524 22H130.944V9.4H139.584V12.892H134.544V14.008ZM134.544 18.76H136.254C136.59 18.796 136.824 18.67 136.956 18.382C137.1 18.094 137.1 17.806 136.956 17.518C136.824 17.23 136.59 17.104 136.254 17.14H134.544V18.76ZM148.577 22.018H143.537V9.418H147.137V12.982H148.577C149.873 12.982 150.965 13.396 151.853 14.224C152.729 15.028 153.167 16.12 153.167 17.5C153.167 18.868 152.729 19.966 151.853 20.794C150.965 21.61 149.873 22.018 148.577 22.018ZM157.757 22.018H154.157V9.418H157.757V22.018ZM147.137 16.474V18.526H148.577C148.865 18.526 149.099 18.436 149.279 18.256C149.471 18.064 149.567 17.812 149.567 17.5C149.567 17.188 149.471 16.942 149.279 16.762C149.099 16.57 148.865 16.474 148.577 16.474H147.137ZM160.631 9.4H170.171V12.892H167.201V22H163.601V12.892H160.631V9.4Z" fill="#442005"/>
<path d="M61.76 25V25.864H60.866V28H59.966V25.864H59.06V25H61.76ZM65.1992 27.628C64.8912 27.932 64.5152 28.084 64.0712 28.084C63.6272 28.084 63.2512 27.932 62.9432 27.628C62.6352 27.32 62.4812 26.944 62.4812 26.5C62.4812 26.056 62.6352 25.682 62.9432 25.378C63.2512 25.07 63.6272 24.916 64.0712 24.916C64.5152 24.916 64.8912 25.07 65.1992 25.378C65.5072 25.682 65.6612 26.056 65.6612 26.5C65.6612 26.944 65.5072 27.32 65.1992 27.628ZM63.5792 27.01C63.7112 27.142 63.8752 27.208 64.0712 27.208C64.2672 27.208 64.4312 27.142 64.5632 27.01C64.6952 26.878 64.7612 26.708 64.7612 26.5C64.7612 26.292 64.6952 26.122 64.5632 25.99C64.4312 25.858 64.2672 25.792 64.0712 25.792C63.8752 25.792 63.7112 25.858 63.5792 25.99C63.4472 26.122 63.3812 26.292 63.3812 26.5C63.3812 26.708 63.4472 26.878 63.5792 27.01ZM69.0082 26.464C69.2762 26.608 69.4102 26.834 69.4102 27.142C69.4102 27.398 69.3202 27.606 69.1402 27.766C68.9642 27.922 68.7142 28 68.3902 28H66.7702V25H68.2702C68.5942 25 68.8442 25.08 69.0202 25.24C69.2002 25.396 69.2902 25.602 69.2902 25.858C69.2902 26.122 69.1962 26.324 69.0082 26.464ZM68.1742 25.72H67.6102V26.14H68.1742C68.3502 26.14 68.4382 26.072 68.4382 25.936C68.4382 25.792 68.3502 25.72 68.1742 25.72ZM68.2702 27.256C68.4462 27.256 68.5342 27.182 68.5342 27.034C68.5342 26.894 68.4462 26.824 68.2702 26.824H67.6102V27.256H68.2702ZM72.6361 25H73.5361V28H72.6361V27.718C72.4241 27.962 72.1261 28.084 71.7421 28.084C71.3461 28.084 71.0081 27.932 70.7281 27.628C70.4481 27.32 70.3081 26.944 70.3081 26.5C70.3081 26.056 70.4481 25.682 70.7281 25.378C71.0081 25.07 71.3461 24.916 71.7421 24.916C72.1261 24.916 72.4241 25.038 72.6361 25.282V25ZM71.4061 27.034C71.5381 27.166 71.7101 27.232 71.9221 27.232C72.1341 27.232 72.3061 27.166 72.4381 27.034C72.5701 26.902 72.6361 26.724 72.6361 26.5C72.6361 26.276 72.5701 26.098 72.4381 25.966C72.3061 25.834 72.1341 25.768 71.9221 25.768C71.7101 25.768 71.5381 25.834 71.4061 25.966C71.2741 26.098 71.2081 26.276 71.2081 26.5C71.2081 26.724 71.2741 26.902 71.4061 27.034ZM76.5904 24.916C76.9864 24.916 77.3244 25.07 77.6044 25.378C77.8844 25.682 78.0244 26.056 78.0244 26.5C78.0244 26.944 77.8844 27.32 77.6044 27.628C77.3244 27.932 76.9864 28.084 76.5904 28.084C76.2064 28.084 75.9084 27.962 75.6964 27.718V29.2H74.7964V25H75.6964V25.282C75.9084 25.038 76.2064 24.916 76.5904 24.916ZM75.8944 27.034C76.0304 27.166 76.2024 27.232 76.4104 27.232C76.6184 27.232 76.7884 27.166 76.9204 27.034C77.0564 26.902 77.1244 26.724 77.1244 26.5C77.1244 26.276 77.0564 26.098 76.9204 25.966C76.7884 25.834 76.6184 25.768 76.4104 25.768C76.2024 25.768 76.0304 25.834 75.8944 25.966C75.7624 26.098 75.6964 26.276 75.6964 26.5C75.6964 26.724 75.7624 26.902 75.8944 27.034ZM80.5387 25.9C80.8987 25.9 81.1847 25.996 81.3967 26.188C81.6087 26.38 81.7147 26.634 81.7147 26.95C81.7147 27.266 81.6087 27.52 81.3967 27.712C81.1847 27.904 80.8987 28 80.5387 28H79.1347V25H80.0347V25.9H80.5387ZM82.0147 25H82.9147V28H82.0147V25ZM80.5447 27.22C80.6327 27.22 80.7027 27.196 80.7547 27.148C80.8107 27.096 80.8387 27.03 80.8387 26.95C80.8387 26.87 80.8107 26.806 80.7547 26.758C80.7027 26.706 80.6327 26.68 80.5447 26.68H80.0347V27.22H80.5447ZM89.0361 27.16H89.4261V28.804H88.5501V28H86.8821V28.804H86.0061V27.16H86.3781C86.5381 26.912 86.6181 26.566 86.6181 26.122V25H89.0361V27.16ZM87.3201 27.16H88.1601V25.804H87.4941V26.122C87.4941 26.538 87.4361 26.884 87.3201 27.16ZM93.0837 25V28H92.1837V25.864H91.5357V26.758C91.5357 27.214 91.4217 27.548 91.1937 27.76C90.9697 27.972 90.6397 28.052 90.2037 28V27.16C90.3437 27.2 90.4497 27.18 90.5217 27.1C90.5977 27.02 90.6357 26.886 90.6357 26.698V25H93.0837ZM96.8333 25V28H95.9573V27.136H95.7713L95.1533 28H94.1333L94.8353 27.01C94.6553 26.918 94.5133 26.786 94.4093 26.614C94.3053 26.442 94.2533 26.26 94.2533 26.068C94.2533 25.784 94.3533 25.536 94.5533 25.324C94.7533 25.108 95.0253 25 95.3693 25H96.8333ZM95.4473 25.792C95.3513 25.792 95.2733 25.82 95.2133 25.876C95.1573 25.928 95.1293 26.002 95.1293 26.098C95.1293 26.19 95.1573 26.262 95.2133 26.314C95.2733 26.366 95.3513 26.392 95.4473 26.392H95.9573V25.792H95.4473ZM102.956 27.16H103.346V28.804H102.47V28H100.802V28.804H99.9256V27.16H100.298C100.458 26.912 100.538 26.566 100.538 26.122V25H102.956V27.16ZM101.24 27.16H102.08V25.804H101.414V26.122C101.414 26.538 101.356 26.884 101.24 27.16ZM106.844 27.628C106.536 27.932 106.16 28.084 105.716 28.084C105.272 28.084 104.896 27.932 104.588 27.628C104.28 27.32 104.126 26.944 104.126 26.5C104.126 26.056 104.28 25.682 104.588 25.378C104.896 25.07 105.272 24.916 105.716 24.916C106.16 24.916 106.536 25.07 106.844 25.378C107.152 25.682 107.306 26.056 107.306 26.5C107.306 26.944 107.152 27.32 106.844 27.628ZM105.224 27.01C105.356 27.142 105.52 27.208 105.716 27.208C105.912 27.208 106.076 27.142 106.208 27.01C106.34 26.878 106.406 26.708 106.406 26.5C106.406 26.292 106.34 26.122 106.208 25.99C106.076 25.858 105.912 25.792 105.716 25.792C105.52 25.792 105.356 25.858 105.224 25.99C105.092 26.122 105.026 26.292 105.026 26.5C105.026 26.708 105.092 26.878 105.224 27.01ZM111.595 25V28H110.731V26.452L110.059 27.496H109.951L109.279 26.452V28H108.415V25H109.279L110.005 26.134L110.731 25H111.595ZM115.031 25H115.931V28H115.031V27.718C114.819 27.962 114.521 28.084 114.137 28.084C113.741 28.084 113.403 27.932 113.123 27.628C112.843 27.32 112.703 26.944 112.703 26.5C112.703 26.056 112.843 25.682 113.123 25.378C113.403 25.07 113.741 24.916 114.137 24.916C114.521 24.916 114.819 25.038 115.031 25.282V25ZM113.801 27.034C113.933 27.166 114.105 27.232 114.317 27.232C114.529 27.232 114.701 27.166 114.833 27.034C114.965 26.902 115.031 26.724 115.031 26.5C115.031 26.276 114.965 26.098 114.833 25.966C114.701 25.834 114.529 25.768 114.317 25.768C114.105 25.768 113.933 25.834 113.801 25.966C113.669 26.098 113.603 26.276 113.603 26.5C113.603 26.724 113.669 26.902 113.801 27.034ZM120.731 28.084C120.275 28.084 119.895 27.932 119.591 27.628C119.291 27.324 119.141 26.948 119.141 26.5C119.141 26.052 119.291 25.676 119.591 25.372C119.895 25.068 120.275 24.916 120.731 24.916C121.019 24.916 121.283 24.986 121.523 25.126C121.767 25.266 121.955 25.452 122.087 25.684L121.301 26.14C121.193 25.916 120.999 25.804 120.719 25.804C120.523 25.804 120.361 25.87 120.233 26.002C120.105 26.13 120.041 26.296 120.041 26.5C120.041 26.704 120.105 26.872 120.233 27.004C120.361 27.132 120.523 27.196 120.719 27.196C121.003 27.196 121.197 27.084 121.301 26.86L122.087 27.31C121.955 27.546 121.769 27.734 121.529 27.874C121.289 28.014 121.023 28.084 120.731 28.084ZM127.939 27.16H128.329V28.804H127.453V28H125.785V28.804H124.909V27.16H125.281C125.441 26.912 125.521 26.566 125.521 26.122V25H127.939V27.16ZM126.223 27.16H127.063V25.804H126.397V26.122C126.397 26.538 126.339 26.884 126.223 27.16ZM131.827 27.628C131.519 27.932 131.143 28.084 130.699 28.084C130.255 28.084 129.879 27.932 129.571 27.628C129.263 27.32 129.109 26.944 129.109 26.5C129.109 26.056 129.263 25.682 129.571 25.378C129.879 25.07 130.255 24.916 130.699 24.916C131.143 24.916 131.519 25.07 131.827 25.378C132.135 25.682 132.289 26.056 132.289 26.5C132.289 26.944 132.135 27.32 131.827 27.628ZM130.207 27.01C130.339 27.142 130.503 27.208 130.699 27.208C130.895 27.208 131.059 27.142 131.191 27.01C131.323 26.878 131.389 26.708 131.389 26.5C131.389 26.292 131.323 26.122 131.191 25.99C131.059 25.858 130.895 25.792 130.699 25.792C130.503 25.792 130.339 25.858 130.207 25.99C130.075 26.122 130.009 26.292 130.009 26.5C130.009 26.708 130.075 26.878 130.207 27.01ZM134.838 28.084C134.382 28.084 134.002 27.932 133.698 27.628C133.398 27.324 133.248 26.948 133.248 26.5C133.248 26.052 133.398 25.676 133.698 25.372C134.002 25.068 134.382 24.916 134.838 24.916C135.126 24.916 135.39 24.986 135.63 25.126C135.874 25.266 136.062 25.452 136.194 25.684L135.408 26.14C135.3 25.916 135.106 25.804 134.826 25.804C134.63 25.804 134.468 25.87 134.34 26.002C134.212 26.13 134.148 26.296 134.148 26.5C134.148 26.704 134.212 26.872 134.34 27.004C134.468 27.132 134.63 27.196 134.826 27.196C135.11 27.196 135.304 27.084 135.408 26.86L136.194 27.31C136.062 27.546 135.876 27.734 135.636 27.874C135.396 28.014 135.13 28.084 134.838 28.084ZM139.587 25V25.864H138.693V28H137.793V25.864H136.887V25H139.587ZM142.636 25H143.536V28H142.636V27.718C142.424 27.962 142.126 28.084 141.742 28.084C141.346 28.084 141.008 27.932 140.728 27.628C140.448 27.32 140.308 26.944 140.308 26.5C140.308 26.056 140.448 25.682 140.728 25.378C141.008 25.07 141.346 24.916 141.742 24.916C142.126 24.916 142.424 25.038 142.636 25.282V25ZM141.406 27.034C141.538 27.166 141.71 27.232 141.922 27.232C142.134 27.232 142.306 27.166 142.438 27.034C142.57 26.902 142.636 26.724 142.636 26.5C142.636 26.276 142.57 26.098 142.438 25.966C142.306 25.834 142.134 25.768 141.922 25.768C141.71 25.768 141.538 25.834 141.406 25.966C141.274 26.098 141.208 26.276 141.208 26.5C141.208 26.724 141.274 26.902 141.406 27.034ZM147.034 26.464C147.302 26.608 147.436 26.834 147.436 27.142C147.436 27.398 147.346 27.606 147.166 27.766C146.99 27.922 146.74 28 146.416 28H144.796V25H146.296C146.62 25 146.87 25.08 147.046 25.24C147.226 25.396 147.316 25.602 147.316 25.858C147.316 26.122 147.222 26.324 147.034 26.464ZM146.2 25.72H145.636V26.14H146.2C146.376 26.14 146.464 26.072 146.464 25.936C146.464 25.792 146.376 25.72 146.2 25.72ZM146.296 27.256C146.472 27.256 146.56 27.182 146.56 27.034C146.56 26.894 146.472 26.824 146.296 26.824H145.636V27.256H146.296ZM151.364 28H150.344L149.384 26.674V28H148.484V25H149.384V26.314L150.284 25H151.334L150.242 26.5L151.364 28ZM154.681 27.628C154.373 27.932 153.997 28.084 153.553 28.084C153.109 28.084 152.733 27.932 152.425 27.628C152.117 27.32 151.963 26.944 151.963 26.5C151.963 26.056 152.117 25.682 152.425 25.378C152.733 25.07 153.109 24.916 153.553 24.916C153.997 24.916 154.373 25.07 154.681 25.378C154.989 25.682 155.143 26.056 155.143 26.5C155.143 26.944 154.989 27.32 154.681 27.628ZM153.061 27.01C153.193 27.142 153.357 27.208 153.553 27.208C153.749 27.208 153.913 27.142 154.045 27.01C154.177 26.878 154.243 26.708 154.243 26.5C154.243 26.292 154.177 26.122 154.045 25.99C153.913 25.858 153.749 25.792 153.553 25.792C153.357 25.792 153.193 25.858 153.061 25.99C152.929 26.122 152.863 26.292 152.863 26.5C152.863 26.708 152.929 26.878 153.061 27.01ZM156.762 24.646V23.866H158.562V24.646H156.762ZM158.412 25H159.072V28H158.196V26.5L156.912 28H156.252V25H157.128V26.5L158.412 25Z" fill="#442005"/>
<line x1="47.9989" y1="26.6949" x2="56.9988" y2="26.666" stroke="#442005" stroke-width="0.7"/>
<line x1="160.998" y1="26.693" x2="169.998" y2="26.65" stroke="#442005" stroke-width="0.7"/>
</svg>
