<svg width="45" height="9" viewBox="0 0 45 9" fill="none" xmlns="http://www.w3.org/2000/svg">
<path d="M1.12462 2.75384L4.02462 1.07269C4.10216 1.02773 4.19784 1.02773 4.27538 1.07269L7.17538 2.75384C7.25252 2.79856 7.3 2.88097 7.3 2.97013V6.02987C7.3 6.11903 7.25252 6.20144 7.17538 6.24615L4.27538 7.92731C4.19784 7.97227 4.10216 7.97227 4.02462 7.92731L1.12462 6.24615C1.04748 6.20144 1 6.11903 1 6.02987V2.97013C1 2.88097 1.04748 2.79856 1.12462 2.75384Z" fill="#CF4E32" stroke="#CF4E32"/>
<path d="M4.09807 2.99023H1.60977C1.55454 2.99023 1.50977 3.03501 1.50977 3.09024V5.01738H4.22049L4.19807 3.08907C4.19743 3.0343 4.15285 2.99023 4.09807 2.99023Z" fill="#CF4E32" stroke="white" stroke-width="0.2"/>
<path d="M4.2207 4.07422H4.57428" stroke="white" stroke-width="0.2"/>
<path d="M5.88878 2.99023H4.80993L4.69208 5.01738H6.81351V4.48719C6.81351 4.44817 6.8059 4.40952 6.7911 4.37342L6.35143 3.30062C6.27448 3.11287 6.09169 2.99023 5.88878 2.99023Z" fill="#CF4E32"/>
<path d="M4.57422 5.01738H4.69208M4.69208 5.01738H6.81351V4.48719C6.81351 4.44817 6.8059 4.40952 6.7911 4.37342L6.35143 3.30062C6.27448 3.11287 6.09169 2.99023 5.88878 2.99023L4.80993 2.99024L4.69208 5.01738Z" stroke="white" stroke-width="0.2"/>
<path d="M5.64597 3.29688H6.32258L6.66779 4.07474L5.64597 4.07473C5.43071 4.07473 5.25639 3.89989 5.25704 3.68463C5.25769 3.47029 5.43163 3.29688 5.64597 3.29688Z" fill="#CF4E32" stroke="white" stroke-width="0.15"/>
<path d="M5.26953 4.54492H5.4108" stroke="white" stroke-width="0.15" stroke-linecap="round" stroke-linejoin="round"/>
<path d="M6.81491 4.88504C6.75299 4.86593 6.69972 4.84159 6.65388 4.81407C6.47679 4.70778 6.60838 4.49219 6.81491 4.49219V4.88504Z" fill="#CF4E32" stroke="white" stroke-width="0.12"/>
<path d="M1.50977 5.07115V5.01758H6.81335V5.07115C6.81335 5.23684 6.67904 5.37115 6.51335 5.37115H1.80977C1.64408 5.37115 1.50977 5.23684 1.50977 5.07115Z" fill="#CF4E32" stroke="white" stroke-width="0.2"/>
<path d="M4.2207 5.01367H4.69213" stroke="white" stroke-width="0.2"/>
<path d="M3.37109 3.5332V4.31106" stroke="white" stroke-width="0.25" stroke-linecap="round"/>
<path d="M2.85352 3.5332V4.31106" stroke="white" stroke-width="0.25" stroke-linecap="round"/>
<path d="M2.33594 3.5332V4.31106" stroke="white" stroke-width="0.25" stroke-linecap="round"/>
<path d="M4.84449 2.84873V5.02802H4.58734V2.84873C4.58734 2.77772 4.64491 2.72016 4.71592 2.72016C4.78692 2.72016 4.84449 2.77772 4.84449 2.84873Z" fill="#CF4E32" stroke="white" stroke-width="0.12"/>
<path d="M3.15239 5.40745C3.15239 5.65814 2.94916 5.86138 2.69846 5.86138C2.44776 5.86138 2.24453 5.65814 2.24453 5.40745C2.24453 5.15675 2.44776 4.95352 2.69846 4.95352C2.94916 4.95352 3.15239 5.15675 3.15239 5.40745Z" fill="#CF4E32" stroke="white" stroke-width="0.2"/>
<path d="M6.05278 5.40745C6.05278 5.65814 5.84955 5.86138 5.59885 5.86138C5.34815 5.86138 5.14492 5.65814 5.14492 5.40745C5.14492 5.15675 5.34815 4.95352 5.59885 4.95352C5.84955 4.95352 6.05278 5.15675 6.05278 5.40745Z" fill="#CF4E32" stroke="white" stroke-width="0.2"/>
<path d="M2.89617 5.41352C2.89617 5.52259 2.80775 5.61102 2.69867 5.61102C2.5896 5.61102 2.50117 5.52259 2.50117 5.41352C2.50117 5.30444 2.5896 5.21602 2.69867 5.21602C2.80775 5.21602 2.89617 5.30444 2.89617 5.41352Z" stroke="white" stroke-width="0.1"/>
<path d="M5.79461 5.40961C5.79461 5.51869 5.70619 5.60711 5.59711 5.60711C5.48803 5.60711 5.39961 5.51869 5.39961 5.40961C5.39961 5.30053 5.48803 5.21211 5.59711 5.21211C5.70619 5.21211 5.79461 5.30053 5.79461 5.40961Z" stroke="white" stroke-width="0.1"/>
<path d="M11.6663 2.01961C12.2029 2.01961 12.6413 2.19461 12.9813 2.54461C13.3246 2.88794 13.4963 3.32294 13.4963 3.84961C13.4963 4.37628 13.3246 4.81294 12.9813 5.15961C12.6413 5.50628 12.2029 5.67961 11.6663 5.67961C11.3429 5.67961 11.0429 5.60294 10.7662 5.44961C10.4929 5.29628 10.2813 5.08794 10.1313 4.82461L11.0013 4.32461C11.0613 4.44794 11.1513 4.54628 11.2713 4.61961C11.3946 4.68961 11.5346 4.72461 11.6913 4.72461C12.0379 4.72461 12.2813 4.58294 12.4213 4.29961H11.3663V3.39961H12.4213C12.2813 3.11628 12.0379 2.97461 11.6913 2.97461C11.5413 2.97461 11.4029 3.01128 11.2763 3.08461C11.1529 3.15461 11.0613 3.24961 11.0013 3.36961L10.1313 2.86961C10.2879 2.61294 10.5013 2.40794 10.7713 2.25461C11.0479 2.09794 11.3463 2.01961 11.6663 2.01961ZM16.2601 3.79961L17.3501 5.59961H16.2401L15.3701 4.09961V5.59961H14.3701V2.09961H15.3701V3.49961L16.1901 2.09961H17.3001L16.2601 3.79961ZM20.8448 5.15461C20.4881 5.50461 20.0498 5.67961 19.5298 5.67961C19.0098 5.67961 18.5698 5.50461 18.2098 5.15461C17.8531 4.79794 17.6748 4.36294 17.6748 3.84961C17.6748 3.33294 17.8531 2.89961 18.2098 2.54961C18.5665 2.19628 19.0065 2.01961 19.5298 2.01961C20.0531 2.01961 20.4915 2.19628 20.8448 2.54961C21.2048 2.89961 21.3848 3.33294 21.3848 3.84961C21.3848 4.36294 21.2048 4.79794 20.8448 5.15461ZM18.9148 4.45961C19.0781 4.61961 19.2831 4.69961 19.5298 4.69961C19.7765 4.69961 19.9798 4.61961 20.1398 4.45961C20.3031 4.29628 20.3848 4.09294 20.3848 3.84961C20.3848 3.60628 20.3031 3.40461 20.1398 3.24461C19.9798 3.08128 19.7765 2.99961 19.5298 2.99961C19.2831 2.99961 19.0781 3.08128 18.9148 3.24461C18.7548 3.40461 18.6748 3.60628 18.6748 3.84961C18.6748 4.08961 18.7548 4.29294 18.9148 4.45961ZM23.9796 3.82961L25.0346 5.59961H23.9246L23.4246 4.75961L22.9196 5.59961H21.8096L22.8696 3.82961L21.8346 2.09961H22.9446L23.4246 2.89961L23.8996 2.09961H25.0096L23.9796 3.82961ZM28.5782 5.15461C28.2215 5.50461 27.7832 5.67961 27.2632 5.67961C26.7432 5.67961 26.3032 5.50461 25.9432 5.15461C25.5865 4.79794 25.4082 4.36294 25.4082 3.84961C25.4082 3.33294 25.5865 2.89961 25.9432 2.54961C26.2999 2.19628 26.7399 2.01961 27.2632 2.01961C27.7865 2.01961 28.2249 2.19628 28.5782 2.54961C28.9382 2.89961 29.1182 3.33294 29.1182 3.84961C29.1182 4.36294 28.9382 4.79794 28.5782 5.15461ZM26.6482 4.45961C26.8115 4.61961 27.0165 4.69961 27.2632 4.69961C27.5099 4.69961 27.7132 4.61961 27.8732 4.45961C28.0365 4.29628 28.1182 4.09294 28.1182 3.84961C28.1182 3.60628 28.0365 3.40461 27.8732 3.24461C27.7132 3.08128 27.5099 2.99961 27.2632 2.99961C27.0165 2.99961 26.8115 3.08128 26.6482 3.24461C26.4882 3.40461 26.4082 3.60628 26.4082 3.84961C26.4082 4.08961 26.4882 4.29294 26.6482 4.45961ZM31.7786 3.80461C32.0919 3.97794 32.2486 4.24961 32.2486 4.61961C32.2486 4.93628 32.1302 5.19294 31.8936 5.38961C31.6602 5.58294 31.3352 5.67961 30.9186 5.67961C30.2186 5.67961 29.7602 5.41128 29.5436 4.87461L30.3886 4.37961C30.4919 4.61294 30.6686 4.72961 30.9186 4.72961C31.1386 4.72961 31.2486 4.64961 31.2486 4.48961C31.2486 4.35628 31.1652 4.28128 30.9986 4.26461L30.4686 4.25961V3.40961L30.8836 3.40461C31.0569 3.39461 31.1436 3.31961 31.1436 3.17961C31.1436 3.02628 31.0419 2.94961 30.8386 2.94961C30.6219 2.94961 30.4752 3.05294 30.3986 3.25961L29.5686 2.77461C29.6686 2.53794 29.8352 2.35294 30.0686 2.21961C30.3019 2.08628 30.5669 2.01961 30.8636 2.01961C31.2436 2.01961 31.5519 2.11794 31.7886 2.31461C32.0252 2.51128 32.1436 2.76794 32.1436 3.08461C32.1436 3.40128 32.0219 3.64128 31.7786 3.80461Z" fill="#CF4E32"/>
<path d="M34.0713 3.37961H34.6213C34.978 3.37961 35.258 3.47961 35.4613 3.67961C35.668 3.87628 35.7713 4.14128 35.7713 4.47461C35.7713 4.81128 35.668 5.08294 35.4613 5.28961C35.2546 5.49628 34.9746 5.59961 34.6213 5.59961H33.0713V2.09961H35.4713V3.06961H34.0713V3.37961ZM34.0713 4.69961H34.5463C34.6396 4.70961 34.7046 4.67461 34.7413 4.59461C34.7813 4.51461 34.7813 4.43461 34.7413 4.35461C34.7046 4.27461 34.6396 4.23961 34.5463 4.24961H34.0713V4.69961ZM37.9693 5.60461H36.5693V2.10461H37.5693V3.09461H37.9693C38.3293 3.09461 38.6327 3.20961 38.8793 3.43961C39.1227 3.66294 39.2443 3.96628 39.2443 4.34961C39.2443 4.72961 39.1227 5.03461 38.8793 5.26461C38.6327 5.49128 38.3293 5.60461 37.9693 5.60461ZM40.5193 5.60461H39.5193V2.10461H40.5193V5.60461ZM37.5693 4.06461V4.63461H37.9693C38.0493 4.63461 38.1143 4.60961 38.1643 4.55961C38.2177 4.50628 38.2443 4.43628 38.2443 4.34961C38.2443 4.26294 38.2177 4.19461 38.1643 4.14461C38.1143 4.09128 38.0493 4.06461 37.9693 4.06461H37.5693ZM41.3176 2.09961H43.9676V3.06961H43.1426V5.59961H42.1426V3.06961H41.3176V2.09961Z" fill="black"/>
<path d="M16.1615 6.91461V7.11189H15.9573V7.59961H15.7518V7.11189H15.545V6.91461H16.1615ZM16.9467 7.51467C16.8764 7.58408 16.7905 7.61879 16.6892 7.61879C16.5878 7.61879 16.5019 7.58408 16.4316 7.51467C16.3613 7.44434 16.3261 7.35849 16.3261 7.25711C16.3261 7.15573 16.3613 7.07033 16.4316 7.00092C16.5019 6.93059 16.5878 6.89543 16.6892 6.89543C16.7905 6.89543 16.8764 6.93059 16.9467 7.00092C17.0171 7.07033 17.0522 7.15573 17.0522 7.25711C17.0522 7.35849 17.0171 7.44434 16.9467 7.51467ZM16.5768 7.37356C16.607 7.4037 16.6444 7.41877 16.6892 7.41877C16.7339 7.41877 16.7714 7.4037 16.8015 7.37356C16.8316 7.34342 16.8467 7.3046 16.8467 7.25711C16.8467 7.20962 16.8316 7.1708 16.8015 7.14066C16.7714 7.11052 16.7339 7.09545 16.6892 7.09545C16.6444 7.09545 16.607 7.11052 16.5768 7.14066C16.5467 7.1708 16.5316 7.20962 16.5316 7.25711C16.5316 7.3046 16.5467 7.34342 16.5768 7.37356ZM17.8165 7.24889C17.8777 7.28177 17.9083 7.33337 17.9083 7.4037C17.9083 7.46215 17.8877 7.50965 17.8466 7.54618C17.8064 7.5818 17.7493 7.59961 17.6754 7.59961H17.3055V6.91461H17.648C17.7219 6.91461 17.779 6.93288 17.8192 6.96941C17.8603 7.00503 17.8809 7.05207 17.8809 7.11052C17.8809 7.1708 17.8594 7.21692 17.8165 7.24889ZM17.626 7.07901H17.4973V7.17491H17.626C17.6662 7.17491 17.6863 7.15938 17.6863 7.12833C17.6863 7.09545 17.6662 7.07901 17.626 7.07901ZM17.648 7.42973C17.6881 7.42973 17.7082 7.41283 17.7082 7.37904C17.7082 7.34707 17.6881 7.33109 17.648 7.33109H17.4973V7.42973H17.648ZM18.6448 6.91461H18.8503V7.59961H18.6448V7.53522C18.5964 7.59093 18.5284 7.61879 18.4407 7.61879C18.3503 7.61879 18.2731 7.58408 18.2092 7.51467C18.1452 7.44434 18.1133 7.35849 18.1133 7.25711C18.1133 7.15573 18.1452 7.07033 18.2092 7.00092C18.2731 6.93059 18.3503 6.89543 18.4407 6.89543C18.5284 6.89543 18.5964 6.92329 18.6448 6.979V6.91461ZM18.364 7.37904C18.3941 7.40918 18.4334 7.42425 18.4818 7.42425C18.5302 7.42425 18.5695 7.40918 18.5996 7.37904C18.6298 7.3489 18.6448 7.30826 18.6448 7.25711C18.6448 7.20596 18.6298 7.16532 18.5996 7.13518C18.5695 7.10504 18.5302 7.08997 18.4818 7.08997C18.4334 7.08997 18.3941 7.10504 18.364 7.13518C18.3338 7.16532 18.3188 7.20596 18.3188 7.25711C18.3188 7.30826 18.3338 7.3489 18.364 7.37904ZM19.5477 6.89543C19.6381 6.89543 19.7153 6.93059 19.7793 7.00092C19.8432 7.07033 19.8752 7.15573 19.8752 7.25711C19.8752 7.35849 19.8432 7.44434 19.7793 7.51467C19.7153 7.58408 19.6381 7.61879 19.5477 7.61879C19.46 7.61879 19.392 7.59093 19.3436 7.53522V7.87361H19.1381V6.91461H19.3436V6.979C19.392 6.92329 19.46 6.89543 19.5477 6.89543ZM19.3888 7.37904C19.4199 7.40918 19.4591 7.42425 19.5066 7.42425C19.5541 7.42425 19.5929 7.40918 19.6231 7.37904C19.6541 7.3489 19.6697 7.30826 19.6697 7.25711C19.6697 7.20596 19.6541 7.16532 19.6231 7.13518C19.5929 7.10504 19.5541 7.08997 19.5066 7.08997C19.4591 7.08997 19.4199 7.10504 19.3888 7.13518C19.3587 7.16532 19.3436 7.20596 19.3436 7.25711C19.3436 7.30826 19.3587 7.3489 19.3888 7.37904ZM20.4493 7.12011C20.5315 7.12011 20.5968 7.14203 20.6452 7.18587C20.6936 7.22971 20.7178 7.28771 20.7178 7.35986C20.7178 7.43201 20.6936 7.49001 20.6452 7.53385C20.5968 7.57769 20.5315 7.59961 20.4493 7.59961H20.1287V6.91461H20.3342V7.12011H20.4493ZM20.7863 6.91461H20.9918V7.59961H20.7863V6.91461ZM20.4506 7.42151C20.4707 7.42151 20.4867 7.41603 20.4986 7.40507C20.5114 7.3932 20.5178 7.37813 20.5178 7.35986C20.5178 7.34159 20.5114 7.32698 20.4986 7.31602C20.4867 7.30415 20.4707 7.29821 20.4506 7.29821H20.3342V7.42151H20.4506ZM22.3895 7.40781H22.4785V7.78319H22.2785V7.59961H21.8977V7.78319H21.6976V7.40781H21.7826C21.8191 7.35118 21.8374 7.27218 21.8374 7.1708V6.91461H22.3895V7.40781ZM21.9977 7.40781H22.1895V7.09819H22.0374V7.1708C22.0374 7.26579 22.0242 7.34479 21.9977 7.40781ZM23.3137 6.91461V7.59961H23.1082V7.11189H22.9602V7.31602C22.9602 7.42014 22.9342 7.4964 22.8822 7.54481C22.831 7.59322 22.7557 7.61148 22.6561 7.59961V7.40781C22.6881 7.41694 22.7123 7.41238 22.7287 7.39411C22.7461 7.37584 22.7547 7.34525 22.7547 7.30232V6.91461H23.3137ZM24.1698 6.91461V7.59961H23.9698V7.40233H23.9274L23.7862 7.59961H23.5533L23.7136 7.37356C23.6725 7.35255 23.6401 7.32241 23.6164 7.28314C23.5926 7.24387 23.5807 7.20231 23.5807 7.15847C23.5807 7.09362 23.6036 7.037 23.6492 6.98859C23.6949 6.93927 23.757 6.91461 23.8356 6.91461H24.1698ZM23.8534 7.09545C23.8315 7.09545 23.8136 7.10184 23.7999 7.11463C23.7872 7.1265 23.7808 7.1434 23.7808 7.16532C23.7808 7.18633 23.7872 7.20277 23.7999 7.21464C23.8136 7.22651 23.8315 7.23245 23.8534 7.23245H23.9698V7.09545H23.8534ZM25.5678 7.40781H25.6568V7.78319H25.4568V7.59961H25.076V7.78319H24.8759V7.40781H24.9609C24.9974 7.35118 25.0157 7.27218 25.0157 7.1708V6.91461H25.5678V7.40781ZM25.176 7.40781H25.3678V7.09819H25.2157V7.1708C25.2157 7.26579 25.2025 7.34479 25.176 7.40781ZM26.4557 7.51467C26.3853 7.58408 26.2995 7.61879 26.1981 7.61879C26.0967 7.61879 26.0109 7.58408 25.9405 7.51467C25.8702 7.44434 25.835 7.35849 25.835 7.25711C25.835 7.15573 25.8702 7.07033 25.9405 7.00092C26.0109 6.93059 26.0967 6.89543 26.1981 6.89543C26.2995 6.89543 26.3853 6.93059 26.4557 7.00092C26.526 7.07033 26.5611 7.15573 26.5611 7.25711C26.5611 7.35849 26.526 7.44434 26.4557 7.51467ZM26.0858 7.37356C26.1159 7.4037 26.1533 7.41877 26.1981 7.41877C26.2428 7.41877 26.2803 7.4037 26.3104 7.37356C26.3406 7.34342 26.3556 7.3046 26.3556 7.25711C26.3556 7.20962 26.3406 7.1708 26.3104 7.14066C26.2803 7.11052 26.2428 7.09545 26.1981 7.09545C26.1533 7.09545 26.1159 7.11052 26.0858 7.14066C26.0556 7.1708 26.0405 7.20962 26.0405 7.25711C26.0405 7.3046 26.0556 7.34342 26.0858 7.37356ZM27.5405 6.91461V7.59961H27.3432V7.24615L27.1898 7.48453H27.1651L27.0117 7.24615V7.59961H26.8144V6.91461H27.0117L27.1774 7.17354L27.3432 6.91461H27.5405ZM28.325 6.91461H28.5305V7.59961H28.325V7.53522C28.2766 7.59093 28.2086 7.61879 28.1209 7.61879C28.0305 7.61879 27.9533 7.58408 27.8893 7.51467C27.8254 7.44434 27.7934 7.35849 27.7934 7.25711C27.7934 7.15573 27.8254 7.07033 27.8893 7.00092C27.9533 6.93059 28.0305 6.89543 28.1209 6.89543C28.2086 6.89543 28.2766 6.92329 28.325 6.979V6.91461ZM28.0442 7.37904C28.0743 7.40918 28.1136 7.42425 28.162 7.42425C28.2104 7.42425 28.2497 7.40918 28.2798 7.37904C28.3099 7.3489 28.325 7.30826 28.325 7.25711C28.325 7.20596 28.3099 7.16532 28.2798 7.13518C28.2497 7.10504 28.2104 7.08997 28.162 7.08997C28.1136 7.08997 28.0743 7.10504 28.0442 7.13518C28.014 7.16532 27.9989 7.20596 27.9989 7.25711C27.9989 7.30826 28.014 7.3489 28.0442 7.37904ZM29.6266 7.61879C29.5224 7.61879 29.4357 7.58408 29.3663 7.51467C29.2978 7.44526 29.2635 7.3594 29.2635 7.25711C29.2635 7.15482 29.2978 7.06896 29.3663 6.99955C29.4357 6.93014 29.5224 6.89543 29.6266 6.89543C29.6923 6.89543 29.7526 6.91141 29.8074 6.94338C29.8631 6.97535 29.906 7.01782 29.9362 7.07079L29.7567 7.17491C29.7321 7.12376 29.6878 7.09819 29.6238 7.09819C29.5791 7.09819 29.5421 7.11326 29.5129 7.1434C29.4836 7.17263 29.469 7.21053 29.469 7.25711C29.469 7.30369 29.4836 7.34205 29.5129 7.37219C29.5421 7.40142 29.5791 7.41603 29.6238 7.41603C29.6887 7.41603 29.733 7.39046 29.7567 7.33931L29.9362 7.44206C29.906 7.49595 29.8636 7.53887 29.8088 7.57084C29.754 7.60281 29.6932 7.61879 29.6266 7.61879ZM31.2723 7.40781H31.3613V7.78319H31.1613V7.59961H30.7805V7.78319H30.5804V7.40781H30.6654C30.7019 7.35118 30.7202 7.27218 30.7202 7.1708V6.91461H31.2723V7.40781ZM30.8805 7.40781H31.0723V7.09819H30.9202V7.1708C30.9202 7.26579 30.9069 7.34479 30.8805 7.40781ZM32.1601 7.51467C32.0898 7.58408 32.004 7.61879 31.9026 7.61879C31.8012 7.61879 31.7154 7.58408 31.645 7.51467C31.5747 7.44434 31.5395 7.35849 31.5395 7.25711C31.5395 7.15573 31.5747 7.07033 31.645 7.00092C31.7154 6.93059 31.8012 6.89543 31.9026 6.89543C32.004 6.89543 32.0898 6.93059 32.1601 7.00092C32.2305 7.07033 32.2656 7.15573 32.2656 7.25711C32.2656 7.35849 32.2305 7.44434 32.1601 7.51467ZM31.7902 7.37356C31.8204 7.4037 31.8578 7.41877 31.9026 7.41877C31.9473 7.41877 31.9848 7.4037 32.0149 7.37356C32.0451 7.34342 32.0601 7.3046 32.0601 7.25711C32.0601 7.20962 32.0451 7.1708 32.0149 7.14066C31.9848 7.11052 31.9473 7.09545 31.9026 7.09545C31.8578 7.09545 31.8204 7.11052 31.7902 7.14066C31.7601 7.1708 31.745 7.20962 31.745 7.25711C31.745 7.3046 31.7601 7.34342 31.7902 7.37356ZM32.8477 7.61879C32.7436 7.61879 32.6568 7.58408 32.5874 7.51467C32.5189 7.44526 32.4846 7.3594 32.4846 7.25711C32.4846 7.15482 32.5189 7.06896 32.5874 6.99955C32.6568 6.93014 32.7436 6.89543 32.8477 6.89543C32.9134 6.89543 32.9737 6.91141 33.0285 6.94338C33.0842 6.97535 33.1272 7.01782 33.1573 7.07079L32.9778 7.17491C32.9532 7.12376 32.9089 7.09819 32.8449 7.09819C32.8002 7.09819 32.7632 7.11326 32.734 7.1434C32.7047 7.17263 32.6901 7.21053 32.6901 7.25711C32.6901 7.30369 32.7047 7.34205 32.734 7.37219C32.7632 7.40142 32.8002 7.41603 32.8449 7.41603C32.9098 7.41603 32.9541 7.39046 32.9778 7.33931L33.1573 7.44206C33.1272 7.49595 33.0847 7.53887 33.0299 7.57084C32.9751 7.60281 32.9143 7.61879 32.8477 7.61879ZM33.9318 6.91461V7.11189H33.7277V7.59961H33.5222V7.11189H33.3153V6.91461H33.9318ZM34.6281 6.91461H34.8336V7.59961H34.6281V7.53522C34.5797 7.59093 34.5116 7.61879 34.4239 7.61879C34.3335 7.61879 34.2563 7.58408 34.1924 7.51467C34.1285 7.44434 34.0965 7.35849 34.0965 7.25711C34.0965 7.15573 34.1285 7.07033 34.1924 7.00092C34.2563 6.93059 34.3335 6.89543 34.4239 6.89543C34.5116 6.89543 34.5797 6.92329 34.6281 6.979V6.91461ZM34.3472 7.37904C34.3774 7.40918 34.4166 7.42425 34.465 7.42425C34.5135 7.42425 34.5527 7.40918 34.5829 7.37904C34.613 7.3489 34.6281 7.30826 34.6281 7.25711C34.6281 7.20596 34.613 7.16532 34.5829 7.13518C34.5527 7.10504 34.5135 7.08997 34.465 7.08997C34.4166 7.08997 34.3774 7.10504 34.3472 7.13518C34.3171 7.16532 34.302 7.20596 34.302 7.25711C34.302 7.30826 34.3171 7.3489 34.3472 7.37904ZM35.6324 7.24889C35.6935 7.28177 35.7241 7.33337 35.7241 7.4037C35.7241 7.46215 35.7036 7.50965 35.6625 7.54618C35.6223 7.5818 35.5652 7.59961 35.4912 7.59961H35.1213V6.91461H35.4638C35.5378 6.91461 35.5949 6.93288 35.6351 6.96941C35.6762 7.00503 35.6967 7.05207 35.6967 7.11052C35.6967 7.1708 35.6753 7.21692 35.6324 7.24889ZM35.4419 7.07901H35.3131V7.17491H35.4419C35.4821 7.17491 35.5022 7.15938 35.5022 7.12833C35.5022 7.09545 35.4821 7.07901 35.4419 7.07901ZM35.4638 7.42973C35.504 7.42973 35.5241 7.41283 35.5241 7.37904C35.5241 7.34707 35.504 7.33109 35.4638 7.33109H35.3131V7.42973H35.4638ZM36.621 7.59961H36.3881L36.1689 7.29684V7.59961H35.9634V6.91461H36.1689V7.21464L36.3744 6.91461H36.6142L36.3648 7.25711L36.621 7.59961ZM37.3785 7.51467C37.3081 7.58408 37.2223 7.61879 37.1209 7.61879C37.0195 7.61879 36.9337 7.58408 36.8633 7.51467C36.793 7.44434 36.7578 7.35849 36.7578 7.25711C36.7578 7.15573 36.793 7.07033 36.8633 7.00092C36.9337 6.93059 37.0195 6.89543 37.1209 6.89543C37.2223 6.89543 37.3081 6.93059 37.3785 7.00092C37.4488 7.07033 37.4839 7.15573 37.4839 7.25711C37.4839 7.35849 37.4488 7.44434 37.3785 7.51467ZM37.0086 7.37356C37.0387 7.4037 37.0761 7.41877 37.1209 7.41877C37.1657 7.41877 37.2031 7.4037 37.2332 7.37356C37.2634 7.34342 37.2784 7.3046 37.2784 7.25711C37.2784 7.20962 37.2634 7.1708 37.2332 7.14066C37.2031 7.11052 37.1657 7.09545 37.1209 7.09545C37.0761 7.09545 37.0387 7.11052 37.0086 7.14066C36.9784 7.1708 36.9633 7.20962 36.9633 7.25711C36.9633 7.3046 36.9784 7.34342 37.0086 7.37356ZM37.8536 6.83378V6.65568H38.2646V6.83378H37.8536ZM38.2304 6.91461H38.3811V7.59961H38.1811V7.25711L37.8879 7.59961H37.7372V6.91461H37.9372V7.25711L38.2304 6.91461Z" fill="black"/>
<line x1="10" y1="7.19883" x2="15" y2="7.19883" stroke="black" stroke-width="0.2"/>
<line x1="39.25" y1="7.19883" x2="44.25" y2="7.19883" stroke="black" stroke-width="0.2"/>
</svg>
