<svg width="64" height="36" viewBox="0 0 64 36" fill="none" xmlns="http://www.w3.org/2000/svg">
<path d="M0 7.83594L4.35959 15.6284V20.3816L0.0051 28.1588L0 7.83594Z" fill="#5B57A2"/>
<path d="M16.7383 12.7928L20.8234 10.289L29.1838 10.2812L16.7383 17.9055V12.7928Z" fill="#D90751"/>
<path d="M16.7159 7.79011L16.7389 18.1071L12.3691 15.4221V0L16.7159 7.79011Z" fill="#FAB718"/>
<path d="M29.1844 10.2813L20.8237 10.2891L16.7159 7.79011L12.3691 0L29.1844 10.2813Z" fill="#ED6F26"/>
<path d="M16.7389 28.202V23.1965L12.3691 20.5625L12.3715 35.9999L16.7389 28.202Z" fill="#63B22F"/>
<path d="M20.814 25.721L4.3593 15.6284L0 7.83594L29.1668 25.7108L20.814 25.721Z" fill="#1487C9"/>
<path d="M12.373 36L16.7398 28.2021L20.8148 25.7211L29.1676 25.7109L12.373 36Z" fill="#017F36"/>
<path d="M0.00585938 28.1597L12.4058 20.5637L8.23695 18.0059L4.36035 20.3825L0.00585938 28.1597Z" fill="#984995"/>
<path fill-rule="evenodd" clip-rule="evenodd" d="M47.6657 23.5427C50.4791 23.5427 52.5682 21.8177 52.5682 19.2026C52.5682 16.6714 51.0269 15.0281 48.4508 15.0281C47.2619 15.0281 46.2808 15.4465 45.542 16.1686C45.7184 14.6763 46.9804 13.5864 48.37 13.5864C48.6908 13.5864 51.1052 13.5815 51.1052 13.5815L52.4705 10.9688C52.4705 10.9688 49.4393 11.0379 48.0302 11.0379C44.8106 11.0939 42.6359 14.0203 42.6359 17.5746C42.6359 21.7157 44.7569 23.5427 47.6657 23.5427ZM47.6829 17.3423C48.7275 17.3423 49.4515 18.0287 49.4515 19.2023C49.4515 20.2585 48.8082 21.1289 47.6829 21.1312C46.6063 21.1312 45.8822 20.3247 45.8822 19.2202C45.8822 18.0463 46.6063 17.3423 47.6829 17.3423ZM63.4318 14.4267V23.228H60.289V17.054H57.2629V23.228H54.1201V14.4261L63.4318 14.4267ZM38.227 20.7902C39.3356 20.7094 40.0777 20.2813 40.0777 20.2813L41.2408 22.4332C40.4959 22.9116 39.2738 23.2228 38.3878 23.2556C35.2184 23.3138 33.0137 21.3852 33.0137 18.5754C33.0137 15.801 35.3593 13.8264 38.3878 13.8264C39.5878 13.8264 40.6195 14.1483 41.3941 14.7355C41.2311 15.0243 41.0095 15.4245 40.7988 15.8074L40.4615 16.4221L40.1546 16.9834C40.1546 16.9834 39.0386 16.3986 38.1949 16.3986C36.8192 16.3986 35.8172 17.1982 35.8172 18.5929C35.8172 20.0232 36.9526 20.828 38.227 20.7902Z" fill="black"/>
</svg>
