<svg width="36" height="37" viewBox="0 0 36 37" fill="none" xmlns="http://www.w3.org/2000/svg">
<path d="M4.5 6.53857C4.5 6.26243 4.72386 6.03857 5 6.03857H31C31.2761 6.03857 31.5 6.26243 31.5 6.53857V8.53857C31.5 8.81472 31.2761 9.03857 31 9.03857H5C4.72386 9.03857 4.5 8.81472 4.5 8.53857V6.53857ZM4.5 17.0386C4.5 16.7624 4.72386 16.5386 5 16.5386H22C22.2761 16.5386 22.5 16.7624 22.5 17.0386V19.0386C22.5 19.3147 22.2761 19.5386 22 19.5386H5C4.72386 19.5386 4.5 19.3147 4.5 19.0386V17.0386ZM4.5 27.5386C4.5 27.2624 4.72386 27.0386 5 27.0386H31C31.2761 27.0386 31.5 27.2624 31.5 27.5386V29.5386C31.5 29.8147 31.2761 30.0386 31 30.0386H5C4.72386 30.0386 4.5 29.8147 4.5 29.5386V27.5386Z" fill="white"/>
</svg>
