<svg width="10" height="18" viewBox="0 0 10 18" fill="none" xmlns="http://www.w3.org/2000/svg">
<g clipPath="url(#clip0_1546_1420)">
<g filter="url(#filter0_d_1546_1420)">
<g filter="url(#filter1_d_1546_1420)">
<path d="M7 14.8857C7 13.828 6.10457 12.9705 5 12.9705C3.89543 12.9705 3 13.828 3 14.8857C3 15.9433 3.89543 16.8008 5 16.8008C6.10457 16.8008 7 15.9433 7 14.8857Z" fill="white"/>
<path d="M7 14.8857C7 13.828 6.10457 12.9705 5 12.9705C3.89543 12.9705 3 13.828 3 14.8857C3 15.9433 3.89543 16.8008 5 16.8008C6.10457 16.8008 7 15.9433 7 14.8857Z" stroke="#565656" strokeLinejoin="round"/>
</g>
</g>
<g filter="url(#filter2_d_1546_1420)">
<g filter="url(#filter3_d_1546_1420)">
<path d="M7 9.08487C7 8.02718 6.10457 7.16975 5 7.16975C3.89543 7.16975 3 8.02718 3 9.08487C3 10.1426 3.89543 11 5 11C6.10457 11 7 10.1426 7 9.08487Z" fill="white"/>
<path d="M7 9.08487C7 8.02718 6.10457 7.16975 5 7.16975C3.89543 7.16975 3 8.02718 3 9.08487C3 10.1426 3.89543 11 5 11C6.10457 11 7 10.1426 7 9.08487Z" stroke="#565656" strokeLinejoin="round"/>
</g>
</g>
<g filter="url(#filter4_d_1546_1420)">
<g filter="url(#filter5_d_1546_1420)">
<path d="M7 3.22354C7 2.16585 6.10457 1.30842 5 1.30842C3.89543 1.30842 3 2.16585 3 3.22354C3 4.28124 3.89543 5.13867 5 5.13867C6.10457 5.13867 7 4.28124 7 3.22354Z" fill="white"/>
<path d="M7 3.22354C7 2.16585 6.10457 1.30842 5 1.30842C3.89543 1.30842 3 2.16585 3 3.22354C3 4.28124 3.89543 5.13867 5 5.13867C6.10457 5.13867 7 4.28124 7 3.22354Z" stroke="#565656" strokeLinejoin="round"/>
</g>
</g>
</g>
<defs>
<filter id="filter0_d_1546_1420" x="1.5" y="12.4707" width="7" height="6.83008" filterUnits="userSpaceOnUse" color-interpolation-filters="sRGB">
<feFlood flood-opacity="0" result="BackgroundImageFix"/>
<feColorMatrix in="SourceAlpha" type="matrix" values="0 0 0 0 0 0 0 0 0 0 0 0 0 0 0 0 0 0 127 0" result="hardAlpha"/>
<feOffset dy="1"/>
<feGaussianBlur stdDeviation="0.5"/>
<feColorMatrix type="matrix" values="0 0 0 0 0 0 0 0 0 0 0 0 0 0 0 0 0 0 0.1 0"/>
<feBlend mode="normal" in2="BackgroundImageFix" result="effect1_dropShadow_1546_1420"/>
<feBlend mode="normal" in="SourceGraphic" in2="effect1_dropShadow_1546_1420" result="shape"/>
</filter>
<filter id="filter1_d_1546_1420" x="2" y="11.9707" width="6" height="5.83008" filterUnits="userSpaceOnUse" color-interpolation-filters="sRGB">
<feFlood flood-opacity="0" result="BackgroundImageFix"/>
<feColorMatrix in="SourceAlpha" type="matrix" values="0 0 0 0 0 0 0 0 0 0 0 0 0 0 0 0 0 0 127 0" result="hardAlpha"/>
<feOffset/>
<feGaussianBlur stdDeviation="0.25"/>
<feComposite in2="hardAlpha" operator="out"/>
<feColorMatrix type="matrix" values="0 0 0 0 0 0 0 0 0 0 0 0 0 0 0 0 0 0 0.5 0"/>
<feBlend mode="normal" in2="BackgroundImageFix" result="effect1_dropShadow_1546_1420"/>
<feBlend mode="normal" in="SourceGraphic" in2="effect1_dropShadow_1546_1420" result="shape"/>
</filter>
<filter id="filter2_d_1546_1420" x="2" y="6.16992" width="6" height="5.83008" filterUnits="userSpaceOnUse" color-interpolation-filters="sRGB">
<feFlood flood-opacity="0" result="BackgroundImageFix"/>
<feColorMatrix in="SourceAlpha" type="matrix" values="0 0 0 0 0 0 0 0 0 0 0 0 0 0 0 0 0 0 127 0" result="hardAlpha"/>
<feOffset/>
<feGaussianBlur stdDeviation="0.25"/>
<feComposite in2="hardAlpha" operator="out"/>
<feColorMatrix type="matrix" values="0 0 0 0 0 0 0 0 0 0 0 0 0 0 0 0 0 0 0.1 0"/>
<feBlend mode="normal" in2="BackgroundImageFix" result="effect1_dropShadow_1546_1420"/>
<feBlend mode="normal" in="SourceGraphic" in2="effect1_dropShadow_1546_1420" result="shape"/>
</filter>
<filter id="filter3_d_1546_1420" x="2" y="6.16992" width="6" height="5.83008" filterUnits="userSpaceOnUse" color-interpolation-filters="sRGB">
<feFlood flood-opacity="0" result="BackgroundImageFix"/>
<feColorMatrix in="SourceAlpha" type="matrix" values="0 0 0 0 0 0 0 0 0 0 0 0 0 0 0 0 0 0 127 0" result="hardAlpha"/>
<feOffset/>
<feGaussianBlur stdDeviation="0.25"/>
<feComposite in2="hardAlpha" operator="out"/>
<feColorMatrix type="matrix" values="0 0 0 0 0 0 0 0 0 0 0 0 0 0 0 0 0 0 0.5 0"/>
<feBlend mode="normal" in2="BackgroundImageFix" result="effect1_dropShadow_1546_1420"/>
<feBlend mode="normal" in="SourceGraphic" in2="effect1_dropShadow_1546_1420" result="shape"/>
</filter>
<filter id="filter4_d_1546_1420" x="1.5" y="-0.191406" width="7" height="6.83008" filterUnits="userSpaceOnUse" color-interpolation-filters="sRGB">
<feFlood flood-opacity="0" result="BackgroundImageFix"/>
<feColorMatrix in="SourceAlpha" type="matrix" values="0 0 0 0 0 0 0 0 0 0 0 0 0 0 0 0 0 0 127 0" result="hardAlpha"/>
<feOffset/>
<feGaussianBlur stdDeviation="0.5"/>
<feComposite in2="hardAlpha" operator="out"/>
<feColorMatrix type="matrix" values="0 0 0 0 0 0 0 0 0 0 0 0 0 0 0 0 0 0 0.1 0"/>
<feBlend mode="normal" in2="BackgroundImageFix" result="effect1_dropShadow_1546_1420"/>
<feBlend mode="normal" in="SourceGraphic" in2="effect1_dropShadow_1546_1420" result="shape"/>
</filter>
<filter id="filter5_d_1546_1420" x="2" y="0.308594" width="6" height="5.83008" filterUnits="userSpaceOnUse" color-interpolation-filters="sRGB">
<feFlood flood-opacity="0" result="BackgroundImageFix"/>
<feColorMatrix in="SourceAlpha" type="matrix" values="0 0 0 0 0 0 0 0 0 0 0 0 0 0 0 0 0 0 127 0" result="hardAlpha"/>
<feOffset/>
<feGaussianBlur stdDeviation="0.25"/>
<feComposite in2="hardAlpha" operator="out"/>
<feColorMatrix type="matrix" values="0 0 0 0 0 0 0 0 0 0 0 0 0 0 0 0 0 0 0.5 0"/>
<feBlend mode="normal" in2="BackgroundImageFix" result="effect1_dropShadow_1546_1420"/>
<feBlend mode="normal" in="SourceGraphic" in2="effect1_dropShadow_1546_1420" result="shape"/>
</filter>
<clipPath id="clip0_1546_1420">
<rect width="18" height="10" fill="white" transform="matrix(0 -1 1 0 0 18)"/>
</clipPath>
</defs>
</svg>
