<svg width="42" height="41" viewBox="0 0 42 41" fill="none" xmlns="http://www.w3.org/2000/svg">
<rect width="42" height="41" rx="10" fill="#565656"/>
<path d="M33 10.8335C33 10.5574 32.7761 10.3335 32.5 10.3335H9.5C9.22386 10.3335 9 10.5574 9 10.8335V12.5002C9 12.7763 9.22386 13.0002 9.5 13.0002H32.5C32.7761 13.0002 33 12.7763 33 12.5002V10.8335ZM33 20.1668C33 19.8907 32.7761 19.6668 32.5 19.6668H17.5C17.2239 19.6668 17 19.8907 17 20.1668V21.8335C17 22.1096 17.2239 22.3335 17.5 22.3335H32.5C32.7761 22.3335 33 22.1096 33 21.8335V20.1668ZM33 29.5002C33 29.224 32.7761 29.0002 32.5 29.0002H9.5C9.22386 29.0002 9 29.224 9 29.5002V31.1668C9 31.443 9.22386 31.6668 9.5 31.6668H32.5C32.7761 31.6668 33 31.443 33 31.1668V29.5002Z" fill="white"/>
</svg>
