<svg width="36" height="36" viewBox="0 0 36 36" fill="none" xmlns="http://www.w3.org/2000/svg">
<path d="M18 33C9.71572 33 3 26.2842 3 18C3 9.71572 9.71572 3 18 3C26.2842 3 33 9.71572 33 18C33 26.2842 26.2842 33 18 33ZM16.5 22.5V25.5H19.5V22.5H16.5ZM19.5 20.0326C21.6685 19.3872 23.25 17.3782 23.25 15C23.25 12.1005 20.8995 9.75 18 9.75C15.453 9.75 13.3296 11.5638 12.851 13.9702L15.7932 14.5587C15.9984 13.5273 16.9084 12.75 18 12.75C19.2426 12.75 20.25 13.7574 20.25 15C20.25 16.2426 19.2426 17.25 18 17.25C17.1715 17.25 16.5 17.9215 16.5 18.75V21H19.5V20.0326Z" fill="#565656"/>
</svg>
