<svg width="38" height="38" viewBox="0 0 38 38" fill="none" xmlns="http://www.w3.org/2000/svg">
<path d="M17.4167 3.1665C25.2827 3.1665 31.6667 9.5505 31.6667 17.4165C31.6667 25.2825 25.2827 31.6665 17.4167 31.6665C9.55075 31.6665 3.16675 25.2825 3.16675 17.4165C3.16675 9.5505 9.55075 3.1665 17.4167 3.1665ZM17.4167 28.4998C23.5403 28.4998 28.5001 23.54 28.5001 17.4165C28.5001 11.293 23.5403 6.33317 17.4167 6.33317C11.2932 6.33317 6.33341 11.293 6.33341 17.4165C6.33341 23.54 11.2932 28.4998 17.4167 28.4998ZM30.8518 28.6124L35.3301 33.0907L33.0909 35.3299L28.6126 30.8516L30.8518 28.6124Z" fill="white"/>
</svg>
