<svg width="60" height="60" viewBox="0 0 60 60" fill="none" xmlns="http://www.w3.org/2000/svg">
<g clip-path="url(#clip0_1704_408)">
<path d="M30 60C46.5685 60 60 46.5685 60 30C60 13.4315 46.5685 0 30 0C13.4315 0 0 13.4315 0 30C0 46.5685 13.4315 60 30 60Z" fill="white"/>
<path d="M42.2337 16.3919C42.2337 19.8803 40.8654 27.1383 38.6459 33.5251C37.5363 36.7181 36.2152 39.6899 34.7482 41.8624C33.2788 44.0384 31.6738 45.397 30.0003 45.397C28.3267 45.397 26.7217 44.0384 25.2523 41.8624C23.7853 39.6899 22.4642 36.7181 21.3546 33.5251C19.1351 27.1383 17.7668 19.8803 17.7668 16.3919C17.7668 9.42588 23.2262 3.78047 30.0003 3.78047C36.7743 3.78047 42.2337 9.42588 42.2337 16.3919Z" fill="#324A5E" stroke="black" stroke-width="0.1"/>
<path d="M35.9525 33.1196C35.8107 32.7417 35.669 32.3637 35.669 31.9858L35.1493 24.8047H24.8501L24.4722 30.1905L24.3304 31.9858C24.2832 32.4582 24.1887 32.8834 23.9525 33.2614C23.9997 33.2141 23.9997 33.1669 24.047 33.1196L16.5352 46.6787L19.9367 51.1196L29.9997 58.8677L40.0627 51.0724L43.4643 46.6315L35.9525 33.1196Z" fill="#FFD05B"/>
<path d="M35.9497 33.1345V33.1346V33.1347V33.1349V33.135V33.1351V33.1353V33.1354V33.1355V33.1357V33.1358V33.1359V33.1361V33.1362V33.1363V33.1365V33.1366V33.1368V33.1369V33.137V33.1372V33.1373V33.1375V33.1376V33.1378V33.1379V33.1381V33.1382V33.1384V33.1385V33.1387V33.1388V33.139V33.1391V33.1393V33.1394V33.1396V33.1397V33.1399V33.14V33.1402V33.1404V33.1405V33.1407V33.1409V33.141V33.1412V33.1413V33.1415V33.1417V33.1418V33.142V33.1422V33.1423V33.1425V33.1427V33.1429V33.143V33.1432V33.1434V33.1436V33.1437V33.1439V33.1441V33.1443V33.1444V33.1446V33.1448V33.145V33.1452V33.1454V33.1455V33.1457V33.1459V33.1461V33.1463V33.1465V33.1467V33.1469V33.1471V33.1472V33.1474V33.1476V33.1478V33.148V33.1482V33.1484V33.1486V33.1488V33.149V33.1492V33.1494V33.1496V33.1498V33.15V33.1502V33.1505V33.1507V33.1509V33.1511V33.1513V33.1515V33.1517V33.1519V33.1522V33.1524V33.1526V33.1528V33.153V33.1532V33.1535V33.1537V33.1539V33.1541V33.1544V33.1546V33.1548V33.155V33.1553V33.1555V33.1557V33.156V33.1562V33.1564V33.1567V33.1569V33.1571V33.1574V33.1576V33.1578V33.1581V33.1583V33.1586V33.1588V33.1591V33.1593V33.1596V33.1598V33.1601V33.1603V33.1606V33.1608V33.1611V33.1613V33.1616V33.1618V33.1621V33.1623V33.1626V33.1629V33.1631V33.1634V33.1636V33.1639V33.1642V33.1644V33.1647V33.165V33.1652V33.1655V33.1658V33.1661V33.1663V33.1666V33.1669V33.1798L35.956 33.1911L43.4047 46.6743L40.027 51.084L29.9998 58.8045L19.9725 51.0369L16.5948 46.6271L24.0907 33.1439L24.0895 33.1431C24.183 32.9791 24.2479 32.7946 24.2847 32.6109C24.3319 32.4221 24.3801 32.1825 24.3804 31.9878L24.522 30.2418L24.522 30.2412L24.8968 24.8547H35.1028L35.619 31.9876C35.6193 32.2279 35.6671 32.4701 35.7644 32.6663C35.7726 32.6909 35.7809 32.7175 35.7896 32.7455C35.8278 32.8675 35.874 33.0155 35.9497 33.1345Z" fill="white" stroke="black" stroke-width="0.1"/>
<path d="M24.6488 43.9247C24.6816 43.9459 24.727 43.9744 24.7848 44.0088C24.9152 44.0863 25.1083 44.1934 25.3605 44.3122C25.8648 44.5499 26.6054 44.8348 27.5518 45.0247C29.4283 45.4012 32.1121 45.4037 35.3658 43.9278L35.3554 43.9805C35.336 44.0774 35.3072 44.2198 35.2696 44.4016C35.1944 44.7654 35.0837 45.2872 34.942 45.9192C34.6587 47.1832 34.2514 48.8875 33.7557 50.6491C33.2599 52.411 32.6759 54.2291 32.0393 55.721C31.721 56.467 31.39 57.1304 31.051 57.6641C30.7248 58.1774 30.3934 58.5671 30.0616 58.7961C30.0493 58.776 30.033 58.7486 30.013 58.7141C29.9651 58.6319 29.8963 58.5106 29.8097 58.3545C29.6366 58.0425 29.3926 57.5922 29.1038 57.0396C28.5261 55.9344 27.7692 54.4206 27.0404 52.786C26.3115 51.1512 25.6112 49.3965 25.1463 47.8095C24.6923 46.2595 24.4655 44.878 24.6488 43.9247Z" fill="#FF7058" stroke="black" stroke-width="0.1"/>
<path d="M12.7155 41.6703L12.7155 41.6703L12.7155 41.6703L12.7239 41.6693L12.7315 41.6657C18.5489 38.8817 22.409 35.0758 23.4237 33.9969L22.0197 36.7316L22.0113 36.748L22.0155 36.7658L24.8502 48.9076L24.8492 48.9078L24.8534 48.9171L29.9232 59.9486H29.9218H29.9198H29.9179H29.916H29.914H29.9121H29.9101H29.9082H29.9063H29.9043H29.9024H29.9004H29.8985H29.8966H29.8946H29.8927H29.8908H29.8888H29.8869H29.8849H29.883H29.8811H29.8791H29.8772H29.8753H29.8733H29.8714H29.8694H29.8675H29.8656H29.8636H29.8617H29.8598H29.8578H29.8559H29.8539H29.852H29.8501H29.8481H29.8462H29.8443H29.8423H29.8404H29.8384H29.8365H29.8346H29.8326H29.8307H29.8288H29.8268H29.8249H29.8229H29.821H29.8191H29.8171H29.8152H29.8133H29.8113H29.8094H29.8074H29.8055H29.8036H29.8016H29.7997H29.7977H29.7958H29.7939H29.7919H29.79H29.7881H29.7861H29.7842H29.7822H29.7803H29.7784H29.7764H29.7745H29.7726H29.7706H29.7687H29.7667H29.7648H29.7629H29.7609H29.759H29.7571H29.7551H29.7532H29.7512H29.7493H29.7474H29.7454H29.7435H29.7416H29.7396H29.7377H29.7357H29.7338H29.7319H29.7299H29.728H29.7261H29.7241H29.7222H29.7202H29.7183H29.7164H29.7144H29.7125H29.7106H29.7086H29.7067H29.7047H29.7028H29.7009H29.6989H29.697H29.695H29.6931H29.6912H29.6892H29.6873H29.6854H29.6834H29.6815H29.6795H29.6776H29.6757H29.6737H29.6718H29.6699H29.6679H29.666H29.664H29.6621H29.6602H29.6582H29.6563H29.6544H29.6524H29.6505H29.6485H29.6466H29.6447H29.6427H29.6408H29.6389H29.6369H29.635H29.633H29.6311H29.6292H29.6272H29.6253H29.6234H29.6214H29.6195H29.6175H29.6156H29.6137H29.6117H29.6098H29.6079H29.6059H29.604H29.602H29.6001H29.5982H29.5962H29.5943H29.5923H29.5904H29.5885H29.5865H29.5846H29.5827H29.5807H29.5788H29.5768H29.5749H29.573H29.571H29.5691H29.5672H29.5652H29.5633H29.5613H29.5594H29.5575H29.5555H29.5536H29.5517H29.5497H29.5478H29.5458H29.5439H29.542H29.54H29.5381H29.5362H29.5342H29.5323H29.5303H29.5284H29.5265H29.5245H29.5226H29.5207H29.5187H29.5168H29.5148H29.5129H29.511H29.509H29.5071H29.5051H29.5032H29.5013H29.4993H29.4974H29.4955H29.4935H29.4916H29.4896H29.4877H29.4858H29.4838H29.4819H29.48H29.478H29.4761H29.4741H29.4722H29.4703H29.4683H29.4664H29.4645H29.4625H29.4606H29.4586H29.4567H29.4548H29.4528H29.4509H29.449H29.447H29.4451H29.4431H29.4412H29.4393H29.4373H29.4354H29.4335H29.4315H29.4296H29.4276H29.4257H29.4238H29.4218H29.4199H29.418H29.416H29.4141H29.4121H29.4102H29.4083H29.4063H29.4044H29.4024H29.4005H29.3986H29.3966H29.3947H29.3928H29.3908H29.3889H29.3869H29.385H29.3831H29.3811H29.3792H29.3773H29.3753H29.3734H29.3714H29.3695H29.3676H29.3656H29.3637H29.3618H29.3598H29.3579H29.3559H29.354H29.3521H29.3501H29.3482H29.3463H29.3443H29.3424H29.3404H29.3385H29.3366H29.3346H29.3327H29.3308H29.3288H29.3269H29.3249H29.323H29.3211H29.3191H29.3172H29.3153H29.3133H29.3114H29.3094H29.3075H29.3056H29.3036H29.3017H29.2997H29.2978H29.2959H29.2939H29.292H29.2901H29.2881H29.2862H29.2842H29.2823H29.2804H29.2784H29.2765H29.2746H29.2726H29.2707H29.2687H29.2668H29.2649H29.2629H29.261H29.2591H29.2571H29.2552H29.2532H29.2513H29.2494H29.2474H29.2455H29.2436H29.2416H29.2397H29.2377H29.2358H29.2339H29.2319H29.23H29.2281H29.2261H29.2242H29.2222H29.2203H29.2184H29.2164H29.2145H29.2126H29.2106H29.2087H29.2067H29.2048H29.2029H29.2009H29.199H29.197H29.1951H29.1932H29.1912H29.1893H29.1874H29.1854H29.1835H29.1815H29.1796H29.1777H29.1757H29.1738H29.1719H29.1699H29.168H29.166H29.1641H29.1622H29.1602H29.1583H29.1564H29.1544H29.1525H29.1505H29.1486H29.1467H29.1447H29.1428H29.1409H29.1389H29.137H29.135H29.1331H29.1312H29.1292H29.1273H29.1254H29.1234H29.1215H29.1195H29.1176H29.1157H29.1137H29.1118H29.1098H29.1079H29.106H29.104H29.1021H29.1002H29.0982H29.0963H29.0943H29.0924H29.0905H29.0885H29.0866H29.0847H29.0827H29.0808H29.0788H29.0769H29.075H29.073H29.0711H29.0692H29.0672H29.0653H29.0633H29.0614H29.0595H29.0575H29.0556H29.0537H29.0517H29.0498H29.0478H29.0459H29.044H29.042H29.0401H29.0382H29.0362H29.0343H29.0323H29.0304H29.0285H29.0265H29.0246H29.0227H29.0207H29.0188H29.0168H29.0149H29.013H29.011H29.0098C19.6817 59.6656 11.3889 55.0533 6.15275 48.0857C7.37614 45.1119 9.01732 43.5088 10.3511 42.6488C11.0203 42.2174 11.6127 41.9726 12.0372 41.8358C12.2495 41.7673 12.4197 41.7259 12.5366 41.7016C12.595 41.6894 12.6401 41.6816 12.6704 41.6768C12.6856 41.6743 12.697 41.6727 12.7046 41.6717L12.713 41.6706L12.715 41.6703L12.7155 41.6703Z" fill="#324A5E" stroke="black" stroke-width="0.1"/>
<path d="M37.9844 36.7335L36.7084 33.9689C37.6611 35.0082 41.4499 38.8569 47.319 41.6657L47.3265 41.6693L47.3348 41.6703L47.3348 41.6703L47.3349 41.6703L47.3353 41.6703L47.3373 41.6706L47.3456 41.6717C47.3531 41.6727 47.3644 41.6743 47.3794 41.6767C47.4093 41.6815 47.4539 41.6894 47.5118 41.7016C47.6274 41.7258 47.796 41.7673 48.0064 41.8357C48.4272 41.9726 49.0152 42.2174 49.6815 42.6488C51.0094 43.5088 52.6507 45.1119 53.8975 48.0858C48.4398 55.2699 39.8011 59.9237 30.08 59.9485L35.1497 48.9171L35.1507 48.9175L35.153 48.9076L37.9877 36.7658L37.9916 36.7491L37.9844 36.7335Z" fill="#324A5E" stroke="black" stroke-width="0.1"/>
<path d="M38.1239 46.6762H38.1229L38.1248 46.6856L38.9682 51.0905C37.2964 51.9937 35.8607 53.4206 34.5681 55.0128C33.582 56.2276 32.6771 57.5413 31.8138 58.7946C31.5435 59.187 31.2773 59.5735 31.014 59.9491H31.0129H31.0109H31.009H31.0071H31.0051H31.0032H31.0012H30.9993H30.9974H30.9954H30.9935H30.9916H30.9896H30.9877H30.9857H30.9838H30.9819H30.9799H30.978H30.9761H30.9741H30.9722H30.9702H30.9683H30.9664H30.9644H30.9625H30.9606H30.9586H30.9567H30.9547H30.9528H30.9509H30.9489H30.947H30.945H30.9431H30.9412H30.9392H30.9373H30.9354H30.9334H30.9315H30.9295H30.9276H30.9257H30.9237H30.9218H30.9199H30.9179H30.916H30.914H30.9121H30.9102H30.9082H30.9063H30.9044H30.9024H30.9005H30.8985H30.8966H30.8947H30.8927H30.8908H30.8889H30.8869H30.885H30.883H30.8811H30.8792H30.8772H30.8753H30.8734H30.8714H30.8695H30.8675H30.8656H30.8637H30.8617H30.8598H30.8579H30.8559H30.854H30.852H30.8501H30.8482H30.8462H30.8443H30.8423H30.8404H30.8385H30.8365H30.8346H30.8327H30.8307H30.8288H30.8268H30.8249H30.823H30.821H30.8191H30.8172H30.8152H30.8133H30.8113H30.8094H30.8075H30.8055H30.8036H30.8017H30.7997H30.7978H30.7958H30.7939H30.792H30.79H30.7881H30.7862H30.7842H30.7823H30.7803H30.7784H30.7765H30.7745H30.7726H30.7707H30.7687H30.7668H30.7648H30.7629H30.761H30.759H30.7571H30.7551H30.7532H30.7513H30.7493H30.7474H30.7455H30.7435H30.7416H30.7396H30.7377H30.7358H30.7338H30.7319H30.73H30.728H30.7261H30.7241H30.7222H30.7203H30.7183H30.7164H30.7145H30.7125H30.7106H30.7086H30.7067H30.7048H30.7028H30.7009H30.699H30.697H30.6951H30.6931H30.6912H30.6893H30.6873H30.6854H30.6835H30.6815H30.6796H30.6776H30.6757H30.6738H30.6718H30.6699H30.668H30.666H30.6641H30.6621H30.6602H30.6583H30.6563H30.6544H30.6524H30.6505H30.6486H30.6466H30.6447H30.6428H30.6408H30.6389H30.6369H30.635H30.6331H30.6311H30.6292H30.6273H30.6253H30.6234H30.6214H30.6195H30.6176H30.6156H30.6137H30.6118H30.6098H30.6079H30.6059H30.604H30.6021H30.6001H30.5982H30.5963H30.5943H30.5924H30.5904H30.5885H30.5866H30.5846H30.5827H30.5808H30.5788H30.5769H30.5749H30.573H30.5711H30.5691H30.5672H30.5653H30.5633H30.5614H30.5594H30.5575H30.5556H30.5536H30.5517H30.5497H30.5478H30.5459H30.5439H30.542H30.5401H30.5381H30.5362H30.5342H30.5323H30.5304H30.5284H30.5265H30.5246H30.5226H30.5207H30.5187H30.5168H30.5149H30.5129H30.511H30.5091H30.5071H30.5052H30.5032H30.5013H30.4994H30.4974H30.4955H30.4936H30.4916H30.4897H30.4877H30.4858H30.4839H30.4819H30.48H30.4781H30.4761H30.4742H30.4722H30.4703H30.4684H30.4664H30.4645H30.4626H30.4606H30.4587H30.4567H30.4548H30.4529H30.4509H30.449H30.447H30.4451H30.4432H30.4412H30.4393H30.4374H30.4354H30.4335H30.4315H30.4296H30.4277H30.4257H30.4238H30.4219H30.4199H30.418H30.416H30.4141H30.4122H30.4102H30.4083H30.4064H30.4044H30.4025H30.4005H30.3986H30.3967H30.3947H30.3928H30.3909H30.3889H30.387H30.385H30.3831H30.3812H30.3792H30.3773H30.3754H30.3734H30.3715H30.3695H30.3676H30.3657H30.3637H30.3618H30.3598H30.3579H30.356H30.354H30.3521H30.3502H30.3482H30.3463H30.3443H30.3424H30.3405H30.3385H30.3366H30.3347H30.3327H30.3308H30.3288H30.3269H30.325H30.323H30.3211H30.3192H30.3172H30.3153H30.3133H30.3114H30.3095H30.3075H30.3056H30.3037H30.3017H30.2998H30.2978H30.2959H30.294H30.292H30.2901H30.2882H30.2862H30.2843H30.2823H30.2804H30.2785H30.2765H30.2746H30.2727H30.2707H30.2688H30.2668H30.2649H30.263H30.261H30.2591H30.2571H30.2552H30.2533H30.2513H30.2494H30.2475H30.2455H30.2436H30.2416H30.2397H30.2378H30.2358H30.2339H30.232H30.23H30.2281H30.2261H30.2242H30.2223H30.2203H30.2184H30.2165H30.2145H30.2126H30.2106H30.2087H30.2068H30.2048H30.2029H30.201H30.199H30.1971H30.1951H30.1932H30.1913H30.1893H30.1874H30.1855H30.1835H30.1816H30.1796H30.1777H30.1758H30.1738H30.1719H30.17H30.168H30.1661H30.1641H30.1622H30.1603H30.1583H30.1564H30.1544H30.1525H30.1506H30.1486H30.1467H30.1448H30.1428H30.1409H30.1389H30.137H30.1351H30.1331H30.1312H30.1293H30.1273H30.1254H30.1234H30.1215H30.1196H30.1176H30.1157H30.1138H30.1118H30.1099H30.1079H30.106H30.1041H30.1021H30.1002H30.0983H30.0963H30.0944H30.0924H30.0905H30.0886H30.0866H30.0847H30.0828H30.0808H30.0789H30.0769H30.075H30.0731H30.0711H30.0692H30.0673H30.0653H30.0634H30.0614H30.0595H30.0576H30.0556H30.0537H30.0517H30.0498H30.0479H30.0459H30.044H30.0421H30.0401H30.0382H30.0362H30.0343H30.0324H30.0304H30.0285H30.0266H30.0246H30.0227H30.0207H30.0188H30.0169H30.0149H30.013H30.0111H30.0091H30.0072H30.0052H30.0033H30.0014H29.9994H29.9975H29.9956H29.9936H29.9917H29.9897H29.9878H29.9859H29.9839H29.982H29.9801H29.9781H29.9762H29.9742H29.9723H29.9704H29.9684H29.9665H29.9646H29.9626H29.9607H29.9587H29.9568H29.9549H29.9529H29.951H29.949H29.9471H29.9452H29.9432H29.9413H29.9394H29.9374H29.9355H29.9335H29.9316H29.9297H29.9277H29.9258H29.9239H29.9219H29.92H29.918H29.9161H29.9142H29.9122H29.9103H29.9084H29.9064H29.9045H29.9025H29.9006H29.8987H29.8967H29.8948H29.8929H29.8909H29.889H29.887H29.8851H29.8832H29.8812H29.8793H29.8774H29.8754H29.8735H29.8715H29.8696H29.8677H29.8657H29.8638H29.8618H29.8599H29.858H29.856H29.8541H29.8522H29.8502H29.8483H29.8463H29.8444H29.8425H29.8405H29.8386H29.8367H29.8347H29.8328H29.8308H29.8289H29.827H29.825H29.8231H29.8212H29.8192H29.8173H29.8153H29.8134H29.8115H29.8095H29.8076H29.8057H29.8037H29.8018H29.7998H29.7979H29.796H29.794H29.7921H29.7902H29.7882H29.7863H29.7843H29.7824H29.7805H29.7785H29.7766H29.7747H29.7727H29.7708H29.7688H29.7669H29.765H29.763H29.7611H29.7591H29.7572H29.7553H29.7533H29.7514H29.7495H29.7475H29.7456H29.7436H29.7417H29.7398H29.7378H29.7359H29.734H29.732H29.7301H29.7281H29.7262H29.7243H29.7223H29.7204H29.7185H29.7165H29.7146H29.7126H29.7107H29.7088H29.7068H29.7049H29.703H29.701H29.6991H29.6971H29.6952H29.6933H29.6913H29.6894H29.6875H29.6855H29.6836H29.6816H29.6797H29.6778H29.6758H29.6739H29.672H29.67H29.6681H29.6661H29.6642H29.6623H29.6603H29.6584H29.6564H29.6545H29.6526H29.6506H29.6487H29.6468H29.6448H29.6429H29.6409H29.639H29.6371H29.6351H29.6332H29.6313H29.6293H29.6274H29.6254H29.6235H29.6216H29.6196H29.6177H29.6158H29.6138H29.6119H29.6099H29.608H29.6061H29.6041H29.6022H29.6003H29.5983H29.5964H29.5944H29.5925H29.5906H29.5886H29.5867H29.5848H29.5828H29.5809H29.5789H29.577H29.5751H29.5731H29.5712H29.5693H29.5673H29.5654H29.5634H29.5615H29.5596H29.5576H29.5557H29.5537H29.5518H29.5499H29.5479H29.546H29.5441H29.5421H29.5402H29.5382H29.5363H29.5344H29.5324H29.5305H29.5286H29.5266H29.5247H29.5227H29.5208H29.5189H29.5169H29.515H29.5131H29.5111H29.5092H29.5072H29.5053H29.5034H29.5014H29.4995H29.4976H29.4956H29.4937H29.4917H29.4898H29.4879H29.4859H29.484H29.4821H29.4801H29.4782H29.4762H29.4743H29.4724H29.4704H29.4685H29.4665H29.4646H29.4627H29.4607H29.4588H29.4569H29.4549H29.453H29.451H29.4491H29.4472H29.4452H29.4433H29.4414H29.4394H29.4375H29.4355H29.4336H29.4317H29.4297H29.4278H29.4259H29.4239H29.422H29.42H29.4181H29.4162H29.4142H29.4123H29.4104H29.4084H29.4065H29.4045H29.4026H29.4007H29.3987H29.3968H29.3949H29.3929H29.391H29.389H29.3871H29.3852H29.3832H29.3813H29.3794H29.3774H29.3755H29.3735H29.3716H29.3697H29.3677H29.3658H29.3638H29.3619H29.36H29.358H29.3561H29.3542H29.3522H29.3503H29.3483H29.3464H29.3445H29.3425H29.3406H29.3387H29.3367H29.3348H29.3328H29.3309H29.329H29.327H29.3251H29.3232H29.3212H29.3193H29.3173H29.3154H29.3135H29.3115H29.3096H29.3077H29.3057H29.3038H29.3018H29.2999H29.298H29.296H29.2941H29.2922H29.2902H29.2883H29.2863H29.2844H29.2825H29.2805H29.2786H29.2767H29.2747H29.2728H29.2708H29.2689H29.267H29.265H29.2631H29.2611H29.2592H29.2573H29.2553H29.2534H29.2515H29.2495H29.2476H29.2456H29.2437H29.2418H29.2398H29.2379H29.236H29.234H29.2321H29.2301H29.2282H29.2263H29.2243H29.2224H29.2205H29.2185H29.2166H29.2146H29.2127H29.2108H29.2088H29.2069H29.205H29.203H29.2011H29.1991H29.1972H29.1953H29.1933H29.1914H29.1895H29.1875H29.1856H29.1836H29.1817H29.1798H29.1778H29.1759H29.174H29.172H29.1701H29.1681H29.1662H29.1643H29.1623H29.1604H29.1584H29.1565H29.1546H29.1526H29.1507H29.1488H29.1468H29.1449H29.1429H29.141H29.1391H29.1371H29.1352H29.1333H29.1313H29.1294H29.1274H29.1255H29.1236H29.1216H29.1197H29.1178H29.1158H29.1139H29.1119H29.11H29.1081H29.1061H29.1042H29.1023H29.1003H29.0984H29.0964H29.0945H29.0926H29.0906H29.0887H29.0868H29.0848H29.0829H29.0818C28.8184 59.5735 28.5522 59.187 28.282 58.7946C27.4187 57.5413 26.5138 56.2276 25.5276 55.0128C24.235 53.4206 22.7993 51.9937 21.1275 51.0905L21.971 46.6856L21.9824 46.6262H21.9219H17.7322C18.6072 42.6908 20.1433 39.3986 21.4986 37.0576C22.1797 35.8811 22.815 34.9451 23.2976 34.2888C23.5388 33.9606 23.7418 33.7024 23.8931 33.5191C23.9193 33.4874 23.9439 33.458 23.9668 33.4309C23.5069 34.5382 22.2124 38.6072 24.9935 44.7106L24.9948 44.7141L25.0007 44.7312L25.0241 44.7986L25.115 45.0598C25.1945 45.2879 25.3106 45.6209 25.4571 46.0402C25.7502 46.8788 26.1651 48.0629 26.6523 49.4448C27.6267 52.2087 28.8906 55.764 30.0482 58.9296L30.0963 59.0612L30.1423 58.9289C31.2526 55.7399 32.4927 52.173 33.4553 49.4033L34.6401 45.9936L34.9809 45.0126L35.0717 44.7513L35.0951 44.684L35.101 44.6669L35.1022 44.6635C37.8872 38.6412 36.6695 34.5977 36.1623 33.425C36.1753 33.4406 36.1887 33.4568 36.2025 33.4737C36.3538 33.6582 36.5568 33.918 36.7981 34.2481C37.2806 34.9081 37.916 35.8486 38.5971 37.028C39.9524 39.3749 41.4885 42.667 42.3635 46.579H38.1739H38.1239V46.629V46.6762Z" fill="#2B3B4E" stroke="black" stroke-width="0.1"/>
<path d="M35.8114 32.6472C34.1578 34.159 32.1736 35.0567 30.0004 35.0567C27.8271 35.0567 25.8938 34.159 24.2402 32.6C24.2875 32.411 24.3607 32.1748 24.3607 31.9858L24.4256 30.2378L24.8508 24.8047H35.15L35.6697 31.9858C35.6697 32.222 35.7169 32.411 35.8114 32.6472Z" fill="#E6E9EE"/>
<path d="M24.168 32.9992C24.4084 32.343 24.42 31.7992 24.42 31.1992" stroke="black" stroke-width="0.1"/>
<path d="M35.6405 31.1992C35.521 31.7992 35.6408 32.3992 35.8803 32.9992" stroke="black" stroke-width="0.1"/>
<path d="M23.8574 14.664L23.8574 14.6638C24.3619 13.3338 26.1513 13.1947 26.8862 14.3888L26.8864 14.3892C28.9624 17.6919 33.3963 22.557 40.0507 22.7262C38.9513 29.0162 34.8633 33.6355 29.9996 33.6355C27.4665 33.6355 25.1409 32.3456 23.3409 30.2279C21.5446 28.1146 20.274 25.1792 19.8472 21.889C21.4996 19.8063 23.0079 16.882 23.8574 14.664Z" fill="white" stroke="black" stroke-width="0.1"/>
</g>
<defs>
<clipPath id="clip0_1704_408">
<rect width="60" height="60" fill="white"/>
</clipPath>
</defs>
</svg>
