<svg width="983" height="847" viewBox="0 0 983 847" fill="none" xmlns="http://www.w3.org/2000/svg">
<circle cx="685" cy="549" r="295.5" stroke="#C7CDD1" stroke-width="5" stroke-dasharray="60 60"/>
<circle cx="175" cy="193" r="172.5" stroke="#C7CDD1" stroke-width="5" stroke-dasharray="60 60"/>
<rect x="467" y="402" width="36" height="340" fill="#CF4E32"/>
<rect x="469.5" y="404.5" width="31" height="335" stroke="#552014" stroke-opacity="0.5" stroke-width="5"/>
<path d="M400.136 0H569.864L689 119.136V288.864L569.864 408H400.136L281 288.864V119.136L400.136 0Z" fill="#CF4E32"/>
<path d="M400.136 0H569.864L689 119.136V288.864L569.864 408H400.136L281 288.864V119.136L400.136 0Z" fill="#CF4E32"/>
<path d="M401.924 5H567.076L683 120.924V286.076L567.076 402H401.924L286 286.076V120.924L401.924 5Z" fill="#CF4E32"/>
<path d="M401.924 5H567.076L683 120.924V286.076L567.076 402H401.924L286 286.076V120.924L401.924 5Z" fill="white"/>
<path d="M407.624 18H562.376L671 126.624V281.376L562.376 390H407.624L299 281.376V126.624L407.624 18Z" fill="#CF4E32"/>
<path d="M407.624 18H562.376L671 126.624V281.376L562.376 390H407.624L299 281.376V126.624L407.624 18Z" fill="#CF4E32"/>
<path d="M435.5 211.5V235.95H425V252H398.3V235.95H352.25V211.5L383.6 147H413.3L381.65 211.5H398.3V192.6H425V211.5H435.5ZM516.651 239.4C509.051 249.3 498.401 254.25 484.701 254.25C471.001 254.25 460.301 249.3 452.601 239.4C445.001 229.4 441.201 216.1 441.201 199.5C441.201 182.9 445.001 169.65 452.601 159.75C460.301 149.75 471.001 144.75 484.701 144.75C498.401 144.75 509.051 149.75 516.651 159.75C524.351 169.65 528.201 182.9 528.201 199.5C528.201 216.1 524.351 229.4 516.651 239.4ZM468.051 199.5C468.051 218.6 473.601 228.15 484.701 228.15C495.801 228.15 501.351 218.6 501.351 199.5C501.351 180.4 495.801 170.85 484.701 170.85C473.601 170.85 468.051 180.4 468.051 199.5ZM618.166 211.5V235.95H607.666V252H580.966V235.95H534.916V211.5L566.266 147H595.966L564.316 211.5H580.966V192.6H607.666V211.5H618.166Z" fill="white"/>
<path d="M341.218 443H317.785L243 712H417L341.218 443Z" fill="#CF4E32"/>
<path d="M262.16 643.1H397.59L402.36 660.05H257.45L262.16 643.1Z" fill="white"/>
<path d="M257.45 660.051L402.38 660.051L404.06 666.048L255.86 665.748L257.45 660.051Z" fill="#EBB0A3"/>
<path d="M263.7 637.5L396 637.5L397.7 643.5L262.13 643.2L263.7 637.5Z" fill="#EBB0A3"/>
<path d="M281 575.3L378.5 575.3L380.2 581.3L279.42 581L281 575.3Z" fill="#EBB0A3"/>
<path d="M274.672 598L385.57 598L387 604L273.1 603.699L274.672 598Z" fill="#EBB0A3"/>
<path d="M279.422 581H380.109L384.881 598H274.699L279.422 581Z" fill="white"/>
<rect x="206" y="713" width="247" height="25" fill="#CF4E32"/>
<circle cx="866" cy="667" r="11" stroke="#C7CDD1" stroke-width="2"/>
<line x1="153" y1="739" x2="747" y2="739" stroke="#9794B3" stroke-width="6"/>
<line x1="29" y1="739" x2="129" y2="739" stroke="#9794B3" stroke-width="6"/>
<line x1="777" y1="739" x2="856" y2="739" stroke="#9794B3" stroke-width="6"/>
<line x1="884" y1="739" x2="946" y2="739" stroke="#9794B3" stroke-width="6"/>
</svg>
