<svg width="30" height="30" viewBox="0 0 30 30" fill="none" xmlns="http://www.w3.org/2000/svg">
<g clipPath="url(#clip0_1052_70)">
<path d="M15 0.46875C6.98719 0.46875 0.46875 6.98766 0.46875 15C0.46875 23.0123 6.98719 29.5312 15 29.5312C23.0128 29.5312 29.5312 23.0123 29.5312 15C29.5312 6.98766 23.0128 0.46875 15 0.46875ZM15 28.5938C7.50469 28.5938 1.40625 22.4958 1.40625 15C1.40625 7.50422 7.50469 1.40625 15 1.40625C22.4953 1.40625 28.5938 7.50422 28.5938 15C28.5938 22.4958 22.4953 28.5938 15 28.5938Z" fill="#CF4E32"/>
<path d="M11.8988 18.75H18.1013L19.1939 14.0447C19.2098 13.9547 19.2188 13.8609 19.2188 13.7667C19.2188 12.8958 18.51 12.1875 17.6395 12.1875H12.3605C11.49 12.1875 10.7812 12.8958 10.7812 13.7667C10.7812 13.8609 10.7902 13.9547 10.8108 14.0672L11.8988 18.75ZM12.3605 13.125H17.6395C17.9934 13.125 18.2812 13.4128 18.2812 13.7667C18.2812 13.8042 18.278 13.8417 18.2761 13.8553L17.3569 17.8125H12.6431L11.7291 13.8778C11.722 13.8417 11.7188 13.8042 11.7188 13.7667C11.7188 13.4128 12.0066 13.125 12.3605 13.125Z" fill="#CF4E32"/>
<path d="M23.9062 13.5938H22.9688C22.4517 13.5938 22.0312 14.0142 22.0312 14.5312V15.4688C22.0312 15.9858 22.4517 16.4062 22.9688 16.4062H23.9062C24.4233 16.4062 24.8438 15.9858 24.8438 15.4688V14.5312C24.8438 14.0142 24.4233 13.5938 23.9062 13.5938ZM22.9688 15.4688V14.5312H23.9062L23.9067 15.4688H22.9688Z" fill="#CF4E32"/>
<path d="M7.03125 13.5938H6.09375V14.5312H7.03125V13.5938Z" fill="#CF4E32"/>
<path d="M7.03125 15.4688H6.09375V16.4062H7.03125V15.4688Z" fill="#CF4E32"/>
<path d="M7.96875 14.5312H7.03125V15.4688H7.96875V14.5312Z" fill="#CF4E32"/>
<path d="M6.09375 14.5312H5.15625V15.4688H6.09375V14.5312Z" fill="#CF4E32"/>
<path d="M15 16.875C15.7753 16.875 16.4062 16.2441 16.4062 15.4688C16.4062 14.6934 15.7753 14.0625 15 14.0625C14.2247 14.0625 13.5938 14.6934 13.5938 15.4688C13.5938 16.2441 14.2247 16.875 15 16.875ZM15 15C15.2587 15 15.4688 15.2105 15.4688 15.4688C15.4688 15.727 15.2587 15.9375 15 15.9375C14.7413 15.9375 14.5312 15.727 14.5312 15.4688C14.5312 15.2105 14.7413 15 15 15Z" fill="#CF4E32"/>
<path d="M15 3.28125C12.0506 3.28125 9.23156 4.38234 7.06219 6.38109L7.69734 7.07062C9.69328 5.23172 12.2864 4.21875 15 4.21875C19.8009 4.21875 23.8777 7.37391 25.2689 11.7188H20.4145C19.7845 10.8675 18.7767 10.3125 17.6391 10.3125H12.3605C11.2228 10.3125 10.215 10.8675 9.585 11.7188H4.73906C5.21203 10.2389 5.99531 8.86453 7.07016 7.69781L6.38063 7.06266C4.38234 9.23203 3.28125 12.0506 3.28125 15C3.28125 21.4617 8.53828 26.7188 15 26.7188C17.9494 26.7188 20.7684 25.6177 22.9378 23.6189L22.3027 22.9294C20.9152 24.2077 19.2361 25.0758 17.4314 25.493L17.6306 23.7019C17.9733 20.6119 20.5767 18.2812 23.6859 18.2812H25.2609C24.788 19.7611 24.0047 21.1355 22.9298 22.3022L23.6194 22.9373C25.6177 20.768 26.7188 17.9494 26.7188 15C26.7188 8.53828 21.4617 3.28125 15 3.28125ZM12.3605 11.25H17.6395C19.0275 11.25 20.1562 12.3792 20.1562 13.7667C20.1562 13.9331 20.1398 14.0986 20.1103 14.2463L19.0992 18.5995C18.9506 19.2398 18.3872 19.6875 17.7291 19.6875H12.2709C11.6133 19.6875 11.0498 19.2398 10.9008 18.5995L9.89297 14.2598C9.86016 14.0991 9.84375 13.9331 9.84375 13.7667C9.84375 12.3792 10.9725 11.25 12.3605 11.25ZM9.09281 12.6562C8.97375 13.0055 8.90625 13.3781 8.90625 13.7667C8.90625 13.995 8.92922 14.2233 8.97656 14.4586L9.87187 18.3136C8.82469 17.6981 7.60875 17.3438 6.31406 17.3438H4.47844C4.31016 16.5886 4.21875 15.8048 4.21875 15C4.21875 14.2036 4.31625 13.4198 4.48594 12.6562H9.09281ZM4.73109 18.2812H6.31406C9.42328 18.2812 12.0272 20.6119 12.3703 23.7019L12.5705 25.5014C8.86172 24.6441 5.88047 21.87 4.73109 18.2812ZM16.6978 23.5988L16.4677 25.6702C15.9834 25.7362 15.495 25.7812 15 25.7812C14.5022 25.7812 14.0133 25.7447 13.5333 25.6791L13.3022 23.5988C13.1808 22.5075 12.8128 21.4997 12.2611 20.6241C12.2644 20.6241 12.2677 20.625 12.2709 20.625H17.7295C17.7328 20.625 17.7361 20.6241 17.7394 20.6241C17.1872 21.4992 16.8192 22.507 16.6978 23.5988ZM23.6859 17.3438C22.3912 17.3438 21.1753 17.6981 20.1277 18.3131L21.0262 14.445C21.0708 14.2233 21.0938 13.995 21.0938 13.7667C21.0938 13.3777 21.0263 13.0055 20.9072 12.6562H25.5216C25.6898 13.4114 25.7812 14.1952 25.7812 15C25.7812 15.7964 25.6838 16.5802 25.5141 17.3438H23.6859Z" fill="#CF4E32"/>
</g>
<defs>
<clipPath id="clip0_1052_70">
<rect width="30" height="30" fill="white"/>
</clipPath>
</defs>
</svg>
