<svg width="32" height="32" viewBox="0 0 32 32" fill="none" xmlns="http://www.w3.org/2000/svg">
<g clip-path="url(#clip0_1053_554)">
<path d="M16.0002 0.722656C12.4072 0.722656 9.48414 3.64518 9.48389 7.23765V13.7378C9.48389 14.1592 9.82949 14.502 10.2545 14.502C10.6679 14.502 10.992 14.1663 10.992 13.7378V7.22536C10.992 4.52224 13.3429 2.2387 16.1253 2.2387C18.8602 2.2387 21.0024 4.42905 21.0024 7.22536V13.7381C21.0024 14.1594 21.3422 14.5022 21.7594 14.5022C22.1767 14.5022 22.5162 14.1594 22.5162 13.7381V7.23765C22.5162 3.64518 19.5932 0.722656 16.0002 0.722656ZM22.0042 13.7378C22.0042 13.8791 21.8967 13.99 21.7594 13.99C21.622 13.99 21.5144 13.8794 21.5144 13.7378V7.22536C21.5144 4.14208 19.1472 1.7267 16.1253 1.7267C13.0654 1.7267 10.4802 4.24473 10.4802 7.22536V13.7381C10.4802 13.8632 10.4027 13.9902 10.2547 13.9902C10.1144 13.9902 9.99615 13.8748 9.99615 13.7381V7.23765C9.99615 3.92755 12.6895 1.23466 16.0002 1.23466C19.3108 1.23466 22.0042 3.92755 22.0042 7.23765V13.7378Z" fill="#CF4E32" stroke="#CF4E32" stroke-width="0.128"/>
<path d="M9.74022 10.4824H3.19629C3.07187 10.4824 2.96538 10.5718 2.94413 10.6944L0.0093218 27.4712C-0.0039903 27.5457 0.0167459 27.622 0.0653863 27.6799C0.114027 27.738 0.185963 27.7713 0.261484 27.7713H0.475502C0.616815 27.7713 0.731504 27.6568 0.731504 27.5153C0.731504 27.4049 0.661615 27.3107 0.563566 27.2749L3.41133 10.9944H9.74022C9.88153 10.9944 9.99622 10.8797 9.99622 10.7384C9.99622 10.5971 9.88153 10.4824 9.74022 10.4824Z" fill="#CF4E32" stroke="#CF4E32" stroke-width="0.128"/>
<path d="M21.2585 10.4824H10.9923C10.851 10.4824 10.7363 10.5971 10.7363 10.7384C10.7363 10.8797 10.851 10.9944 10.9923 10.9944H21.2585C21.3998 10.9944 21.5145 10.8797 21.5145 10.7384C21.5145 10.5971 21.3998 10.4824 21.2585 10.4824Z" fill="#CF4E32" stroke="#CF4E32" stroke-width="0.128"/>
<path d="M31.9946 27.5119C31.9946 27.4973 31.9933 27.4827 31.9908 27.4684L29.0562 10.6944C29.0347 10.5718 28.9285 10.4824 28.8041 10.4824H22.2602C22.1188 10.4824 22.0042 10.5971 22.0042 10.7384C22.0042 10.8797 22.1188 10.9944 22.2602 10.9944H28.5893L31.4829 27.535L31.4883 29.6534C31.4883 30.2857 31.0387 30.7626 30.4422 30.7626C30.3009 30.7626 30.1862 30.8773 30.1862 31.0187C30.1862 31.16 30.3009 31.2747 30.4422 31.2747C31.316 31.2747 32.0003 30.5625 32 29.6529L31.9946 27.5119Z" fill="#CF4E32" stroke="#CF4E32" stroke-width="0.128"/>
<path d="M30.5231 30.7646H1.72744C1.58612 30.7646 1.47144 30.8793 1.47144 31.0207C1.47144 31.162 1.58612 31.2767 1.72744 31.2767H30.5231C30.6646 31.2767 30.7791 31.162 30.7791 31.0207C30.7791 30.8793 30.6644 30.7646 30.5231 30.7646Z" fill="#CF4E32" stroke="#CF4E32" stroke-width="0.128"/>
<path d="M29.0209 27.2598H0.261378C0.120321 27.2598 0.00563204 27.3742 0.00537604 27.5153L0 29.6557C0 30.534 0.769286 31.2759 1.67989 31.2759C1.82145 31.2759 1.93589 31.1615 1.93589 31.0202C1.93589 30.8789 1.8212 30.7642 1.67989 30.7642C1.04679 30.7642 0.512004 30.2565 0.512004 29.6565L0.516868 27.7718H29.0209C29.1622 27.7718 29.2769 27.6571 29.2769 27.5158C29.2769 27.3745 29.1622 27.2598 29.0209 27.2598Z" fill="#CF4E32" stroke="#CF4E32" stroke-width="0.128"/>
<path d="M22.3534 12.0825C22.22 12.0347 22.0738 12.104 22.0259 12.2372C21.9783 12.3703 22.0474 12.5167 22.1806 12.5646C22.6741 12.7417 23.0057 13.2133 23.0057 13.7378C23.0057 14.4252 22.4466 14.9843 21.7594 14.9843C21.0721 14.9843 20.513 14.4252 20.513 13.7378C20.513 13.2169 20.8414 12.7463 21.3306 12.5671C21.4635 12.5185 21.5316 12.3716 21.483 12.2387C21.4343 12.1058 21.2874 12.038 21.1545 12.0864C20.4648 12.3393 20.0012 13.0029 20.0012 13.7378C20.0012 14.7076 20.79 15.4963 21.7597 15.4963C22.7292 15.4963 23.5179 14.7076 23.5174 13.7376C23.5174 12.9977 23.0497 12.3326 22.3534 12.0825Z" fill="#CF4E32" stroke="#CF4E32" stroke-width="0.128"/>
<path d="M11.1301 12.2126C11.0077 12.1422 10.8513 12.1842 10.7807 12.3068C10.71 12.4292 10.7522 12.5859 10.8749 12.6563C11.2609 12.8785 11.5008 13.2927 11.5008 13.7374C11.5008 14.4248 10.9417 14.9839 10.2543 14.9839C9.56695 14.9839 9.00784 14.4248 9.00784 13.7374C9.00784 13.2164 9.33629 12.7459 9.82551 12.5667C9.95838 12.518 10.0265 12.3711 9.97783 12.2382C9.92919 12.1054 9.78225 12.0375 9.64938 12.0859C8.95971 12.3388 8.49609 13.0024 8.49609 13.7374C8.49609 14.7071 9.28484 15.4959 10.2546 15.4959C11.2241 15.4959 12.0128 14.7071 12.0128 13.7376C12.0128 13.1099 11.6744 12.5257 11.1301 12.2126Z" fill="#CF4E32" stroke="#CF4E32" stroke-width="0.128"/>
</g>
<defs>
<clipPath id="clip0_1053_554">
<rect width="32" height="32" fill="white"/>
</clipPath>
</defs>
</svg>
