<svg width="25" height="25" viewBox="0 0 25 25" fill="none" xmlns="http://www.w3.org/2000/svg">
<path d="M23.9224 12.4145C23.8491 12.3128 23.7314 12.245 23.6061 12.245H21.9339C22.0087 12.0501 22.0468 11.7409 22.0468 11.473C22.0468 9.9683 20.8227 8.74805 19.3181 8.74805C17.8133 8.74805 16.5893 9.96642 16.5893 11.4711C16.5893 11.7359 16.6292 12.0501 16.7041 12.245H1.38592C1.26058 12.245 1.14293 12.3129 1.06967 12.4145C0.996398 12.5162 0.981933 12.6507 1.02151 12.7696L2.9562 18.5608V19.6682C2.9562 20.5274 3.64364 21.211 4.5021 21.211H20.49C21.3484 21.211 22.0577 20.5274 22.0577 19.6682V18.5608L23.9814 12.7696C24.021 12.6507 23.9956 12.5162 23.9224 12.4145ZM19.318 9.52767C20.3928 9.52767 21.2672 10.3963 21.2672 11.471C21.2672 11.7434 21.2121 12.0501 21.1045 12.245H17.5321C17.4255 12.0501 17.3689 11.742 17.3689 11.473C17.3688 10.3982 18.2432 9.52767 19.318 9.52767ZM21.2925 18.3665C21.2794 18.4063 21.2781 18.4556 21.2781 18.4975V19.6682C21.2781 20.0974 20.9185 20.4313 20.49 20.4313H4.50206C4.0735 20.4313 3.73582 20.0974 3.73582 19.6682V18.4975C3.73582 18.4556 3.72356 18.4063 3.71031 18.3665L1.92677 13.0247H23.0652L21.2925 18.3665Z" fill="#CF4E32"/>
<path d="M10.3523 6.02734C9.49249 6.02734 8.79297 6.72687 8.79297 7.58667C8.79297 8.44648 9.49249 9.146 10.3523 9.146C11.2121 9.146 11.9116 8.44648 11.9116 7.58667C11.9116 6.72687 11.2121 6.02734 10.3523 6.02734ZM10.3523 8.36634C9.92239 8.36634 9.57263 8.01657 9.57263 7.58667C9.57263 7.15677 9.92239 6.80701 10.3523 6.80701C10.7822 6.80701 11.132 7.15677 11.132 7.58667C11.132 8.01657 10.7822 8.36634 10.3523 8.36634Z" fill="#CF4E32"/>
<path d="M13.4707 2.12695C12.6109 2.12695 11.9114 2.82648 11.9114 3.68628C11.9114 4.54609 12.6109 5.24561 13.4707 5.24561C14.3305 5.24561 15.03 4.54609 15.03 3.68628C15.03 2.82648 14.3305 2.12695 13.4707 2.12695ZM13.4707 4.46594C13.0408 4.46594 12.691 4.11618 12.691 3.68628C12.691 3.25638 13.0408 2.90662 13.4707 2.90662C13.9006 2.90662 14.2504 3.25638 14.2504 3.68628C14.2504 4.11618 13.9006 4.46594 13.4707 4.46594Z" fill="#CF4E32"/>
<path d="M8.01306 5.24878C8.44366 5.24878 8.79273 4.89971 8.79273 4.46912C8.79273 4.03852 8.44366 3.68945 8.01306 3.68945C7.58247 3.68945 7.2334 4.03852 7.2334 4.46912C7.2334 4.89971 7.58247 5.24878 8.01306 5.24878Z" fill="#CF4E32"/>
</svg>
