<svg width="30" height="30" viewBox="0 0 30 30" fill="none" xmlns="http://www.w3.org/2000/svg">
<path d="M27.2058 20.4605H21.8366C22.0446 20.2746 22.249 20.0523 22.4358 19.7855C23.2908 18.5705 23.5608 16.7705 23.1108 14.5655C23.1108 14.4305 23.0208 14.2955 22.8858 14.2505C22.7508 14.2055 22.6158 14.2055 22.4808 14.2505C22.0758 14.4755 20.8608 14.9255 20.1857 14.4755C19.7808 14.2055 19.5557 13.6205 19.6008 12.6755C19.6008 12.3605 19.7808 11.7305 20.2758 11.1905C21.7158 9.57056 21.6708 7.00555 20.2308 5.29556C20.0058 4.98058 19.7358 4.71059 19.4208 4.35057C19.3308 4.21558 19.1508 4.1706 19.0158 4.21558C18.8808 4.26056 18.7458 4.35057 18.7008 4.48557C18.7008 4.48557 18.4308 5.16056 17.9358 5.70055C17.5308 6.15053 16.9908 6.10555 16.6308 5.92557C16.2708 5.74559 15.9108 5.34059 16.0008 4.75557C16.0908 4.12556 16.3608 3.45057 16.8108 2.64058C16.8558 2.55057 16.8558 2.37059 16.8108 2.23559C16.7208 2.10059 16.5858 2.01058 16.4508 2.01058C16.4058 2.01058 14.7858 1.8306 13.3008 2.95556C12.3558 3.67559 11.8158 4.89057 11.9508 6.15053C11.9958 6.78054 12.0858 7.32053 12.2658 7.7705C12.3108 7.95048 12.3558 8.1755 12.2658 8.40051C12.2208 8.49053 12.0858 8.8055 11.4558 8.8055C11.4108 8.8055 11.3658 8.8055 11.3658 8.8055C11.3658 8.8055 11.1408 8.85049 10.9158 8.67051C10.6908 8.44549 10.5558 8.0405 10.5558 7.45553C10.5558 7.27555 10.4658 7.14055 10.3308 7.05053C10.1958 7.00555 10.0158 7.00555 9.88082 7.09551C9.79081 7.14049 8.35081 8.22053 8.35081 9.79552C8.35081 10.8755 8.98082 11.8655 10.3308 12.8105C10.6008 12.9455 11.4558 13.5755 11.4558 14.2055V14.2505C11.5008 14.4305 11.5008 14.9705 11.2308 15.2855C11.0958 15.4205 10.8708 15.5105 10.5558 15.5105C10.5108 15.5105 10.5108 15.5105 10.4658 15.5105C10.3758 15.5105 8.57583 15.7805 8.2608 14.0705C8.21581 13.8905 8.08082 13.7556 7.90078 13.7105C7.7208 13.7105 7.54077 13.7555 7.45081 13.9355C7.40583 14.0705 5.87582 16.6805 6.8208 18.8855C7.09455 19.5243 7.55369 20.0472 8.17995 20.4605H3.80587C2.81585 20.4605 2.00586 21.4505 2.00586 22.7105C2.00586 23.9705 2.81585 24.9605 3.80587 24.9605H6.54437C6.51949 25.107 6.50588 25.2572 6.50588 25.4105C6.50588 26.8954 7.72086 28.1105 9.20589 28.1105C10.3199 28.1105 11.2818 27.4268 11.6931 26.4583L12.3665 26.1114C12.4922 27.7464 13.8355 29.0105 15.5059 29.0105C17.1687 29.0105 18.5074 27.758 18.6436 26.1337L19.3324 26.4885C19.7507 27.4408 20.7037 28.1105 21.8058 28.1105C23.2908 28.1105 24.5058 26.8955 24.5058 25.4105C24.5058 25.2572 24.4922 25.107 24.4673 24.9605H27.2059C28.1959 24.9605 29.0059 23.9705 29.0059 22.7105C29.0058 21.4505 28.1958 20.4605 27.2058 20.4605ZM7.63089 18.4355C7.18092 17.3555 7.4959 16.0955 7.81087 15.2405C8.5309 16.3205 9.83584 16.5005 10.6008 16.3655C11.2758 16.3655 11.6808 16.0956 11.9058 15.8256C12.4458 15.1955 12.4009 14.2955 12.3558 14.1156C12.3558 12.8555 10.9608 12.0456 10.8258 11.9555C9.79081 11.2355 9.25081 10.4706 9.25081 9.70556C9.25081 9.16557 9.52081 8.71554 9.79081 8.35558C9.9258 8.76058 10.1058 9.07561 10.3758 9.30057C10.8258 9.70556 11.3208 9.66058 11.5008 9.66058C12.5358 9.66058 12.9858 9.07561 13.1208 8.7156C13.3008 8.3106 13.3008 7.86057 13.1208 7.4106C12.9858 7.0056 12.8958 6.55558 12.8508 6.01558C12.7608 5.0706 13.1208 4.1706 13.8408 3.6306C14.5158 3.13559 15.1908 2.95561 15.6858 2.91058C15.3708 3.54059 15.1908 4.12556 15.1008 4.66555C14.9658 5.56556 15.4158 6.37554 16.2258 6.78054C17.0358 7.14055 17.9808 7.00555 18.5658 6.33056C18.8358 6.06057 19.0608 5.74559 19.1958 5.47554C19.2859 5.61054 19.4209 5.70055 19.5108 5.83555C20.6808 7.23056 20.6808 9.25553 19.5558 10.5605C19.0158 11.1905 18.6558 11.9555 18.6558 12.6305C18.6558 13.8905 18.9708 14.7455 19.6908 15.1955C20.5458 15.7355 21.6708 15.4655 22.3458 15.2405C22.5708 16.9505 22.3908 18.3005 21.7158 19.2455C21.0858 20.1905 20.1408 20.4155 19.9608 20.4605H17.5606C18.3509 19.5173 18.4424 18.1604 17.7558 17.1306L15.5058 13.8005L13.2558 17.1306C12.5159 18.1753 12.618 19.5568 13.4401 20.4605H10.6008C9.07089 20.1455 8.08087 19.4705 7.63089 18.4355ZM19.1058 25.3655L18.5658 25.0955L18.5595 25.0766C18.5203 24.9205 18.4698 24.7692 18.4086 24.6238L17.5758 22.1255L19.2928 22.7624L20.3258 23.1559C19.6726 23.5871 19.2156 24.2935 19.1235 25.1068C19.106 25.1924 19.1058 25.267 19.1058 25.3655ZM16.7208 19.9205C16.1808 20.4605 15.5059 20.4155 15.5059 20.4155H15.4609C14.6509 20.4155 14.2459 19.9655 14.2009 19.9205C13.6159 19.3355 13.5259 18.3455 14.0209 17.6255L15.5059 15.4205L16.9009 17.6255C17.3958 18.3455 17.3059 19.3355 16.7208 19.9205ZM14.449 21.6961C14.5372 21.6167 14.6059 21.4888 14.6059 21.3605H15.4609H15.5959H16.4059C16.4059 21.4505 16.4396 21.5404 16.4903 21.6136L16.9749 23.0676C16.5375 22.8396 16.0385 22.7104 15.5059 22.7104C14.951 22.7104 14.4324 22.8502 13.9822 23.0964L14.449 21.6961ZM2.90592 22.7105C2.90592 21.9905 3.31091 21.3605 3.80592 21.3605C4.30093 21.3605 4.70592 21.9905 4.70592 22.7105C4.70592 23.4305 4.30093 24.0605 3.80592 24.0605C3.31091 24.0605 2.90592 23.4305 2.90592 22.7105ZM6.86589 24.0605H5.24919C5.44412 23.7349 5.56958 23.3393 5.59885 22.9056C5.5996 22.8949 5.60014 22.8841 5.60078 22.8733C5.60191 22.8532 5.60314 22.8331 5.60384 22.8128C5.60512 22.7787 5.60587 22.7446 5.60587 22.7104C5.60587 22.6763 5.60507 22.6422 5.60384 22.6081C5.60314 22.5878 5.60191 22.5677 5.60078 22.5476C5.60014 22.5368 5.5996 22.5261 5.59885 22.5153C5.56958 22.0816 5.44412 21.686 5.24919 21.3604H10.4658C10.5108 21.3604 10.5108 21.3604 10.5559 21.3604H12.8576L9.28014 22.7104C9.25537 22.7104 9.23066 22.7104 9.20589 22.7104C9.16466 22.7104 9.12375 22.7117 9.08301 22.7135C9.07261 22.714 9.06226 22.7145 9.05191 22.7151C9.01272 22.7174 8.97374 22.7201 8.93503 22.7241C8.93166 22.7244 8.92828 22.7248 8.9249 22.7251C8.88839 22.729 8.85215 22.7338 8.81607 22.7391C8.8024 22.7411 8.78878 22.7432 8.77521 22.7454C8.74803 22.7498 8.72101 22.7547 8.6941 22.76C8.66847 22.765 8.64306 22.7704 8.61764 22.7761C8.60092 22.7799 8.58419 22.7836 8.56762 22.7878C8.54307 22.7938 8.51867 22.8001 8.49439 22.8068C8.49208 22.8075 8.48983 22.8082 8.48753 22.8088C7.86073 22.9831 7.32364 23.3785 6.96743 23.9054C6.9321 23.956 6.89816 24.0076 6.86589 24.0605ZM9.20589 27.2105C8.21587 27.2105 7.40588 26.4005 7.40588 25.4105C7.40588 25.1939 7.44464 24.9859 7.51557 24.7933C7.54233 24.7629 7.56656 24.7292 7.58591 24.6905C7.68483 24.4432 7.83243 24.2326 8.01471 24.0644C8.28224 23.8272 8.62022 23.6682 8.99219 23.6237C9.0095 23.6217 9.02677 23.6196 9.04419 23.6182C9.06006 23.6167 9.07604 23.6155 9.09201 23.6145C9.10252 23.6139 9.11324 23.6139 9.12381 23.6134C9.17372 23.6401 9.23093 23.6555 9.29585 23.6555C10.2408 23.7456 10.9609 24.5106 10.9609 25.4555C10.9609 25.6355 10.9609 25.8156 10.8708 26.0405C10.8639 26.0684 10.8598 26.0963 10.8572 26.124C10.5795 26.7616 9.94269 27.2105 9.20589 27.2105ZM11.9041 25.3423C11.8927 24.8897 11.7689 24.464 11.5591 24.0921C11.5454 24.067 11.5307 24.0425 11.5163 24.0179C11.5151 24.0158 11.5139 24.0137 11.5126 24.0117C11.3219 23.6887 11.0677 23.4145 10.7609 23.2075C10.7382 23.1914 10.7154 23.1754 10.6922 23.16L13.4359 22.1255L12.6031 24.6238C12.5419 24.7692 12.4914 24.9205 12.4522 25.0766L12.4458 25.0955L11.9058 25.3655C11.9055 25.3576 11.9046 25.35 11.9041 25.3423ZM15.5059 28.1105C14.2458 28.1105 13.2559 27.1204 13.2559 25.8605C13.2559 24.6005 14.2459 23.6105 15.5059 23.6105C16.7658 23.6105 17.7558 24.6005 17.7558 25.8605C17.7558 27.1204 16.7659 28.1105 15.5059 28.1105ZM21.8058 27.2105C21.0717 27.2105 20.4369 26.7648 20.1577 26.1309C20.1578 26.0862 20.1522 26.0409 20.1409 25.9955C20.0959 25.9055 20.0509 25.8155 20.0509 25.7255C20.0294 25.6612 20.0184 25.6072 20.0125 25.5584C20.0085 25.5095 20.0059 25.4603 20.0059 25.4105V25.4103C20.0059 25.3204 20.0509 25.2754 20.0509 25.1405C20.1113 24.7372 20.2895 24.3885 20.5484 24.126C20.8521 23.8286 21.2596 23.637 21.7099 23.6131C21.7115 23.613 21.713 23.6129 21.7146 23.6128C21.7448 23.6112 21.7753 23.6104 21.8059 23.6104C21.8479 23.6104 21.8895 23.6123 21.9308 23.6153C21.9366 23.6158 21.9424 23.6162 21.9482 23.6167C22.4969 23.6622 22.9817 23.9683 23.2988 24.4082C23.4924 24.6951 23.6058 25.0402 23.6058 25.4105C23.6058 26.4005 22.7959 27.2105 21.8058 27.2105ZM21.9991 22.7182C21.9907 22.7176 21.9824 22.7169 21.9741 22.7163C21.9557 22.7152 21.9373 22.7141 21.9189 22.7133C21.9009 22.7125 21.8829 22.7119 21.865 22.7115L18.1496 21.3605H20.0058C20.0508 21.3605 20.0508 21.3605 20.0508 21.3605H25.7625C25.5675 21.6861 25.4421 22.0817 25.4128 22.5153C25.4121 22.5261 25.4115 22.5368 25.4109 22.5476C25.4098 22.5678 25.4085 22.5878 25.4078 22.6082C25.4065 22.6422 25.4058 22.6763 25.4058 22.7105C25.4058 22.7446 25.4066 22.7787 25.4078 22.8128C25.4085 22.8331 25.4098 22.8532 25.4109 22.8734C25.4115 22.8842 25.4121 22.8949 25.4128 22.9057C25.4421 23.3394 25.5675 23.7349 25.7625 24.0605H24.1458C24.1149 24.0101 24.0826 23.9607 24.0487 23.9125C23.5969 23.2395 22.851 22.7793 21.9991 22.7182ZM27.2058 24.0605C26.7108 24.0605 26.3058 23.4305 26.3058 22.7105C26.3058 21.9905 26.7108 21.3605 27.2058 21.3605C27.7008 21.3605 28.1058 21.9905 28.1058 22.7105C28.1058 23.4305 27.7008 24.0605 27.2058 24.0605Z" fill="#CF4E32"/>
<path d="M7.85598 4.26128C8.12598 4.26128 8.30596 4.0813 8.30596 3.8113C8.30596 3.54131 8.12598 3.36133 7.85598 3.36133C7.58599 3.36133 7.40601 3.54131 7.40601 3.8113C7.40601 4.0813 7.58599 4.26128 7.85598 4.26128Z" fill="#CF4E32"/>
<path d="M25.4055 11.0093C25.6755 11.0093 25.8555 10.8293 25.8555 10.5594C25.8555 10.2894 25.6755 10.1094 25.4055 10.1094C25.1355 10.1094 24.9556 10.2894 24.9556 10.5594C24.9556 10.8293 25.1355 11.0093 25.4055 11.0093Z" fill="#CF4E32"/>
<path d="M2.90603 13.7105C3.17603 13.7105 3.356 13.5305 3.356 13.2605C3.356 12.9905 3.17603 12.8105 2.90603 12.8105C2.63603 12.8105 2.45605 12.9905 2.45605 13.2605C2.45605 13.5305 2.63598 13.7105 2.90603 13.7105Z" fill="#CF4E32"/>
</svg>
