<svg width="30" height="30" viewBox="0 0 30 30" fill="none" xmlns="http://www.w3.org/2000/svg">
<g clip-path="url(#clip0_1052_127)">
<path d="M27.9949 20.5036H22.0314C22.2625 20.2972 22.4895 20.0503 22.6969 19.7539C23.6466 18.4045 23.9465 16.4053 23.4466 13.9562C23.4466 13.8063 23.3467 13.6563 23.1967 13.6064C23.0468 13.5564 22.8968 13.5564 22.7469 13.6064C22.2971 13.8563 20.9476 14.3561 20.1979 13.8563C19.7481 13.5564 19.4981 12.9066 19.5482 11.8571C19.5482 11.5072 19.7481 10.8075 20.2979 10.2077C21.8972 8.40846 21.8473 5.55956 20.2479 3.66031C19.998 3.31047 19.6981 3.01059 19.3483 2.61073C19.2483 2.46079 19.0484 2.41083 18.8984 2.46079C18.7485 2.51075 18.5986 2.61073 18.5486 2.76067C18.5486 2.76067 18.2487 3.51037 17.6989 4.11013C17.2491 4.6099 16.6494 4.55994 16.2495 4.36004C15.8496 4.16015 15.4498 3.71033 15.5498 3.06055C15.6497 2.36081 15.9496 1.61112 16.4494 0.711483C16.4994 0.611504 16.4994 0.411604 16.4494 0.261665C16.3494 0.111726 16.1995 0.0117465 16.0495 0.0117465C15.9996 0.0117465 14.2002 -0.188153 12.5509 1.06132C11.5013 1.86104 10.9016 3.21049 11.0515 4.6099C11.1015 5.30964 11.2015 5.9094 11.4014 6.40918C11.4513 6.60907 11.5013 6.85899 11.4014 7.10891C11.3514 7.20889 11.2015 7.55873 10.5017 7.55873C10.4518 7.55873 10.4017 7.55873 10.4017 7.55873C10.4017 7.55873 10.1518 7.60869 9.90197 7.40879C9.65205 7.15887 9.50211 6.70905 9.50211 6.05934C9.50211 5.85944 9.40213 5.7095 9.25219 5.60952C9.10225 5.55956 8.90235 5.55956 8.75241 5.65948C8.65244 5.70944 7.05306 6.90901 7.05306 8.65832C7.05306 9.85784 7.7528 10.9574 9.25219 12.007C9.55207 12.1569 10.5017 12.8567 10.5017 13.5564V13.6064C10.5517 13.8063 10.5517 14.4061 10.2518 14.7559C10.1019 14.9059 9.85195 15.0059 9.50211 15.0059C9.45215 15.0059 9.45215 15.0059 9.40213 15.0059C9.30215 15.0059 7.30298 15.3057 6.95308 13.4065C6.90312 13.2066 6.75319 13.0566 6.55323 13.0066C6.35333 13.0066 6.15337 13.0566 6.05345 13.2565C6.00349 13.4065 4.30414 16.3053 5.35371 18.7544C5.65776 19.4638 6.16772 20.0447 6.86329 20.5037H2.00509C0.905495 20.5037 0.00585938 21.6033 0.00585938 23.0027C0.00585938 24.4022 0.905495 25.5017 2.00509 25.5017H5.04669C5.01906 25.6645 5.00393 25.8313 5.00393 26.0015C5.00393 27.6508 6.35339 29.0003 8.00278 29.0003C9.24004 29.0003 10.3085 28.241 10.7652 27.1653L11.5132 26.78C11.6528 28.596 13.1448 30 15.0001 30C16.8469 30 18.3338 28.6088 18.4851 26.8048L19.2501 27.1989C19.7147 28.2565 20.7731 29.0003 21.9973 29.0003C23.6466 29.0003 24.9961 27.6509 24.9961 26.0015C24.9961 25.8313 24.981 25.6644 24.9534 25.5017H27.995C29.0946 25.5017 29.9942 24.4021 29.9942 23.0027C29.9941 21.6032 29.0945 20.5036 27.9949 20.5036ZM6.25347 18.2546C5.75369 17.055 6.10353 15.6556 6.45337 14.706C7.25308 15.9055 8.70245 16.1054 9.55213 15.9555C10.3018 15.9555 10.7516 15.6556 11.0016 15.3558C11.6013 14.656 11.5514 13.6564 11.5013 13.4565C11.5013 12.057 9.95193 11.1574 9.80199 11.0574C8.65244 10.2577 8.05268 9.40808 8.05268 8.5584C8.05268 7.95865 8.35256 7.45881 8.65244 7.05901C8.80237 7.50883 9.00227 7.85873 9.30215 8.10859C9.80193 8.5584 10.3517 8.50844 10.5517 8.50844C11.7012 8.50844 12.201 7.85873 12.351 7.45887C12.5509 7.00905 12.5509 6.50921 12.351 6.00944C12.201 5.55962 12.101 5.05978 12.0511 4.46002C11.9511 3.41045 12.351 2.41083 13.1507 1.81108C13.9004 1.26128 14.6501 1.06138 15.1999 1.01136C14.85 1.7111 14.6501 2.36081 14.5501 2.96057C14.4002 3.96019 14.9 4.85982 15.7997 5.30964C16.6993 5.7095 17.7489 5.55956 18.3987 4.80986C18.6985 4.50998 18.9485 4.16015 19.0984 3.86021C19.1984 4.01015 19.3483 4.11013 19.4482 4.26007C20.7477 5.80948 20.7477 8.05857 19.4982 9.508C18.8984 10.2077 18.4986 11.0574 18.4986 11.8071C18.4986 13.2066 18.8484 14.1562 19.6481 14.656C20.5978 15.2558 21.8473 14.9559 22.597 14.706C22.8469 16.6052 22.6469 18.1046 21.8972 19.1542C21.1975 20.2038 20.1479 20.4537 19.948 20.5037H17.2822C18.16 19.4561 18.2616 17.949 17.499 16.8052L15 13.1066L12.501 16.8052C11.6791 17.9655 11.7926 19.4999 12.7057 20.5037H9.55213C7.85284 20.1538 6.75324 19.4041 6.25347 18.2546ZM18.9984 25.9515L18.3987 25.6517L18.3916 25.6306C18.3481 25.4573 18.292 25.2893 18.224 25.1278L17.2991 22.3529L19.2061 23.0604L20.3534 23.4974C19.6279 23.9763 19.1204 24.761 19.018 25.6642C18.9987 25.7593 18.9984 25.8421 18.9984 25.9515ZM16.3495 19.9039C15.7497 20.5036 15 20.4537 15 20.4537H14.9501C14.0504 20.4537 13.6006 19.9539 13.5506 19.9039C12.9009 19.2542 12.8009 18.1546 13.3507 17.3549L15 14.9058L16.5494 17.3549C17.0992 18.1546 16.9993 19.2542 16.3495 19.9039ZM13.8262 21.8761C13.9242 21.7879 14.0004 21.6458 14.0004 21.5033H14.9501H15.1H15.9996C15.9996 21.6032 16.0372 21.7032 16.0934 21.7844L16.6317 23.3994C16.1459 23.1461 15.5916 23.0027 15 23.0027C14.3838 23.0027 13.8078 23.1579 13.3078 23.4313L13.8262 21.8761ZM1.00553 23.0027C1.00553 22.2031 1.45535 21.5033 2.00515 21.5033C2.55495 21.5033 3.00476 22.2031 3.00476 23.0027C3.00476 23.8024 2.55495 24.5021 2.00515 24.5021C1.45535 24.5021 1.00553 23.8024 1.00553 23.0027ZM5.40379 24.5021H3.60815C3.82467 24.1405 3.96401 23.7011 3.99652 23.2194C3.99735 23.2075 3.99795 23.1955 3.99866 23.1836C3.99991 23.1612 4.00128 23.1389 4.00206 23.1163C4.00349 23.0785 4.00432 23.0406 4.00432 23.0027C4.00432 22.9647 4.00343 22.9268 4.00206 22.889C4.00128 22.8665 3.99991 22.8441 3.99866 22.8217C3.99795 22.8098 3.99735 22.7979 3.99652 22.7859C3.96401 22.3042 3.82467 21.8648 3.60815 21.5032H9.40219C9.45215 21.5032 9.45215 21.5032 9.50217 21.5032H12.0587L8.08525 23.0026C8.05774 23.0026 8.03029 23.0026 8.00278 23.0026C7.95699 23.0026 7.91155 23.004 7.8663 23.006C7.85474 23.0066 7.84325 23.0072 7.83176 23.0078C7.78823 23.0103 7.74494 23.0134 7.70195 23.0178C7.6982 23.0181 7.69444 23.0186 7.69069 23.019C7.65014 23.0233 7.60989 23.0286 7.56981 23.0345C7.55463 23.0367 7.5395 23.039 7.52444 23.0415C7.49425 23.0464 7.46424 23.0518 7.43434 23.0577C7.40588 23.0632 7.37765 23.0693 7.34943 23.0756C7.33085 23.0798 7.31227 23.0839 7.29387 23.0885C7.2666 23.0952 7.23951 23.1023 7.21253 23.1097C7.20997 23.1104 7.20747 23.1112 7.20491 23.1119C6.50875 23.3054 5.9122 23.7446 5.51657 24.3299C5.47733 24.386 5.43964 24.4434 5.40379 24.5021ZM8.00278 28.0007C6.90318 28.0007 6.00355 27.1011 6.00355 26.0015C6.00355 25.761 6.0466 25.53 6.12538 25.316C6.1551 25.2822 6.18201 25.2448 6.20351 25.2018C6.31337 24.9271 6.4773 24.6933 6.67976 24.5065C6.9769 24.243 7.35229 24.0665 7.76542 24.017C7.78466 24.0148 7.80383 24.0124 7.82318 24.0108C7.84081 24.0092 7.85856 24.0079 7.8763 24.0068C7.88797 24.0061 7.89988 24.0061 7.91161 24.0055C7.96705 24.0353 8.03059 24.0523 8.1027 24.0523C9.15227 24.1523 9.95199 25.002 9.95199 26.0516C9.95199 26.2515 9.95199 26.4514 9.85201 26.7013C9.84427 26.7323 9.83974 26.7632 9.83682 26.7941C9.52843 27.5022 8.82113 28.0007 8.00278 28.0007ZM10.9997 25.9258C10.987 25.4231 10.8494 24.9503 10.6164 24.5372C10.6012 24.5093 10.5849 24.4822 10.5689 24.4548C10.5675 24.4525 10.5662 24.4502 10.5648 24.4479C10.353 24.0892 10.0707 23.7847 9.72988 23.5547C9.70463 23.5368 9.67932 23.519 9.65354 23.502L12.7009 22.3529L11.776 25.1278C11.708 25.2893 11.6519 25.4573 11.6083 25.6306L11.6013 25.6517L11.0016 25.9515C11.0011 25.9428 11.0001 25.9344 10.9997 25.9258ZM15 29.0003C13.6005 29.0003 12.501 27.9007 12.501 26.5013C12.501 25.1019 13.6006 24.0023 15 24.0023C16.3994 24.0023 17.499 25.1019 17.499 26.5013C17.499 27.9007 16.3995 29.0003 15 29.0003ZM21.9973 28.0007C21.1819 28.0007 20.4769 27.5058 20.1667 26.8017C20.1668 26.7521 20.1606 26.7017 20.148 26.6513C20.0981 26.5513 20.0481 26.4514 20.0481 26.3514C20.0242 26.2799 20.012 26.22 20.0054 26.1658C20.001 26.1115 19.9981 26.0569 19.9981 26.0015V26.0014C19.9982 25.9015 20.0481 25.8515 20.0481 25.7016C20.1152 25.2538 20.3132 24.8664 20.6007 24.5749C20.938 24.2446 21.3906 24.0318 21.8907 24.0052C21.8925 24.0051 21.8942 24.0049 21.8959 24.0048C21.9295 24.0031 21.9633 24.0023 21.9973 24.0023C22.044 24.0023 22.0902 24.0044 22.1361 24.0077C22.1425 24.0082 22.1489 24.0086 22.1554 24.0092C22.7648 24.0597 23.3033 24.3997 23.6555 24.8883C23.8706 25.207 23.9965 25.5903 23.9965 26.0015C23.9965 27.1011 23.0969 28.0007 21.9973 28.0007ZM22.2119 23.0113C22.2026 23.0106 22.1934 23.0098 22.1841 23.0091C22.1638 23.0079 22.1433 23.0068 22.1229 23.0059C22.1029 23.005 22.0829 23.0043 22.063 23.0038L17.9363 21.5033H19.998C20.048 21.5033 20.048 21.5033 20.048 21.5033H26.3918C26.1753 21.8649 26.036 22.3043 26.0035 22.786C26.0026 22.7979 26.002 22.8098 26.0013 22.8218C26.0001 22.8442 25.9987 22.8665 25.9979 22.889C25.9965 22.9269 25.9957 22.9648 25.9957 23.0027C25.9957 23.0406 25.9966 23.0785 25.9979 23.1164C25.9987 23.1389 26.0001 23.1612 26.0013 23.1836C26.002 23.1956 26.0026 23.2075 26.0035 23.2195C26.036 23.7012 26.1753 24.1405 26.3918 24.5022H24.5962C24.562 24.4461 24.526 24.3913 24.4884 24.3377C23.9866 23.5903 23.1581 23.0791 22.2119 23.0113ZM27.9949 24.5021C27.4451 24.5021 26.9953 23.8024 26.9953 23.0027C26.9953 22.2031 27.4451 21.5033 27.9949 21.5033C28.5447 21.5033 28.9945 22.2031 28.9945 23.0027C28.9945 23.8024 28.5447 24.5021 27.9949 24.5021Z" fill="#CF4E32"/>
<path d="M6.50344 2.5103C6.80332 2.5103 7.00322 2.3104 7.00322 2.01052C7.00322 1.71064 6.80332 1.51074 6.50344 1.51074C6.20356 1.51074 6.00366 1.71064 6.00366 2.01052C6.00366 2.3104 6.20356 2.5103 6.50344 2.5103Z" fill="#CF4E32"/>
<path d="M25.9956 10.0074C26.2955 10.0074 26.4954 9.80747 26.4954 9.50759C26.4954 9.20771 26.2955 9.00781 25.9956 9.00781C25.6957 9.00781 25.4958 9.20771 25.4958 9.50759C25.4958 9.80747 25.6957 10.0074 25.9956 10.0074Z" fill="#CF4E32"/>
<path d="M1.00564 13.0064C1.30552 13.0064 1.50541 12.8065 1.50541 12.5066C1.50541 12.2067 1.30552 12.0068 1.00564 12.0068C0.705759 12.0068 0.505859 12.2067 0.505859 12.5066C0.505859 12.8065 0.705699 13.0064 1.00564 13.0064Z" fill="#CF4E32"/>
</g>
<defs>
<clipPath id="clip0_1052_127">
<rect width="30" height="30" fill="white"/>
</clipPath>
</defs>
</svg>
