<svg width="27" height="27" viewBox="0 0 27 27" fill="none" xmlns="http://www.w3.org/2000/svg">
<path d="M5.83332 6.46982C6.37843 6.11916 6.48745 5.41785 6.48745 4.99707H9.10396C9.10396 5.83864 9.54005 6.32955 9.75809 6.46982C10.9355 7.14307 11.3389 7.73217 11.3934 7.94256V12.992H4.198V7.94256C4.198 7.60593 5.28821 6.82047 5.83332 6.46982Z" stroke="#CF4E32" strokeWidth="0.7"/>
<path d="M9.31716 1H6.13184V3.12355H9.31716V1Z" stroke="#CF4E32" strokeWidth="0.7"/>
<path d="M9.67126 3.12402H5.77808V5.24758H9.67126V3.12402Z" stroke="#CF4E32" strokeWidth="0.7"/>
<path d="M23.2974 3.30023V1.17667H15.511C13.2105 0.822748 12.3257 5.42378 12.8566 4.89289C13.2813 4.46818 14.4493 4.24403 14.9801 4.18504H19.2272L20.289 3.30023H23.2974Z" stroke="#CF4E32" strokeWidth="0.7"/>
<path d="M21.3506 3.30031V1.17676H23.2972V3.30031H21.3506Z" stroke="#CF4E32" strokeWidth="0.7"/>
<path d="M15.511 6.48586V4.3623H19.0502V5.48586C19.0502 6.03814 18.6025 6.48586 18.0502 6.48586H15.511Z" stroke="#CF4E32" strokeWidth="0.7"/>
<path d="M21.3508 6.30946C20.7609 6.30946 19.475 5.99093 19.0503 4.7168" stroke="#CF4E32" strokeWidth="0.7"/>
<path d="M22.977 12.1931H14.2063C14.066 10.8933 14.9665 7.92057 15.4342 6.59668H17.5675C18.2464 6.59668 18.8355 7.32933 19.2052 7.89883C19.7515 8.74035 20.8727 9.48549 21.5737 9.84622C22.8367 10.7128 23.0355 11.7719 22.977 12.1931Z" stroke="#CF4E32" strokeWidth="0.7"/>
<path d="M24.3591 12.7715H2.4157C1.63383 12.7715 1 13.4053 1 14.1872C1 14.9691 1.63383 15.6029 2.4157 15.6029H24.3591C25.141 15.6029 25.7748 14.9691 25.7748 14.1872C25.7748 13.4053 25.141 12.7715 24.3591 12.7715Z" fill="white" stroke="#CF4E32" strokeWidth="0.7"/>
<path d="M7.72461 19.0502V14.9717C7.72461 13.3148 9.06776 11.9717 10.7246 11.9717H15.2844C16.5707 11.9717 17.7012 12.8244 18.0546 14.0612C18.1281 14.3186 18.1654 14.585 18.1654 14.8527V15.9575C18.1654 16.9018 17.715 17.9828 16.7726 17.923C16.2725 17.8913 15.8832 17.6528 15.6879 17.4575V20.639C15.6879 21.4346 15.3331 22.296 14.5391 22.2442C14.2194 22.2233 13.9253 22.1374 13.7413 22.0586C13.7413 22.5118 13.5821 22.9917 13.1672 23.1742C13.0396 23.2304 12.9158 23.2632 12.7978 23.2779C12.1034 23.3644 11.7948 22.5502 11.7948 21.8504V20.5949C11.7948 21.311 11.5728 22.186 10.8593 22.2477C10.7762 22.2549 10.6948 22.2524 10.6158 22.2421C9.90566 22.1494 9.6712 21.311 9.6712 20.5949V17.2897C9.6712 18.6425 7.72461 20.403 7.72461 19.0502Z" fill="white"/>
<path d="M13.7413 16.9266V22.0586M13.7413 22.0586V22.0586C13.7413 22.5118 13.5821 22.9917 13.1672 23.1742C13.0396 23.2304 12.9158 23.2632 12.7978 23.2779C12.1034 23.3644 11.7948 22.5502 11.7948 21.8504V16.9266V20.5949C11.7948 21.311 11.5728 22.186 10.8593 22.2477C10.7762 22.2549 10.6948 22.2524 10.6158 22.2421C9.90566 22.1494 9.6712 21.311 9.6712 20.5949V16.9266V17.2897C9.6712 18.6425 7.72461 20.403 7.72461 19.0502V19.0502V14.9717C7.72461 13.3148 9.06776 11.9717 10.7246 11.9717H15.2844C16.5707 11.9717 17.7012 12.8244 18.0546 14.0612V14.0612C18.1281 14.3186 18.1654 14.585 18.1654 14.8527V15.9575C18.1654 16.9018 17.715 17.9828 16.7726 17.923C16.2725 17.8913 15.8832 17.6528 15.6879 17.4575M13.7413 22.0586C13.9253 22.1374 14.2194 22.2233 14.5391 22.2442C15.3331 22.296 15.6879 21.4346 15.6879 20.639V17.4575M15.6879 14.98V17.4575" stroke="#CF4E32" strokeWidth="0.7"/>
<path d="M2.19922 15.3906L3.71931 23.3381C3.98974 24.752 5.22636 25.7746 6.66589 25.7746H11.4408" stroke="#CF4E32" strokeWidth="0.7"/>
<path d="M24.9848 15.3906L23.5639 23.3047C23.3072 24.7342 22.0635 25.7746 20.6111 25.7746H15.865" stroke="#CF4E32" strokeWidth="0.7"/>
<circle cx="13.5997" cy="25.6686" r="0.35" fill="#CF4E32" stroke="#CF4E32" strokeWidth="0.361776"/>
</svg>
