<svg width="33" height="33" viewBox="0 0 33 33" fill="none" xmlns="http://www.w3.org/2000/svg">
<path d="M5.28727 4.87034C5.31897 5.11054 5.35602 5.34506 5.39618 5.56976C5.50689 6.18928 5.06625 6.78444 4.44557 6.88843C2.16958 7.26977 1.34334 8.26987 1 9.08306V30.905H14.4579V9.08306C13.9667 7.30727 12.3689 6.95731 10.991 6.83985C10.3517 6.78535 9.9321 6.17208 10.078 5.54725C10.1322 5.31528 10.1781 5.09138 10.2161 4.8754C10.9513 0.697962 4.73225 0.665172 5.28727 4.87034Z" fill="white" stroke="#CF4E32"/>
<path d="M14.4579 11.0332H1.12573V15.1838L14.4579 15.058V11.0332Z" stroke="#CF4E32"/>
<path d="M1 20.0889H4.64747" stroke="#CF4E32"/>
<path d="M1 23.8613H4.64747" stroke="#CF4E32"/>
<path d="M1 27.7598H4.64747" stroke="#CF4E32"/>
<rect x="22.8816" y="4.99219" width="4.40832" height="3.90522" fill="white" stroke="#CF4E32"/>
<path d="M18.4499 31.5364L19.9578 8.07324H30.2817L32.0309 31.5364H18.4499Z" fill="white" stroke="#CF4E32"/>
<rect x="24.1426" y="1.97656" width="1.88662" height="2.76705" fill="#CF4E32"/>
<rect x="23.1306" y="0.768555" width="6.07299" height="1.74085" transform="rotate(-6.95037 23.1306 0.768555)" fill="#CF4E32"/>
<path d="M15.6528 31.6533C10.0181 30.3956 9.99295 22.7443 10.6847 19.0758C11.2381 20.3839 12.5504 21.2559 13.1373 21.5284H19.8034C17.1213 17.8658 17.5968 15.3232 19.0953 13.8201C21.2552 11.6536 25.4775 11.7251 27.2072 14.2483C28.6163 16.3038 27.7752 19.2841 26.5952 20.8996C30.9722 27.9429 27.832 31.0035 25.7148 31.6533H15.6528Z" fill="white" stroke="#CF4E32"/>
<path d="M31.9566 16.0508C32.49 18.0699 30.778 19.0673 29.0688 19.6054C28.3596 19.8287 27.727 19.1549 27.9198 18.4369L28.5607 16.0508C29.8185 16.403 31.3487 16.1975 31.9566 16.0508Z" fill="white" stroke="#CF4E32"/>
<circle cx="24.5829" cy="15.1203" r="0.817536" fill="#CF4E32"/>
<path d="M15.1074 23.3555H18.3567C21.0378 23.3555 23.2412 25.4002 23.4927 28.0153H20.2434C17.5623 28.0153 15.3589 25.9706 15.1074 23.3555Z" fill="white" stroke="#CF4E32"/>
</svg>
