<svg width="34" height="34" viewBox="0 0 34 34" fill="none" xmlns="http://www.w3.org/2000/svg">
<g clip-path="url(#clip0_1052_141)">
<path d="M27.3262 0.251953L26.951 0.261914L26.5891 0.354883L26.2537 0.520898L21.7945 3.44277L21.4891 3.69512L21.2533 4.01387L20.6258 5.09961L20.5029 5.36855L20.4232 5.6541L20.4 5.94961V8.80176L20.0779 9.22344L19.8322 9.69824L19.6596 10.2029H18.627L18.4908 9.61523L18.2883 9.04746L18.0227 8.50293L17.8035 8.21406L17.5379 7.97168L17.2158 7.7957L16.8705 7.68613L16.5119 7.65625L16.0238 7.66953L15.632 7.7293L15.2734 7.87871L14.9514 8.10449L14.6957 8.4L14.367 8.80508L13.9818 9.15039L13.5502 9.43594L13.0787 9.65508L12.5807 9.79785L11.0766 10.1564L9.59902 10.6246L8.15801 11.1924L6.76348 11.8631L5.41543 12.6301L4.13047 13.4834L2.90195 14.4297L1.74648 15.4557L0.667383 16.5646L0.365234 16.9664L0.149414 17.4146L0.0298828 17.9027L0 18.4008L0.0730469 18.8955L0.242383 19.367L0.498047 19.7953L0.833398 20.1672L1.23184 20.4627L1.6834 20.6785L2.16484 20.8047L2.66953 20.8279L3.16094 20.7582L3.63242 20.5922L4.06074 20.3332L4.43594 19.9979L5.33906 19.0814L6.30859 18.2281L7.34453 17.4578L8.43027 16.7672L9.56914 16.1562L10.7512 15.6383L11.9697 15.21L13.2148 14.8779L14.4832 14.6355L15.7682 14.4928L17.0531 14.4496L17.435 14.4098L17.7936 14.2803L18.1189 14.0777L18.3879 13.8121L18.5871 13.4867L18.7166 13.1281L18.7598 12.7463H20.0049L20.3436 13.2344L20.7652 13.6561L21.2467 13.9947V15.2398L20.8682 15.283L20.5063 15.4059L20.1875 15.6084L19.9152 15.8807L19.7127 16.2061L19.5898 16.5646L19.55 16.9465L19.5068 18.2314L19.3641 19.5164L19.1217 20.7848L18.7863 22.0299L18.3613 23.2451L17.84 24.4305L17.2324 25.5627L16.5418 26.6551L15.7648 27.691L14.9182 28.6605L14.0018 29.5637L13.6664 29.9355L13.4074 30.3639L13.2414 30.8387L13.1717 31.3301L13.1949 31.8281L13.3211 32.3162L13.5303 32.7678L13.8324 33.1662L14.201 33.5016L14.6326 33.7572L15.1041 33.9266L15.5988 33.9963L16.0969 33.9697L16.5816 33.8469L17.0332 33.6344L17.435 33.3322L18.5373 32.2531L19.5699 31.0943L20.5129 29.8691L21.3695 28.5842L22.1365 27.2361L22.8072 25.8416L23.375 24.4006L23.8432 22.923L24.2018 21.4189L24.3445 20.9209L24.5637 20.4494L24.8492 20.0145L25.1945 19.6293L25.5996 19.3039L25.8951 19.0482L26.1209 18.7262L26.2703 18.3609L26.3301 17.9758L26.3434 17.4877L26.3135 17.1291L26.2072 16.7771L26.0279 16.4617L25.7855 16.1895L25.49 15.977L24.9521 15.7113L24.3844 15.5055L23.8 15.3727V14.34L24.3014 14.1674L24.7762 13.9217L25.1979 13.5996H28.05L28.3455 13.5764L28.6344 13.4967L28.9 13.3738L29.9857 12.743L30.3045 12.5039L30.5568 12.2051L33.4787 7.7459L33.6447 7.41055L33.7377 7.04863L33.7477 6.67344L33.6746 6.30488L33.5285 5.96289H33.5252L33.0271 5.09961L30.5568 6.52734L30.3443 7.02539L30.0488 7.48691L29.6869 7.89199L29.2652 8.2373L28.7971 8.51289L28.2824 8.70547L27.7512 8.81504L27.2033 8.8416L26.6654 8.7752L25.8354 9.25L25.5299 8.83496L25.1646 8.46973L24.7463 8.16426L25.2244 7.33418L25.1613 6.79297L25.1846 6.24844L25.2941 5.71719L25.4867 5.20254L25.7557 4.73105L26.101 4.3127L26.5127 3.94746L26.9709 3.65527L27.4723 3.44277L28.9 0.972461L28.0367 0.474414L27.6914 0.32168L27.3262 0.251953ZM24.3246 3.81797L23.9893 4.3957L23.7336 5.00664L23.5576 5.6541L23.468 6.31484V6.97891L23.2754 7.31426L23.1227 7.65625L23.0529 8.02148L23.0629 8.39004L23.1525 8.75527L23.3186 9.0873L23.5576 9.37617L23.8465 9.60527L24.1686 9.86758L24.4209 10.1963L24.5836 10.5781L24.6467 10.9865L24.6135 11.3949L24.4773 11.79L24.2582 12.1354L23.9561 12.4209L23.5941 12.6234L23.1957 12.733L22.7807 12.743L22.3756 12.65L22.007 12.4674L21.6949 12.1951L21.4559 11.8598L21.3031 11.4746L21.2467 11.0662L21.2965 10.6545L21.4393 10.266L21.6717 9.92402L21.9041 9.58867L22.0502 9.20352L22.1 8.80176V5.94961L22.7275 4.86387L24.3246 3.81797ZM16.5451 9.35293L16.7941 9.89082L16.9469 10.4619L17 11.0496V11.8996L17.0166 12.3279L17.0598 12.7529L15.642 12.7961L14.2309 12.9555L12.8363 13.2211L11.465 13.5863L10.127 14.0578L8.82539 14.6322L7.57695 15.2963L6.37832 16.0566L5.23945 16.91L4.17363 17.843L3.17754 18.8557L2.94512 19.0316L2.66289 19.1246L2.36738 19.1113L2.0918 18.9984L1.87598 18.7992L1.73652 18.5369L1.70332 18.248L1.75977 17.9559L1.91914 17.7102L2.92188 16.6875L3.9877 15.7346L5.11992 14.8613L6.30859 14.0744L7.55371 13.3672L8.84199 12.7529L10.1668 12.2283L11.5281 11.7934L12.9193 11.458L13.5469 11.292L14.1445 11.043L14.7057 10.7176L15.2236 10.3291L15.6885 9.87422L16.0936 9.36621L16.5451 9.35293ZM30.1816 9.675L29.1357 11.2721L28.05 11.8996H26.2404L26.3334 11.3916L26.3434 10.8736L26.6854 10.7242L27.0207 10.5316L27.6848 10.5283L28.3455 10.4387L28.9863 10.266L29.6039 10.0104L30.1816 9.675ZM21.2467 16.9398L21.6717 16.983L22.1 16.9996H22.95L23.5377 17.0494L24.1088 17.2021L24.6467 17.4545L24.6334 17.9061L24.1254 18.3078L23.6705 18.7693L23.2754 19.2873L22.9533 19.8551L22.7076 20.4527L22.535 21.0803L22.2063 22.4715L21.7713 23.8328L21.2467 25.1576L20.6324 26.4459L19.9252 27.691L19.1316 28.8797L18.265 30.0119L17.3121 31.0777L16.2895 32.0738L16.0371 32.2332L15.7516 32.2963L15.4627 32.2564L15.2004 32.1203L14.9979 31.9012L14.8883 31.6322L14.875 31.3367L14.9613 31.0545L15.1439 30.8221L16.1566 29.826L17.0896 28.7535L17.943 27.6213L18.7033 26.4227L19.3674 25.1676L19.9418 23.8727L20.4133 22.5346L20.7785 21.1633L21.0441 19.7654L21.1969 18.3543L21.2467 16.9398Z" fill="#CF4E32"/>
</g>
<defs>
<clipPath id="clip0_1052_141">
<rect width="34" height="34" fill="white"/>
</clipPath>
</defs>
</svg>
