<svg width="30" height="30" viewBox="0 0 30 30" fill="none" xmlns="http://www.w3.org/2000/svg">
<path d="M10.5906 4.79108C10.2601 4.79811 9.99527 5.06998 9.99996 5.40045C9.99996 8.26686 8.77418 9.27936 7.51558 10.4044C6.38121 11.4169 5.19996 12.5676 5.19996 15.0005C5.19762 15.2184 5.31012 15.42 5.49762 15.5278C5.68512 15.638 5.9148 15.638 6.1023 15.5278C6.2898 15.42 6.4023 15.2184 6.39996 15.0005C6.39996 12.9145 7.18043 12.3122 8.3148 11.2973C9.5734 10.1747 11.2 8.63952 11.2 5.40045C11.2023 5.23873 11.139 5.0817 11.0242 4.96686C10.9093 4.85202 10.7523 4.78873 10.5906 4.79108ZM14.2 7.20045C13.8695 7.20045 13.6 7.46999 13.6 7.80045C13.6 9.55358 12.8546 10.2215 11.9898 10.995C11.0617 11.827 10.0093 12.7692 10.0093 15.0005C10.0093 15.3309 10.2789 15.6005 10.6093 15.6005C10.9398 15.6005 11.2093 15.3333 11.2093 15.0005C11.2093 13.3059 11.9429 12.6497 12.7914 11.888C13.7336 11.0442 14.8 10.0903 14.8 7.80045C14.8 7.46999 14.5304 7.20045 14.2 7.20045ZM17.2 9.60045C16.8671 9.60045 16.6 9.86999 16.6 10.2005C16.6 11.2903 16.1523 11.6911 15.5851 12.195C14.9664 12.7458 14.1953 13.4325 14.1953 15.0005C14.1953 15.3309 14.4648 15.6005 14.7953 15.6005C15.1257 15.6005 15.3953 15.3309 15.3953 15.0005C15.3953 13.9692 15.8101 13.6012 16.3843 13.0903C17.0148 12.5301 17.8 11.8294 17.8 10.2005C17.8 9.86999 17.5328 9.60045 17.2 9.60045ZM28.5062 15.563C27.114 15.5465 23.964 15.7669 20.1554 17.6419L20.1789 17.5598C20.2281 17.3794 20.1906 17.1848 20.0781 17.0372C19.9632 16.8872 19.7875 16.8005 19.6 16.8005H2.59371C2.40621 16.8005 2.22808 16.8872 2.11558 17.0372C2.00308 17.1848 1.96324 17.3794 2.01246 17.5598L3.21012 21.9473C3.63668 23.5106 5.06402 24.6005 6.68355 24.6005H15.5101C17.0382 24.6005 18.3836 23.6231 18.8898 22.2005H19.6375C20.6945 22.2005 21.7468 21.8348 22.539 21.0872C23.1976 20.4661 24.5289 19.6153 27.1586 19.313C28.6632 19.1395 29.8 17.8481 29.8 16.3364V16.2005C29.8 15.9005 29.5773 15.6473 29.282 15.6075C29.282 15.6075 29.0054 15.57 28.5062 15.563ZM27.9906 16.7934C28.1664 16.8005 28.3093 16.8075 28.4195 16.8169C28.2156 17.4825 27.7421 18.038 27.0226 18.1223C24.182 18.4481 22.5718 19.409 21.7164 20.2153C21.1703 20.7286 20.4156 21.0005 19.6375 21.0005H19.2414L19.7312 19.2075L19.8695 19.1372C19.8742 19.1348 19.8812 19.1301 19.8882 19.1278C23.9031 16.9387 26.7578 16.7606 27.9906 16.7934ZM3.37652 18.0005H18.8148L18.6507 18.6028C18.6484 18.6122 18.6437 18.6215 18.6414 18.6309L17.875 21.4411C17.875 21.4434 17.875 21.4434 17.875 21.4458L17.8257 21.6309C17.5398 22.6786 16.5953 23.4005 15.5101 23.4005H6.68355C5.5984 23.4005 4.65387 22.6786 4.36793 21.6309L3.37652 18.0005Z" fill="#CF4E32"/>
</svg>
