<svg width="30" height="30" viewBox="0 0 30 30" fill="none" xmlns="http://www.w3.org/2000/svg">
<g clip-path="url(#clip0_1053_275)">
<path d="M21.0422 17.9032H24.1936L24.1922 15.6048L23.8438 15.5027C23.8143 15.494 21.0015 14.6323 19.1604 11.129H21.2904L21.2894 8.89548L21.0238 8.76145C20.9967 8.7479 18.3794 7.3829 16.1169 3.51145C16.6104 3.15968 16.9356 2.58629 16.9356 1.93548C16.9356 0.868064 16.0675 0 15.0001 0C13.9327 0 13.0646 0.868064 13.0646 1.93548C13.0646 2.58629 13.3898 3.15968 13.8833 3.51097C11.6203 7.3829 9.00348 8.74742 8.97735 8.76097L8.70977 8.89452V11.129H10.8393C8.99816 14.6323 6.1859 15.494 6.15735 15.5023L5.80655 15.6029V17.9032H8.95751C7.02784 22.396 3.273 23.7218 3.23429 23.7348L2.90332 23.8447V26.129H12.5807V30H17.4194V26.129H27.0969V23.8447L26.7659 23.7344C26.7262 23.7213 22.9777 22.4153 21.0422 17.9032ZM15.0001 0.967742C15.5333 0.967742 15.9678 1.40226 15.9678 1.93548C15.9678 2.46871 15.5333 2.90323 15.0001 2.90323C14.4664 2.90323 14.0324 2.46871 14.0324 1.93548C14.0324 1.40226 14.4664 0.967742 15.0001 0.967742ZM9.67751 10.1613V9.47661C10.4561 9.01016 12.7719 7.40419 14.8061 3.85161C14.8709 3.8579 14.9338 3.87097 15.0001 3.87097C15.0664 3.87097 15.1293 3.8579 15.1941 3.85161C17.2283 7.40419 19.5436 9.01016 20.3227 9.47661V10.1613H18.7012H11.299H9.67751ZM6.77429 16.9355V16.3089C7.70574 15.9368 10.2596 14.641 11.9236 11.129H18.077C19.7411 14.641 22.2949 15.9373 23.2264 16.3089V16.9355H6.77429ZM16.4517 29.0323H13.5485V26.129H16.4517V29.0323ZM26.1291 25.1613H3.87106V24.5245C4.93751 24.0721 8.26364 22.3408 10.0041 17.9032H19.9956C21.7365 22.3408 25.0627 24.0716 26.1291 24.5245V25.1613Z" fill="#CF4E32"/>
<path d="M18.3872 8.70986C17.582 8.70986 16.6752 8.47179 15.693 8.00195L15.2754 8.87534C16.3893 9.4076 17.4364 9.6776 18.3872 9.6776V8.70986Z" fill="#CF4E32"/>
<path d="M14.7667 7.50068C14.2097 7.16342 13.8531 6.88181 13.8492 6.87891L13.2468 7.63616C13.2633 7.64874 13.6513 7.95649 14.2654 8.32858L14.7667 7.50068Z" fill="#CF4E32"/>
<path d="M16.6882 13.701L17.1823 14.5338C18.1834 13.9391 18.7045 13.4305 18.7263 13.4088L18.0484 12.7188C18.0436 12.7236 17.579 13.1731 16.6882 13.701Z" fill="#CF4E32"/>
<path d="M9.67749 15.4838V16.4516C12.0485 16.4516 14.2346 15.9856 16.1749 15.0667L15.7612 14.1924C13.951 15.0493 11.9043 15.4838 9.67749 15.4838Z" fill="#CF4E32"/>
<path d="M11.8596 21.4811C14.4556 22.939 18.5346 24.6775 23.2257 24.6775V23.7098C18.5075 23.7098 14.3762 21.7845 12.3338 20.6367L11.8596 21.4811Z" fill="#CF4E32"/>
<path d="M9.87134 20.2258C9.88585 20.2365 10.2396 20.5002 10.872 20.896L11.3854 20.0758C10.7907 19.7038 10.4539 19.4536 10.4505 19.4512L9.87134 20.2258Z" fill="#CF4E32"/>
<path d="M3.87097 9.19355C3.87097 8.29403 3.25161 7.54306 2.41935 7.32677V0H1.45161V7.32677C0.618871 7.54306 0 8.29403 0 9.19355C0 10.261 0.868065 11.129 1.93548 11.129C3.0029 11.129 3.87097 10.261 3.87097 9.19355ZM1.93548 10.1613C1.40177 10.1613 0.967742 9.72726 0.967742 9.19355C0.967742 8.65984 1.40177 8.22581 1.93548 8.22581C2.46871 8.22581 2.90323 8.65984 2.90323 9.19355C2.90323 9.72726 2.46871 10.1613 1.93548 10.1613Z" fill="#CF4E32"/>
<path d="M7.74188 6.29032C8.8093 6.29032 9.67736 5.42226 9.67736 4.35484C9.67736 3.45532 9.05801 2.70436 8.22575 2.48806V0H7.25801V2.48806C6.42527 2.70436 5.8064 3.45532 5.8064 4.35484C5.8064 5.42226 6.67446 6.29032 7.74188 6.29032ZM7.74188 3.3871C8.27511 3.3871 8.70962 3.82161 8.70962 4.35484C8.70962 4.88806 8.27511 5.32258 7.74188 5.32258C7.20817 5.32258 6.77414 4.88806 6.77414 4.35484C6.77414 3.82161 7.20817 3.3871 7.74188 3.3871Z" fill="#CF4E32"/>
<path d="M28.5485 3.93968V0H27.5808V3.93968C26.748 4.15597 26.1292 4.90694 26.1292 5.80645C26.1292 6.87387 26.9972 7.74194 28.0646 7.74194C29.1321 7.74194 30.0001 6.87387 30.0001 5.80645C30.0001 4.90694 29.3808 4.15597 28.5485 3.93968ZM28.0646 6.77419C27.5309 6.77419 27.0969 6.33968 27.0969 5.80645C27.0969 5.27323 27.5309 4.83871 28.0646 4.83871C28.5979 4.83871 29.0324 5.27323 29.0324 5.80645C29.0324 6.33968 28.5979 6.77419 28.0646 6.77419Z" fill="#CF4E32"/>
<path d="M24.1935 14.0323C25.261 14.0323 26.129 13.1642 26.129 12.0968C26.129 11.1973 25.5097 10.4463 24.6774 10.23V0H23.7097V10.23C22.8769 10.4463 22.2581 11.1973 22.2581 12.0968C22.2581 13.1642 23.1261 14.0323 24.1935 14.0323ZM24.1935 11.129C24.7268 11.129 25.1613 11.5631 25.1613 12.0968C25.1613 12.6305 24.7268 13.0645 24.1935 13.0645C23.6598 13.0645 23.2258 12.6305 23.2258 12.0968C23.2258 11.5631 23.6598 11.129 24.1935 11.129Z" fill="#CF4E32"/>
</g>
<defs>
<clipPath id="clip0_1053_275">
<rect width="30" height="30" fill="white"/>
</clipPath>
</defs>
</svg>
