<svg width="26" height="26" viewBox="0 0 26 26" fill="none" xmlns="http://www.w3.org/2000/svg">
<path d="M17.9955 2.5C14.9603 2.5 12.491 4.96913 12.491 8.00448C12.491 8.61466 12.5949 9.2 12.7788 9.74876L2.91271 19.6138C2.84136 19.6851 2.80226 19.7797 2.79351 19.8786C2.283 20.8221 2.44736 22.0141 3.21702 22.7831C3.68064 23.2475 4.29772 23.5029 4.95335 23.5029C5.36289 23.5029 5.76098 23.402 6.11729 23.2105C6.21848 23.201 6.31485 23.1572 6.38906 23.0832L6.67475 22.7982C6.684 22.789 6.69365 22.7799 6.70296 22.7701L16.2513 13.2216C16.8005 13.4057 17.3852 13.5093 17.9955 13.5093C21.0311 13.5093 23.5 11.04 23.5 8.00487C23.4999 4.96953 21.031 2.5 17.9955 2.5ZM6.07309 22.1539C6.07275 22.1548 6.07185 22.1557 6.07096 22.156C6.06737 22.1595 6.06434 22.1629 6.06131 22.1656L5.90845 22.3183C5.87766 22.3291 5.8472 22.3452 5.81898 22.3635C5.21452 22.7624 4.35673 22.6773 3.83966 22.1605C3.31513 21.6367 3.22891 20.806 3.63475 20.1857C3.65287 20.1585 3.66622 20.1288 3.67587 20.0976L13.0686 10.7047C13.3074 11.1177 13.5964 11.4951 13.9332 11.832C14.3543 12.2535 14.8341 12.5978 15.3662 12.8611L6.07309 22.1539ZM17.9955 12.6282C17.3982 12.6282 16.8279 12.5102 16.3032 12.3032C16.2972 12.3006 16.292 12.2964 16.2861 12.2943C16.2218 12.2719 16.1629 12.2425 16.1007 12.2173C14.494 11.4921 13.3717 9.87812 13.3717 8.00448C13.3717 5.45474 15.4457 3.38073 17.9955 3.38073C20.545 3.38073 22.6192 5.45474 22.6192 8.00448C22.6192 10.5542 20.545 12.6282 17.9955 12.6282Z" fill="#CF4E32"/>
<path d="M20.1533 6.15771C20.112 6.00587 19.9937 5.88706 19.8418 5.84639L17.475 5.21225C17.321 5.17142 17.1607 5.21551 17.0497 5.32646L15.3169 7.05914C15.2057 7.17032 15.1623 7.3326 15.203 7.48455L15.8369 9.85199C15.8783 10.0041 15.9966 10.1228 16.1483 10.1633L18.5153 10.797C18.5531 10.8071 18.5917 10.812 18.6297 10.812C18.7448 10.812 18.8572 10.7667 18.9411 10.683L20.6735 8.95068C20.785 8.8395 20.8284 8.67711 20.7875 8.52515L20.1533 6.15771ZM18.498 9.8806L16.6223 9.37811L16.1194 7.50189L17.4923 6.12877L19.3679 6.63126L19.8712 8.50748L18.498 9.8806Z" fill="#CF4E32"/>
<path d="M5.04572 19.8516C4.4389 19.8516 3.94482 20.3454 3.94482 20.9526C3.94482 21.5597 4.43895 22.0534 5.04572 22.0534C5.65243 22.0534 6.14656 21.5597 6.14656 20.9526C6.14656 20.3454 5.65243 19.8516 5.04572 19.8516ZM5.04572 21.1727C4.92422 21.1727 4.82555 21.0737 4.82555 20.9526C4.82555 20.8317 4.92422 20.7323 5.04572 20.7323C5.16722 20.7323 5.26589 20.8316 5.26589 20.9526C5.26594 21.0737 5.16722 21.1727 5.04572 21.1727Z" fill="#CF4E32"/>
</svg>
