<svg width="28" height="28" viewBox="0 0 28 28" fill="none" xmlns="http://www.w3.org/2000/svg">
<g clip-path="url(#clip0_1053_194)">
<path d="M20.6599 0C16.6137 0 13.3217 3.29172 13.3217 7.33827C13.3217 8.15174 13.4602 8.93208 13.7054 9.66367L0.552404 22.8152C0.457282 22.9102 0.40516 23.0363 0.393494 23.1682C-0.287089 24.426 -0.0679802 26.0152 0.958092 27.0404C1.57616 27.6595 2.39882 27.9999 3.27287 27.9999C3.81884 27.9999 4.34957 27.8654 4.82457 27.6101C4.95948 27.5975 5.08795 27.539 5.18689 27.4404L5.56775 27.0605C5.58009 27.0482 5.59295 27.0361 5.60537 27.023L18.3348 14.2934C19.0669 14.5389 19.8464 14.6771 20.66 14.6771C24.7069 14.6771 27.9983 11.3851 27.9983 7.3388C27.9981 3.29224 24.7068 0 20.6599 0ZM4.76565 26.2016C4.7652 26.2028 4.764 26.204 4.76281 26.2043C4.75802 26.209 4.75398 26.2136 4.74994 26.2171L4.54617 26.4207C4.50511 26.4351 4.4645 26.4566 4.42689 26.4809C3.62105 27.0128 2.47749 26.8993 1.78816 26.2103C1.08888 25.512 0.973945 24.4045 1.51499 23.5777C1.53914 23.5414 1.55694 23.5018 1.5698 23.4602L14.0918 10.9381C14.41 11.4887 14.7954 11.9918 15.2443 12.441C15.8057 13.0029 16.4454 13.4618 17.1548 13.8129L4.76565 26.2016ZM20.6599 13.5024C19.8637 13.5024 19.1034 13.3451 18.4039 13.0691C18.3959 13.0656 18.389 13.0601 18.3811 13.0572C18.2954 13.0274 18.2169 12.9881 18.1339 12.9546C15.992 11.9878 14.4958 9.83611 14.4958 7.33827C14.4958 3.9391 17.2607 1.17414 20.6599 1.17414C24.0589 1.17414 26.8241 3.9391 26.8241 7.33827C26.824 10.7374 24.0589 13.5024 20.6599 13.5024Z" fill="#CF4E32"/>
<path d="M23.5365 4.87612C23.4814 4.67369 23.3238 4.5153 23.1212 4.46109L19.9659 3.61568C19.7606 3.56124 19.5469 3.62002 19.3989 3.76794L17.0889 6.07785C16.9406 6.22607 16.8827 6.44241 16.937 6.64499L17.7821 9.80113C17.8372 10.0039 17.9949 10.1621 18.1972 10.2162L21.3528 11.061C21.4032 11.0744 21.4547 11.081 21.5053 11.081C21.6588 11.081 21.8086 11.0205 21.9204 10.909L24.23 8.59955C24.3786 8.45133 24.4365 8.23484 24.382 8.03226L23.5365 4.87612ZM21.3297 9.83927L18.8291 9.16938L18.1587 6.6681L19.9889 4.83753L22.4894 5.50742L23.1605 8.0087L21.3297 9.83927Z" fill="#CF4E32"/>
<path d="M3.39637 23.1328C2.58738 23.1328 1.92871 23.7912 1.92871 24.6006C1.92871 25.41 2.58746 26.0682 3.39637 26.0682C4.2052 26.0682 4.86395 25.41 4.86395 24.6006C4.86395 23.7912 4.2052 23.1328 3.39637 23.1328ZM3.39637 24.8941C3.23439 24.8941 3.10285 24.7621 3.10285 24.6006C3.10285 24.4395 3.23439 24.307 3.39637 24.307C3.55834 24.307 3.68988 24.4394 3.68988 24.6006C3.68996 24.7621 3.55834 24.8941 3.39637 24.8941Z" fill="#CF4E32"/>
</g>
<defs>
<clipPath id="clip0_1053_194">
<rect width="28" height="28" fill="white"/>
</clipPath>
</defs>
</svg>
