<svg width="23" height="29" viewBox="0 0 23 29" fill="none" xmlns="http://www.w3.org/2000/svg">
<mask id="path-1-outside-1_1122_843" maskUnits="userSpaceOnUse" x="0.100098" y="12.3926" width="21" height="18" fill="black">
<rect fill="white" x="0.100098" y="12.3926" width="21" height="18"/>
<path d="M19.6562 27.8906C19.5607 27.8269 19.4334 27.7633 19.306 27.6996C19.1787 27.636 19.0196 27.4768 18.8604 27.3177C18.574 27.0312 18.2239 26.7129 17.7783 26.5538C17.46 26.4583 17.1099 26.4901 16.7916 26.522C16.5051 26.5538 16.2505 26.5856 16.0277 26.5538C15.8367 26.522 15.6458 26.3947 15.423 26.2673C15.423 26.0764 15.5184 22.9253 18.0966 21.7795C18.2239 21.7159 18.3194 21.5567 18.2875 21.4294C18.2557 21.2703 18.1284 21.1748 17.9692 21.1748C17.9374 21.1748 16.155 21.2066 14.5636 22.1615C14.6909 21.2384 14.6909 19.6152 13.736 18.4057C13.6724 18.3102 13.5451 18.2784 13.4178 18.3102C13.2904 18.342 13.195 18.4375 13.195 18.5648C13.195 18.5967 12.6857 21.5567 11.3171 23.0208C11.5399 19.3924 13.0676 14.6499 14.6272 14.1088C14.7546 14.0452 15.2002 13.9179 15.7731 14.5544C15.4548 15 14.7864 16.1459 15.4548 17.419C16.2187 18.9149 18.5422 19.9335 18.6376 19.9971C18.6695 20.0289 18.7331 20.0289 18.765 20.0289C18.8286 20.0289 18.8604 20.0289 18.8923 19.9971C18.9878 19.9653 19.0514 19.8698 19.0514 19.7743C19.0832 19.6788 19.6243 17.1962 18.8923 15.7003C18.2557 14.4271 16.9189 14.268 16.3778 14.2361C15.6139 13.3131 14.9137 13.3131 14.4363 13.4723C12.8448 14.0133 11.5717 17.419 10.9988 20.6019C10.4259 17.419 9.15273 14.0133 7.5613 13.4723C7.08387 13.3131 6.38364 13.3131 5.61975 14.2361C5.07867 14.2361 3.74187 14.4271 3.1053 15.7003C2.34141 17.1962 2.91433 19.647 2.94615 19.7743C2.97798 19.8698 3.04164 19.9335 3.1053 19.9971C3.13713 20.0289 3.20078 20.0289 3.23261 20.0289C3.26444 20.0289 3.3281 20.0289 3.35993 19.9971C3.45541 19.9653 5.7789 18.9149 6.54278 17.419C7.17935 16.1459 6.51095 14.9682 6.19267 14.5226C6.76558 13.886 7.17935 14.0452 7.30667 14.077C8.86627 14.6181 10.394 19.3287 10.6168 22.9572C9.24821 21.5567 8.73895 18.6285 8.73895 18.5967C8.70713 18.4693 8.61164 18.3739 8.51615 18.342C8.38884 18.3102 8.26153 18.342 8.19787 18.4375C7.24301 19.647 7.27484 21.2703 7.37033 22.1933C5.7789 21.2066 3.9965 21.2066 3.96467 21.2066C3.80553 21.2066 3.67821 21.3021 3.64638 21.4612C3.61455 21.6204 3.67821 21.7477 3.83735 21.8113C6.41547 22.9572 6.51095 26.1082 6.51095 26.2992C6.28815 26.4265 6.09718 26.5538 5.90621 26.5856C5.68341 26.6493 5.39695 26.5856 5.14233 26.5538C4.82404 26.522 4.47393 26.4583 4.15564 26.5856C3.71004 26.7448 3.35993 27.0631 3.07347 27.3495C2.91433 27.5087 2.75518 27.636 2.62787 27.7315C2.50055 27.7951 2.40507 27.8588 2.27776 27.9224C1.67301 28.2725 1.1001 28.5908 1.1001 29.1956C1.1001 29.3865 1.22741 29.5139 1.41838 29.5139H20.5155C20.7065 29.5139 20.8338 29.3865 20.8338 29.1956C20.8338 28.559 20.2609 28.2407 19.6562 27.8906ZM18.2875 16.0185C18.765 17.0052 18.6058 18.533 18.4785 19.2651C17.8101 18.9149 16.4733 18.1511 15.9959 17.1644C15.4866 16.1459 16.0595 15.2228 16.2823 14.9045C16.6643 14.9364 17.7783 15.0319 18.2875 16.0185ZM5.96987 17.1644C5.49244 18.1511 4.12381 18.9149 3.48724 19.2651C3.35993 18.533 3.20078 17.0052 3.67821 16.0185C4.18747 15 5.30147 14.9045 5.68341 14.9045C5.87438 15.2228 6.47913 16.1777 5.96987 17.1644ZM14.8182 25.9809C14.6909 25.9172 14.5636 25.8854 14.4044 25.8536C14.0543 25.8217 13.736 25.9172 13.4178 26.0127C13.2268 26.0764 13.0676 26.1082 12.9085 26.14C13.1631 23.3391 15.2002 22.3524 16.6324 22.0341C15.1683 23.3073 14.8819 25.217 14.8182 25.9809ZM13.6724 19.4879C14.2771 20.9201 13.8634 22.6707 13.8634 22.7025V22.7344C13.0676 23.4664 12.4311 24.5168 12.2719 26.0445C12.1764 26.0127 12.081 25.9809 11.9855 25.9172C11.6672 25.7899 11.3489 25.6308 10.967 25.6308C10.6168 25.6308 10.3304 25.7581 10.0439 25.8854C10.2031 24.5168 11.0943 24.0393 11.1261 24.0075H11.1579C12.622 23.0208 13.3541 20.7292 13.6724 19.4879ZM8.10238 22.7025C8.10238 22.6707 7.65678 20.9201 8.29335 19.4879C8.57981 20.6019 9.21638 22.6389 10.4577 23.7211C10.1712 23.9757 9.75747 24.4531 9.53467 25.1852C9.28004 24.103 8.73895 23.3073 8.10238 22.7344C8.10238 22.7344 8.10238 22.7344 8.10238 22.7025ZM5.3333 22.0023C6.73375 22.3524 8.77078 23.3391 9.05724 26.14C8.8981 26.1082 8.73896 26.0764 8.54798 26.0127C8.2297 25.9172 7.91141 25.8217 7.5613 25.8536C7.40215 25.8854 7.27484 25.9172 7.14753 25.9491C7.08387 25.217 6.76558 23.3073 5.3333 22.0023ZM1.95947 28.8455C2.11861 28.7181 2.37324 28.5908 2.59604 28.4317C2.72335 28.368 2.81884 28.3044 2.94615 28.2407C3.13713 28.1134 3.3281 27.9543 3.48724 27.7633C3.74187 27.5087 3.9965 27.254 4.31478 27.1585C4.50575 27.0949 4.76038 27.1267 5.01501 27.1585C5.30147 27.1904 5.65158 27.254 6.0017 27.1585C6.28816 27.0949 6.57461 26.9357 6.82924 26.7766C7.08387 26.6175 7.3385 26.4583 7.59313 26.4265C7.81593 26.3947 8.03873 26.4901 8.32518 26.5538C8.64347 26.6493 8.96175 26.7448 9.28004 26.7129C9.59833 26.6811 9.88478 26.5538 10.1712 26.4583C10.4577 26.331 10.7123 26.2355 10.9351 26.2355C11.1579 26.2355 11.4126 26.331 11.699 26.4583C11.9855 26.5856 12.2719 26.7129 12.5902 26.7129C12.9403 26.7448 13.2586 26.6493 13.5451 26.5538C13.7997 26.4583 14.0543 26.3947 14.2771 26.4265C14.5318 26.4583 14.7864 26.6175 15.041 26.7766C15.2956 26.9357 15.5821 27.0949 15.8686 27.1585C16.2187 27.2222 16.537 27.1904 16.8552 27.1585C17.1099 27.1267 17.3963 27.0949 17.5555 27.1585C17.8738 27.254 18.1284 27.5087 18.383 27.7633C18.574 27.9543 18.7331 28.1134 18.9241 28.2407C19.0514 28.3044 19.1469 28.368 19.2742 28.4317C19.5288 28.559 19.7516 28.6863 19.9108 28.8455H1.95947Z"/>
</mask>
<path d="M19.6562 27.8906C19.5607 27.8269 19.4334 27.7633 19.306 27.6996C19.1787 27.636 19.0196 27.4768 18.8604 27.3177C18.574 27.0312 18.2239 26.7129 17.7783 26.5538C17.46 26.4583 17.1099 26.4901 16.7916 26.522C16.5051 26.5538 16.2505 26.5856 16.0277 26.5538C15.8367 26.522 15.6458 26.3947 15.423 26.2673C15.423 26.0764 15.5184 22.9253 18.0966 21.7795C18.2239 21.7159 18.3194 21.5567 18.2875 21.4294C18.2557 21.2703 18.1284 21.1748 17.9692 21.1748C17.9374 21.1748 16.155 21.2066 14.5636 22.1615C14.6909 21.2384 14.6909 19.6152 13.736 18.4057C13.6724 18.3102 13.5451 18.2784 13.4178 18.3102C13.2904 18.342 13.195 18.4375 13.195 18.5648C13.195 18.5967 12.6857 21.5567 11.3171 23.0208C11.5399 19.3924 13.0676 14.6499 14.6272 14.1088C14.7546 14.0452 15.2002 13.9179 15.7731 14.5544C15.4548 15 14.7864 16.1459 15.4548 17.419C16.2187 18.9149 18.5422 19.9335 18.6376 19.9971C18.6695 20.0289 18.7331 20.0289 18.765 20.0289C18.8286 20.0289 18.8604 20.0289 18.8923 19.9971C18.9878 19.9653 19.0514 19.8698 19.0514 19.7743C19.0832 19.6788 19.6243 17.1962 18.8923 15.7003C18.2557 14.4271 16.9189 14.268 16.3778 14.2361C15.6139 13.3131 14.9137 13.3131 14.4363 13.4723C12.8448 14.0133 11.5717 17.419 10.9988 20.6019C10.4259 17.419 9.15273 14.0133 7.5613 13.4723C7.08387 13.3131 6.38364 13.3131 5.61975 14.2361C5.07867 14.2361 3.74187 14.4271 3.1053 15.7003C2.34141 17.1962 2.91433 19.647 2.94615 19.7743C2.97798 19.8698 3.04164 19.9335 3.1053 19.9971C3.13713 20.0289 3.20078 20.0289 3.23261 20.0289C3.26444 20.0289 3.3281 20.0289 3.35993 19.9971C3.45541 19.9653 5.7789 18.9149 6.54278 17.419C7.17935 16.1459 6.51095 14.9682 6.19267 14.5226C6.76558 13.886 7.17935 14.0452 7.30667 14.077C8.86627 14.6181 10.394 19.3287 10.6168 22.9572C9.24821 21.5567 8.73895 18.6285 8.73895 18.5967C8.70713 18.4693 8.61164 18.3739 8.51615 18.342C8.38884 18.3102 8.26153 18.342 8.19787 18.4375C7.24301 19.647 7.27484 21.2703 7.37033 22.1933C5.7789 21.2066 3.9965 21.2066 3.96467 21.2066C3.80553 21.2066 3.67821 21.3021 3.64638 21.4612C3.61455 21.6204 3.67821 21.7477 3.83735 21.8113C6.41547 22.9572 6.51095 26.1082 6.51095 26.2992C6.28815 26.4265 6.09718 26.5538 5.90621 26.5856C5.68341 26.6493 5.39695 26.5856 5.14233 26.5538C4.82404 26.522 4.47393 26.4583 4.15564 26.5856C3.71004 26.7448 3.35993 27.0631 3.07347 27.3495C2.91433 27.5087 2.75518 27.636 2.62787 27.7315C2.50055 27.7951 2.40507 27.8588 2.27776 27.9224C1.67301 28.2725 1.1001 28.5908 1.1001 29.1956C1.1001 29.3865 1.22741 29.5139 1.41838 29.5139H20.5155C20.7065 29.5139 20.8338 29.3865 20.8338 29.1956C20.8338 28.559 20.2609 28.2407 19.6562 27.8906ZM18.2875 16.0185C18.765 17.0052 18.6058 18.533 18.4785 19.2651C17.8101 18.9149 16.4733 18.1511 15.9959 17.1644C15.4866 16.1459 16.0595 15.2228 16.2823 14.9045C16.6643 14.9364 17.7783 15.0319 18.2875 16.0185ZM5.96987 17.1644C5.49244 18.1511 4.12381 18.9149 3.48724 19.2651C3.35993 18.533 3.20078 17.0052 3.67821 16.0185C4.18747 15 5.30147 14.9045 5.68341 14.9045C5.87438 15.2228 6.47913 16.1777 5.96987 17.1644ZM14.8182 25.9809C14.6909 25.9172 14.5636 25.8854 14.4044 25.8536C14.0543 25.8217 13.736 25.9172 13.4178 26.0127C13.2268 26.0764 13.0676 26.1082 12.9085 26.14C13.1631 23.3391 15.2002 22.3524 16.6324 22.0341C15.1683 23.3073 14.8819 25.217 14.8182 25.9809ZM13.6724 19.4879C14.2771 20.9201 13.8634 22.6707 13.8634 22.7025V22.7344C13.0676 23.4664 12.4311 24.5168 12.2719 26.0445C12.1764 26.0127 12.081 25.9809 11.9855 25.9172C11.6672 25.7899 11.3489 25.6308 10.967 25.6308C10.6168 25.6308 10.3304 25.7581 10.0439 25.8854C10.2031 24.5168 11.0943 24.0393 11.1261 24.0075H11.1579C12.622 23.0208 13.3541 20.7292 13.6724 19.4879ZM8.10238 22.7025C8.10238 22.6707 7.65678 20.9201 8.29335 19.4879C8.57981 20.6019 9.21638 22.6389 10.4577 23.7211C10.1712 23.9757 9.75747 24.4531 9.53467 25.1852C9.28004 24.103 8.73895 23.3073 8.10238 22.7344C8.10238 22.7344 8.10238 22.7344 8.10238 22.7025ZM5.3333 22.0023C6.73375 22.3524 8.77078 23.3391 9.05724 26.14C8.8981 26.1082 8.73896 26.0764 8.54798 26.0127C8.2297 25.9172 7.91141 25.8217 7.5613 25.8536C7.40215 25.8854 7.27484 25.9172 7.14753 25.9491C7.08387 25.217 6.76558 23.3073 5.3333 22.0023ZM1.95947 28.8455C2.11861 28.7181 2.37324 28.5908 2.59604 28.4317C2.72335 28.368 2.81884 28.3044 2.94615 28.2407C3.13713 28.1134 3.3281 27.9543 3.48724 27.7633C3.74187 27.5087 3.9965 27.254 4.31478 27.1585C4.50575 27.0949 4.76038 27.1267 5.01501 27.1585C5.30147 27.1904 5.65158 27.254 6.0017 27.1585C6.28816 27.0949 6.57461 26.9357 6.82924 26.7766C7.08387 26.6175 7.3385 26.4583 7.59313 26.4265C7.81593 26.3947 8.03873 26.4901 8.32518 26.5538C8.64347 26.6493 8.96175 26.7448 9.28004 26.7129C9.59833 26.6811 9.88478 26.5538 10.1712 26.4583C10.4577 26.331 10.7123 26.2355 10.9351 26.2355C11.1579 26.2355 11.4126 26.331 11.699 26.4583C11.9855 26.5856 12.2719 26.7129 12.5902 26.7129C12.9403 26.7448 13.2586 26.6493 13.5451 26.5538C13.7997 26.4583 14.0543 26.3947 14.2771 26.4265C14.5318 26.4583 14.7864 26.6175 15.041 26.7766C15.2956 26.9357 15.5821 27.0949 15.8686 27.1585C16.2187 27.2222 16.537 27.1904 16.8552 27.1585C17.1099 27.1267 17.3963 27.0949 17.5555 27.1585C17.8738 27.254 18.1284 27.5087 18.383 27.7633C18.574 27.9543 18.7331 28.1134 18.9241 28.2407C19.0514 28.3044 19.1469 28.368 19.2742 28.4317C19.5288 28.559 19.7516 28.6863 19.9108 28.8455H1.95947Z" fill="#CF4E32"/>
<path d="M19.6562 27.8906C19.5607 27.8269 19.4334 27.7633 19.306 27.6996C19.1787 27.636 19.0196 27.4768 18.8604 27.3177C18.574 27.0312 18.2239 26.7129 17.7783 26.5538C17.46 26.4583 17.1099 26.4901 16.7916 26.522C16.5051 26.5538 16.2505 26.5856 16.0277 26.5538C15.8367 26.522 15.6458 26.3947 15.423 26.2673C15.423 26.0764 15.5184 22.9253 18.0966 21.7795C18.2239 21.7159 18.3194 21.5567 18.2875 21.4294C18.2557 21.2703 18.1284 21.1748 17.9692 21.1748C17.9374 21.1748 16.155 21.2066 14.5636 22.1615C14.6909 21.2384 14.6909 19.6152 13.736 18.4057C13.6724 18.3102 13.5451 18.2784 13.4178 18.3102C13.2904 18.342 13.195 18.4375 13.195 18.5648C13.195 18.5967 12.6857 21.5567 11.3171 23.0208C11.5399 19.3924 13.0676 14.6499 14.6272 14.1088C14.7546 14.0452 15.2002 13.9179 15.7731 14.5544C15.4548 15 14.7864 16.1459 15.4548 17.419C16.2187 18.9149 18.5422 19.9335 18.6376 19.9971C18.6695 20.0289 18.7331 20.0289 18.765 20.0289C18.8286 20.0289 18.8604 20.0289 18.8923 19.9971C18.9878 19.9653 19.0514 19.8698 19.0514 19.7743C19.0832 19.6788 19.6243 17.1962 18.8923 15.7003C18.2557 14.4271 16.9189 14.268 16.3778 14.2361C15.6139 13.3131 14.9137 13.3131 14.4363 13.4723C12.8448 14.0133 11.5717 17.419 10.9988 20.6019C10.4259 17.419 9.15273 14.0133 7.5613 13.4723C7.08387 13.3131 6.38364 13.3131 5.61975 14.2361C5.07867 14.2361 3.74187 14.4271 3.1053 15.7003C2.34141 17.1962 2.91433 19.647 2.94615 19.7743C2.97798 19.8698 3.04164 19.9335 3.1053 19.9971C3.13713 20.0289 3.20078 20.0289 3.23261 20.0289C3.26444 20.0289 3.3281 20.0289 3.35993 19.9971C3.45541 19.9653 5.7789 18.9149 6.54278 17.419C7.17935 16.1459 6.51095 14.9682 6.19267 14.5226C6.76558 13.886 7.17935 14.0452 7.30667 14.077C8.86627 14.6181 10.394 19.3287 10.6168 22.9572C9.24821 21.5567 8.73895 18.6285 8.73895 18.5967C8.70713 18.4693 8.61164 18.3739 8.51615 18.342C8.38884 18.3102 8.26153 18.342 8.19787 18.4375C7.24301 19.647 7.27484 21.2703 7.37033 22.1933C5.7789 21.2066 3.9965 21.2066 3.96467 21.2066C3.80553 21.2066 3.67821 21.3021 3.64638 21.4612C3.61455 21.6204 3.67821 21.7477 3.83735 21.8113C6.41547 22.9572 6.51095 26.1082 6.51095 26.2992C6.28815 26.4265 6.09718 26.5538 5.90621 26.5856C5.68341 26.6493 5.39695 26.5856 5.14233 26.5538C4.82404 26.522 4.47393 26.4583 4.15564 26.5856C3.71004 26.7448 3.35993 27.0631 3.07347 27.3495C2.91433 27.5087 2.75518 27.636 2.62787 27.7315C2.50055 27.7951 2.40507 27.8588 2.27776 27.9224C1.67301 28.2725 1.1001 28.5908 1.1001 29.1956C1.1001 29.3865 1.22741 29.5139 1.41838 29.5139H20.5155C20.7065 29.5139 20.8338 29.3865 20.8338 29.1956C20.8338 28.559 20.2609 28.2407 19.6562 27.8906ZM18.2875 16.0185C18.765 17.0052 18.6058 18.533 18.4785 19.2651C17.8101 18.9149 16.4733 18.1511 15.9959 17.1644C15.4866 16.1459 16.0595 15.2228 16.2823 14.9045C16.6643 14.9364 17.7783 15.0319 18.2875 16.0185ZM5.96987 17.1644C5.49244 18.1511 4.12381 18.9149 3.48724 19.2651C3.35993 18.533 3.20078 17.0052 3.67821 16.0185C4.18747 15 5.30147 14.9045 5.68341 14.9045C5.87438 15.2228 6.47913 16.1777 5.96987 17.1644ZM14.8182 25.9809C14.6909 25.9172 14.5636 25.8854 14.4044 25.8536C14.0543 25.8217 13.736 25.9172 13.4178 26.0127C13.2268 26.0764 13.0676 26.1082 12.9085 26.14C13.1631 23.3391 15.2002 22.3524 16.6324 22.0341C15.1683 23.3073 14.8819 25.217 14.8182 25.9809ZM13.6724 19.4879C14.2771 20.9201 13.8634 22.6707 13.8634 22.7025V22.7344C13.0676 23.4664 12.4311 24.5168 12.2719 26.0445C12.1764 26.0127 12.081 25.9809 11.9855 25.9172C11.6672 25.7899 11.3489 25.6308 10.967 25.6308C10.6168 25.6308 10.3304 25.7581 10.0439 25.8854C10.2031 24.5168 11.0943 24.0393 11.1261 24.0075H11.1579C12.622 23.0208 13.3541 20.7292 13.6724 19.4879ZM8.10238 22.7025C8.10238 22.6707 7.65678 20.9201 8.29335 19.4879C8.57981 20.6019 9.21638 22.6389 10.4577 23.7211C10.1712 23.9757 9.75747 24.4531 9.53467 25.1852C9.28004 24.103 8.73895 23.3073 8.10238 22.7344C8.10238 22.7344 8.10238 22.7344 8.10238 22.7025ZM5.3333 22.0023C6.73375 22.3524 8.77078 23.3391 9.05724 26.14C8.8981 26.1082 8.73896 26.0764 8.54798 26.0127C8.2297 25.9172 7.91141 25.8217 7.5613 25.8536C7.40215 25.8854 7.27484 25.9172 7.14753 25.9491C7.08387 25.217 6.76558 23.3073 5.3333 22.0023ZM1.95947 28.8455C2.11861 28.7181 2.37324 28.5908 2.59604 28.4317C2.72335 28.368 2.81884 28.3044 2.94615 28.2407C3.13713 28.1134 3.3281 27.9543 3.48724 27.7633C3.74187 27.5087 3.9965 27.254 4.31478 27.1585C4.50575 27.0949 4.76038 27.1267 5.01501 27.1585C5.30147 27.1904 5.65158 27.254 6.0017 27.1585C6.28816 27.0949 6.57461 26.9357 6.82924 26.7766C7.08387 26.6175 7.3385 26.4583 7.59313 26.4265C7.81593 26.3947 8.03873 26.4901 8.32518 26.5538C8.64347 26.6493 8.96175 26.7448 9.28004 26.7129C9.59833 26.6811 9.88478 26.5538 10.1712 26.4583C10.4577 26.331 10.7123 26.2355 10.9351 26.2355C11.1579 26.2355 11.4126 26.331 11.699 26.4583C11.9855 26.5856 12.2719 26.7129 12.5902 26.7129C12.9403 26.7448 13.2586 26.6493 13.5451 26.5538C13.7997 26.4583 14.0543 26.3947 14.2771 26.4265C14.5318 26.4583 14.7864 26.6175 15.041 26.7766C15.2956 26.9357 15.5821 27.0949 15.8686 27.1585C16.2187 27.2222 16.537 27.1904 16.8552 27.1585C17.1099 27.1267 17.3963 27.0949 17.5555 27.1585C17.8738 27.254 18.1284 27.5087 18.383 27.7633C18.574 27.9543 18.7331 28.1134 18.9241 28.2407C19.0514 28.3044 19.1469 28.368 19.2742 28.4317C19.5288 28.559 19.7516 28.6863 19.9108 28.8455H1.95947Z" stroke="#CF4E32" stroke-width="0.3" mask="url(#path-1-outside-1_1122_843)"/>
<path d="M22.1446 6.31428L22.145 6.31413L22.1414 6.30719L18.9907 0.324077C18.9501 0.243325 18.8712 0.166218 18.7567 0.128068L18.7452 0.124219H18.733L18.7307 0.124219C18.6356 0.124216 18.5617 0.124215 18.4547 0.159896L18.4543 0.15893L18.4434 0.164718L10.4226 4.39792L10.4225 4.39782L10.419 4.39993C10.2386 4.50819 10.1405 4.7428 10.2665 4.9179L13.4146 10.8961C13.4552 10.9768 13.5341 11.0539 13.6485 11.0921L13.6601 11.0959H13.6723H13.6725H13.6726H13.6728H13.673H13.6732H13.6734H13.6736H13.6738H13.6739H13.6741H13.6743H13.6745H13.6747H13.6749H13.6751H13.6752H13.6754H13.6756H13.6758H13.676H13.6762H13.6764H13.6766H13.6767H13.6769H13.6771H13.6773H13.6775H13.6777H13.6779H13.678H13.6782H13.6784H13.6786H13.6788H13.679H13.6792H13.6794H13.6795H13.6797H13.6799H13.6801H13.6803H13.6805H13.6807H13.6808H13.681H13.6812H13.6814H13.6816H13.6818H13.682H13.6821H13.6823H13.6825H13.6827H13.6829H13.6831H13.6833H13.6835H13.6836H13.6838H13.684H13.6842H13.6844H13.6846H13.6848H13.6849H13.6851H13.6853H13.6855H13.6857H13.6859H13.6861H13.6863H13.6864H13.6866H13.6868H13.687H13.6872H13.6874H13.6876H13.6877H13.6879H13.6881H13.6883H13.6885H13.6887H13.6889H13.689H13.6892H13.6894H13.6896H13.6898H13.69H13.6902H13.6904H13.6905H13.6907H13.6909H13.6911H13.6913H13.6915H13.6917H13.6918H13.692H13.6922H13.6924H13.6926H13.6928H13.693H13.6932H13.6933H13.6935H13.6937H13.6939H13.6941H13.6943H13.6945H13.6946H13.6948H13.695H13.6952H13.6954H13.6956H13.6958H13.6959H13.6961H13.6963H13.6965H13.6967H13.6969H13.6971H13.6973H13.6974H13.6976H13.6978H13.698H13.6982H13.6984H13.6986H13.6987H13.6989H13.6991H13.6993H13.6995H13.6997H13.6999H13.7001H13.7002H13.7004H13.7006H13.7008H13.701H13.7012H13.7014H13.7015H13.7017H13.7019H13.7021H13.7023H13.7025H13.7027H13.7028H13.703H13.7032H13.7034H13.7036H13.7038H13.704H13.7042H13.7043H13.7045H13.7047H13.7049H13.7051H13.7053H13.7055H13.7056H13.7058H13.706H13.7062H13.7064H13.7066H13.7068H13.707H13.7071H13.7073H13.7075H13.7077H13.7079H13.7081H13.7083H13.7084H13.7086H13.7088H13.709H13.7092H13.7094H13.7096H13.7097H13.7099H13.7101H13.7103H13.7105H13.7107H13.7109H13.7111H13.7112H13.7114H13.7116H13.7118H13.712H13.7122H13.7124H13.7125H13.7127H13.7129H13.7131H13.7133H13.7135H13.7137H13.7139H13.714H13.7142H13.7144H13.7146H13.7148H13.715H13.7152H13.7153H13.7155H13.7157H13.7159H13.7161H13.7163H13.7165H13.7166H13.7168H13.717H13.7172H13.7174H13.7176H13.7178H13.718H13.7181H13.7183H13.7185H13.7187H13.7189H13.7191H13.7193H13.7194H13.7196H13.7198H13.72H13.7202H13.7204H13.7206H13.7208H13.7209H13.7211H13.7213H13.7215H13.7217H13.7219H13.7221H13.7222H13.7224H13.7226H13.7228H13.723H13.7232H13.7234H13.7235H13.7237H13.7239H13.7241H13.7243H13.7245H13.7247H13.7249H13.725H13.7252H13.7254H13.7256H13.7258H13.726H13.7262H13.7263H13.7265H13.7267H13.7269H13.7271H13.7273H13.7275H13.7277H13.7278H13.728H13.7282H13.7284H13.7286H13.7288H13.729H13.7291H13.7293H13.7295H13.7297H13.7299H13.7301H13.7303H13.7305H13.7306H13.7308H13.731H13.7312H13.7314H13.7316H13.7318H13.7319H13.7321H13.7323H13.7325H13.7327H13.7329H13.7331H13.7332H13.7334H13.7336H13.7338H13.734H13.7342H13.7344H13.7346H13.7347H13.7349H13.7351H13.7353H13.7355H13.7357H13.7359H13.736H13.7362H13.7364H13.7366H13.7368H13.737H13.7372H13.7374H13.7375H13.7377H13.7379H13.7381H13.7383H13.7385H13.7387H13.7388H13.739H13.7392H13.7394H13.7396H13.7398H13.74H13.7401H13.7403H13.7405H13.7407H13.7409H13.7411H13.7413H13.7415H13.7416H13.7418H13.742H13.7422H13.7424H13.7426H13.7428H13.7429H13.7431H13.7433H13.7435H13.7437H13.7439H13.7441H13.7443H13.7444H13.7446H13.7448H13.745H13.7452H13.7454H13.7456H13.7457H13.7459H13.7461H13.7463H13.7465H13.7467H13.7469H13.747H13.7472H13.7474H13.7476H13.7478H13.748H13.7482H13.7484H13.7485H13.7487H13.7489H13.7491H13.7493H13.7495H13.7497H13.7498H13.75H13.7502H13.7504H13.7506H13.7508H13.751H13.7512H13.7513H13.7515H13.7517H13.7519H13.7521H13.7523H13.7525H13.7526H13.7528H13.753H13.7532H13.7534H13.7536H13.7538H13.7539H13.7541H13.7543H13.7545H13.7547H13.7549H13.7551H13.7553H13.7554H13.7556H13.7558H13.756H13.7562H13.7564H13.7566H13.7567H13.7569H13.7571H13.7573H13.7575H13.7577H13.7579H13.7581H13.7582H13.7584H13.7586H13.7588H13.759H13.7592H13.7594H13.7595H13.7597H13.7599H13.7601H13.7603H13.7605H13.7607H13.7608H13.761H13.7612H13.7614H13.7616H13.7618H13.762H13.7622H13.7623H13.7625H13.7627H13.7629H13.7631H13.7633H13.7635H13.7636H13.7638H13.764H13.7642H13.7644H13.7646H13.7648H13.765H13.7651H13.7653H13.7655H13.7657H13.7659H13.7661H13.7663H13.7664H13.7666H13.7668H13.767H13.7672H13.7674H13.7676H13.7677H13.7709C13.8002 11.0959 13.8296 11.0959 13.8597 11.0909C13.8927 11.0854 13.9237 11.0745 13.9604 11.0562L13.9604 11.0562L13.9619 11.0554L21.982 6.82258C22.0675 6.77953 22.1261 6.69726 22.1545 6.60741C22.1831 6.51665 22.1834 6.41122 22.1446 6.31428ZM16.3775 8.91442L13.6143 3.63646L16.0278 2.36938L18.791 7.64735L16.3775 8.91442ZM13.9267 10.1875L11.1635 4.90958L12.9086 3.99266L15.6718 9.27063L13.9267 10.1875ZM21.2418 6.3424L19.4967 7.25932L16.7335 1.98135L18.4786 1.06443L21.2418 6.3424Z" fill="#CF4E32" stroke="#CF4E32" stroke-width="0.15"/>
<path d="M11.5285 12.9295C11.5285 13.042 11.5664 13.1416 11.638 13.2133C11.7097 13.2849 11.8093 13.3228 11.9218 13.3228C12.0343 13.3228 12.1339 13.2849 12.2056 13.2133C12.2772 13.1416 12.3151 13.042 12.3151 12.9295V12.2929C12.3151 12.1804 12.2772 12.0808 12.2056 12.0091C12.1339 11.9374 12.0343 11.8996 11.9218 11.8996C11.8093 11.8996 11.7097 11.9374 11.638 12.0091C11.5664 12.0808 11.5285 12.1804 11.5285 12.2929V12.9295Z" fill="#CF4E32" stroke="#CF4E32" stroke-width="0.15"/>
<path d="M8.17739 17.7049V17.0683C8.17739 16.9558 8.13955 16.8562 8.0679 16.7845C7.99624 16.7128 7.89664 16.675 7.78411 16.675C7.67158 16.675 7.57197 16.7128 7.50032 16.7845C7.42866 16.8562 7.39082 16.9558 7.39082 17.0683V17.7049C7.39082 17.8174 7.42866 17.917 7.50032 17.9886C7.57197 18.0603 7.67158 18.0981 7.78411 18.0981C7.89664 18.0981 7.99624 18.0603 8.0679 17.9886C8.13955 17.917 8.17739 17.8174 8.17739 17.7049Z" fill="#CF4E32" stroke="#CF4E32" stroke-width="0.15"/>
<path d="M13.7565 16.7519V17.3885C13.7565 17.501 13.7944 17.6006 13.866 17.6722C13.9377 17.7439 14.0373 17.7817 14.1498 17.7817C14.2624 17.7817 14.362 17.7439 14.4336 17.6722C14.5053 17.6006 14.5431 17.501 14.5431 17.3885V16.7519C14.5431 16.6394 14.5053 16.5397 14.4336 16.4681C14.362 16.3964 14.2624 16.3586 14.1498 16.3586C14.0373 16.3586 13.9377 16.3964 13.866 16.4681C13.7944 16.5397 13.7565 16.6394 13.7565 16.7519Z" fill="#CF4E32" stroke="#CF4E32" stroke-width="0.15"/>
<path d="M9.69377 14.2778C9.8063 14.2778 9.90591 14.24 9.97756 14.1683C10.0492 14.0967 10.0871 13.9971 10.0871 13.8845V13.248C10.0871 13.1354 10.0492 13.0358 9.97756 12.9642C9.90591 12.8925 9.8063 12.8547 9.69377 12.8547C9.58124 12.8547 9.48164 12.8925 9.40998 12.9642C9.33833 13.0358 9.30049 13.1354 9.30049 13.248V13.8845C9.30049 13.9971 9.33833 14.0967 9.40998 14.1683C9.48164 14.24 9.58124 14.2778 9.69377 14.2778Z" fill="#CF4E32" stroke="#CF4E32" stroke-width="0.15"/>
<path d="M8.42082 11.4145C8.53335 11.4145 8.63296 11.3767 8.70461 11.3051C8.77627 11.2334 8.81411 11.1338 8.81411 11.0213V10.3847C8.81411 10.2722 8.77627 10.1726 8.70461 10.1009C8.63296 10.0292 8.53335 9.99141 8.42082 9.99141C8.3083 9.99141 8.20869 10.0292 8.13703 10.1009C8.06538 10.1726 8.02754 10.2722 8.02754 10.3847V11.0213C8.02754 11.1338 8.06538 11.2334 8.13703 11.3051C8.20869 11.3767 8.3083 11.4145 8.42082 11.4145Z" fill="#CF4E32" stroke="#CF4E32" stroke-width="0.15"/>
<path d="M11.2853 8.71797C11.1728 8.71797 11.0732 8.75581 11.0015 8.82746C10.9299 8.89912 10.892 8.99873 10.892 9.11125V9.74783C10.892 9.86036 10.9299 9.95996 11.0015 10.0316C11.0732 10.1033 11.1728 10.1411 11.2853 10.1411C11.3979 10.1411 11.4975 10.1033 11.5691 10.0316C11.6408 9.95996 11.6786 9.86036 11.6786 9.74783V9.11125C11.6786 8.99873 11.6408 8.89912 11.5691 8.82746C11.4975 8.75581 11.3979 8.71797 11.2853 8.71797Z" fill="#CF4E32" stroke="#CF4E32" stroke-width="0.15"/>
</svg>
