<svg width="22" height="28" viewBox="0 0 22 28" fill="none" xmlns="http://www.w3.org/2000/svg">
<mask id="path-1-outside-1_1065_63" maskUnits="userSpaceOnUse" x="0.100098" y="11.6348" width="20" height="17" fill="black">
<rect fill="white" x="0.100098" y="11.6348" width="20" height="17"/>
<path d="M18.5901 26.2999C18.5001 26.2399 18.3801 26.1799 18.2601 26.1199C18.1401 26.0599 17.9901 25.9099 17.8401 25.7599C17.5701 25.4899 17.2401 25.1899 16.8201 25.0399C16.5201 24.9499 16.1901 24.9799 15.8901 25.0099C15.6201 25.0399 15.3801 25.0699 15.1701 25.0399C14.9901 25.0099 14.8101 24.8899 14.6001 24.7699C14.6001 24.5899 14.6901 21.6199 17.1201 20.5399C17.2401 20.4799 17.3301 20.3299 17.3001 20.2099C17.2701 20.0599 17.1501 19.9699 17.0001 19.9699C16.9701 19.9699 15.2901 19.9999 13.7901 20.8999C13.9101 20.0299 13.9101 18.4999 13.0101 17.3599C12.9501 17.2699 12.8301 17.2399 12.7101 17.2699C12.5901 17.2999 12.5001 17.3899 12.5001 17.5099C12.5001 17.5399 12.0201 20.3299 10.7301 21.7099C10.9401 18.2899 12.3801 13.8199 13.8501 13.3099C13.9701 13.2499 14.3901 13.1299 14.9301 13.7299C14.6301 14.1499 14.0001 15.2299 14.6301 16.4299C15.3501 17.8399 17.5401 18.7999 17.6301 18.8599C17.6601 18.8899 17.7201 18.8899 17.7501 18.8899C17.8101 18.8899 17.8401 18.8899 17.8701 18.8599C17.9601 18.8299 18.0201 18.7399 18.0201 18.6499C18.0501 18.5599 18.5601 16.2199 17.8701 14.8099C17.2701 13.6099 16.0101 13.4599 15.5001 13.4299C14.7801 12.5599 14.1201 12.5599 13.6701 12.7099C12.1701 13.2199 10.9701 16.4299 10.4301 19.4299C9.8901 16.4299 8.6901 13.2199 7.1901 12.7099C6.7401 12.5599 6.0801 12.5599 5.3601 13.4299C4.8501 13.4299 3.5901 13.6099 2.9901 14.8099C2.2701 16.2199 2.8101 18.5299 2.8401 18.6499C2.8701 18.7399 2.9301 18.7999 2.9901 18.8599C3.0201 18.8899 3.0801 18.8899 3.1101 18.8899C3.1401 18.8899 3.2001 18.8899 3.2301 18.8599C3.3201 18.8299 5.5101 17.8399 6.2301 16.4299C6.8301 15.2299 6.2001 14.1199 5.9001 13.6999C6.4401 13.0999 6.8301 13.2499 6.9501 13.2799C8.4201 13.7899 9.8601 18.2299 10.0701 21.6499C8.7801 20.3299 8.3001 17.5699 8.3001 17.5399C8.2701 17.4199 8.1801 17.3299 8.0901 17.2999C7.9701 17.2699 7.8501 17.2999 7.7901 17.3899C6.8901 18.5299 6.9201 20.0599 7.0101 20.9299C5.5101 19.9999 3.8301 19.9999 3.8001 19.9999C3.6501 19.9999 3.5301 20.0899 3.5001 20.2399C3.4701 20.3899 3.5301 20.5099 3.6801 20.5699C6.1101 21.6499 6.2001 24.6199 6.2001 24.7999C5.9901 24.9199 5.8101 25.0399 5.6301 25.0699C5.4201 25.1299 5.1501 25.0699 4.9101 25.0399C4.6101 25.0099 4.2801 24.9499 3.9801 25.0699C3.5601 25.2199 3.2301 25.5199 2.9601 25.7899C2.8101 25.9399 2.6601 26.0599 2.5401 26.1499C2.4201 26.2099 2.3301 26.2699 2.2101 26.3299C1.6401 26.6599 1.1001 26.9599 1.1001 27.5299C1.1001 27.7099 1.2201 27.8299 1.4001 27.8299H19.4001C19.5801 27.8299 19.7001 27.7099 19.7001 27.5299C19.7001 26.9299 19.1601 26.6299 18.5901 26.2999ZM17.3001 15.1099C17.7501 16.0399 17.6001 17.4799 17.4801 18.1699C16.8501 17.8399 15.5901 17.1199 15.1401 16.1899C14.6601 15.2299 15.2001 14.3599 15.4101 14.0599C15.7701 14.0899 16.8201 14.1799 17.3001 15.1099ZM5.6901 16.1899C5.2401 17.1199 3.9501 17.8399 3.3501 18.1699C3.2301 17.4799 3.0801 16.0399 3.5301 15.1099C4.0101 14.1499 5.0601 14.0599 5.4201 14.0599C5.6001 14.3599 6.1701 15.2599 5.6901 16.1899ZM14.0301 24.4999C13.9101 24.4399 13.7901 24.4099 13.6401 24.3799C13.3101 24.3499 13.0101 24.4399 12.7101 24.5299C12.5301 24.5899 12.3801 24.6199 12.2301 24.6499C12.4701 22.0099 14.3901 21.0799 15.7401 20.7799C14.3601 21.9799 14.0901 23.7799 14.0301 24.4999ZM12.9501 18.3799C13.5201 19.7299 13.1301 21.3799 13.1301 21.4099V21.4399C12.3801 22.1299 11.7801 23.1199 11.6301 24.5599C11.5401 24.5299 11.4501 24.4999 11.3601 24.4399C11.0601 24.3199 10.7601 24.1699 10.4001 24.1699C10.0701 24.1699 9.8001 24.2899 9.5301 24.4099C9.6801 23.1199 10.5201 22.6699 10.5501 22.6399H10.5801C11.9601 21.7099 12.6501 19.5499 12.9501 18.3799ZM7.7001 21.4099C7.7001 21.3799 7.2801 19.7299 7.8801 18.3799C8.1501 19.4299 8.7501 21.3499 9.9201 22.3699C9.6501 22.6099 9.2601 23.0599 9.0501 23.7499C8.8101 22.7299 8.3001 21.9799 7.7001 21.4399C7.7001 21.4399 7.7001 21.4399 7.7001 21.4099ZM5.0901 20.7499C6.4101 21.0799 8.3301 22.0099 8.6001 24.6499C8.4501 24.6199 8.3001 24.5899 8.1201 24.5299C7.8201 24.4399 7.5201 24.3499 7.1901 24.3799C7.0401 24.4099 6.9201 24.4399 6.8001 24.4699C6.7401 23.7799 6.4401 21.9799 5.0901 20.7499ZM1.9101 27.1999C2.0601 27.0799 2.3001 26.9599 2.5101 26.8099C2.6301 26.7499 2.7201 26.6899 2.8401 26.6299C3.0201 26.5099 3.2001 26.3599 3.3501 26.1799C3.5901 25.9399 3.8301 25.6999 4.1301 25.6099C4.3101 25.5499 4.5501 25.5799 4.7901 25.6099C5.0601 25.6399 5.3901 25.6999 5.7201 25.6099C5.9901 25.5499 6.2601 25.3999 6.5001 25.2499C6.7401 25.0999 6.9801 24.9499 7.2201 24.9199C7.4301 24.8899 7.6401 24.9799 7.9101 25.0399C8.2101 25.1299 8.5101 25.2199 8.8101 25.1899C9.1101 25.1599 9.3801 25.0399 9.6501 24.9499C9.9201 24.8299 10.1601 24.7399 10.3701 24.7399C10.5801 24.7399 10.8201 24.8299 11.0901 24.9499C11.3601 25.0699 11.6301 25.1899 11.9301 25.1899C12.2601 25.2199 12.5601 25.1299 12.8301 25.0399C13.0701 24.9499 13.3101 24.8899 13.5201 24.9199C13.7601 24.9499 14.0001 25.0999 14.2401 25.2499C14.4801 25.3999 14.7501 25.5499 15.0201 25.6099C15.3501 25.6699 15.6501 25.6399 15.9501 25.6099C16.1901 25.5799 16.4601 25.5499 16.6101 25.6099C16.9101 25.6999 17.1501 25.9399 17.3901 26.1799C17.5701 26.3599 17.7201 26.5099 17.9001 26.6299C18.0201 26.6899 18.1101 26.7499 18.2301 26.8099C18.4701 26.9299 18.6801 27.0499 18.8301 27.1999H1.9101Z"/>
</mask>
<path d="M18.5901 26.2999C18.5001 26.2399 18.3801 26.1799 18.2601 26.1199C18.1401 26.0599 17.9901 25.9099 17.8401 25.7599C17.5701 25.4899 17.2401 25.1899 16.8201 25.0399C16.5201 24.9499 16.1901 24.9799 15.8901 25.0099C15.6201 25.0399 15.3801 25.0699 15.1701 25.0399C14.9901 25.0099 14.8101 24.8899 14.6001 24.7699C14.6001 24.5899 14.6901 21.6199 17.1201 20.5399C17.2401 20.4799 17.3301 20.3299 17.3001 20.2099C17.2701 20.0599 17.1501 19.9699 17.0001 19.9699C16.9701 19.9699 15.2901 19.9999 13.7901 20.8999C13.9101 20.0299 13.9101 18.4999 13.0101 17.3599C12.9501 17.2699 12.8301 17.2399 12.7101 17.2699C12.5901 17.2999 12.5001 17.3899 12.5001 17.5099C12.5001 17.5399 12.0201 20.3299 10.7301 21.7099C10.9401 18.2899 12.3801 13.8199 13.8501 13.3099C13.9701 13.2499 14.3901 13.1299 14.9301 13.7299C14.6301 14.1499 14.0001 15.2299 14.6301 16.4299C15.3501 17.8399 17.5401 18.7999 17.6301 18.8599C17.6601 18.8899 17.7201 18.8899 17.7501 18.8899C17.8101 18.8899 17.8401 18.8899 17.8701 18.8599C17.9601 18.8299 18.0201 18.7399 18.0201 18.6499C18.0501 18.5599 18.5601 16.2199 17.8701 14.8099C17.2701 13.6099 16.0101 13.4599 15.5001 13.4299C14.7801 12.5599 14.1201 12.5599 13.6701 12.7099C12.1701 13.2199 10.9701 16.4299 10.4301 19.4299C9.8901 16.4299 8.6901 13.2199 7.1901 12.7099C6.7401 12.5599 6.0801 12.5599 5.3601 13.4299C4.8501 13.4299 3.5901 13.6099 2.9901 14.8099C2.2701 16.2199 2.8101 18.5299 2.8401 18.6499C2.8701 18.7399 2.9301 18.7999 2.9901 18.8599C3.0201 18.8899 3.0801 18.8899 3.1101 18.8899C3.1401 18.8899 3.2001 18.8899 3.2301 18.8599C3.3201 18.8299 5.5101 17.8399 6.2301 16.4299C6.8301 15.2299 6.2001 14.1199 5.9001 13.6999C6.4401 13.0999 6.8301 13.2499 6.9501 13.2799C8.4201 13.7899 9.8601 18.2299 10.0701 21.6499C8.7801 20.3299 8.3001 17.5699 8.3001 17.5399C8.2701 17.4199 8.1801 17.3299 8.0901 17.2999C7.9701 17.2699 7.8501 17.2999 7.7901 17.3899C6.8901 18.5299 6.9201 20.0599 7.0101 20.9299C5.5101 19.9999 3.8301 19.9999 3.8001 19.9999C3.6501 19.9999 3.5301 20.0899 3.5001 20.2399C3.4701 20.3899 3.5301 20.5099 3.6801 20.5699C6.1101 21.6499 6.2001 24.6199 6.2001 24.7999C5.9901 24.9199 5.8101 25.0399 5.6301 25.0699C5.4201 25.1299 5.1501 25.0699 4.9101 25.0399C4.6101 25.0099 4.2801 24.9499 3.9801 25.0699C3.5601 25.2199 3.2301 25.5199 2.9601 25.7899C2.8101 25.9399 2.6601 26.0599 2.5401 26.1499C2.4201 26.2099 2.3301 26.2699 2.2101 26.3299C1.6401 26.6599 1.1001 26.9599 1.1001 27.5299C1.1001 27.7099 1.2201 27.8299 1.4001 27.8299H19.4001C19.5801 27.8299 19.7001 27.7099 19.7001 27.5299C19.7001 26.9299 19.1601 26.6299 18.5901 26.2999ZM17.3001 15.1099C17.7501 16.0399 17.6001 17.4799 17.4801 18.1699C16.8501 17.8399 15.5901 17.1199 15.1401 16.1899C14.6601 15.2299 15.2001 14.3599 15.4101 14.0599C15.7701 14.0899 16.8201 14.1799 17.3001 15.1099ZM5.6901 16.1899C5.2401 17.1199 3.9501 17.8399 3.3501 18.1699C3.2301 17.4799 3.0801 16.0399 3.5301 15.1099C4.0101 14.1499 5.0601 14.0599 5.4201 14.0599C5.6001 14.3599 6.1701 15.2599 5.6901 16.1899ZM14.0301 24.4999C13.9101 24.4399 13.7901 24.4099 13.6401 24.3799C13.3101 24.3499 13.0101 24.4399 12.7101 24.5299C12.5301 24.5899 12.3801 24.6199 12.2301 24.6499C12.4701 22.0099 14.3901 21.0799 15.7401 20.7799C14.3601 21.9799 14.0901 23.7799 14.0301 24.4999ZM12.9501 18.3799C13.5201 19.7299 13.1301 21.3799 13.1301 21.4099V21.4399C12.3801 22.1299 11.7801 23.1199 11.6301 24.5599C11.5401 24.5299 11.4501 24.4999 11.3601 24.4399C11.0601 24.3199 10.7601 24.1699 10.4001 24.1699C10.0701 24.1699 9.8001 24.2899 9.5301 24.4099C9.6801 23.1199 10.5201 22.6699 10.5501 22.6399H10.5801C11.9601 21.7099 12.6501 19.5499 12.9501 18.3799ZM7.7001 21.4099C7.7001 21.3799 7.2801 19.7299 7.8801 18.3799C8.1501 19.4299 8.7501 21.3499 9.9201 22.3699C9.6501 22.6099 9.2601 23.0599 9.0501 23.7499C8.8101 22.7299 8.3001 21.9799 7.7001 21.4399C7.7001 21.4399 7.7001 21.4399 7.7001 21.4099ZM5.0901 20.7499C6.4101 21.0799 8.3301 22.0099 8.6001 24.6499C8.4501 24.6199 8.3001 24.5899 8.1201 24.5299C7.8201 24.4399 7.5201 24.3499 7.1901 24.3799C7.0401 24.4099 6.9201 24.4399 6.8001 24.4699C6.7401 23.7799 6.4401 21.9799 5.0901 20.7499ZM1.9101 27.1999C2.0601 27.0799 2.3001 26.9599 2.5101 26.8099C2.6301 26.7499 2.7201 26.6899 2.8401 26.6299C3.0201 26.5099 3.2001 26.3599 3.3501 26.1799C3.5901 25.9399 3.8301 25.6999 4.1301 25.6099C4.3101 25.5499 4.5501 25.5799 4.7901 25.6099C5.0601 25.6399 5.3901 25.6999 5.7201 25.6099C5.9901 25.5499 6.2601 25.3999 6.5001 25.2499C6.7401 25.0999 6.9801 24.9499 7.2201 24.9199C7.4301 24.8899 7.6401 24.9799 7.9101 25.0399C8.2101 25.1299 8.5101 25.2199 8.8101 25.1899C9.1101 25.1599 9.3801 25.0399 9.6501 24.9499C9.9201 24.8299 10.1601 24.7399 10.3701 24.7399C10.5801 24.7399 10.8201 24.8299 11.0901 24.9499C11.3601 25.0699 11.6301 25.1899 11.9301 25.1899C12.2601 25.2199 12.5601 25.1299 12.8301 25.0399C13.0701 24.9499 13.3101 24.8899 13.5201 24.9199C13.7601 24.9499 14.0001 25.0999 14.2401 25.2499C14.4801 25.3999 14.7501 25.5499 15.0201 25.6099C15.3501 25.6699 15.6501 25.6399 15.9501 25.6099C16.1901 25.5799 16.4601 25.5499 16.6101 25.6099C16.9101 25.6999 17.1501 25.9399 17.3901 26.1799C17.5701 26.3599 17.7201 26.5099 17.9001 26.6299C18.0201 26.6899 18.1101 26.7499 18.2301 26.8099C18.4701 26.9299 18.6801 27.0499 18.8301 27.1999H1.9101Z" fill="#CF4E32"/>
<path d="M18.5901 26.2999C18.5001 26.2399 18.3801 26.1799 18.2601 26.1199C18.1401 26.0599 17.9901 25.9099 17.8401 25.7599C17.5701 25.4899 17.2401 25.1899 16.8201 25.0399C16.5201 24.9499 16.1901 24.9799 15.8901 25.0099C15.6201 25.0399 15.3801 25.0699 15.1701 25.0399C14.9901 25.0099 14.8101 24.8899 14.6001 24.7699C14.6001 24.5899 14.6901 21.6199 17.1201 20.5399C17.2401 20.4799 17.3301 20.3299 17.3001 20.2099C17.2701 20.0599 17.1501 19.9699 17.0001 19.9699C16.9701 19.9699 15.2901 19.9999 13.7901 20.8999C13.9101 20.0299 13.9101 18.4999 13.0101 17.3599C12.9501 17.2699 12.8301 17.2399 12.7101 17.2699C12.5901 17.2999 12.5001 17.3899 12.5001 17.5099C12.5001 17.5399 12.0201 20.3299 10.7301 21.7099C10.9401 18.2899 12.3801 13.8199 13.8501 13.3099C13.9701 13.2499 14.3901 13.1299 14.9301 13.7299C14.6301 14.1499 14.0001 15.2299 14.6301 16.4299C15.3501 17.8399 17.5401 18.7999 17.6301 18.8599C17.6601 18.8899 17.7201 18.8899 17.7501 18.8899C17.8101 18.8899 17.8401 18.8899 17.8701 18.8599C17.9601 18.8299 18.0201 18.7399 18.0201 18.6499C18.0501 18.5599 18.5601 16.2199 17.8701 14.8099C17.2701 13.6099 16.0101 13.4599 15.5001 13.4299C14.7801 12.5599 14.1201 12.5599 13.6701 12.7099C12.1701 13.2199 10.9701 16.4299 10.4301 19.4299C9.8901 16.4299 8.6901 13.2199 7.1901 12.7099C6.7401 12.5599 6.0801 12.5599 5.3601 13.4299C4.8501 13.4299 3.5901 13.6099 2.9901 14.8099C2.2701 16.2199 2.8101 18.5299 2.8401 18.6499C2.8701 18.7399 2.9301 18.7999 2.9901 18.8599C3.0201 18.8899 3.0801 18.8899 3.1101 18.8899C3.1401 18.8899 3.2001 18.8899 3.2301 18.8599C3.3201 18.8299 5.5101 17.8399 6.2301 16.4299C6.8301 15.2299 6.2001 14.1199 5.9001 13.6999C6.4401 13.0999 6.8301 13.2499 6.9501 13.2799C8.4201 13.7899 9.8601 18.2299 10.0701 21.6499C8.7801 20.3299 8.3001 17.5699 8.3001 17.5399C8.2701 17.4199 8.1801 17.3299 8.0901 17.2999C7.9701 17.2699 7.8501 17.2999 7.7901 17.3899C6.8901 18.5299 6.9201 20.0599 7.0101 20.9299C5.5101 19.9999 3.8301 19.9999 3.8001 19.9999C3.6501 19.9999 3.5301 20.0899 3.5001 20.2399C3.4701 20.3899 3.5301 20.5099 3.6801 20.5699C6.1101 21.6499 6.2001 24.6199 6.2001 24.7999C5.9901 24.9199 5.8101 25.0399 5.6301 25.0699C5.4201 25.1299 5.1501 25.0699 4.9101 25.0399C4.6101 25.0099 4.2801 24.9499 3.9801 25.0699C3.5601 25.2199 3.2301 25.5199 2.9601 25.7899C2.8101 25.9399 2.6601 26.0599 2.5401 26.1499C2.4201 26.2099 2.3301 26.2699 2.2101 26.3299C1.6401 26.6599 1.1001 26.9599 1.1001 27.5299C1.1001 27.7099 1.2201 27.8299 1.4001 27.8299H19.4001C19.5801 27.8299 19.7001 27.7099 19.7001 27.5299C19.7001 26.9299 19.1601 26.6299 18.5901 26.2999ZM17.3001 15.1099C17.7501 16.0399 17.6001 17.4799 17.4801 18.1699C16.8501 17.8399 15.5901 17.1199 15.1401 16.1899C14.6601 15.2299 15.2001 14.3599 15.4101 14.0599C15.7701 14.0899 16.8201 14.1799 17.3001 15.1099ZM5.6901 16.1899C5.2401 17.1199 3.9501 17.8399 3.3501 18.1699C3.2301 17.4799 3.0801 16.0399 3.5301 15.1099C4.0101 14.1499 5.0601 14.0599 5.4201 14.0599C5.6001 14.3599 6.1701 15.2599 5.6901 16.1899ZM14.0301 24.4999C13.9101 24.4399 13.7901 24.4099 13.6401 24.3799C13.3101 24.3499 13.0101 24.4399 12.7101 24.5299C12.5301 24.5899 12.3801 24.6199 12.2301 24.6499C12.4701 22.0099 14.3901 21.0799 15.7401 20.7799C14.3601 21.9799 14.0901 23.7799 14.0301 24.4999ZM12.9501 18.3799C13.5201 19.7299 13.1301 21.3799 13.1301 21.4099V21.4399C12.3801 22.1299 11.7801 23.1199 11.6301 24.5599C11.5401 24.5299 11.4501 24.4999 11.3601 24.4399C11.0601 24.3199 10.7601 24.1699 10.4001 24.1699C10.0701 24.1699 9.8001 24.2899 9.5301 24.4099C9.6801 23.1199 10.5201 22.6699 10.5501 22.6399H10.5801C11.9601 21.7099 12.6501 19.5499 12.9501 18.3799ZM7.7001 21.4099C7.7001 21.3799 7.2801 19.7299 7.8801 18.3799C8.1501 19.4299 8.7501 21.3499 9.9201 22.3699C9.6501 22.6099 9.2601 23.0599 9.0501 23.7499C8.8101 22.7299 8.3001 21.9799 7.7001 21.4399C7.7001 21.4399 7.7001 21.4399 7.7001 21.4099ZM5.0901 20.7499C6.4101 21.0799 8.3301 22.0099 8.6001 24.6499C8.4501 24.6199 8.3001 24.5899 8.1201 24.5299C7.8201 24.4399 7.5201 24.3499 7.1901 24.3799C7.0401 24.4099 6.9201 24.4399 6.8001 24.4699C6.7401 23.7799 6.4401 21.9799 5.0901 20.7499ZM1.9101 27.1999C2.0601 27.0799 2.3001 26.9599 2.5101 26.8099C2.6301 26.7499 2.7201 26.6899 2.8401 26.6299C3.0201 26.5099 3.2001 26.3599 3.3501 26.1799C3.5901 25.9399 3.8301 25.6999 4.1301 25.6099C4.3101 25.5499 4.5501 25.5799 4.7901 25.6099C5.0601 25.6399 5.3901 25.6999 5.7201 25.6099C5.9901 25.5499 6.2601 25.3999 6.5001 25.2499C6.7401 25.0999 6.9801 24.9499 7.2201 24.9199C7.4301 24.8899 7.6401 24.9799 7.9101 25.0399C8.2101 25.1299 8.5101 25.2199 8.8101 25.1899C9.1101 25.1599 9.3801 25.0399 9.6501 24.9499C9.9201 24.8299 10.1601 24.7399 10.3701 24.7399C10.5801 24.7399 10.8201 24.8299 11.0901 24.9499C11.3601 25.0699 11.6301 25.1899 11.9301 25.1899C12.2601 25.2199 12.5601 25.1299 12.8301 25.0399C13.0701 24.9499 13.3101 24.8899 13.5201 24.9199C13.7601 24.9499 14.0001 25.0999 14.2401 25.2499C14.4801 25.3999 14.7501 25.5499 15.0201 25.6099C15.3501 25.6699 15.6501 25.6399 15.9501 25.6099C16.1901 25.5799 16.4601 25.5499 16.6101 25.6099C16.9101 25.6999 17.1501 25.9399 17.3901 26.1799C17.5701 26.3599 17.7201 26.5099 17.9001 26.6299C18.0201 26.6899 18.1101 26.7499 18.2301 26.8099C18.4701 26.9299 18.6801 27.0499 18.8301 27.1999H1.9101Z" stroke="#CF4E32" stroke-width="0.3" mask="url(#path-1-outside-1_1065_63)"/>
<path d="M20.9397 5.96234L20.9401 5.96219L20.9365 5.95525L17.9668 0.315909C17.928 0.238816 17.8528 0.165366 17.7438 0.129044L17.7323 0.125195H17.7201L17.7178 0.125195C17.6282 0.125193 17.5579 0.125191 17.4564 0.159044L17.4561 0.158078L17.4451 0.163866L9.88509 4.15387L9.88504 4.15377L9.88151 4.15588C9.71023 4.25865 9.6158 4.4823 9.73633 4.65006L12.7034 10.2845C12.7422 10.3616 12.8174 10.435 12.9264 10.4713L12.9379 10.4752H12.9501H12.9503H12.9505H12.9506H12.9508H12.951H12.9512H12.9513H12.9515H12.9517H12.9519H12.952H12.9522H12.9524H12.9526H12.9527H12.9529H12.9531H12.9533H12.9534H12.9536H12.9538H12.954H12.9541H12.9543H12.9545H12.9547H12.9548H12.955H12.9552H12.9554H12.9555H12.9557H12.9559H12.9561H12.9563H12.9564H12.9566H12.9568H12.957H12.9571H12.9573H12.9575H12.9577H12.9578H12.958H12.9582H12.9584H12.9585H12.9587H12.9589H12.9591H12.9592H12.9594H12.9596H12.9598H12.9599H12.9601H12.9603H12.9605H12.9606H12.9608H12.961H12.9612H12.9613H12.9615H12.9617H12.9619H12.9621H12.9622H12.9624H12.9626H12.9628H12.9629H12.9631H12.9633H12.9635H12.9636H12.9638H12.964H12.9642H12.9643H12.9645H12.9647H12.9649H12.965H12.9652H12.9654H12.9656H12.9657H12.9659H12.9661H12.9663H12.9664H12.9666H12.9668H12.967H12.9671H12.9673H12.9675H12.9677H12.9679H12.968H12.9682H12.9684H12.9686H12.9687H12.9689H12.9691H12.9693H12.9694H12.9696H12.9698H12.97H12.9701H12.9703H12.9705H12.9707H12.9708H12.971H12.9712H12.9714H12.9715H12.9717H12.9719H12.9721H12.9722H12.9724H12.9726H12.9728H12.9729H12.9731H12.9733H12.9735H12.9737H12.9738H12.974H12.9742H12.9744H12.9745H12.9747H12.9749H12.9751H12.9752H12.9754H12.9756H12.9758H12.9759H12.9761H12.9763H12.9765H12.9766H12.9768H12.977H12.9772H12.9773H12.9775H12.9777H12.9779H12.978H12.9782H12.9784H12.9786H12.9788H12.9789H12.9791H12.9793H12.9795H12.9796H12.9798H12.98H12.9802H12.9803H12.9805H12.9807H12.9809H12.981H12.9812H12.9814H12.9816H12.9817H12.9819H12.9821H12.9823H12.9824H12.9826H12.9828H12.983H12.9831H12.9833H12.9835H12.9837H12.9838H12.984H12.9842H12.9844H12.9846H12.9847H12.9849H12.9851H12.9853H12.9854H12.9856H12.9858H12.986H12.9861H12.9863H12.9865H12.9867H12.9868H12.987H12.9872H12.9874H12.9875H12.9877H12.9879H12.9881H12.9882H12.9884H12.9886H12.9888H12.9889H12.9891H12.9893H12.9895H12.9896H12.9898H12.99H12.9902H12.9904H12.9905H12.9907H12.9909H12.9911H12.9912H12.9914H12.9916H12.9918H12.9919H12.9921H12.9923H12.9925H12.9926H12.9928H12.993H12.9932H12.9933H12.9935H12.9937H12.9939H12.994H12.9942H12.9944H12.9946H12.9947H12.9949H12.9951H12.9953H12.9955H12.9956H12.9958H12.996H12.9962H12.9963H12.9965H12.9967H12.9969H12.997H12.9972H12.9974H12.9976H12.9977H12.9979H12.9981H12.9983H12.9984H12.9986H12.9988H12.999H12.9991H12.9993H12.9995H12.9997H12.9998H13H13.0002H13.0004H13.0005H13.0007H13.0009H13.0011H13.0013H13.0014H13.0016H13.0018H13.002H13.0021H13.0023H13.0025H13.0027H13.0028H13.003H13.0032H13.0034H13.0035H13.0037H13.0039H13.0041H13.0042H13.0044H13.0046H13.0048H13.0049H13.0051H13.0053H13.0055H13.0056H13.0058H13.006H13.0062H13.0063H13.0065H13.0067H13.0069H13.0071H13.0072H13.0074H13.0076H13.0078H13.0079H13.0081H13.0083H13.0085H13.0086H13.0088H13.009H13.0092H13.0093H13.0095H13.0097H13.0099H13.01H13.0102H13.0104H13.0106H13.0107H13.0109H13.0111H13.0113H13.0114H13.0116H13.0118H13.012H13.0121H13.0123H13.0125H13.0127H13.0129H13.013H13.0132H13.0134H13.0136H13.0137H13.0139H13.0141H13.0143H13.0144H13.0146H13.0148H13.015H13.0151H13.0153H13.0155H13.0157H13.0158H13.016H13.0162H13.0164H13.0165H13.0167H13.0169H13.0171H13.0172H13.0174H13.0176H13.0178H13.0179H13.0181H13.0183H13.0185H13.0187H13.0188H13.019H13.0192H13.0194H13.0195H13.0197H13.0199H13.0201H13.0202H13.0204H13.0206H13.0208H13.0209H13.0211H13.0213H13.0215H13.0216H13.0218H13.022H13.0222H13.0223H13.0225H13.0227H13.0229H13.023H13.0232H13.0234H13.0236H13.0238H13.0239H13.0241H13.0243H13.0245H13.0246H13.0248H13.025H13.0252H13.0253H13.0255H13.0257H13.0259H13.026H13.0262H13.0264H13.0266H13.0267H13.0269H13.0271H13.0273H13.0274H13.0276H13.0278H13.028H13.0281H13.0283H13.0285H13.0287H13.0288H13.029H13.0292H13.0294H13.0296H13.0297H13.0299H13.0301H13.0303H13.0304H13.0306H13.0308H13.031H13.0311H13.0313H13.0315H13.0317H13.0318H13.032H13.0322H13.0324H13.0325H13.0327H13.0329H13.0331H13.0332H13.0334H13.0336H13.0338H13.0339H13.0341H13.0343H13.0345H13.0346H13.0348H13.035H13.0352H13.0354H13.0355H13.0357H13.0359H13.0361H13.0362H13.0364H13.0366H13.0368H13.0369H13.0371H13.0373H13.0375H13.0376H13.0378H13.038H13.0382H13.0383H13.0385H13.0387H13.0389H13.039H13.0392H13.0394H13.0396H13.0397H13.0399H13.0401H13.0432C13.0707 10.4752 13.0987 10.4752 13.1274 10.4704C13.1591 10.4652 13.1888 10.4547 13.2236 10.4373L13.2236 10.4373L13.2251 10.4365L20.7844 6.44687C20.8662 6.40564 20.9221 6.32704 20.9491 6.24153C20.9764 6.15512 20.9767 6.05471 20.9397 5.96234ZM15.5017 8.40889L12.9013 3.44178L15.1685 2.2515L17.7689 7.21861L15.5017 8.40889ZM13.1917 9.60887L10.5913 4.64176L12.2285 3.78152L14.8289 8.74863L13.1917 9.60887ZM20.0789 5.98863L18.4417 6.84887L15.8413 1.88176L17.4785 1.02152L20.0789 5.98863Z" fill="#CF4E32" stroke="#CF4E32" stroke-width="0.15"/>
<path d="M10.925 12.1998C10.925 12.3068 10.961 12.4019 11.0295 12.4703C11.0979 12.5388 11.193 12.5748 11.3 12.5748C11.407 12.5748 11.5021 12.5388 11.5705 12.4703C11.639 12.4019 11.675 12.3068 11.675 12.1998V11.5998C11.675 11.4928 11.639 11.3977 11.5705 11.3293C11.5021 11.2608 11.407 11.2248 11.3 11.2248C11.193 11.2248 11.0979 11.2608 11.0295 11.3293C10.961 11.3977 10.925 11.4928 10.925 11.5998V12.1998Z" fill="#CF4E32" stroke="#CF4E32" stroke-width="0.15"/>
<path d="M7.7751 16.6998V16.0998C7.7751 15.9928 7.73909 15.8977 7.67063 15.8293C7.60217 15.7608 7.50714 15.7248 7.4001 15.7248C7.29305 15.7248 7.19802 15.7608 7.12956 15.8293C7.06111 15.8977 7.0251 15.9928 7.0251 16.0998V16.6998C7.0251 16.8068 7.06111 16.9019 7.12956 16.9703C7.19802 17.0388 7.29305 17.0748 7.4001 17.0748C7.50714 17.0748 7.60217 17.0388 7.67063 16.9703C7.73909 16.9019 7.7751 16.8068 7.7751 16.6998Z" fill="#CF4E32" stroke="#CF4E32" stroke-width="0.15"/>
<path d="M13.0251 15.8V16.4C13.0251 16.507 13.0611 16.6021 13.1296 16.6705C13.198 16.739 13.2931 16.775 13.4001 16.775C13.5071 16.775 13.6022 16.739 13.6706 16.6705C13.7391 16.6021 13.7751 16.507 13.7751 16.4V15.8C13.7751 15.693 13.7391 15.5979 13.6706 15.5295C13.6022 15.461 13.5071 15.425 13.4001 15.425C13.2931 15.425 13.198 15.461 13.1296 15.5295C13.0611 15.5979 13.0251 15.693 13.0251 15.8Z" fill="#CF4E32" stroke="#CF4E32" stroke-width="0.15"/>
<path d="M9.20015 13.4752C9.30719 13.4752 9.40222 13.4392 9.47068 13.3707C9.53914 13.3023 9.57515 13.2072 9.57515 13.1002V12.5002C9.57515 12.3932 9.53914 12.2981 9.47068 12.2297C9.40222 12.1612 9.30719 12.1252 9.20015 12.1252C9.0931 12.1252 8.99807 12.1612 8.92961 12.2297C8.86116 12.2981 8.82515 12.3932 8.82515 12.5002V13.1002C8.82515 13.2072 8.86116 13.3023 8.92961 13.3707C8.99807 13.4392 9.0931 13.4752 9.20015 13.4752Z" fill="#CF4E32" stroke="#CF4E32" stroke-width="0.15"/>
<path d="M8.0002 10.775C8.10724 10.775 8.20227 10.739 8.27073 10.6705C8.33919 10.6021 8.3752 10.507 8.3752 10.4V9.8C8.3752 9.69296 8.33919 9.59793 8.27073 9.52947C8.20227 9.46101 8.10724 9.425 8.0002 9.425C7.89315 9.425 7.79812 9.46101 7.72966 9.52947C7.6612 9.59793 7.6252 9.69296 7.6252 9.8V10.4C7.6252 10.507 7.6612 10.6021 7.72966 10.6705C7.79812 10.739 7.89315 10.775 8.0002 10.775Z" fill="#CF4E32" stroke="#CF4E32" stroke-width="0.15"/>
<path d="M10.7001 8.2248C10.5931 8.2248 10.4981 8.26081 10.4296 8.32927C10.3612 8.39773 10.3251 8.49276 10.3251 8.5998V9.1998C10.3251 9.30685 10.3612 9.40188 10.4296 9.47034C10.4981 9.5388 10.5931 9.5748 10.7001 9.5748C10.8072 9.5748 10.9022 9.5388 10.9707 9.47034C11.0391 9.40188 11.0751 9.30685 11.0751 9.1998V8.5998C11.0751 8.49276 11.0391 8.39773 10.9707 8.32927C10.9022 8.26081 10.8072 8.2248 10.7001 8.2248Z" fill="#CF4E32" stroke="#CF4E32" stroke-width="0.15"/>
</svg>
