<svg width="22" height="29" viewBox="0 0 22 29" fill="none" xmlns="http://www.w3.org/2000/svg">
<mask id="path-1-outside-1_1122_843" maskUnits="userSpaceOnUse" x="-0.900391" y="12.3926" width="21" height="18" fill="black">
<rect fill="white" x="-0.900391" y="12.3926" width="21" height="18"/>
<path d="M18.6557 27.8906C18.5602 27.8269 18.4329 27.7633 18.3056 27.6996C18.1782 27.636 18.0191 27.4768 17.86 27.3177C17.5735 27.0312 17.2234 26.7129 16.7778 26.5538C16.4595 26.4583 16.1094 26.4901 15.7911 26.522C15.5046 26.5538 15.25 26.5856 15.0272 26.5538C14.8362 26.522 14.6453 26.3947 14.4225 26.2673C14.4225 26.0764 14.518 22.9253 17.0961 21.7795C17.2234 21.7159 17.3189 21.5567 17.287 21.4294C17.2552 21.2703 17.1279 21.1748 16.9688 21.1748C16.9369 21.1748 15.1545 21.2066 13.5631 22.1615C13.6904 21.2384 13.6904 19.6152 12.7356 18.4057C12.6719 18.3102 12.5446 18.2784 12.4173 18.3102C12.29 18.342 12.1945 18.4375 12.1945 18.5648C12.1945 18.5967 11.6852 21.5567 10.3166 23.0208C10.5394 19.3924 12.0672 14.6499 13.6268 14.1088C13.7541 14.0452 14.1997 13.9179 14.7726 14.5544C14.4543 15 13.7859 16.1459 14.4543 17.419C15.2182 18.9149 17.5417 19.9335 17.6372 19.9971C17.669 20.0289 17.7326 20.0289 17.7645 20.0289C17.8281 20.0289 17.86 20.0289 17.8918 19.9971C17.9873 19.9653 18.0509 19.8698 18.0509 19.7743C18.0828 19.6788 18.6238 17.1962 17.8918 15.7003C17.2552 14.4271 15.9184 14.268 15.3773 14.2361C14.6134 13.3131 13.9132 13.3131 13.4358 13.4723C11.8444 14.0133 10.5712 17.419 9.99829 20.6019C9.42538 17.419 8.15224 14.0133 6.56081 13.4723C6.08338 13.3131 5.38315 13.3131 4.61927 14.2361C4.07818 14.2361 2.74138 14.4271 2.10481 15.7003C1.34092 17.1962 1.91384 19.647 1.94567 19.7743C1.97749 19.8698 2.04115 19.9335 2.10481 19.9971C2.13664 20.0289 2.2003 20.0289 2.23212 20.0289C2.26395 20.0289 2.32761 20.0289 2.35944 19.9971C2.45492 19.9653 4.77841 18.9149 5.54229 17.419C6.17887 16.1459 5.51047 14.9682 5.19218 14.5226C5.76509 13.886 6.17887 14.0452 6.30618 14.077C7.86578 14.6181 9.39355 19.3287 9.61635 22.9572C8.24772 21.5567 7.73847 18.6285 7.73847 18.5967C7.70664 18.4693 7.61115 18.3739 7.51567 18.342C7.38835 18.3102 7.26104 18.342 7.19738 18.4375C6.24252 19.647 6.27435 21.2703 6.36984 22.1933C4.77841 21.2066 2.99601 21.2066 2.96418 21.2066C2.80504 21.2066 2.67772 21.3021 2.6459 21.4612C2.61407 21.6204 2.67772 21.7477 2.83687 21.8113C5.41498 22.9572 5.51047 26.1082 5.51047 26.2992C5.28767 26.4265 5.09669 26.5538 4.90572 26.5856C4.68292 26.6493 4.39647 26.5856 4.14184 26.5538C3.82355 26.522 3.47344 26.4583 3.15515 26.5856C2.70955 26.7448 2.35944 27.0631 2.07298 27.3495C1.91384 27.5087 1.75469 27.636 1.62738 27.7315C1.50007 27.7951 1.40458 27.8588 1.27727 27.9224C0.672524 28.2725 0.0996094 28.5908 0.0996094 29.1956C0.0996094 29.3865 0.226924 29.5139 0.417895 29.5139H19.515C19.706 29.5139 19.8333 29.3865 19.8333 29.1956C19.8333 28.559 19.2604 28.2407 18.6557 27.8906ZM17.287 16.0185C17.7645 17.0052 17.6053 18.533 17.478 19.2651C16.8096 18.9149 15.4728 18.1511 14.9954 17.1644C14.4861 16.1459 15.059 15.2228 15.2818 14.9045C15.6638 14.9364 16.7778 15.0319 17.287 16.0185ZM4.96938 17.1644C4.49195 18.1511 3.12332 18.9149 2.48675 19.2651C2.35944 18.533 2.2003 17.0052 2.67772 16.0185C3.18698 15 4.30098 14.9045 4.68292 14.9045C4.87389 15.2228 5.47864 16.1777 4.96938 17.1644ZM13.8177 25.9809C13.6904 25.9172 13.5631 25.8854 13.404 25.8536C13.0538 25.8217 12.7356 25.9172 12.4173 26.0127C12.2263 26.0764 12.0672 26.1082 11.908 26.14C12.1626 23.3391 14.1997 22.3524 15.632 22.0341C14.1678 23.3073 13.8814 25.217 13.8177 25.9809ZM12.6719 19.4879C13.2766 20.9201 12.8629 22.6707 12.8629 22.7025V22.7344C12.0672 23.4664 11.4306 24.5168 11.2714 26.0445C11.176 26.0127 11.0805 25.9809 10.985 25.9172C10.6667 25.7899 10.3484 25.6308 9.96647 25.6308C9.61635 25.6308 9.32989 25.7581 9.04344 25.8854C9.20258 24.5168 10.0938 24.0393 10.1256 24.0075H10.1574C11.6216 23.0208 12.3536 20.7292 12.6719 19.4879ZM7.10189 22.7025C7.10189 22.6707 6.65629 20.9201 7.29287 19.4879C7.57932 20.6019 8.2159 22.6389 9.45721 23.7211C9.17075 23.9757 8.75698 24.4531 8.53418 25.1852C8.27955 24.103 7.73847 23.3073 7.10189 22.7344C7.10189 22.7344 7.10189 22.7344 7.10189 22.7025ZM4.33281 22.0023C5.73327 22.3524 7.77029 23.3391 8.05675 26.14C7.89761 26.1082 7.73847 26.0764 7.5475 26.0127C7.22921 25.9172 6.91092 25.8217 6.56081 25.8536C6.40167 25.8854 6.27435 25.9172 6.14704 25.9491C6.08338 25.217 5.76509 23.3073 4.33281 22.0023ZM0.958981 28.8455C1.11812 28.7181 1.37275 28.5908 1.59555 28.4317C1.72287 28.368 1.81835 28.3044 1.94567 28.2407C2.13664 28.1134 2.32761 27.9543 2.48675 27.7633C2.74138 27.5087 2.99601 27.254 3.3143 27.1585C3.50527 27.0949 3.75989 27.1267 4.01452 27.1585C4.30098 27.1904 4.6511 27.254 5.00121 27.1585C5.28767 27.0949 5.57412 26.9357 5.82875 26.7766C6.08338 26.6175 6.33801 26.4583 6.59264 26.4265C6.81544 26.3947 7.03824 26.4901 7.3247 26.5538C7.64298 26.6493 7.96127 26.7448 8.27955 26.7129C8.59784 26.6811 8.88429 26.5538 9.17075 26.4583C9.45721 26.331 9.71184 26.2355 9.93464 26.2355C10.1574 26.2355 10.4121 26.331 10.6985 26.4583C10.985 26.5856 11.2714 26.7129 11.5897 26.7129C11.9398 26.7448 12.2581 26.6493 12.5446 26.5538C12.7992 26.4583 13.0538 26.3947 13.2766 26.4265C13.5313 26.4583 13.7859 26.6175 14.0405 26.7766C14.2952 26.9357 14.5816 27.0949 14.8681 27.1585C15.2182 27.2222 15.5365 27.1904 15.8548 27.1585C16.1094 27.1267 16.3958 27.0949 16.555 27.1585C16.8733 27.254 17.1279 27.5087 17.3825 27.7633C17.5735 27.9543 17.7326 28.1134 17.9236 28.2407C18.0509 28.3044 18.1464 28.368 18.2737 28.4317C18.5284 28.559 18.7512 28.6863 18.9103 28.8455H0.958981Z"/>
</mask>
<path d="M18.6557 27.8906C18.5602 27.8269 18.4329 27.7633 18.3056 27.6996C18.1782 27.636 18.0191 27.4768 17.86 27.3177C17.5735 27.0312 17.2234 26.7129 16.7778 26.5538C16.4595 26.4583 16.1094 26.4901 15.7911 26.522C15.5046 26.5538 15.25 26.5856 15.0272 26.5538C14.8362 26.522 14.6453 26.3947 14.4225 26.2673C14.4225 26.0764 14.518 22.9253 17.0961 21.7795C17.2234 21.7159 17.3189 21.5567 17.287 21.4294C17.2552 21.2703 17.1279 21.1748 16.9688 21.1748C16.9369 21.1748 15.1545 21.2066 13.5631 22.1615C13.6904 21.2384 13.6904 19.6152 12.7356 18.4057C12.6719 18.3102 12.5446 18.2784 12.4173 18.3102C12.29 18.342 12.1945 18.4375 12.1945 18.5648C12.1945 18.5967 11.6852 21.5567 10.3166 23.0208C10.5394 19.3924 12.0672 14.6499 13.6268 14.1088C13.7541 14.0452 14.1997 13.9179 14.7726 14.5544C14.4543 15 13.7859 16.1459 14.4543 17.419C15.2182 18.9149 17.5417 19.9335 17.6372 19.9971C17.669 20.0289 17.7326 20.0289 17.7645 20.0289C17.8281 20.0289 17.86 20.0289 17.8918 19.9971C17.9873 19.9653 18.0509 19.8698 18.0509 19.7743C18.0828 19.6788 18.6238 17.1962 17.8918 15.7003C17.2552 14.4271 15.9184 14.268 15.3773 14.2361C14.6134 13.3131 13.9132 13.3131 13.4358 13.4723C11.8444 14.0133 10.5712 17.419 9.99829 20.6019C9.42538 17.419 8.15224 14.0133 6.56081 13.4723C6.08338 13.3131 5.38315 13.3131 4.61927 14.2361C4.07818 14.2361 2.74138 14.4271 2.10481 15.7003C1.34092 17.1962 1.91384 19.647 1.94567 19.7743C1.97749 19.8698 2.04115 19.9335 2.10481 19.9971C2.13664 20.0289 2.2003 20.0289 2.23212 20.0289C2.26395 20.0289 2.32761 20.0289 2.35944 19.9971C2.45492 19.9653 4.77841 18.9149 5.54229 17.419C6.17887 16.1459 5.51047 14.9682 5.19218 14.5226C5.76509 13.886 6.17887 14.0452 6.30618 14.077C7.86578 14.6181 9.39355 19.3287 9.61635 22.9572C8.24772 21.5567 7.73847 18.6285 7.73847 18.5967C7.70664 18.4693 7.61115 18.3739 7.51567 18.342C7.38835 18.3102 7.26104 18.342 7.19738 18.4375C6.24252 19.647 6.27435 21.2703 6.36984 22.1933C4.77841 21.2066 2.99601 21.2066 2.96418 21.2066C2.80504 21.2066 2.67772 21.3021 2.6459 21.4612C2.61407 21.6204 2.67772 21.7477 2.83687 21.8113C5.41498 22.9572 5.51047 26.1082 5.51047 26.2992C5.28767 26.4265 5.09669 26.5538 4.90572 26.5856C4.68292 26.6493 4.39647 26.5856 4.14184 26.5538C3.82355 26.522 3.47344 26.4583 3.15515 26.5856C2.70955 26.7448 2.35944 27.0631 2.07298 27.3495C1.91384 27.5087 1.75469 27.636 1.62738 27.7315C1.50007 27.7951 1.40458 27.8588 1.27727 27.9224C0.672524 28.2725 0.0996094 28.5908 0.0996094 29.1956C0.0996094 29.3865 0.226924 29.5139 0.417895 29.5139H19.515C19.706 29.5139 19.8333 29.3865 19.8333 29.1956C19.8333 28.559 19.2604 28.2407 18.6557 27.8906ZM17.287 16.0185C17.7645 17.0052 17.6053 18.533 17.478 19.2651C16.8096 18.9149 15.4728 18.1511 14.9954 17.1644C14.4861 16.1459 15.059 15.2228 15.2818 14.9045C15.6638 14.9364 16.7778 15.0319 17.287 16.0185ZM4.96938 17.1644C4.49195 18.1511 3.12332 18.9149 2.48675 19.2651C2.35944 18.533 2.2003 17.0052 2.67772 16.0185C3.18698 15 4.30098 14.9045 4.68292 14.9045C4.87389 15.2228 5.47864 16.1777 4.96938 17.1644ZM13.8177 25.9809C13.6904 25.9172 13.5631 25.8854 13.404 25.8536C13.0538 25.8217 12.7356 25.9172 12.4173 26.0127C12.2263 26.0764 12.0672 26.1082 11.908 26.14C12.1626 23.3391 14.1997 22.3524 15.632 22.0341C14.1678 23.3073 13.8814 25.217 13.8177 25.9809ZM12.6719 19.4879C13.2766 20.9201 12.8629 22.6707 12.8629 22.7025V22.7344C12.0672 23.4664 11.4306 24.5168 11.2714 26.0445C11.176 26.0127 11.0805 25.9809 10.985 25.9172C10.6667 25.7899 10.3484 25.6308 9.96647 25.6308C9.61635 25.6308 9.32989 25.7581 9.04344 25.8854C9.20258 24.5168 10.0938 24.0393 10.1256 24.0075H10.1574C11.6216 23.0208 12.3536 20.7292 12.6719 19.4879ZM7.10189 22.7025C7.10189 22.6707 6.65629 20.9201 7.29287 19.4879C7.57932 20.6019 8.2159 22.6389 9.45721 23.7211C9.17075 23.9757 8.75698 24.4531 8.53418 25.1852C8.27955 24.103 7.73847 23.3073 7.10189 22.7344C7.10189 22.7344 7.10189 22.7344 7.10189 22.7025ZM4.33281 22.0023C5.73327 22.3524 7.77029 23.3391 8.05675 26.14C7.89761 26.1082 7.73847 26.0764 7.5475 26.0127C7.22921 25.9172 6.91092 25.8217 6.56081 25.8536C6.40167 25.8854 6.27435 25.9172 6.14704 25.9491C6.08338 25.217 5.76509 23.3073 4.33281 22.0023ZM0.958981 28.8455C1.11812 28.7181 1.37275 28.5908 1.59555 28.4317C1.72287 28.368 1.81835 28.3044 1.94567 28.2407C2.13664 28.1134 2.32761 27.9543 2.48675 27.7633C2.74138 27.5087 2.99601 27.254 3.3143 27.1585C3.50527 27.0949 3.75989 27.1267 4.01452 27.1585C4.30098 27.1904 4.6511 27.254 5.00121 27.1585C5.28767 27.0949 5.57412 26.9357 5.82875 26.7766C6.08338 26.6175 6.33801 26.4583 6.59264 26.4265C6.81544 26.3947 7.03824 26.4901 7.3247 26.5538C7.64298 26.6493 7.96127 26.7448 8.27955 26.7129C8.59784 26.6811 8.88429 26.5538 9.17075 26.4583C9.45721 26.331 9.71184 26.2355 9.93464 26.2355C10.1574 26.2355 10.4121 26.331 10.6985 26.4583C10.985 26.5856 11.2714 26.7129 11.5897 26.7129C11.9398 26.7448 12.2581 26.6493 12.5446 26.5538C12.7992 26.4583 13.0538 26.3947 13.2766 26.4265C13.5313 26.4583 13.7859 26.6175 14.0405 26.7766C14.2952 26.9357 14.5816 27.0949 14.8681 27.1585C15.2182 27.2222 15.5365 27.1904 15.8548 27.1585C16.1094 27.1267 16.3958 27.0949 16.555 27.1585C16.8733 27.254 17.1279 27.5087 17.3825 27.7633C17.5735 27.9543 17.7326 28.1134 17.9236 28.2407C18.0509 28.3044 18.1464 28.368 18.2737 28.4317C18.5284 28.559 18.7512 28.6863 18.9103 28.8455H0.958981Z" fill="#CF4E32"/>
<path d="M18.6557 27.8906C18.5602 27.8269 18.4329 27.7633 18.3056 27.6996C18.1782 27.636 18.0191 27.4768 17.86 27.3177C17.5735 27.0312 17.2234 26.7129 16.7778 26.5538C16.4595 26.4583 16.1094 26.4901 15.7911 26.522C15.5046 26.5538 15.25 26.5856 15.0272 26.5538C14.8362 26.522 14.6453 26.3947 14.4225 26.2673C14.4225 26.0764 14.518 22.9253 17.0961 21.7795C17.2234 21.7159 17.3189 21.5567 17.287 21.4294C17.2552 21.2703 17.1279 21.1748 16.9688 21.1748C16.9369 21.1748 15.1545 21.2066 13.5631 22.1615C13.6904 21.2384 13.6904 19.6152 12.7356 18.4057C12.6719 18.3102 12.5446 18.2784 12.4173 18.3102C12.29 18.342 12.1945 18.4375 12.1945 18.5648C12.1945 18.5967 11.6852 21.5567 10.3166 23.0208C10.5394 19.3924 12.0672 14.6499 13.6268 14.1088C13.7541 14.0452 14.1997 13.9179 14.7726 14.5544C14.4543 15 13.7859 16.1459 14.4543 17.419C15.2182 18.9149 17.5417 19.9335 17.6372 19.9971C17.669 20.0289 17.7326 20.0289 17.7645 20.0289C17.8281 20.0289 17.86 20.0289 17.8918 19.9971C17.9873 19.9653 18.0509 19.8698 18.0509 19.7743C18.0828 19.6788 18.6238 17.1962 17.8918 15.7003C17.2552 14.4271 15.9184 14.268 15.3773 14.2361C14.6134 13.3131 13.9132 13.3131 13.4358 13.4723C11.8444 14.0133 10.5712 17.419 9.99829 20.6019C9.42538 17.419 8.15224 14.0133 6.56081 13.4723C6.08338 13.3131 5.38315 13.3131 4.61927 14.2361C4.07818 14.2361 2.74138 14.4271 2.10481 15.7003C1.34092 17.1962 1.91384 19.647 1.94567 19.7743C1.97749 19.8698 2.04115 19.9335 2.10481 19.9971C2.13664 20.0289 2.2003 20.0289 2.23212 20.0289C2.26395 20.0289 2.32761 20.0289 2.35944 19.9971C2.45492 19.9653 4.77841 18.9149 5.54229 17.419C6.17887 16.1459 5.51047 14.9682 5.19218 14.5226C5.76509 13.886 6.17887 14.0452 6.30618 14.077C7.86578 14.6181 9.39355 19.3287 9.61635 22.9572C8.24772 21.5567 7.73847 18.6285 7.73847 18.5967C7.70664 18.4693 7.61115 18.3739 7.51567 18.342C7.38835 18.3102 7.26104 18.342 7.19738 18.4375C6.24252 19.647 6.27435 21.2703 6.36984 22.1933C4.77841 21.2066 2.99601 21.2066 2.96418 21.2066C2.80504 21.2066 2.67772 21.3021 2.6459 21.4612C2.61407 21.6204 2.67772 21.7477 2.83687 21.8113C5.41498 22.9572 5.51047 26.1082 5.51047 26.2992C5.28767 26.4265 5.09669 26.5538 4.90572 26.5856C4.68292 26.6493 4.39647 26.5856 4.14184 26.5538C3.82355 26.522 3.47344 26.4583 3.15515 26.5856C2.70955 26.7448 2.35944 27.0631 2.07298 27.3495C1.91384 27.5087 1.75469 27.636 1.62738 27.7315C1.50007 27.7951 1.40458 27.8588 1.27727 27.9224C0.672524 28.2725 0.0996094 28.5908 0.0996094 29.1956C0.0996094 29.3865 0.226924 29.5139 0.417895 29.5139H19.515C19.706 29.5139 19.8333 29.3865 19.8333 29.1956C19.8333 28.559 19.2604 28.2407 18.6557 27.8906ZM17.287 16.0185C17.7645 17.0052 17.6053 18.533 17.478 19.2651C16.8096 18.9149 15.4728 18.1511 14.9954 17.1644C14.4861 16.1459 15.059 15.2228 15.2818 14.9045C15.6638 14.9364 16.7778 15.0319 17.287 16.0185ZM4.96938 17.1644C4.49195 18.1511 3.12332 18.9149 2.48675 19.2651C2.35944 18.533 2.2003 17.0052 2.67772 16.0185C3.18698 15 4.30098 14.9045 4.68292 14.9045C4.87389 15.2228 5.47864 16.1777 4.96938 17.1644ZM13.8177 25.9809C13.6904 25.9172 13.5631 25.8854 13.404 25.8536C13.0538 25.8217 12.7356 25.9172 12.4173 26.0127C12.2263 26.0764 12.0672 26.1082 11.908 26.14C12.1626 23.3391 14.1997 22.3524 15.632 22.0341C14.1678 23.3073 13.8814 25.217 13.8177 25.9809ZM12.6719 19.4879C13.2766 20.9201 12.8629 22.6707 12.8629 22.7025V22.7344C12.0672 23.4664 11.4306 24.5168 11.2714 26.0445C11.176 26.0127 11.0805 25.9809 10.985 25.9172C10.6667 25.7899 10.3484 25.6308 9.96647 25.6308C9.61635 25.6308 9.32989 25.7581 9.04344 25.8854C9.20258 24.5168 10.0938 24.0393 10.1256 24.0075H10.1574C11.6216 23.0208 12.3536 20.7292 12.6719 19.4879ZM7.10189 22.7025C7.10189 22.6707 6.65629 20.9201 7.29287 19.4879C7.57932 20.6019 8.2159 22.6389 9.45721 23.7211C9.17075 23.9757 8.75698 24.4531 8.53418 25.1852C8.27955 24.103 7.73847 23.3073 7.10189 22.7344C7.10189 22.7344 7.10189 22.7344 7.10189 22.7025ZM4.33281 22.0023C5.73327 22.3524 7.77029 23.3391 8.05675 26.14C7.89761 26.1082 7.73847 26.0764 7.5475 26.0127C7.22921 25.9172 6.91092 25.8217 6.56081 25.8536C6.40167 25.8854 6.27435 25.9172 6.14704 25.9491C6.08338 25.217 5.76509 23.3073 4.33281 22.0023ZM0.958981 28.8455C1.11812 28.7181 1.37275 28.5908 1.59555 28.4317C1.72287 28.368 1.81835 28.3044 1.94567 28.2407C2.13664 28.1134 2.32761 27.9543 2.48675 27.7633C2.74138 27.5087 2.99601 27.254 3.3143 27.1585C3.50527 27.0949 3.75989 27.1267 4.01452 27.1585C4.30098 27.1904 4.6511 27.254 5.00121 27.1585C5.28767 27.0949 5.57412 26.9357 5.82875 26.7766C6.08338 26.6175 6.33801 26.4583 6.59264 26.4265C6.81544 26.3947 7.03824 26.4901 7.3247 26.5538C7.64298 26.6493 7.96127 26.7448 8.27955 26.7129C8.59784 26.6811 8.88429 26.5538 9.17075 26.4583C9.45721 26.331 9.71184 26.2355 9.93464 26.2355C10.1574 26.2355 10.4121 26.331 10.6985 26.4583C10.985 26.5856 11.2714 26.7129 11.5897 26.7129C11.9398 26.7448 12.2581 26.6493 12.5446 26.5538C12.7992 26.4583 13.0538 26.3947 13.2766 26.4265C13.5313 26.4583 13.7859 26.6175 14.0405 26.7766C14.2952 26.9357 14.5816 27.0949 14.8681 27.1585C15.2182 27.2222 15.5365 27.1904 15.8548 27.1585C16.1094 27.1267 16.3958 27.0949 16.555 27.1585C16.8733 27.254 17.1279 27.5087 17.3825 27.7633C17.5735 27.9543 17.7326 28.1134 17.9236 28.2407C18.0509 28.3044 18.1464 28.368 18.2737 28.4317C18.5284 28.559 18.7512 28.6863 18.9103 28.8455H0.958981Z" stroke="#CF4E32" stroke-width="0.2" mask="url(#path-1-outside-1_1122_843)"/>
<path d="M21.1212 6.32356L21.1214 6.32346L21.119 6.31883L17.9685 0.336001C17.9684 0.335839 17.9683 0.335676 17.9682 0.335514C17.9305 0.260453 17.8567 0.187828 17.7486 0.151785L17.7409 0.149219H17.7328L17.7312 0.149219C17.636 0.149218 17.5655 0.149217 17.4623 0.183613L17.4621 0.182969L17.4548 0.186828L9.434 4.42003L9.43396 4.41996L9.43161 4.42137C9.25832 4.52534 9.1716 4.74541 9.28755 4.90467L12.4363 10.8841C12.4364 10.8843 12.4365 10.8845 12.4366 10.8846C12.4743 10.9597 12.5481 11.0323 12.6562 11.0684L12.6639 11.0709H12.672H12.6722H12.6724H12.6726H12.6728H12.673H12.6731H12.6733H12.6735H12.6737H12.6739H12.6741H12.6743H12.6744H12.6746H12.6748H12.675H12.6752H12.6754H12.6756H12.6757H12.6759H12.6761H12.6763H12.6765H12.6767H12.6769H12.6771H12.6772H12.6774H12.6776H12.6778H12.678H12.6782H12.6784H12.6785H12.6787H12.6789H12.6791H12.6793H12.6795H12.6797H12.6799H12.68H12.6802H12.6804H12.6806H12.6808H12.681H12.6812H12.6813H12.6815H12.6817H12.6819H12.6821H12.6823H12.6825H12.6826H12.6828H12.683H12.6832H12.6834H12.6836H12.6838H12.684H12.6841H12.6843H12.6845H12.6847H12.6849H12.6851H12.6853H12.6854H12.6856H12.6858H12.686H12.6862H12.6864H12.6866H12.6868H12.6869H12.6871H12.6873H12.6875H12.6877H12.6879H12.6881H12.6882H12.6884H12.6886H12.6888H12.689H12.6892H12.6894H12.6895H12.6897H12.6899H12.6901H12.6903H12.6905H12.6907H12.6909H12.691H12.6912H12.6914H12.6916H12.6918H12.692H12.6922H12.6923H12.6925H12.6927H12.6929H12.6931H12.6933H12.6935H12.6937H12.6938H12.694H12.6942H12.6944H12.6946H12.6948H12.695H12.6951H12.6953H12.6955H12.6957H12.6959H12.6961H12.6963H12.6965H12.6966H12.6968H12.697H12.6972H12.6974H12.6976H12.6978H12.6979H12.6981H12.6983H12.6985H12.6987H12.6989H12.6991H12.6992H12.6994H12.6996H12.6998H12.7H12.7002H12.7004H12.7006H12.7007H12.7009H12.7011H12.7013H12.7015H12.7017H12.7019H12.702H12.7022H12.7024H12.7026H12.7028H12.703H12.7032H12.7034H12.7035H12.7037H12.7039H12.7041H12.7043H12.7045H12.7047H12.7048H12.705H12.7052H12.7054H12.7056H12.7058H12.706H12.7061H12.7063H12.7065H12.7067H12.7069H12.7071H12.7073H12.7075H12.7076H12.7078H12.708H12.7082H12.7084H12.7086H12.7088H12.7089H12.7091H12.7093H12.7095H12.7097H12.7099H12.7101H12.7103H12.7104H12.7106H12.7108H12.711H12.7112H12.7114H12.7116H12.7117H12.7119H12.7121H12.7123H12.7125H12.7127H12.7129H12.713H12.7132H12.7134H12.7136H12.7138H12.714H12.7142H12.7144H12.7145H12.7147H12.7149H12.7151H12.7153H12.7155H12.7157H12.7158H12.716H12.7162H12.7164H12.7166H12.7168H12.717H12.7172H12.7173H12.7175H12.7177H12.7179H12.7181H12.7183H12.7185H12.7186H12.7188H12.719H12.7192H12.7194H12.7196H12.7198H12.7199H12.7201H12.7203H12.7205H12.7207H12.7209H12.7211H12.7213H12.7214H12.7216H12.7218H12.722H12.7222H12.7224H12.7226H12.7227H12.7229H12.7231H12.7233H12.7235H12.7237H12.7239H12.7241H12.7242H12.7244H12.7246H12.7248H12.725H12.7252H12.7254H12.7255H12.7257H12.7259H12.7261H12.7263H12.7265H12.7267H12.7268H12.727H12.7272H12.7274H12.7276H12.7278H12.728H12.7282H12.7283H12.7285H12.7287H12.7289H12.7291H12.7293H12.7295H12.7296H12.7298H12.73H12.7302H12.7304H12.7306H12.7308H12.731H12.7311H12.7313H12.7315H12.7317H12.7319H12.7321H12.7323H12.7324H12.7326H12.7328H12.733H12.7332H12.7334H12.7336H12.7337H12.7339H12.7341H12.7343H12.7345H12.7347H12.7349H12.7351H12.7352H12.7354H12.7356H12.7358H12.736H12.7362H12.7364H12.7365H12.7367H12.7369H12.7371H12.7373H12.7375H12.7377H12.7379H12.738H12.7382H12.7384H12.7386H12.7388H12.739H12.7392H12.7393H12.7395H12.7397H12.7399H12.7401H12.7403H12.7405H12.7406H12.7408H12.741H12.7412H12.7414H12.7416H12.7418H12.742H12.7421H12.7423H12.7425H12.7427H12.7429H12.7431H12.7433H12.7434H12.7436H12.7438H12.744H12.7442H12.7444H12.7446H12.7448H12.7449H12.7451H12.7453H12.7455H12.7457H12.7459H12.7461H12.7462H12.7464H12.7466H12.7468H12.747H12.7472H12.7474H12.7476H12.7477H12.7479H12.7481H12.7483H12.7485H12.7487H12.7489H12.749H12.7492H12.7494H12.7496H12.7498H12.75H12.7502H12.7503H12.7505H12.7507H12.7509H12.7511H12.7513H12.7515H12.7517H12.7518H12.752H12.7522H12.7524H12.7526H12.7528H12.753H12.7531H12.7533H12.7535H12.7537H12.7539H12.7541H12.7543H12.7545H12.7546H12.7548H12.755H12.7552H12.7554H12.7556H12.7558H12.7559H12.7561H12.7563H12.7565H12.7567H12.7569H12.7571H12.7572H12.7574H12.7576H12.7578H12.758H12.7582H12.7584H12.7586H12.7587H12.7589H12.7591H12.7593H12.7595H12.7597H12.7599H12.76H12.7602H12.7604H12.7606H12.7608H12.761H12.7612H12.7614H12.7615H12.7617H12.7619H12.7621H12.7623H12.7625H12.7627H12.7628H12.763H12.7632H12.7634H12.7636H12.7638H12.764H12.7641H12.7643H12.7645H12.7647H12.7649H12.7651H12.7653H12.7655H12.7656H12.7658H12.766H12.7662H12.7664H12.7666H12.7668H12.7669H12.7671H12.7673H12.7675H12.7699C12.7998 11.0709 12.8273 11.0709 12.8553 11.0663C12.8853 11.0613 12.9139 11.0514 12.949 11.0338L12.949 11.0338L12.95 11.0333L20.9698 6.80063C20.97 6.80054 20.9701 6.80046 20.9703 6.80037C21.0485 6.76106 21.1035 6.68498 21.1304 6.59988C21.1575 6.51418 21.1576 6.41471 21.1212 6.32356ZM15.3667 8.94819L12.5803 3.62593L15.0381 2.33561L17.8244 7.65788L15.3667 8.94819ZM12.9159 10.2213L10.1295 4.89906L11.9189 3.95889L14.7053 9.28115L12.9159 10.2213ZM20.2753 6.35292L18.4859 7.29309L15.6995 1.97083L17.4889 1.03066L20.2753 6.35292Z" fill="#CF4E32" stroke="#CF4E32" stroke-width="0.1"/>
<path d="M10.5525 12.9295C10.5525 13.0363 10.5884 13.1292 10.6547 13.1956C10.7211 13.2619 10.814 13.2978 10.9208 13.2978C11.0277 13.2978 11.1206 13.2619 11.1869 13.1956C11.2533 13.1292 11.2891 13.0363 11.2891 12.9295V12.2929C11.2891 12.186 11.2533 12.0931 11.1869 12.0268C11.1206 11.9604 11.0277 11.9246 10.9208 11.9246C10.814 11.9246 10.7211 11.9604 10.6547 12.0268C10.5884 12.0931 10.5525 12.186 10.5525 12.2929V12.9295Z" fill="#CF4E32" stroke="#CF4E32" stroke-width="0.1"/>
<path d="M7.15142 17.7049V17.0683C7.15142 16.9614 7.11558 16.8685 7.04924 16.8022C6.9829 16.7358 6.88998 16.7 6.78313 16.7C6.67628 16.7 6.58336 16.7358 6.51702 16.8022C6.45068 16.8685 6.41484 16.9614 6.41484 17.0683V17.7049C6.41484 17.8117 6.45068 17.9046 6.51702 17.971C6.58336 18.0373 6.67628 18.0731 6.78313 18.0731C6.88998 18.0731 6.9829 18.0373 7.04924 17.971C7.11558 17.9046 7.15142 17.8117 7.15142 17.7049Z" fill="#CF4E32" stroke="#CF4E32" stroke-width="0.1"/>
<path d="M12.7811 16.7519V17.3885C12.7811 17.4953 12.8169 17.5882 12.8832 17.6546C12.9496 17.7209 13.0425 17.7567 13.1493 17.7567C13.2562 17.7567 13.3491 17.7209 13.4155 17.6546C13.4818 17.5882 13.5176 17.4953 13.5176 17.3885V16.7519C13.5176 16.645 13.4818 16.5521 13.4155 16.4858C13.3491 16.4194 13.2562 16.3836 13.1493 16.3836C13.0425 16.3836 12.9496 16.4194 12.8832 16.4858C12.8169 16.5521 12.7811 16.645 12.7811 16.7519Z" fill="#CF4E32" stroke="#CF4E32" stroke-width="0.1"/>
<path d="M8.69329 14.2528C8.80013 14.2528 8.89306 14.217 8.9594 14.1507C9.02574 14.0843 9.06157 13.9914 9.06157 13.8845V13.248C9.06157 13.1411 9.02574 13.0482 8.9594 12.9819C8.89306 12.9155 8.80013 12.8797 8.69329 12.8797C8.58644 12.8797 8.49351 12.9155 8.42717 12.9819C8.36083 13.0482 8.325 13.1411 8.325 13.248V13.8845C8.325 13.9914 8.36083 14.0843 8.42717 14.1507C8.49351 14.217 8.58644 14.2528 8.69329 14.2528Z" fill="#CF4E32" stroke="#CF4E32" stroke-width="0.1"/>
<path d="M7.41985 11.3895C7.5267 11.3895 7.61962 11.3537 7.68596 11.2874C7.7523 11.221 7.78813 11.1281 7.78813 11.0213V10.3847C7.78813 10.2778 7.7523 10.1849 7.68596 10.1186C7.61962 10.0522 7.5267 10.0164 7.41985 10.0164C7.313 10.0164 7.22007 10.0522 7.15374 10.1186C7.0874 10.1849 7.05156 10.2778 7.05156 10.3847V11.0213C7.05156 11.1281 7.0874 11.221 7.15374 11.2874C7.22007 11.3537 7.313 11.3895 7.41985 11.3895Z" fill="#CF4E32" stroke="#CF4E32" stroke-width="0.1"/>
<path d="M10.2851 8.74297C10.1782 8.74297 10.0853 8.7788 10.019 8.84514C9.95263 8.91148 9.9168 9.00441 9.9168 9.11125V9.74783C9.9168 9.85467 9.95263 9.9476 10.019 10.0139C10.0853 10.0803 10.1782 10.1161 10.2851 10.1161C10.3919 10.1161 10.4849 10.0803 10.5512 10.0139C10.6175 9.9476 10.6534 9.85467 10.6534 9.74783V9.11125C10.6534 9.00441 10.6175 8.91148 10.5512 8.84514C10.4849 8.7788 10.3919 8.74297 10.2851 8.74297Z" fill="#CF4E32" stroke="#CF4E32" stroke-width="0.1"/>
</svg>
