<svg width="34" height="34" viewBox="0 0 34 34" fill="none" xmlns="http://www.w3.org/2000/svg">
<path d="M16.9999 23.0225C16.1686 23.0225 15.4924 23.6987 15.4924 24.5299V28.2359C15.4924 28.5152 15.7188 28.7416 15.9981 28.7416C16.2774 28.7416 16.5038 28.5152 16.5038 28.2359V24.5299C16.5038 24.2564 16.7264 24.0338 17 24.0338C17.2736 24.0338 17.4962 24.2564 17.4962 24.5299V28.2359C17.4962 28.5152 17.7225 28.7416 18.0019 28.7416C18.2811 28.7416 18.5075 28.5152 18.5075 28.2359V24.5299C18.5074 23.6987 17.8312 23.0225 16.9999 23.0225Z" fill="#CF4E32"/>
<path d="M22.1527 19.7819H18.7805V6.66186L20.238 2.7433H21.9553C22.2345 2.7433 22.461 2.51692 22.461 2.23762V0.505683C22.461 0.226445 22.2346 0 21.9553 0H11.8472C11.568 0 11.3416 0.226378 11.3416 0.505683V2.23762C11.3416 2.51686 11.5679 2.7433 11.8472 2.7433H13.7619L15.2194 6.66186V19.782H11.8472C11.568 19.782 11.3416 20.0084 11.3416 20.2877V30.1554C11.3416 30.3268 11.4284 30.4866 11.5722 30.5798L16.7249 33.9187C16.8086 33.9729 16.9043 34 16.9999 34C17.0956 34 17.1912 33.9729 17.2749 33.9187L22.4277 30.5798C22.5715 30.4866 22.6583 30.3269 22.6583 30.1554V20.2876C22.6584 20.0083 22.432 19.7819 22.1527 19.7819ZM12.3529 1.73194V1.0113H21.4496V1.73194H19.8865H14.1133H12.3529ZM14.841 2.74324H19.1589L17.9235 6.0652H16.0765L14.841 2.74324ZM17.7692 7.0765V19.7819H16.2308V7.0765H17.7692ZM21.6471 29.8804L17 32.8917L12.3529 29.8805V22.6094H21.6471V29.8804ZM21.6471 21.5981H12.3529V20.7932H15.725H18.2748H21.6471V21.5981Z" fill="#CF4E32"/>
</svg>
