<svg width="30" height="30" viewBox="0 0 30 30" fill="none" xmlns="http://www.w3.org/2000/svg">
<g clipPath="url(#clip0_1052_180)">
<path d="M9.20014 5.90397V5.75397H9.05014H8.53614C8.23981 5.75397 7.9996 5.51377 7.9996 5.21744C7.9996 4.43426 7.36269 3.79742 6.57959 3.79742H6.08103C5.7847 3.79742 5.5445 3.55722 5.5445 3.26089V0.686532C5.5445 0.390203 5.7847 0.15 6.08103 0.15H27.8087C28.1051 0.15 28.3453 0.390203 28.3453 0.686532V3.26089C28.3453 3.55722 28.1051 3.79742 27.8087 3.79742H27.3102C26.527 3.79742 25.8902 4.43434 25.8902 5.21744C25.8902 5.51377 25.65 5.75397 25.3536 5.75397H24.8396H24.6896V5.90397V24.096V24.246H24.8396H25.3536C25.65 24.246 25.8902 24.4862 25.8902 24.7826C25.8902 25.5657 26.5271 26.2026 27.3102 26.2026H27.8087C28.1051 26.2026 28.3453 26.4428 28.3453 26.7391V29.3135C28.3453 29.6098 28.1051 29.85 27.8087 29.85H6.08103C5.7847 29.85 5.5445 29.6098 5.5445 29.3135V26.7391C5.5445 26.4428 5.7847 26.2026 6.08103 26.2026H6.57959C7.36277 26.2026 7.9996 25.5657 7.9996 24.7826C7.9996 24.4862 8.23981 24.246 8.53614 24.246H9.05014H9.20014V24.096V18.5511V18.1802L8.94231 18.4469C8.08161 19.337 6.87708 19.8917 5.54485 19.8917C3.40003 19.8917 1.65488 18.1466 1.65488 16.0018C1.65488 14.2268 3.09919 12.7825 4.87418 12.7825C6.35326 12.7825 7.55687 13.9861 7.55687 15.4652C7.55687 15.7615 7.31667 16.0017 7.02034 16.0017C6.72401 16.0017 6.48381 15.7615 6.48381 15.4652C6.48381 14.5775 5.76191 13.8555 4.87418 13.8555C3.69062 13.8555 2.72795 14.8182 2.72795 16.0018C2.72795 17.5551 3.99153 18.8187 5.54485 18.8187C7.56055 18.8187 9.20014 17.1791 9.20014 15.1634V5.90397ZM10.9401 24.3625L11.012 24.6495L16.0519 24.2456L16.0783 24.2434L16.1023 24.2325L23.5289 20.8376L23.6166 20.7976V20.7012V19.0684V18.8394L23.4066 18.9309L10.9401 24.3625ZM17.0257 5.76755L17.0013 5.75636L16.9744 5.75438L11.5111 5.35041L11.4434 5.63889L20.8103 9.45938L20.8703 9.48387L20.9293 9.45691L22.7143 8.6409L23.0128 8.50448L22.7143 8.36806L17.0257 5.76755ZM19.278 10.2118L19.5764 10.0753L19.278 9.93891L10.4856 5.91961L10.2732 5.82254V6.05604V7.68861V7.78496L10.3608 7.82503L17.3674 11.0282L17.4297 11.0567L17.4921 11.0282L19.278 10.2118ZM13.9306 12.5992L13.993 12.6278L14.0553 12.5992L15.8409 11.783L16.1393 11.6466L15.8409 11.5102L10.4856 9.06194L10.2732 8.96485V9.19836V10.8309V10.9272L10.3608 10.9673L13.9306 12.5992ZM10.4856 12.2042L10.2732 12.1071V12.3406V14.0948V14.3283L10.4856 14.2312L12.4041 13.3542L12.7025 13.2177L12.4041 13.0813L10.4856 12.2042ZM10.3608 15.468L10.2732 15.5081V15.6045V17.237V17.4705L10.4856 17.3734L23.5289 11.4107L23.6166 11.3707V11.2743V9.64179V9.40829L23.4042 9.50537L10.3608 15.468ZM10.3608 18.6103L10.2732 18.6504V18.7467V20.3792V20.6127L10.4856 20.5156L23.5289 14.553L23.6166 14.5129V14.4166V12.784V12.5505L23.4042 12.6476L10.3608 18.6103ZM10.3608 21.7525L10.2732 21.7925V21.8889V23.5214V23.7549L10.4856 23.6578L23.5289 17.6952L23.6166 17.6551V17.5587V15.9262V15.6927L23.4042 15.7898L10.3608 21.7525ZM18.5122 5.35049L18.4472 5.64041L23.4138 7.50751L23.6166 7.58374V7.36711V5.90397V5.76567L23.4787 5.75446L18.5122 5.35049ZM27.2722 1.37306V1.22306H27.1222H6.76756H6.61756V1.37306V2.57436V2.72436H6.76756H27.1222H27.2722V2.57436V1.37306ZM25.1244 4.01973L25.2467 3.79742H24.993H8.89677H8.64303L8.76535 4.01973C8.86014 4.19201 8.93528 4.37638 8.98741 4.56992L9.01731 4.6809H9.13225H24.7575H24.8725L24.9024 4.56986C24.9544 4.37633 25.0296 4.19204 25.1244 4.01973ZM6.61756 28.6269V28.7769H6.76756H27.1222H27.2722V28.6269V27.4256V27.2756H27.1222H6.76756H6.61756V27.4256V28.6269ZM8.76535 25.9803L8.64304 26.2026H8.89677H24.993H25.2467L25.1244 25.9803C25.0296 25.808 24.9545 25.6236 24.9023 25.4301L24.8724 25.3191H24.7575H9.13225H9.01726L8.9874 25.4301C8.93535 25.6237 8.86016 25.808 8.76535 25.9803ZM17.4463 24.36L17.5101 24.6497L23.4767 24.2457L23.6166 24.2362V24.096V22.211V21.9927L23.4128 22.0709L17.4463 24.36Z" fill="#CF4E32" stroke="white" strokeWidth="0.3"/>
</g>
<defs>
<clipPath id="clip0_1052_180">
<rect width="30" height="30" fill="white"/>
</clipPath>
</defs>
</svg>
