<svg width="32" height="32" viewBox="0 0 32 32" fill="none" xmlns="http://www.w3.org/2000/svg">
<path fill-rule="evenodd" clip-rule="evenodd" d="M5.08167 7.10742C3.77013 8.45713 3.03198 10.2862 3.03198 12.1935C3.03198 14.1017 3.77013 15.9308 5.08167 17.2796L14.0409 26.4939C14.5696 27.0375 15.2873 27.3409 16.0357 27.3409C16.7832 27.3409 17.5018 27.0375 18.0305 26.4939C19.6529 24.8249 26.9823 17.2721 26.9823 17.2721C28.2938 15.9233 29.032 14.0942 29.032 12.186C29.032 10.2778 28.2938 8.44968 26.9823 7.09997C25.6614 5.74189 23.8687 4.98047 22.0005 4.98047C20.1323 4.98047 18.3404 5.74189 17.0196 7.09997L16.0283 8.11923L15.0444 7.10742C13.7235 5.74934 11.9317 4.98792 10.0635 4.98792C8.19531 4.98792 6.40253 5.74934 5.08167 7.10742ZM6.41649 8.40593C7.38362 7.41087 8.69516 6.84958 10.0635 6.84958C11.4318 6.84958 12.7424 7.41087 13.7096 8.40593L15.3609 10.1038C15.5358 10.2834 15.7769 10.3858 16.0283 10.3858C16.2796 10.3858 16.5207 10.2834 16.6957 10.1038L18.3544 8.39755C19.3215 7.40342 20.6322 6.84213 22.0005 6.84213C23.3688 6.84213 24.6794 7.40342 25.6475 8.39755C25.6503 8.40128 25.6531 8.40407 25.6568 8.40779C26.6239 9.40285 27.1703 10.7656 27.1703 12.186C27.1703 13.6065 26.6239 14.9702 25.6475 15.9745C25.6475 15.9745 18.3181 23.5273 16.6957 25.1963C16.5207 25.3759 16.2833 25.4792 16.0357 25.4792C15.7881 25.4792 15.5507 25.3759 15.3757 25.1963L6.41649 15.982C5.44004 14.9776 4.89365 13.6139 4.89365 12.1935C4.89365 10.773 5.44004 9.4103 6.41649 8.40593Z" fill="#CF4E32" stroke="white" strokeWidth="0.8" stroke-miterlimit="2" strokeLinejoin="round"/>
<path fill-rule="evenodd" clip-rule="evenodd" d="M15.1011 15.2409H13.2422C12.7284 15.2409 12.3114 15.6579 12.3114 16.1717C12.3114 16.6855 12.7284 17.1025 13.2422 17.1025H15.1011V18.9614C15.1011 19.4752 15.5181 19.8922 16.0319 19.8922C16.5458 19.8922 16.9628 19.4752 16.9628 18.9614V17.1025H18.8216C19.3355 17.1025 19.7525 16.6855 19.7525 16.1717C19.7525 15.6579 19.3355 15.2409 18.8216 15.2409H16.9628V13.382C16.9628 12.8682 16.5458 12.4512 16.0319 12.4512C15.5181 12.4512 15.1011 12.8682 15.1011 13.382V15.2409Z" fill="#CF4E32" stroke="white" strokeWidth="0.8" stroke-miterlimit="2" strokeLinejoin="round"/>
</svg>
