<svg width="24" height="28" viewBox="0 0 24 28" fill="none" xmlns="http://www.w3.org/2000/svg">
<path d="M13.1459 26.0591C13.1459 26.0591 2.10599 23.4151 1.68085 5.15918C1.08748 5.53203 0.728271 5.85713 0.728271 6.09357C1.14659 24.3676 12.1933 27.0117 12.1933 27.0117C12.1933 27.0117 14.9442 26.3501 17.7565 23.29C15.308 25.5385 13.1459 26.0591 13.1459 26.0591Z" fill="#E0E1E2"/>
<path d="M12.1841 24.3609C11.959 24.2654 11.6794 24.1335 11.3634 23.9607C10.2266 23.3401 9.16493 22.4921 8.20553 21.4417C6.85055 19.9549 5.75019 18.102 4.9363 15.9309C3.99054 13.4073 3.42899 10.4473 3.26758 7.12122C3.7541 6.83704 4.63165 6.38235 6.1776 5.70486C7.96227 4.92279 9.94018 4.15209 11.2838 3.64283C11.8701 3.41932 12.518 3.41851 13.1048 3.64056C14.4484 4.14754 16.4241 4.9137 18.2087 5.69349C19.732 6.35962 20.6072 6.81203 21.0983 7.09394C20.8641 10.4337 20.2594 13.4028 19.2977 15.9354C18.4656 18.1179 17.3676 19.9799 16.033 21.469C15.0941 22.5171 14.0597 23.3605 12.9616 23.9744C12.6638 24.1403 12.4001 24.2676 12.1841 24.3609Z" fill="#74453B" fill-opacity="0.1"/>
<path d="M16.3878 10.2309C16.4782 10.2309 16.565 10.2669 16.6289 10.3308C16.6929 10.3948 16.7288 10.4815 16.7288 10.5719V13.3683C16.7288 13.4587 16.6929 13.5455 16.6289 13.6094C16.565 13.6734 16.4782 13.7093 16.3878 13.7093H13.9325V16.1646C13.9325 16.2551 13.8965 16.3418 13.8326 16.4058C13.7686 16.4697 13.6819 16.5057 13.5914 16.5057H10.7951C10.7046 16.5057 10.6179 16.4697 10.5539 16.4058C10.49 16.3418 10.4541 16.2551 10.4541 16.1646V13.7093H7.99873C7.90829 13.7093 7.82155 13.6734 7.7576 13.6094C7.69364 13.5455 7.65771 13.4587 7.65771 13.3683V10.5719C7.65771 10.4815 7.69364 10.3948 7.7576 10.3308C7.82155 10.2669 7.90829 10.2309 7.99873 10.2309H10.4541V7.77559C10.4541 7.68515 10.49 7.59841 10.5539 7.53445C10.6179 7.4705 10.7046 7.43457 10.7951 7.43457H13.5914C13.6819 7.43457 13.7686 7.4705 13.8326 7.53445C13.8965 7.59841 13.9325 7.68515 13.9325 7.77559V10.2309" fill="#CF4E32"/>
<path d="M12.1933 27.3523C12.1665 27.3526 12.1397 27.3496 12.1137 27.3432C12.0841 27.3364 11.3726 27.1613 10.3063 26.6157C9.33099 26.1178 7.85779 25.197 6.37095 23.6397C4.70678 21.8982 3.36316 19.7294 2.37876 17.1945C1.15336 14.0412 0.482692 10.3082 0.387207 6.10226V6.09317C0.387207 5.63847 0.850993 5.00418 4.21116 3.46959C6.21863 2.55339 8.6194 1.61218 10.279 0.984705C11.5121 0.517087 12.8734 0.515469 14.1075 0.980158C15.774 1.60991 18.1838 2.55112 20.1936 3.46732C21.3121 3.97658 22.1897 4.42672 22.8012 4.80184C23.6583 5.32928 24.0175 5.72032 23.9993 6.10908C23.8129 10.3332 23.0877 14.0753 21.8418 17.2308C20.8415 19.768 19.5047 21.9346 17.8701 23.6693C17.063 24.5264 15.7421 25.7336 14.028 26.627C12.9913 27.1658 12.3024 27.3364 12.2728 27.3432C12.2468 27.3497 12.2201 27.3528 12.1933 27.3523ZM1.06924 6.10453C1.16473 10.2104 1.81494 13.8479 3.00168 16.9148C3.94744 19.3633 5.23649 21.4549 6.83246 23.135C7.61453 23.958 8.89903 25.122 10.5791 25.9905C11.3885 26.4065 11.9841 26.5975 12.1933 26.6589C12.3956 26.5998 12.9708 26.4133 13.7506 26.0018C14.6509 25.529 16.015 24.6537 17.4086 23.1646C18.975 21.4913 20.2595 19.3974 21.2212 16.9444C22.4284 13.8707 23.1332 10.2218 23.3173 6.09317C23.3014 6.05224 23.1695 5.80898 22.2806 5.28609C21.6736 4.92688 20.8188 4.4972 19.7457 4.01295C17.7792 3.12403 15.4625 2.22147 13.8665 1.619C12.7878 1.21234 11.5976 1.21396 10.52 1.62355C8.92404 2.22601 6.60739 3.13312 4.64312 4.02204C3.57005 4.50856 2.7175 4.93825 2.10822 5.29745C1.21702 5.82262 1.08516 6.06588 1.06924 6.10453Z" fill="#CF4E32"/>
<path d="M12.1841 24.4746C12.1692 24.4749 12.1544 24.4718 12.1409 24.4655C11.9363 24.3791 11.7249 24.2791 11.5157 24.1722C11.5024 24.1654 11.4906 24.156 11.481 24.1445C11.4713 24.1331 11.464 24.1199 11.4595 24.1056C11.4549 24.0914 11.4532 24.0764 11.4545 24.0615C11.4558 24.0466 11.4599 24.0321 11.4668 24.0188C11.4737 24.0055 11.4831 23.9937 11.4945 23.9841C11.506 23.9744 11.5192 23.9671 11.5334 23.9626C11.5477 23.958 11.5627 23.9563 11.5776 23.9576C11.5925 23.9589 11.607 23.963 11.6203 23.9699C11.809 24.0677 11.9999 24.1563 12.1841 24.2359C12.3682 24.1563 12.5569 24.0631 12.7456 23.9631C12.7586 23.9559 12.7728 23.9514 12.7876 23.9499C12.8023 23.9483 12.8172 23.9496 12.8313 23.9539C12.8455 23.9581 12.8587 23.9651 12.8702 23.9745C12.8816 23.9839 12.891 23.9955 12.898 24.0086C12.9052 24.0217 12.9097 24.0361 12.9113 24.051C12.9129 24.0659 12.9116 24.0809 12.9073 24.0953C12.9031 24.1097 12.8961 24.1231 12.8867 24.1347C12.8773 24.1463 12.8657 24.156 12.8525 24.1632C12.6433 24.2746 12.4342 24.3769 12.2296 24.4655C12.215 24.4709 12.1996 24.474 12.1841 24.4746Z" fill="#CF4E32"/>
<path d="M10.4769 23.5353C10.4541 23.5354 10.4318 23.5283 10.4133 23.5148C10.0592 23.2749 9.71774 23.0169 9.39023 22.7418C9.37871 22.7324 9.36919 22.7208 9.36225 22.7076C9.3553 22.6944 9.35107 22.68 9.3498 22.6652C9.34853 22.6503 9.35024 22.6354 9.35484 22.6212C9.35945 22.607 9.36684 22.594 9.37659 22.5827C9.39607 22.5595 9.42388 22.5448 9.45405 22.5418C9.48422 22.5388 9.51436 22.5478 9.53801 22.5668C9.85768 22.8385 10.1924 23.092 10.5406 23.3261C10.5531 23.3346 10.5637 23.3454 10.572 23.358C10.5802 23.3706 10.5859 23.3847 10.5887 23.3995C10.5914 23.4143 10.5912 23.4295 10.588 23.4442C10.5848 23.459 10.5788 23.4729 10.5702 23.4853C10.56 23.5007 10.5461 23.5133 10.5299 23.522C10.5136 23.5308 10.4954 23.5353 10.4769 23.5353ZM8.53541 21.9029C8.50469 21.9029 8.47525 21.8906 8.45357 21.8688C8.34217 21.7552 8.23077 21.6369 8.12164 21.5187C7.94431 21.3255 7.76926 21.1209 7.60102 20.914C7.58217 20.8907 7.57327 20.8609 7.57625 20.8311C7.57923 20.8013 7.59385 20.7739 7.61693 20.7548C7.62852 20.7452 7.64192 20.7379 7.65635 20.7334C7.67078 20.729 7.68595 20.7275 7.70098 20.7289C7.71601 20.7304 7.73059 20.7349 7.74387 20.7421C7.75716 20.7492 7.76888 20.759 7.77835 20.7708C7.94431 20.9731 8.11482 21.1754 8.28988 21.3664C8.39673 21.4823 8.50585 21.5983 8.61498 21.7097C8.62549 21.7204 8.63377 21.7331 8.63935 21.747C8.64492 21.761 8.64768 21.7759 8.64747 21.7909C8.64726 21.8059 8.64408 21.8207 8.63811 21.8345C8.63215 21.8482 8.62351 21.8607 8.61271 21.8711C8.60279 21.8816 8.59078 21.8898 8.57746 21.8953C8.56414 21.9008 8.54981 21.9034 8.53541 21.9029ZM6.93035 19.9387C6.91188 19.9387 6.8937 19.9342 6.87743 19.9254C6.86116 19.9167 6.84731 19.9041 6.83714 19.8886C6.6007 19.5431 6.37108 19.1793 6.15737 18.8065C6.14802 18.7936 6.14147 18.7789 6.13814 18.7634C6.13482 18.7478 6.1348 18.7317 6.13808 18.7162C6.14136 18.7006 6.14787 18.6859 6.15718 18.673C6.1665 18.6601 6.17842 18.6493 6.19217 18.6414C6.20592 18.6334 6.2212 18.6283 6.23701 18.6266C6.25282 18.6249 6.26882 18.6265 6.28397 18.6314C6.29911 18.6362 6.31308 18.6442 6.32495 18.6548C6.33682 18.6654 6.34634 18.6783 6.35289 18.6928C6.5666 19.0611 6.79167 19.4203 7.02356 19.7613C7.03507 19.7784 7.04175 19.7982 7.04289 19.8187C7.04402 19.8392 7.03957 19.8597 7.03001 19.8779C7.02044 19.8961 7.00612 19.9113 6.98857 19.922C6.97103 19.9327 6.9509 19.9385 6.93035 19.9387ZM5.66176 17.7402C5.64027 17.7398 5.61933 17.7334 5.60126 17.7218C5.58319 17.7101 5.56872 17.6937 5.55945 17.6743C5.37758 17.2992 5.20252 16.9059 5.04111 16.508C5.03519 16.4943 5.03209 16.4796 5.03199 16.4646C5.03188 16.4497 5.03478 16.4349 5.04051 16.4211C5.04623 16.4073 5.05467 16.3949 5.06532 16.3844C5.07596 16.3739 5.0886 16.3657 5.10249 16.3602C5.13056 16.3488 5.16198 16.3489 5.19002 16.3604C5.21807 16.3718 5.24051 16.3938 5.25254 16.4216C5.41168 16.8172 5.58446 17.2037 5.76407 17.5765C5.77066 17.59 5.77454 17.6046 5.77548 17.6195C5.77642 17.6344 5.77441 17.6494 5.76955 17.6636C5.76469 17.6777 5.75709 17.6908 5.74717 17.702C5.73726 17.7132 5.72523 17.7223 5.71178 17.7289C5.69599 17.7358 5.67901 17.7397 5.66176 17.7402ZM4.70236 15.3872C4.67908 15.3869 4.65643 15.3795 4.63737 15.3662C4.61831 15.3528 4.60372 15.334 4.59551 15.3122C4.46137 14.9166 4.33633 14.5051 4.22039 14.0913C4.21621 14.077 4.21489 14.062 4.21651 14.0471C4.21814 14.0323 4.22267 14.0179 4.22984 14.0048C4.24434 13.9784 4.26874 13.9588 4.29769 13.9504C4.32689 13.9432 4.35773 13.9475 4.38392 13.9623C4.4101 13.977 4.42967 14.0012 4.43864 14.0299C4.55231 14.4414 4.67963 14.8461 4.81149 15.2372C4.8165 15.2513 4.81865 15.2664 4.81782 15.2814C4.81698 15.2964 4.81318 15.3111 4.80663 15.3246C4.80007 15.3382 4.7909 15.3502 4.77963 15.3602C4.76837 15.3702 4.75524 15.3778 4.74101 15.3827C4.72848 15.3864 4.71541 15.3879 4.70236 15.3872ZM4.01805 12.9432C3.99216 12.9434 3.96701 12.9346 3.94675 12.9185C3.92649 12.9024 3.91235 12.8798 3.90665 12.8546C3.81344 12.4476 3.72932 12.027 3.65202 11.6042C3.64769 11.5888 3.64663 11.5728 3.6489 11.557C3.65118 11.5413 3.65673 11.5262 3.66521 11.5127C3.67369 11.4992 3.68491 11.4877 3.69813 11.4788C3.71136 11.47 3.7263 11.464 3.74198 11.4613C3.75767 11.4585 3.77375 11.4591 3.78919 11.463C3.80462 11.4669 3.81907 11.474 3.8316 11.4838C3.84412 11.4937 3.85444 11.506 3.86188 11.5201C3.86933 11.5342 3.87374 11.5496 3.87482 11.5655C3.95212 11.9838 4.03624 12.4022 4.12718 12.8046C4.13088 12.819 4.13163 12.8341 4.12937 12.8489C4.12712 12.8637 4.12191 12.8779 4.11406 12.8906C4.10621 12.9033 4.09588 12.9144 4.08368 12.923C4.07148 12.9317 4.05767 12.9378 4.04306 12.941L4.01805 12.9432ZM3.56336 10.4447C3.53603 10.4449 3.50958 10.4351 3.48904 10.417C3.4685 10.399 3.4553 10.3741 3.45196 10.3469C3.39285 9.93318 3.34283 9.50804 3.29964 9.08063C3.29648 9.06507 3.29661 9.04901 3.30004 9.0335C3.30346 9.018 3.31009 9.00338 3.31951 8.99059C3.32893 8.9778 3.34093 8.96713 3.35472 8.95926C3.36852 8.9514 3.38381 8.94651 3.39961 8.94491C3.41541 8.94332 3.43137 8.94505 3.44646 8.95C3.46156 8.95495 3.47544 8.96301 3.48723 8.97365C3.49901 8.98429 3.50844 8.99729 3.51489 9.0118C3.52135 9.02631 3.52469 9.04201 3.52471 9.05789C3.56791 9.48076 3.61792 9.90362 3.67703 10.3151C3.68031 10.3449 3.67196 10.3747 3.65374 10.3984C3.63553 10.4222 3.60884 10.4379 3.57927 10.4424L3.56336 10.4447Z" fill="#CF4E32"/>
<path d="M3.30637 7.91391C3.27773 7.914 3.25011 7.90328 3.22904 7.88389C3.20796 7.8645 3.19498 7.83787 3.19269 7.80933C3.17678 7.58198 3.16541 7.35236 3.15405 7.12502C3.1527 7.10426 3.15708 7.08353 3.1667 7.06509C3.17632 7.04665 3.19082 7.03121 3.20861 7.02044C3.38594 6.9204 3.58828 6.809 3.81335 6.69306C3.82644 6.68599 3.84082 6.68162 3.85563 6.6802C3.87044 6.67878 3.88538 6.68034 3.89958 6.68479C3.91378 6.68924 3.92694 6.69649 3.93829 6.70611C3.94964 6.71573 3.95895 6.72752 3.96567 6.7408C3.97932 6.76737 3.98197 6.79825 3.97303 6.82675C3.9641 6.85526 3.9443 6.8791 3.91793 6.89312C3.72014 6.99543 3.54281 7.09319 3.38366 7.18413C3.39503 7.38646 3.4064 7.59107 3.42004 7.79341C3.42096 7.80835 3.41893 7.82332 3.41405 7.83746C3.40918 7.85161 3.40156 7.86465 3.39163 7.87584C3.38171 7.88704 3.36967 7.89616 3.3562 7.9027C3.34274 7.90923 3.32812 7.91304 3.31319 7.91391H3.30637Z" fill="#CF4E32"/>
<path d="M5.10711 6.3005C5.08529 6.30023 5.06397 6.29393 5.04551 6.2823C5.02705 6.27066 5.01218 6.25414 5.00253 6.23457C4.99008 6.20741 4.98882 6.17644 4.99903 6.14836C5.00924 6.12027 5.0301 6.09734 5.05709 6.08452C5.38901 5.92993 5.7505 5.76624 6.13244 5.60028L6.32113 5.51843C6.33486 5.51241 6.34964 5.50917 6.36463 5.50888C6.37961 5.50859 6.39451 5.51128 6.40845 5.51677C6.4224 5.52226 6.43512 5.53046 6.44589 5.54089C6.45665 5.55132 6.46525 5.56378 6.47118 5.57754C6.48273 5.60533 6.48302 5.63652 6.47199 5.66453C6.46096 5.69253 6.43947 5.71514 6.41207 5.72759L6.22338 5.80716C5.84371 5.9754 5.4845 6.13681 5.15485 6.28913C5.14024 6.29712 5.12375 6.30104 5.10711 6.3005ZM19.2594 6.28004C19.2429 6.2795 19.2266 6.27564 19.2116 6.26867C18.8865 6.11862 18.5341 5.95948 18.1636 5.79807L17.9521 5.70713C17.9384 5.70116 17.926 5.69254 17.9156 5.68177C17.9052 5.671 17.897 5.65828 17.8915 5.64435C17.886 5.63041 17.8833 5.61554 17.8836 5.60056C17.8839 5.58559 17.8871 5.57081 17.893 5.55708C17.899 5.54335 17.9076 5.53092 17.9184 5.52052C17.9292 5.51012 17.9419 5.50194 17.9558 5.49645C17.9698 5.49096 17.9846 5.48827 17.9996 5.48853C18.0146 5.48879 18.0294 5.492 18.0431 5.49797L18.2545 5.58891C18.6274 5.7526 18.982 5.91174 19.3071 6.06179C19.3208 6.06813 19.333 6.07712 19.3432 6.08824C19.3533 6.09935 19.3612 6.11237 19.3662 6.12654C19.3713 6.14072 19.3735 6.15575 19.3727 6.17078C19.372 6.18582 19.3682 6.20054 19.3617 6.21411C19.3529 6.23384 19.3385 6.25057 19.3203 6.26228C19.3022 6.27399 19.281 6.28016 19.2594 6.28004ZM7.63746 5.1956C7.61528 5.19568 7.59356 5.18926 7.57497 5.17714C7.55639 5.16502 7.54176 5.14773 7.53289 5.1274C7.52207 5.09927 7.5224 5.06808 7.53381 5.04019C7.54522 5.0123 7.56684 4.98983 7.59427 4.97735C8.00122 4.80911 8.43318 4.63406 8.8765 4.45673C8.89038 4.4512 8.90522 4.44847 8.92016 4.44868C8.9351 4.44889 8.94985 4.45204 8.96357 4.45795C8.97729 4.46386 8.98972 4.47242 9.00013 4.48313C9.01055 4.49384 9.01875 4.5065 9.02427 4.52038C9.0298 4.53427 9.03253 4.5491 9.03232 4.56404C9.03211 4.57898 9.02896 4.59373 9.02305 4.60745C9.01714 4.62118 9.00858 4.6336 8.99787 4.64402C8.98716 4.65443 8.9745 4.66263 8.96062 4.66816C8.51729 4.84549 8.08761 5.02054 7.68293 5.18878C7.66819 5.19327 7.65287 5.19557 7.63746 5.1956ZM16.7245 5.17741C16.7098 5.17736 16.6952 5.17506 16.6813 5.17059C16.2743 5.00236 15.8446 4.8273 15.4013 4.65224C15.3733 4.64109 15.3508 4.61925 15.3389 4.59154C15.327 4.56383 15.3265 4.53251 15.3377 4.50447C15.3488 4.47643 15.3707 4.45397 15.3984 4.44203C15.4261 4.4301 15.4574 4.42966 15.4854 4.44081C15.9288 4.61587 16.3607 4.79092 16.7677 4.95916C16.7816 4.96464 16.7942 4.97285 16.8048 4.98331C16.8155 4.99377 16.8239 5.00626 16.8297 5.02005C16.8354 5.03383 16.8383 5.04863 16.8382 5.06355C16.8381 5.07848 16.835 5.09323 16.8291 5.10694C16.8211 5.12806 16.8067 5.14619 16.788 5.15881C16.7692 5.17143 16.7471 5.17793 16.7245 5.17741ZM10.2042 4.17027C10.1773 4.17079 10.151 4.16174 10.1302 4.14472C10.1093 4.12771 10.0951 4.10383 10.0902 4.07736C10.0853 4.05088 10.09 4.02352 10.1033 4.00015C10.1167 3.97678 10.138 3.95892 10.1633 3.94974L11.2432 3.53598C11.3182 3.50869 11.3909 3.48369 11.466 3.46323C11.4949 3.45478 11.526 3.45819 11.5525 3.47268C11.5789 3.48718 11.5985 3.51158 11.6069 3.54052C11.6154 3.56946 11.612 3.60057 11.5975 3.62701C11.583 3.65344 11.5586 3.67304 11.5296 3.68148C11.4599 3.7027 11.3917 3.72543 11.325 3.74968C10.9635 3.88609 10.5998 4.02477 10.2451 4.16345C10.2319 4.16791 10.2181 4.17021 10.2042 4.17027ZM14.1577 4.15663C14.1436 4.15691 14.1295 4.15379 14.1168 4.14754L13.0642 3.74741C12.9884 3.71797 12.911 3.69292 12.8323 3.67238C12.8035 3.6644 12.7789 3.64536 12.764 3.6194C12.7491 3.59343 12.7451 3.56264 12.7527 3.5337C12.7561 3.51908 12.7625 3.50532 12.7714 3.49328C12.7804 3.48123 12.7917 3.47116 12.8047 3.46369C12.8178 3.45623 12.8322 3.45152 12.8471 3.44988C12.862 3.44823 12.8771 3.44968 12.8914 3.45413C12.9778 3.47687 13.0619 3.50415 13.1438 3.5337L14.1987 3.9361C14.224 3.94528 14.2452 3.96314 14.2586 3.98651C14.272 4.00988 14.2766 4.03724 14.2717 4.06372C14.2668 4.09019 14.2526 4.11407 14.2318 4.13108C14.2109 4.1481 14.1847 4.15715 14.1577 4.15663Z" fill="#CF4E32"/>
<path d="M21.0439 7.88712H21.0348C21.0198 7.88597 21.0053 7.88188 20.9919 7.87508C20.9785 7.86827 20.9667 7.8589 20.9569 7.84749C20.9472 7.83608 20.9399 7.82286 20.9353 7.80859C20.9307 7.79432 20.929 7.77929 20.9302 7.76435C20.9484 7.56429 20.9643 7.36195 20.9779 7.15734C20.8211 7.06867 20.6415 6.97091 20.4459 6.86861C20.423 6.85289 20.4066 6.82931 20.3999 6.80232C20.3931 6.77532 20.3965 6.7468 20.4094 6.72215C20.4223 6.69749 20.4438 6.67842 20.4698 6.66854C20.4958 6.65866 20.5245 6.65866 20.5505 6.66854C20.7756 6.78449 20.9779 6.89361 21.1553 6.99592C21.1734 7.00687 21.1882 7.02268 21.1978 7.04156C21.2074 7.06044 21.2116 7.08165 21.2098 7.10277C21.1939 7.33012 21.178 7.55974 21.1575 7.78481C21.1552 7.81315 21.1422 7.83953 21.121 7.85855C21.0999 7.87757 21.0723 7.88779 21.0439 7.88712Z" fill="#CF4E32"/>
<path d="M14.0348 23.3987C14.0168 23.3986 13.9992 23.3944 13.983 23.3865C13.9669 23.3787 13.9527 23.3673 13.9416 23.3533C13.9328 23.341 13.9266 23.3272 13.9233 23.3126C13.9199 23.2979 13.9195 23.2828 13.922 23.268C13.9246 23.2532 13.93 23.2391 13.9381 23.2264C13.9461 23.2137 13.9566 23.2027 13.9688 23.1941C14.3583 22.9088 14.731 22.6014 15.0851 22.2734C15.0958 22.2629 15.1085 22.2548 15.1224 22.2494C15.1364 22.2441 15.1512 22.2416 15.1662 22.2423C15.1811 22.2429 15.1957 22.2466 15.2091 22.2531C15.2226 22.2597 15.2345 22.2689 15.2443 22.2802C15.2546 22.2909 15.2626 22.3035 15.268 22.3173C15.2733 22.3311 15.2759 22.3459 15.2754 22.3607C15.275 22.3755 15.2716 22.3901 15.2655 22.4036C15.2594 22.4171 15.2506 22.4293 15.2397 22.4393C14.8795 22.7752 14.4991 23.0887 14.1007 23.3783C14.0813 23.3915 14.0583 23.3986 14.0348 23.3987ZM16.1764 21.4208C16.1486 21.4205 16.1219 21.4099 16.1014 21.3913C16.0789 21.3715 16.0652 21.3438 16.0631 21.314C16.0609 21.2842 16.0706 21.2548 16.09 21.2321C16.4015 20.8752 16.7038 20.491 16.988 20.0908C17.0057 20.067 17.032 20.0511 17.0613 20.0464C17.0907 20.0417 17.1206 20.0487 17.1449 20.0658C17.1571 20.0742 17.1675 20.085 17.1755 20.0975C17.1835 20.11 17.189 20.1239 17.1915 20.1385C17.194 20.1531 17.1936 20.1681 17.1903 20.1826C17.187 20.197 17.1808 20.2107 17.1722 20.2227C16.8834 20.6274 16.5788 21.0184 16.2628 21.3799C16.2523 21.3927 16.2391 21.403 16.2242 21.4101C16.2092 21.4172 16.1929 21.4208 16.1764 21.4208ZM17.8724 19.0428C17.8526 19.0426 17.8332 19.038 17.8155 19.0291C17.7896 19.0135 17.7708 18.9884 17.7631 18.959C17.7555 18.9297 17.7596 18.8986 17.7746 18.8723C18.0156 18.463 18.2452 18.0334 18.4589 17.5923C18.4646 17.5778 18.4733 17.5646 18.4843 17.5535C18.4953 17.5425 18.5085 17.5338 18.5231 17.5281C18.5376 17.5224 18.5531 17.5197 18.5687 17.5203C18.5843 17.5208 18.5997 17.5246 18.6137 17.5313C18.6278 17.538 18.6404 17.5476 18.6506 17.5594C18.6608 17.5712 18.6685 17.5849 18.6732 17.5998C18.6779 17.6147 18.6794 17.6304 18.6778 17.646C18.6761 17.6615 18.6713 17.6765 18.6635 17.6901C18.4476 18.1379 18.2134 18.5744 17.9701 18.9882C17.9601 19.0051 17.9458 19.0191 17.9286 19.0287C17.9114 19.0382 17.892 19.0431 17.8724 19.0428ZM19.1523 16.4192C19.1376 16.4184 19.123 16.4153 19.1091 16.4101C19.0953 16.4046 19.0826 16.3964 19.072 16.386C19.0613 16.3755 19.0529 16.363 19.0472 16.3492C19.0414 16.3354 19.0385 16.3206 19.0386 16.3057C19.0387 16.2908 19.0418 16.276 19.0478 16.2623L19.191 15.894C19.3138 15.5689 19.432 15.2347 19.5434 14.896C19.5532 14.8672 19.574 14.8434 19.6012 14.8298C19.6284 14.8162 19.6599 14.8138 19.6889 14.8232C19.7171 14.8331 19.7403 14.8536 19.7535 14.8804C19.7667 14.9072 19.7688 14.9381 19.7593 14.9665C19.6479 15.3075 19.5275 15.6485 19.4024 15.9736C19.3569 16.0986 19.3069 16.2237 19.2569 16.3465C19.2493 16.368 19.2351 16.3866 19.2163 16.3997C19.1976 16.4127 19.1752 16.4196 19.1523 16.4192ZM20.0685 13.6433H20.039C20.0101 13.6353 19.9856 13.6163 19.9707 13.5903C19.9558 13.5644 19.9517 13.5336 19.9594 13.5046C20.0822 13.0454 20.1959 12.5702 20.2982 12.0883C20.3014 12.0736 20.3075 12.0597 20.3161 12.0474C20.3247 12.0351 20.3357 12.0247 20.3484 12.0166C20.361 12.0086 20.3752 12.0032 20.39 12.0006C20.4048 11.9981 20.4199 11.9985 20.4346 12.0019C20.4491 12.0048 20.463 12.0107 20.4752 12.0191C20.4875 12.0275 20.498 12.0382 20.506 12.0507C20.5141 12.0632 20.5196 12.0772 20.5221 12.0919C20.5247 12.1065 20.5243 12.1215 20.521 12.136C20.4164 12.6203 20.3027 13.1 20.1777 13.5615C20.1711 13.5853 20.1568 13.6062 20.1371 13.621C20.1173 13.6359 20.0932 13.6437 20.0685 13.6433ZM20.6824 10.7879H20.6642C20.6493 10.786 20.635 10.781 20.6222 10.7734C20.6093 10.7657 20.5981 10.7555 20.5894 10.7433C20.5807 10.7312 20.5745 10.7173 20.5713 10.7027C20.5682 10.6881 20.568 10.6729 20.571 10.6583C20.6483 10.1877 20.7187 9.70341 20.7801 9.21689C20.7836 9.18709 20.7986 9.15986 20.822 9.14112C20.8455 9.12238 20.8753 9.11366 20.9052 9.11686C20.9201 9.11855 20.9346 9.12319 20.9478 9.13053C20.9609 9.13786 20.9725 9.14774 20.9818 9.15959C20.9911 9.17143 20.998 9.18501 21.002 9.19953C21.006 9.21405 21.0071 9.22923 21.0052 9.24417C20.9438 9.73524 20.8733 10.2218 20.7938 10.6946C20.7894 10.7209 20.7758 10.7448 20.7554 10.7619C20.7349 10.779 20.709 10.7882 20.6824 10.7879Z" fill="#CF4E32"/>
</svg>
