<svg width="32" height="32" viewBox="0 0 32 32" fill="none" xmlns="http://www.w3.org/2000/svg">
<g clip-path="url(#clip0_1052_48)">
<path d="M13.3053 30.9898H2.52631C1.6905 30.9898 1.0105 30.3098 1.0105 29.474C1.0105 28.6382 1.69044 27.9582 2.52631 27.9582H5.91825C6.22594 27.9582 6.51494 27.8381 6.73206 27.6202C6.9535 27.398 7.07487 27.1012 7.07375 26.7863V26.7792C7.07375 25.9435 7.75369 25.2634 8.58956 25.2634H10.6106C10.8897 25.2634 11.1159 25.0373 11.1159 24.7582C11.1159 24.4791 10.8896 24.2529 10.6106 24.2529H8.58956C7.1965 24.2529 6.06325 25.3862 6.06325 26.7792V26.7881C6.06344 26.8503 6.03394 26.8892 6.01631 26.907C5.98938 26.934 5.95644 26.9477 5.91831 26.9477H2.52631C1.13325 26.9477 0 28.0809 0 29.474C0 30.8671 1.13325 32.0003 2.52631 32.0003H13.3053C13.5843 32.0003 13.8105 31.7742 13.8105 31.4951C13.8105 31.2159 13.5843 30.9898 13.3053 30.9898Z" fill="#CF4E32"/>
<path d="M30.1474 7.41002H27.8441C27.6546 7.01208 27.2484 6.73633 26.779 6.73633H23.4106C22.9412 6.73633 22.535 7.01208 22.3454 7.41002H20.0421C19.7631 7.41002 19.5369 7.6362 19.5369 7.91527C19.5369 8.19433 19.7631 8.42052 20.0421 8.42052H22.2316V8.55827C22.2316 9.53408 22.9499 10.34 23.9026 10.4327C24.02 10.4441 24.1371 10.4445 24.2527 10.4339V12.5987C24.2527 13.6193 25.037 14.4468 26.0383 14.4824C26.5452 14.4994 27.0267 14.3164 27.3918 13.9641C27.7569 13.6118 27.958 13.1383 27.958 12.631V12.4626H29.5963L28.7068 22.6926C28.6826 22.9705 28.8884 23.2156 29.1664 23.2397C29.1812 23.241 29.1961 23.2416 29.2107 23.2416C29.47 23.2416 29.6907 23.0431 29.7135 22.78L30.6159 12.4025C31.4113 12.1946 32.0001 11.4698 32.0001 10.61V9.26264C32.0001 8.24114 31.169 7.41002 30.1474 7.41002ZM26.9474 7.91533V12.6312C26.9474 12.8618 26.8559 13.077 26.6899 13.2373C26.5241 13.3973 26.3057 13.4794 26.0741 13.4728C25.6269 13.4568 25.2631 13.0648 25.2631 12.5989V9.7547C25.2631 9.57402 25.1667 9.4072 25.0102 9.31695C24.9321 9.27195 24.845 9.24945 24.7579 9.24945C24.6704 9.24945 24.583 9.27214 24.5047 9.31752C24.3512 9.40639 24.1768 9.44439 24.0004 9.42714C23.5752 9.3857 23.2421 9.00414 23.2421 8.55845V7.91539C23.2421 7.82252 23.3177 7.74695 23.4106 7.74695H26.779C26.8718 7.74695 26.9474 7.82245 26.9474 7.91539L26.9474 7.91533ZM30.9896 10.61C30.9896 11.0731 30.6139 11.45 30.1513 11.4521C30.1481 11.4521 30.1449 11.4521 30.1416 11.4521H27.958V8.42058H30.1475C30.6119 8.42058 30.9896 8.79833 30.9896 9.2627V10.61H30.9896Z" fill="#CF4E32"/>
<path d="M22.7369 12.4636C23.0159 12.4636 23.2421 12.2375 23.2421 11.9584C23.2421 11.6792 23.0159 11.4531 22.7369 11.4531H20.0421C19.7631 11.4531 19.5369 11.6792 19.5369 11.9584C19.5369 12.2375 19.7631 12.4636 20.0421 12.4636H22.7369Z" fill="#CF4E32"/>
<path d="M31.1958 25.8302C30.1719 24.0819 28.2734 22.9053 26.1052 22.9053H22.0631C21.5987 22.9053 21.2209 22.5275 21.2209 22.0631V21.3894C21.2209 21.2086 21.1944 21.0293 21.1431 20.8575C21.5988 20.5196 21.8946 19.9779 21.8946 19.3684C21.8946 18.3469 21.0636 17.5158 20.042 17.5158H19.1999V17.3473C19.1999 16.8779 18.9243 16.4717 18.5263 16.2821V1.85263C18.5263 0.831125 17.6952 0 16.6736 0C15.6521 0 14.821 0.831125 14.821 1.85263V7.4105H8.58944C7.56788 7.4105 6.73682 8.24163 6.73682 9.26313V10.6105C6.73682 11.4703 7.32557 12.1951 8.12094 12.4032L9.02332 22.7806C9.0475 23.0588 9.29225 23.2656 9.5705 23.2402C9.8485 23.2161 10.0543 22.9711 10.0301 22.6931L9.14057 12.4632H14.821V16.2822C14.423 16.4718 14.1473 16.878 14.1473 17.3474V17.5159H13.3052C12.2836 17.5159 11.4526 18.347 11.4526 19.3685C11.4526 19.9781 11.7484 20.5197 12.2041 20.8576C12.1528 21.0294 12.1263 21.2086 12.1263 21.3896V26.1054C12.1263 29.3558 14.7706 32.0001 18.021 32.0001H30.821C31.4711 32.0001 31.9999 31.4712 31.9999 30.8212V28.8C31.9999 27.7362 31.7166 26.7374 31.2217 25.8749C31.2138 25.8595 31.2051 25.8446 31.1958 25.8302ZM15.8315 1.85263C15.8315 1.38825 16.2093 1.0105 16.6736 1.0105C17.138 1.0105 17.5158 1.38825 17.5158 1.85263V16.1684H15.8316V1.85263H15.8315ZM8.59525 11.4526C8.592 11.4527 8.58869 11.4527 8.58557 11.4526C8.123 11.4506 7.74732 11.0736 7.74732 10.6105V9.26313C7.74732 8.79875 8.12507 8.421 8.58944 8.421H14.821V11.4526H8.59525V11.4526ZM30.9894 30.8211C30.9894 30.9139 30.9139 30.9895 30.821 30.9895H23.4104C20.7173 30.9895 18.5263 28.7985 18.5263 26.1053V22.7369C18.5263 22.4578 18.3 22.2316 18.021 22.2316C17.7419 22.2316 17.5158 22.4578 17.5158 22.7369V26.1053C17.5158 28.1064 18.5181 29.8779 20.047 30.9439C17.6692 30.6169 15.8316 28.5716 15.8316 26.1053V22.7369C15.8316 22.4578 15.6053 22.2316 15.3263 22.2316C15.0473 22.2316 14.8211 22.4578 14.8211 22.7369V26.1053C14.8211 28.1064 15.8234 29.8779 17.3523 30.9441C14.9745 30.6171 13.1369 28.5718 13.1369 26.1054V21.3896C13.1369 21.3308 13.1431 21.2722 13.1551 21.2151C13.2046 21.2192 13.2548 21.2212 13.3053 21.2212H17.3474C17.6265 21.2212 17.8527 20.9951 17.8527 20.7159C17.8527 20.4368 17.6264 20.2107 17.3474 20.2107H13.3053C12.8409 20.2107 12.4632 19.8329 12.4632 19.3686C12.4632 18.9042 12.8409 18.5264 13.3053 18.5264H14.6527C14.9318 18.5264 15.1579 18.3003 15.1579 18.0212V17.3475C15.1579 17.2546 15.2335 17.1791 15.3264 17.1791H18.0211C18.1139 17.1791 18.1896 17.2546 18.1896 17.3475V18.0212C18.1896 18.3003 18.4158 18.5264 18.6948 18.5264H20.0422C20.5066 18.5264 20.8843 18.9042 20.8843 19.3686C20.8843 19.8329 20.5066 20.2107 20.0422 20.2107H19.3685C19.0894 20.2107 18.8633 20.4368 18.8633 20.7159C18.8633 20.9951 19.0895 21.2212 19.3685 21.2212H20.0422C20.0927 21.2212 20.1428 21.2192 20.1924 21.2151C20.2045 21.2722 20.2106 21.3308 20.2106 21.3896V22.0633C20.2106 23.0848 21.0417 23.9159 22.0633 23.9159H26.1054C27.5756 23.9159 28.8962 24.569 29.7924 25.6001H23.4104C22.5819 25.6001 21.7638 25.3891 21.0443 24.9898C20.8003 24.8545 20.4926 24.9424 20.3573 25.1864C20.2219 25.4304 20.3099 25.7379 20.5539 25.8733C21.4231 26.3556 22.4108 26.6105 23.4104 26.6105H30.4707C30.7305 27.1265 30.9016 27.6947 30.9635 28.2947H23.4105C22.5821 28.2947 21.7639 28.0837 21.0445 27.6844C20.8004 27.5489 20.4929 27.6372 20.3576 27.8811C20.2221 28.1251 20.3102 28.4327 20.5542 28.568C21.4232 29.0503 22.4109 29.3051 23.4104 29.3051H30.9894V30.8211H30.9894Z" fill="#CF4E32"/>
</g>
<defs>
<clipPath id="clip0_1052_48">
<rect width="32" height="32" fill="white"/>
</clipPath>
</defs>
</svg>
