<svg width="26" height="26" viewBox="0 0 26 26" fill="none" xmlns="http://www.w3.org/2000/svg">
<path d="M10.9789 24.2421H2.89473C2.26788 24.2421 1.75787 23.7321 1.75787 23.1053C1.75787 22.4784 2.26783 21.9684 2.89473 21.9684H5.43869C5.66945 21.9684 5.8862 21.8783 6.04905 21.7149C6.21512 21.5483 6.30616 21.3257 6.30531 21.0895V21.0842C6.30531 20.4574 6.81527 19.9473 7.44217 19.9473H8.95797C9.16727 19.9473 9.33691 19.7777 9.33691 19.5684C9.33691 19.359 9.16722 19.1895 8.95797 19.1895H7.44217C6.39737 19.1895 5.54744 20.0394 5.54744 21.0842V21.0908C5.54758 21.1375 5.52545 21.1667 5.51223 21.18C5.49203 21.2002 5.46733 21.2105 5.43873 21.2105H2.89473C1.84994 21.2105 1 22.0605 1 23.1053C1 24.15 1.84994 25 2.89473 25H10.9789C11.1882 25 11.3579 24.8304 11.3579 24.621C11.3579 24.4117 11.1882 24.2421 10.9789 24.2421Z" fill="#CF4E32"/>
<path d="M23.6108 6.558H21.8833C21.7411 6.25955 21.4365 6.05273 21.0844 6.05273H18.5581C18.2061 6.05273 17.9014 6.25955 17.7593 6.558H16.0318C15.8225 6.558 15.6528 6.72764 15.6528 6.93694C15.6528 7.14623 15.8225 7.31587 16.0318 7.31587H17.6739V7.41919C17.6739 8.15105 18.2126 8.75545 18.9271 8.82502C19.0152 8.83359 19.103 8.83387 19.1897 8.82591V10.4495C19.1897 11.215 19.7779 11.8356 20.5289 11.8623C20.9091 11.875 21.2702 11.7378 21.544 11.4736C21.8178 11.2094 21.9687 10.8542 21.9687 10.4738V10.3474H23.1974L22.5303 18.0199C22.5121 18.2284 22.6665 18.4122 22.875 18.4303C22.8861 18.4312 22.8972 18.4317 22.9082 18.4317C23.1027 18.4317 23.2682 18.2828 23.2853 18.0855L23.9621 10.3024C24.5587 10.1465 25.0002 9.60286 25.0002 8.958V7.94747C25.0002 7.18134 24.3769 6.558 23.6108 6.558ZM21.2107 6.93698V10.4739C21.2107 10.6469 21.1421 10.8082 21.0176 10.9284C20.8932 11.0485 20.7294 11.11 20.5557 11.1051C20.2204 11.0931 19.9475 10.7991 19.9475 10.4497V8.31652C19.9475 8.181 19.8752 8.05589 19.7579 7.9882C19.6993 7.95445 19.6339 7.93758 19.5686 7.93758C19.503 7.93758 19.4374 7.95459 19.3787 7.98862C19.2636 8.05528 19.1328 8.08378 19.0005 8.07084C18.6816 8.03977 18.4318 7.75359 18.4318 7.41933V6.93703C18.4318 6.86737 18.4884 6.8107 18.5581 6.8107H21.0844C21.154 6.8107 21.2108 6.86733 21.2108 6.93703L21.2107 6.93698ZM24.2423 8.958C24.2423 9.3053 23.9606 9.588 23.6137 9.58959C23.6112 9.58959 23.6089 9.58959 23.6064 9.58959H21.9687V7.31592H23.6108C23.9591 7.31592 24.2424 7.59923 24.2424 7.94752V8.958H24.2423Z" fill="#CF4E32"/>
<path d="M18.0528 10.3477C18.2621 10.3477 18.4318 10.1781 18.4318 9.96878C18.4318 9.75944 18.2621 9.58984 18.0528 9.58984H16.0318C15.8225 9.58984 15.6528 9.75944 15.6528 9.96878C15.6528 10.1781 15.8225 10.3477 16.0318 10.3477H18.0528Z" fill="#CF4E32"/>
<path d="M24.3967 20.3726C23.6288 19.0615 22.2049 18.1789 20.5788 18.1789H17.5472C17.1989 18.1789 16.9156 17.8956 16.9156 17.5473V17.0421C16.9156 16.9064 16.8957 16.772 16.8572 16.6431C17.1989 16.3897 17.4208 15.9835 17.4208 15.5263C17.4208 14.7602 16.7976 14.1368 16.0314 14.1368H15.3998V14.0105C15.3998 13.6584 15.1931 13.3538 14.8946 13.2116V2.38947C14.8946 1.62334 14.2713 1 13.5051 1C12.7389 1 12.1156 1.62334 12.1156 2.38947V6.55788H7.44196C6.67579 6.55788 6.05249 7.18122 6.05249 7.94734V8.95788C6.05249 9.60269 6.49405 10.1463 7.09058 10.3024L7.76736 18.0855C7.78551 18.2941 7.96907 18.4492 8.17776 18.4301C8.38626 18.412 8.54057 18.2283 8.52243 18.0198L7.8553 10.3474H12.1156V13.2117C11.8171 13.3539 11.6104 13.6585 11.6104 14.0106V14.1369H10.9788C10.2126 14.1369 9.5893 14.7602 9.5893 15.5264C9.5893 15.9835 9.81121 16.3898 10.153 16.6432C10.1144 16.772 10.0946 16.9065 10.0946 17.0422V20.579C10.0946 23.0168 12.0778 25.0001 14.5156 25.0001H24.1156C24.6032 25.0001 24.9998 24.6034 24.9998 24.1159V22.6C24.9998 21.8022 24.7873 21.053 24.4161 20.4062C24.4102 20.3946 24.4037 20.3835 24.3967 20.3726ZM12.8735 2.38947C12.8735 2.04119 13.1568 1.75787 13.5051 1.75787C13.8534 1.75787 14.1367 2.04119 14.1367 2.38947V13.1263H12.8736V2.38947H12.8735ZM7.44632 9.58947C7.44388 9.58952 7.4414 9.58952 7.43905 9.58947C7.09213 9.58792 6.81037 9.30522 6.81037 8.95788V7.94734C6.81037 7.59906 7.09368 7.31575 7.44196 7.31575H12.1156V9.58942H7.44632V9.58947ZM24.242 24.1158C24.242 24.1855 24.1853 24.2421 24.1156 24.2421H18.5577C16.5378 24.2421 14.8946 22.5989 14.8946 20.579V18.0527C14.8946 17.8433 14.7249 17.6737 14.5156 17.6737C14.3063 17.6737 14.1367 17.8433 14.1367 18.0527V20.579C14.1367 22.0798 14.8884 23.4084 16.0351 24.208C14.2518 23.9627 12.8736 22.4287 12.8736 20.579V18.0527C12.8736 17.8433 12.7039 17.6737 12.4946 17.6737C12.2853 17.6737 12.1157 17.8433 12.1157 18.0527V20.579C12.1157 22.0798 12.8674 23.4084 14.0141 24.208C12.2308 23.9628 10.8525 22.4288 10.8525 20.5791V17.0422C10.8525 16.9981 10.8572 16.9542 10.8662 16.9113C10.9033 16.9144 10.9409 16.9159 10.9789 16.9159H14.0105C14.2198 16.9159 14.3894 16.7463 14.3894 16.537C14.3894 16.3276 14.2197 16.158 14.0105 16.158H10.9789C10.6306 16.158 10.3473 15.8747 10.3473 15.5264C10.3473 15.1781 10.6306 14.8948 10.9789 14.8948H11.9894C12.1987 14.8948 12.3683 14.7252 12.3683 14.5159V14.0106C12.3683 13.941 12.425 13.8843 12.4947 13.8843H14.5157C14.5853 13.8843 14.6421 13.9409 14.6421 14.0106V14.5159C14.6421 14.7252 14.8117 14.8948 15.021 14.8948H16.0315C16.3798 14.8948 16.6631 15.1781 16.6631 15.5264C16.6631 15.8747 16.3798 16.158 16.0315 16.158H15.5263C15.317 16.158 15.1473 16.3276 15.1473 16.537C15.1473 16.7463 15.317 16.9159 15.5263 16.9159H16.0315C16.0694 16.9159 16.107 16.9144 16.1442 16.9113C16.1533 16.9542 16.1578 16.9981 16.1578 17.0422V17.5475C16.1578 18.3136 16.7811 18.937 17.5473 18.937H20.5789C21.6816 18.937 22.672 19.4267 23.3442 20.2001H18.5577C17.9363 20.2001 17.3227 20.0418 16.7831 19.7424C16.6001 19.6409 16.3693 19.7068 16.2679 19.8898C16.1663 20.0728 16.2323 20.3035 16.4153 20.405C17.0672 20.7667 17.808 20.9579 18.5577 20.9579H23.8529C24.0478 21.3449 24.1761 21.7711 24.2225 22.221H18.5578C17.9364 22.221 17.3228 22.0628 16.7833 21.7633C16.6002 21.6617 16.3696 21.7279 16.2681 21.9108C16.1665 22.0938 16.2325 22.3245 16.4155 22.426C17.0673 22.7877 17.808 22.9788 18.5577 22.9788H24.2419V24.1158H24.242Z" fill="#CF4E32"/>
</svg>
