<svg width="31" height="26" viewBox="0 0 31 26" fill="none" xmlns="http://www.w3.org/2000/svg">
<path d="M29.3054 24.1784C29.3054 24.8463 28.7971 25.3927 28.1758 25.3927H3.32397C2.70267 25.3927 2.19434 24.8463 2.19434 24.1784V3.53558C2.19434 2.86772 2.70267 2.32129 3.32397 2.32129H28.1758C28.7971 2.32129 29.3054 2.86772 29.3054 3.53558V24.1784Z" fill="white"/>
<path d="M28.1759 25.9996H3.32408C2.3639 25.9996 1.62964 25.2103 1.62964 24.1782V3.5353C1.62964 2.50315 2.3639 1.71387 3.32408 1.71387H28.1759C29.1361 1.71387 29.8704 2.50315 29.8704 3.5353V24.1782C29.8704 25.2103 29.0796 25.9996 28.1759 25.9996ZM3.32408 2.92815C2.98519 2.92815 2.75927 3.17101 2.75927 3.5353V24.1782C2.75927 24.5424 2.98519 24.7853 3.32408 24.7853H28.1759C28.5148 24.7853 28.7408 24.5424 28.7408 24.1782V3.5353C28.7408 3.17101 28.5148 2.92815 28.1759 2.92815H3.32408Z" fill="#CF4E32"/>
<path d="M30.4351 7.17885C30.4351 7.84671 29.9267 8.39314 29.3054 8.39314H2.19433C1.57303 8.39314 1.0647 7.84671 1.0647 7.17885V2.32171C1.0647 1.65385 1.57303 1.10742 2.19433 1.10742H29.3054C29.9267 1.10742 30.4351 1.65385 30.4351 2.32171V7.17885Z" fill="white"/>
<path d="M29.3056 9H2.19444C1.23426 9 0.5 8.21072 0.5 7.17857V2.32143C0.5 1.28929 1.23426 0.5 2.19444 0.5H29.3056C30.2657 0.5 31 1.28929 31 2.32143V7.17857C31 8.21072 30.2093 9 29.3056 9ZM2.19444 1.71429C1.85556 1.71429 1.62963 1.95714 1.62963 2.32143V7.17857C1.62963 7.54286 1.85556 7.78571 2.19444 7.78571H29.3056C29.6444 7.78571 29.8704 7.54286 29.8704 7.17857V2.32143C29.8704 1.95714 29.6444 1.71429 29.3056 1.71429H2.19444Z" fill="#CF4E32"/>
<path d="M20.8333 12.0356C20.8333 12.7034 20.325 13.2499 19.7037 13.2499H12.3611C11.7398 13.2499 11.2314 12.7034 11.2314 12.0356C11.2314 11.3677 11.7398 10.8213 12.3611 10.8213H19.7037C20.325 10.8213 20.8333 11.3677 20.8333 12.0356Z" fill="white"/>
<path d="M19.7038 13.8567H12.3612C11.401 13.8567 10.6667 13.0674 10.6667 12.0353C10.6667 11.0032 11.401 10.2139 12.3612 10.2139H19.7038C20.664 10.2139 21.3982 11.0032 21.3982 12.0353C21.3982 13.0674 20.6075 13.8567 19.7038 13.8567ZM12.3612 11.4282C12.0223 11.4282 11.7964 11.671 11.7964 12.0353C11.7964 12.3996 12.0223 12.6424 12.3612 12.6424H19.7038C20.0427 12.6424 20.2686 12.3996 20.2686 12.0353C20.2686 11.671 20.0427 11.4282 19.7038 11.4282H12.3612Z" fill="#CF4E32"/>
</svg>
