<svg width="30" height="30" viewBox="0 0 30 30" fill="none" xmlns="http://www.w3.org/2000/svg">
<g clip-path="url(#clip0_1121_547)">
<path d="M20.5 0C19.4 0 18.5 0.9 18.5 1.99998V23.7355C12.9635 26.6616 8.44705 23.7478 8.25 23.6C8.1 23.45 7.90002 23.45 7.75002 23.55C7.60002 23.65 7.5 23.8 7.5 24C7.5 27.3 10.2 30 13.5 30C16.8 30 19.5 27.3 19.5 24.05C19.5 24.0431 19.4989 24.0367 19.4987 24.0299C19.4992 24.02 19.5 24.0102 19.5 23.9999V1.99998C19.5 1.44996 19.95 0.999961 20.5 0.999961C21.05 0.999961 21.5 1.44996 21.5 1.99998C21.5 2.29998 21.7 2.49996 22 2.49996C22.3 2.49996 22.4999 2.29998 22.4999 1.99998C22.4999 0.9 21.5999 0 20.5 0ZM13.4999 29C11.05 29 8.99994 27.25 8.59992 24.9C10.1999 25.7 13.9999 26.95 18.4499 24.85C17.9999 27.2 15.9499 29 13.4999 29Z" fill="#CF4E32" stroke="#CF4E32" stroke-width="0.3"/>
<path d="M13.2498 22.9498C13.3498 22.9998 13.3998 22.9998 13.4998 22.9998C13.6998 22.9998 13.8498 22.8998 13.8998 22.7498C14.0498 22.5498 13.9498 22.2498 13.6998 22.0998C13.2498 21.8998 12.9498 21.5498 12.9498 21.1998C12.9498 20.7998 13.1999 20.3498 13.7498 19.9498C14.5498 19.3998 14.9998 18.6498 14.9498 17.8498C14.8998 17.0998 14.4498 16.4998 13.6998 16.0998C13.4999 15.9498 13.1999 16.0498 13.0499 16.2998C12.8999 16.4997 12.9999 16.7997 13.2498 16.9497C13.6998 17.1497 13.9998 17.4998 13.9998 17.8497C13.9998 18.2498 13.7498 18.6997 13.1999 19.0997C12.3999 19.6497 11.9499 20.3997 11.9999 21.1997C12.0498 21.9498 12.4998 22.5498 13.2498 22.9498Z" fill="#CF4E32" stroke="#CF4E32" stroke-width="0.3"/>
<path d="M9.70002 22.9008C9.80004 22.9508 9.9 23.0008 10 23.0008C10.15 23.0008 10.3 22.9508 10.4 22.8508C10.6 22.6508 10.55 22.3008 10.3501 22.1508C10.1501 21.9508 10.0501 21.7008 10.0501 21.4507C10.1 21.2508 10.2001 21.0507 10.3501 20.9508C10.7501 20.6508 11 20.2008 11.0501 19.6507C11.0501 19.1007 10.8001 18.5007 10.3501 18.1508C10.1501 17.9508 9.80004 18.0008 9.65004 18.2007C9.45006 18.4007 9.50004 18.7508 9.70002 18.9008C9.9 19.1007 10 19.3507 10 19.6008C9.95004 19.8007 9.85002 20.0008 9.70002 20.1008C9.3 20.4008 9.05004 20.8507 9 21.4008C9 21.9507 9.25002 22.5507 9.70002 22.9008Z" fill="#CF4E32" stroke="#CF4E32" stroke-width="0.3"/>
<path d="M16.2 22.9008C16.3 22.9508 16.4 23.0008 16.5 23.0008C16.65 23.0008 16.8 22.9508 16.9 22.8508C17.1 22.6508 17.05 22.3008 16.8501 22.1508C16.6501 21.9508 16.5501 21.7008 16.5501 21.4507C16.6 21.2508 16.7001 21.0507 16.8501 20.9508C17.2501 20.6508 17.5 20.2008 17.5501 19.6507C17.5501 19.1007 17.3001 18.5007 16.8501 18.1508C16.6501 17.9508 16.3 18.0008 16.15 18.2007C15.9501 18.4007 16 18.7508 16.2 18.9008C16.4 19.1007 16.5 19.3507 16.5 19.6008C16.45 19.8007 16.35 20.0008 16.2 20.1008C15.8 20.4008 15.55 20.8507 15.5 21.4008C15.5 21.9507 15.75 22.5507 16.2 22.9008Z" fill="#CF4E32" stroke="#CF4E32" stroke-width="0.3"/>
</g>
<defs>
<clipPath id="clip0_1121_547">
<rect width="30" height="30" fill="white"/>
</clipPath>
</defs>
</svg>
