<svg width="30" height="30" viewBox="0 0 30 30" fill="none" xmlns="http://www.w3.org/2000/svg">
<g clip-path="url(#clip0_1121_547)">
<path d="M20.5 0C19.4 0 18.5 0.9 18.5 1.99998V23.7355C12.9635 26.6616 8.44705 23.7478 8.25 23.6C8.1 23.45 7.90002 23.45 7.75002 23.55C7.60002 23.65 7.5 23.8 7.5 24C7.5 27.3 10.2 30 13.5 30C16.8 30 19.5 27.3 19.5 24.05C19.5 24.0431 19.4989 24.0367 19.4987 24.0299C19.4992 24.02 19.5 24.0102 19.5 23.9999V1.99998C19.5 1.44996 19.95 0.999961 20.5 0.999961C21.05 0.999961 21.5 1.44996 21.5 1.99998C21.5 2.29998 21.7 2.49996 22 2.49996C22.3 2.49996 22.4999 2.29998 22.4999 1.99998C22.4999 0.9 21.5999 0 20.5 0ZM13.4999 29C11.05 29 8.99994 27.25 8.59992 24.9C10.1999 25.7 13.9999 26.95 18.4499 24.85C17.9999 27.2 15.9499 29 13.4999 29Z" fill="#CF4E32" stroke="#CF4E32" strokeWidth="0.390625"/>
<path d="M13.2499 22.9498C13.3499 22.9998 13.3999 22.9998 13.4999 22.9998C13.6999 22.9998 13.8499 22.8998 13.8999 22.7498C14.0499 22.5498 13.9499 22.2498 13.7 22.0998C13.25 21.8998 12.95 21.5498 12.95 21.1998C12.95 20.7997 13.2 20.3498 13.7499 19.9498C14.5499 19.3998 14.9999 18.6498 14.9499 17.8498C14.9 17.0998 14.45 16.4998 13.7 16.0998C13.5 15.9498 13.2 16.0498 13.05 16.2998C12.9 16.4997 13 16.7997 13.25 16.9497C13.7 17.1497 14 17.4998 14 17.8497C14 18.2498 13.7499 18.6997 13.2 19.0997C12.4 19.6497 11.95 20.3997 12 21.1997C12.0499 21.9498 12.4999 22.5498 13.2499 22.9498Z" fill="#CF4E32" stroke="#CF4E32" strokeWidth="0.390625"/>
<path d="M9.70002 22.9008C9.80004 22.9508 9.9 23.0008 10 23.0008C10.15 23.0008 10.3 22.9508 10.4 22.8508C10.6 22.6508 10.55 22.3008 10.3501 22.1508C10.1501 21.9508 10.0501 21.7008 10.0501 21.4507C10.1 21.2508 10.2001 21.0507 10.3501 20.9508C10.7501 20.6508 11 20.2008 11.0501 19.6507C11.0501 19.1007 10.8001 18.5007 10.3501 18.1508C10.1501 17.9508 9.80004 18.0008 9.65004 18.2007C9.45006 18.4007 9.50004 18.7508 9.70002 18.9008C9.9 19.1007 10 19.3507 10 19.6008C9.95004 19.8007 9.85002 20.0008 9.70002 20.1008C9.3 20.4008 9.05004 20.8507 9 21.4008C9 21.9507 9.25002 22.5507 9.70002 22.9008Z" fill="#CF4E32" stroke="#CF4E32" strokeWidth="0.390625"/>
<path d="M16.1999 22.9008C16.2999 22.9508 16.3999 23.0008 16.4999 23.0008C16.6499 23.0008 16.7999 22.9508 16.8999 22.8508C17.0999 22.6508 17.0499 22.3008 16.8499 22.1508C16.65 21.9508 16.5499 21.7008 16.5499 21.4507C16.5999 21.2508 16.6999 21.0507 16.8499 20.9508C17.25 20.6508 17.4999 20.2008 17.55 19.6507C17.55 19.1007 17.2999 18.5007 16.8499 18.1508C16.65 17.9508 16.2999 18.0008 16.1499 18.2007C15.9499 18.4007 15.9999 18.7508 16.1999 18.9008C16.3999 19.1007 16.4999 19.3507 16.4999 19.6008C16.4499 19.8007 16.3499 20.0008 16.1999 20.1008C15.7999 20.4008 15.5499 20.8507 15.4999 21.4008C15.4999 21.9507 15.7499 22.5507 16.1999 22.9008Z" fill="#CF4E32" stroke="#CF4E32" strokeWidth="0.390625"/>
</g>
<defs>
<clipPath id="clip0_1121_547">
<rect width="30" height="30" fill="white"/>
</clipPath>
</defs>
</svg>
