<svg width="35" height="35" viewBox="0 0 35 35" fill="none" xmlns="http://www.w3.org/2000/svg">
<path d="M19.0476 31.7183C19.459 20.5955 14.9807 16.8448 11.4456 14.5167C12.3078 10.2918 15.403 8.00879 15.403 8.00879" stroke="#CF4E32" stroke-linecap="round" stroke-linejoin="round"/>
<path d="M18.3003 7.53317C18.3003 7.53317 16.8615 9.86118 15.5681 9.90967C15.5681 9.90967 15.1478 5.65775 15.3095 4.80091C16.3604 3.57226 18.6237 3.28125 19.917 3.28125C21.2103 3.28125 22.245 4.15428 22.4229 6.06193C23.6515 6.07811 24.8156 6.64395 25.0581 7.17741C24.9772 8.53541 23.8779 9.23059 22.8109 9.63477C21.7438 10.0389 20.8708 10.7018 20.8708 11.3485C20.8708 11.9952 21.1619 14.4363 22.9725 14.7758C24.7832 15.1153 27.6447 16.0045 27.6447 18.9307C27.6447 21.8569 26.6585 21.3719 26.6585 24.2388C26.6585 27.1057 26.9603 26.4591 26.9603 27.9248C26.9603 29.3906 26.4861 30.684 26.0119 31.5462" stroke="#CF4E32" stroke-linecap="round" stroke-linejoin="round"/>
<path d="M23.5763 31.288C23.5763 31.288 24.1152 28.7876 24.1152 27.602C24.1152 26.4165 23.1078 24.8755 22.0459 23.5387C21.1297 22.3855 18.74 23.3902 18.827 26.385" stroke="#CF4E32" stroke-linecap="round" stroke-linejoin="round"/>
<path d="M26.3398 16.1448C28.7494 16.3923 30.4308 14.2799 29.0081 11.7363" stroke="#CF4E32" stroke-linecap="round" stroke-linejoin="round"/>
<path d="M11.4455 14.5176C11.5964 15.1858 11.7203 16.5223 11.7203 16.5223C10.8954 16.5223 10.1463 17.2207 9.67744 17.5279C8.72077 18.1547 7.71904 18.3653 7.75404 19.497C8.09894 20.4023 9.64557 20.5047 10.7664 20.4832L10.7422 21.1137C9.62552 22.181 7.51685 24.574 7.51685 27.5158C7.51685 30.9432 10.0227 31.5467 11.4454 31.5467C12.8681 31.5467 19.9623 27.9603 17.6351 21.6957" stroke="#CF4E32" stroke-linecap="round" stroke-linejoin="round"/>
<path d="M5.62018 21.9756C6.28838 22.0403 7.02127 22.148 7.02127 23.2042C7.02127 24.2604 5.46924 25.252 5.46924 27.731C5.46924 30.2099 7.13444 31.5463 11.4456 31.5463" stroke="#CF4E32" stroke-linecap="round" stroke-linejoin="round"/>
<path d="M26.8936 27.0165C26.4863 25.4249 24.6325 23.6789 24.1151 23.4202C23.5978 23.1616 23.5678 25.7798 23.9438 26.664" stroke="#CF4E32" stroke-linecap="round" stroke-linejoin="round"/>
</svg>
