<svg width="34" height="26" viewBox="0 0 34 26" fill="none" xmlns="http://www.w3.org/2000/svg">
<path d="M16.5407 24.9507H31.3022L32.9043 23.2656H15.1877L16.5407 24.9507ZM7.32682 14.6909C7.27978 14.536 7.11654 14.4474 6.96435 14.4945C6.80941 14.5415 6.72087 14.7048 6.7679 14.8597C7.03076 15.7313 7.46794 16.4507 7.99919 17.0068C8.58024 17.6156 9.28027 18.0223 9.99137 18.2077C10.1463 18.2492 10.3068 18.1523 10.3483 17.9974C10.3898 17.8424 10.293 17.682 10.138 17.6405C9.52653 17.4827 8.92611 17.1286 8.42253 16.6001C7.94938 16.1131 7.56201 15.4684 7.32682 14.6909ZM22.8936 5.2806H22.8161C22.8161 4.63867 22.5754 4.07699 22.0967 3.59554C21.618 3.11686 21.0563 2.87614 20.4116 2.87614V2.7959C21.0535 2.7959 21.6152 2.55518 22.0967 2.07373C22.5754 1.59229 22.8161 1.0306 22.8161 0.388672H22.8936C22.8936 1.0306 23.1343 1.59229 23.613 2.07373C24.0916 2.55518 24.6533 2.79313 25.298 2.79313V2.87061C24.6561 2.87061 24.0944 3.11133 23.613 3.59001C23.1343 4.07422 22.8936 4.63591 22.8936 5.2806ZM26.4684 10.4105H26.4325C26.4325 10.1172 26.3218 9.8571 26.1004 9.63851C25.8791 9.41992 25.6217 9.30924 25.3284 9.30924V9.27327C25.6217 9.27327 25.8818 9.1626 26.1004 8.94401C26.3218 8.72266 26.4325 8.46533 26.4325 8.17204H26.4684C26.4684 8.46533 26.5791 8.72542 26.8005 8.94401C27.019 9.16537 27.2764 9.27604 27.5724 9.27604V9.31201C27.2791 9.31201 27.019 9.42269 26.8005 9.64128C26.5791 9.85986 26.4684 10.1172 26.4684 10.4105ZM29.6947 6.97119H29.6283C29.6283 6.43164 29.4263 5.96126 29.0251 5.55729C28.6211 5.15332 28.1507 4.95133 27.6112 4.95133V4.88493C28.1507 4.88493 28.6211 4.68294 29.0251 4.27897C29.429 3.875 29.6283 3.40462 29.6283 2.86507H29.6947C29.6947 3.40462 29.8966 3.875 30.3006 4.27897C30.7046 4.68294 31.175 4.88493 31.7145 4.88493V4.95133C31.175 4.95133 30.7046 5.15332 30.3006 5.55729C29.8939 5.96126 29.6947 6.43164 29.6947 6.97119ZM11.8341 5.36914C14.0311 5.36914 16.0233 6.26009 17.4648 7.70166C18.9064 9.14323 19.7974 11.1326 19.7974 13.3324C19.7974 14.0711 19.6978 14.785 19.5096 15.4629H22.6888C22.8244 14.7739 22.8936 14.0601 22.8936 13.3324C22.8936 10.2777 21.6567 7.51351 19.6535 5.51302C17.653 3.507 14.8888 2.27018 11.8341 2.27018C8.77946 2.27018 6.0153 3.50977 4.01481 5.51025C2.01156 7.51074 0.77474 10.2749 0.77474 13.3296C0.77474 16.3843 2.01432 19.1484 4.01481 21.1489C6.0153 23.1494 8.78223 24.389 11.8341 24.389C12.8994 24.389 13.9287 24.2396 14.9027 23.9574L14.2607 23.1577C14.2054 23.0996 14.1722 23.0194 14.1722 22.9336C14.1722 22.751 14.3188 22.6043 14.5015 22.6043H15.73L14.3493 20.8861C13.5579 21.1489 12.714 21.2928 11.8341 21.2928C9.63721 21.2928 7.64502 20.4019 6.20345 18.9603C4.76188 17.5187 3.87093 15.5293 3.87093 13.3296C3.87093 11.1326 4.76188 9.14046 6.20345 7.69889C7.64502 6.26009 9.63721 5.36914 11.8341 5.36914ZM18.8151 15.4629C19.0199 14.7878 19.1305 14.0739 19.1305 13.3324C19.1305 11.318 18.3143 9.49186 16.9917 8.17204C15.6691 6.85221 13.8457 6.0332 11.8314 6.0332C9.81706 6.0332 7.99088 6.84945 6.67106 8.17204C5.34847 9.49463 4.53223 11.318 4.53223 13.3324C4.53223 15.3467 5.34847 17.1729 6.67106 18.4927C7.99088 19.8125 9.81706 20.6315 11.8314 20.6315C13.1014 20.6315 14.2939 20.3078 15.3343 19.7378L14.2469 18.3765C14.1335 18.2354 14.1556 18.0278 14.2967 17.9144C14.3576 17.8646 14.4295 17.8424 14.5015 17.8424H15.73L14.2469 15.9941C14.1335 15.853 14.1556 15.6455 14.2967 15.5321C14.3576 15.4823 14.4295 15.4601 14.5015 15.4601H18.8151V15.4629ZM15.9015 19.3892L15.943 19.3615L15.9873 19.4971L16.5739 20.2275H31.2663L32.9043 18.5037H15.1877L15.9015 19.3892ZM11.8341 1.49821C15.1019 1.49821 18.0597 2.82357 20.2013 4.96517C22.3429 7.10677 23.6683 10.0646 23.6683 13.3324C23.6683 14.0601 23.6019 14.7712 23.4774 15.4629H33.6735C33.8561 15.4629 34.0028 15.6095 34.0028 15.7922C34.0028 15.889 33.9613 15.9748 33.8949 16.0356L32.1738 17.8452H33.6735C33.8561 17.8452 34.0028 17.9919 34.0028 18.1745C34.0028 18.2713 33.9613 18.3571 33.8949 18.418L32.1738 20.2275H33.6735C33.8561 20.2275 34.0028 20.3742 34.0028 20.5568C34.0028 20.6536 33.9613 20.7394 33.8949 20.8003L32.1738 22.6099H33.6735C33.7537 22.6099 33.8367 22.6403 33.9004 22.7012C34.0304 22.8257 34.036 23.0332 33.9115 23.166L31.7007 25.493C31.6398 25.5677 31.5485 25.612 31.4461 25.612H16.3857C16.2889 25.612 16.1948 25.5705 16.1312 25.4902L15.4284 24.6131C14.2967 24.9728 13.0876 25.1693 11.8369 25.1693C8.56917 25.1693 5.61133 23.8439 3.46973 21.7023C1.32536 19.5579 0 16.6001 0 13.3296C0 10.0618 1.32536 7.104 3.46696 4.9624C5.60579 2.8208 8.56641 1.49821 11.8341 1.49821ZM31.2663 22.6071L32.9043 20.8833H15.1877L16.5711 22.6071H31.2663ZM31.2663 17.8424L32.9043 16.1187H15.1877L16.5711 17.8424H31.2663Z" fill="#CF4E32" stroke="#CF4E32" stroke-width="0.5"/>
</svg>
