<svg width="34" height="34" viewBox="0 0 34 34" fill="none" xmlns="http://www.w3.org/2000/svg">
<g clip-path="url(#clip0_1052_146)">
<path d="M16.7068 19.2101L14.7905 17.2939C12.0224 14.5257 7.53417 14.5257 4.76602 17.2939L3.68286 18.3771L15.6235 30.3177L16.7067 29.2345C19.475 26.4664 19.475 21.9783 16.7068 19.2101Z" fill="white"/>
<path d="M17.1528 19.6998C17.013 19.5315 16.8646 19.3678 16.7068 19.2101L14.7906 17.2939C12.0225 14.5257 7.53424 14.5257 4.76608 17.2939L3.68286 18.3771L6.53462 21.2289L7.61785 20.1457C10.2284 17.5353 14.368 17.387 17.1528 19.6998Z" fill="#D4D2D0"/>
<path d="M12.6019 32.9079L1.09276 21.3987C0.41309 20.7191 0.41309 19.6171 1.09276 18.9374L1.3123 18.7178C2.0611 17.9691 3.27514 17.9691 4.02394 18.7178L15.2829 29.9767C16.0317 30.7255 16.0317 31.9396 15.2829 32.6884L15.0634 32.9079C14.3836 33.5876 13.2816 33.5876 12.6019 32.9079Z" fill="white"/>
<path d="M4.33964 22.1843L4.55918 21.9647C5.30798 21.2159 6.52202 21.2159 7.27082 21.9647L4.02394 18.7178C3.27514 17.9691 2.0611 17.9691 1.3123 18.7178L1.09276 18.9374C0.41309 19.6171 0.41309 20.7191 1.09276 21.3987L4.33964 24.6456C3.6599 23.966 3.6599 22.8639 4.33964 22.1843Z" fill="#D4D2D0"/>
<path d="M14.7742 17.2765L17.4664 14.5844C20.9955 11.0552 24.2875 7.29159 27.2434 3.26935C27.6273 2.74699 28.0398 2.24609 28.4625 1.82328C28.9527 1.33313 29.5462 0.990476 30.1576 0.751612C32.0907 -0.00303137 34.0025 1.90868 33.2478 3.84184C33.009 4.45318 32.6669 5.04725 32.1767 5.5374C31.754 5.96007 31.2525 6.37199 30.7301 6.75596C26.7079 9.71184 22.9442 13.0039 19.4151 16.533L16.7229 19.2252" fill="white"/>
<path d="M31.2779 1.87194C30.8013 2.24615 30.2989 2.67925 29.8085 3.16959C29.3858 3.59227 28.9412 4.0611 28.5075 4.53332C25.1648 8.16881 21.7017 11.7618 18.1724 15.291L15.4802 17.9832L14.7737 17.2766L17.4659 14.5844C20.9951 11.0552 24.2871 7.29204 27.243 3.26974C27.6271 2.74698 28.0398 2.24615 28.4625 1.82347C28.9529 1.33312 29.5455 0.990266 30.1575 0.751468C31.1245 0.374478 32.0859 0.663413 32.7111 1.28856C32.5391 1.11684 32.0307 1.28093 31.2779 1.87194Z" fill="#D4D2D0"/>
<path d="M33.1232 0.876462C32.2765 0.0297124 31.0586 -0.226285 29.9451 0.208412C29.1907 0.503058 28.5531 0.907673 28.0496 1.4111C27.6371 1.82368 27.2075 2.33276 26.7728 2.92417C23.9612 6.75012 20.6911 10.5344 17.0534 14.172L14.7572 16.4682C13.7032 15.5668 12.4367 14.9732 11.0606 14.741C10.7428 14.6871 10.4416 14.9016 10.3879 15.2195C10.3343 15.5373 10.5485 15.8385 10.8664 15.8922C12.2021 16.1176 13.4162 16.7448 14.3777 17.7063L16.294 19.6225C18.8302 22.1587 18.8302 26.2853 16.294 28.8215L15.6235 29.492L4.50833 18.3767L5.17884 17.7062C6.1756 16.7094 7.43726 16.0747 8.82741 15.8705C9.14636 15.8236 9.36696 15.5271 9.32015 15.2081C9.27326 14.8892 8.97683 14.6689 8.65781 14.7154C7.01737 14.9563 5.529 15.7051 4.35341 16.8806L3.51529 17.7187C3.24707 17.6224 2.96139 17.5721 2.66801 17.5721C1.99996 17.5721 1.37182 17.8323 0.899471 18.3047L0.679931 18.5243C-0.226318 19.4305 -0.226318 20.9049 0.679931 21.811L8.16514 29.2963C8.39311 29.5242 8.76273 29.5242 8.99057 29.2963C9.21855 29.0683 9.21855 28.6987 8.99057 28.4708L1.5053 20.9857C1.28682 20.7672 1.16649 20.4767 1.16649 20.1678C1.16649 19.8588 1.28682 19.5683 1.5053 19.3498L1.72484 19.1302C1.97678 18.8783 2.31167 18.7395 2.66794 18.7395C3.02415 18.7395 3.35904 18.8783 3.61098 19.1302L14.8699 30.3892C15.39 30.9092 15.39 31.7553 14.8699 32.2753L14.6504 32.4949C14.4319 32.7133 14.1414 32.8337 13.8324 32.8337C13.5234 32.8337 13.2329 32.7133 13.0144 32.4949L10.3911 29.8715C10.1631 29.6436 9.79349 29.6436 9.56565 29.8715C9.33768 30.0995 9.33768 30.4691 9.56565 30.697L12.189 33.3203C12.6421 33.7734 13.2373 34 13.8325 34C14.4276 34 15.0227 33.7734 15.4759 33.3203L15.6954 33.1007C16.4012 32.395 16.5958 31.369 16.28 30.4863L17.1195 29.6467C19.9664 26.7999 20.1017 22.255 17.5297 19.244L19.8276 16.946C22.9883 13.7854 26.2647 10.8969 29.5661 8.36087C29.8218 8.16451 29.8698 7.79801 29.6734 7.54235C29.477 7.28668 29.1105 7.23867 28.8549 7.43503C25.5134 10.0018 22.1985 12.9241 19.002 16.1205L16.7225 18.3999L15.5993 17.2767L17.8787 14.9973C21.5581 11.318 24.8669 7.48856 27.7134 3.6152C28.1132 3.07113 28.5039 2.60715 28.8749 2.23627C29.2635 1.84766 29.7664 1.53116 30.3694 1.29555C31.1765 0.980521 31.8945 1.29881 32.2975 1.70176C32.7004 2.10472 33.0187 2.82277 32.7037 3.62974C32.4677 4.23417 32.1513 4.73714 31.7636 5.12495C31.3953 5.49324 30.9311 5.88378 30.384 6.28594C30.1242 6.47685 30.0684 6.84216 30.2592 7.10194C30.4502 7.36172 30.8154 7.4175 31.0752 7.22665C31.6698 6.78983 32.1791 6.36044 32.589 5.95052C33.0914 5.44795 33.4958 4.81012 33.791 4.05441C34.2261 2.94104 33.97 1.72328 33.1232 0.876462Z" fill="#CF4E32"/>
</g>
<defs>
<clipPath id="clip0_1052_146">
<rect width="34" height="34" fill="white"/>
</clipPath>
</defs>
</svg>
