<svg width="40" height="18" viewBox="0 0 40 18" fill="none" xmlns="http://www.w3.org/2000/svg">
<mask id="path-1-inside-1_1053_460" fill="white">
<path d="M39.996 11.5973C39.9948 11.5828 39.9936 11.5683 39.9914 11.5541C39.9874 11.5283 39.9825 11.5028 39.9756 11.4779C39.6634 9.96346 37.8063 9.14002 37.5924 9.04939C37.5138 9.01603 37.4291 8.99807 37.3438 8.99674C37.2959 8.99611 35.0775 8.95283 32.3998 8.55939C32.3925 8.55807 32.3856 8.55557 32.3782 8.55439C32.1655 8.52307 31.9495 8.48908 31.7316 8.45236C31.7111 8.44885 31.6908 8.44666 31.6705 8.4451C31.0577 8.34275 30.4299 8.22135 29.8057 8.07791C29.7803 8.06854 29.7543 8.06018 29.7273 8.05385C29.4633 7.99182 29.1999 7.9265 28.9373 7.85518C28.9067 7.84697 28.8762 7.8419 28.8456 7.83815C28.2481 7.67572 27.6638 7.49025 27.1092 7.27939C27.0808 7.26314 27.0513 7.24807 27.0199 7.2358C26.7692 7.13846 26.5246 7.0365 26.2873 6.92713C26.256 6.91291 26.2241 6.90205 26.192 6.89299C25.6223 6.6258 25.102 6.32463 24.6541 5.98564C24.6398 5.9726 24.6251 5.95979 24.6094 5.94783C24.5922 5.93471 24.5759 5.92127 24.559 5.90799C24.5495 5.89947 24.5402 5.89072 24.5302 5.88275C24.3707 5.75635 24.2285 5.63189 24.1003 5.50697C24.0885 5.49533 24.0762 5.48377 24.0646 5.47213C24.0595 5.46697 24.0544 5.46189 24.0493 5.45674C24.022 5.42924 23.9953 5.40174 23.9693 5.37424C23.9249 5.32674 23.8813 5.27885 23.8395 5.2301C20.4616 1.27939 16.9722 0.38541 16.8262 0.349395C16.6066 0.295489 16.3772 0.356269 16.214 0.508457C16.2077 0.514316 16.2008 0.519316 16.1947 0.525488L14.868 1.85283C14.4747 2.23549 14.0627 2.60416 13.6094 2.9808C13.588 2.99846 13.5682 3.01752 13.5495 3.03744C13.2383 3.29346 12.929 3.53018 12.6216 3.74908C12.6113 3.75565 12.6007 3.76166 12.5905 3.76893C12.3979 3.90424 12.2085 4.03096 12.0212 4.15025C12.001 4.16307 11.9818 4.17689 11.9634 4.19143C11.5085 4.47853 11.0581 4.724 10.6126 4.92799C10.5851 4.93611 10.5577 4.94549 10.5309 4.95736C10.3355 5.04471 10.1442 5.12268 9.95484 5.19268C9.92688 5.20299 9.90047 5.21557 9.87477 5.22908C9.79227 5.25861 9.70992 5.28674 9.62773 5.3133C9.60852 5.3176 9.58922 5.32135 9.57031 5.32744C9.36828 5.39143 9.17102 5.44541 8.97695 5.4901C8.95453 5.49533 8.93266 5.50158 8.91133 5.50893C8.35305 5.63275 7.80352 5.68682 7.26344 5.67072C7.25656 5.67025 7.24977 5.66924 7.24281 5.669C7.00414 5.66104 6.77414 5.63971 6.55281 5.60635C6.54672 5.60549 6.54063 5.60533 6.53453 5.60463C3.99398 5.21557 2.55352 3.29182 2.54023 3.27283C2.41461 3.10064 2.23266 2.99166 2.00312 2.99768C1.99625 2.99775 1.98961 2.99689 1.98266 2.99721C1.90531 2.99932 1.83031 3.01541 1.76008 3.04252C1.63078 3.09229 1.51797 3.18111 1.44023 3.30025C1.37398 3.40221 1.31141 3.50479 1.25062 3.60775C1.24937 3.60986 1.24812 3.61197 1.24688 3.61408C1.18852 3.71314 1.13219 3.8126 1.07875 3.91252C1.07656 3.91658 1.07406 3.92057 1.07195 3.92463C1.07008 3.92807 1.06875 3.93166 1.06695 3.93518C0.821328 4.39783 0.627187 4.86783 0.47625 5.3376C0.469688 5.35377 0.463203 5.36994 0.457891 5.38682C0.394531 5.58947 0.338594 5.7915 0.289219 5.99346C0.283672 6.01619 0.279375 6.039 0.276328 6.06166C0.166016 6.53518 0.0952344 7.00424 0.0553125 7.46096C0.0499219 7.48744 0.0454687 7.51439 0.0432031 7.54205C0.0271875 7.75205 0.0165625 7.95939 0.0111719 8.16338C0.0105469 8.19104 0.0121875 8.21814 0.0148437 8.24494C0.00695312 8.73236 0.0305469 9.19861 0.0732813 9.63314C0.0730469 9.65869 0.0738281 9.68439 0.0765625 9.71041C0.101875 9.95377 0.133203 10.1864 0.168594 10.4064C0.172344 10.4301 0.177734 10.4531 0.183828 10.4758C0.261875 10.9512 0.356484 11.3665 0.445078 11.702C0.186094 11.793 0 12.0396 0 12.3302V15.6635C0 16.0315 0.297969 16.3302 0.666641 16.3302H10C10.1773 16.3302 10.3466 16.2602 10.4713 16.1349L10.8634 15.7428C12.622 16.2168 18.5573 17.6702 25.1747 17.6695C30.1173 17.6695 35.4407 16.8581 39.6847 14.2221C39.8807 14.1008 40 13.8861 40 13.6561V11.6561C40 11.6363 39.9978 11.6168 39.996 11.5973ZM38.4847 11.3435C38.2384 11.4595 37.9016 11.6071 37.4686 11.7725C37.4648 11.7739 37.461 11.7754 37.4573 11.7768C37.3966 11.7999 37.3339 11.8235 37.2695 11.8472C37.2616 11.8502 37.2537 11.8531 37.2456 11.856C37.183 11.8791 37.1184 11.9024 37.0523 11.9259C37.0437 11.9289 37.0353 11.932 37.0266 11.9351C36.8777 11.9879 36.72 12.0417 36.5535 12.0964C36.5422 12.1001 36.5303 12.1039 36.5189 12.1076C36.4507 12.1299 36.3812 12.1522 36.3101 12.1747C36.2802 12.1842 36.2495 12.1936 36.2191 12.2031C36.1651 12.2199 36.1105 12.2367 36.0548 12.2537C36.0171 12.2652 35.9787 12.2766 35.9402 12.2881C35.89 12.3031 35.8391 12.3181 35.7876 12.3331C35.7445 12.3456 35.7013 12.3581 35.6573 12.3706C35.6086 12.3846 35.559 12.3985 35.5091 12.4124C35.4616 12.4256 35.4141 12.4389 35.3656 12.4522C35.3175 12.4653 35.2682 12.4785 35.2191 12.4916C35.1674 12.5053 35.1164 12.5192 35.0637 12.5329C35.0194 12.5445 34.9735 12.556 34.9284 12.5674C34.8116 12.5973 34.6921 12.6271 34.57 12.6566C34.5315 12.6659 34.4937 12.6753 34.4547 12.6845C34.389 12.7002 34.3215 12.7156 34.2543 12.7311C34.2104 12.7413 34.1668 12.7514 34.1223 12.7614C34.0541 12.7768 33.9846 12.7921 33.9149 12.8073C33.8698 12.8171 33.8247 12.827 33.779 12.8368C33.7072 12.8522 33.6345 12.8674 33.5611 12.8826C33.5165 12.8918 33.4714 12.901 33.4262 12.9102C33.3499 12.9256 33.2732 12.941 33.1953 12.9562C33.1529 12.9645 33.1097 12.9726 33.0668 12.9808C32.9839 12.9967 32.9009 13.0124 32.8162 13.028C32.7862 13.0335 32.7552 13.0388 32.7249 13.0443C32.4123 13.1007 32.0874 13.1549 31.7502 13.2062C31.7204 13.2107 31.6912 13.2154 31.6613 13.2199C31.5642 13.2344 31.4654 13.2485 31.3663 13.2625C31.3233 13.2686 31.2805 13.2748 31.2371 13.2808C31.1406 13.2942 31.0428 13.3071 30.9445 13.3199C30.8973 13.3261 30.8501 13.3322 30.8025 13.3382C30.7033 13.3508 30.6033 13.3631 30.5022 13.3752C30.4557 13.3807 30.4087 13.3861 30.3618 13.3915C30.2569 13.4036 30.1516 13.4156 30.0446 13.4271C30.0058 13.4313 29.9662 13.4353 29.9271 13.4393C29.403 13.4942 28.8552 13.5416 28.283 13.5799C28.2391 13.5828 28.1956 13.5859 28.1514 13.5888C28.0335 13.5963 27.9141 13.6032 27.7942 13.6099C27.7404 13.613 27.6866 13.616 27.6323 13.6189C27.5143 13.6252 27.3952 13.631 27.2752 13.6363C27.2183 13.6389 27.161 13.6413 27.1037 13.6438C26.9822 13.6488 26.8601 13.6536 26.7366 13.6579C26.6825 13.6598 26.6278 13.6613 26.5734 13.663C26.4437 13.667 26.3137 13.6709 26.1818 13.674C26.1467 13.6748 26.1109 13.6753 26.0757 13.676C25.6127 13.6858 25.1365 13.6895 24.6471 13.6865C24.602 13.6863 24.5574 13.6863 24.5121 13.6859C24.3772 13.6847 24.2404 13.6827 24.1035 13.6805C24.037 13.6795 23.9706 13.6785 23.9036 13.6772C23.7718 13.6746 23.6388 13.6714 23.5052 13.6679C23.4319 13.666 23.3584 13.6639 23.2846 13.6617C23.1513 13.6576 23.0173 13.6531 22.8823 13.6481C22.8077 13.6454 22.7327 13.6423 22.6576 13.6392C22.5198 13.6335 22.3816 13.6277 22.242 13.621C22.1728 13.6176 22.1026 13.6138 22.0329 13.6102C21.8847 13.6025 21.7366 13.5949 21.5863 13.5861C21.5612 13.5846 21.5355 13.5828 21.5102 13.5813C21.158 13.5601 20.7997 13.5354 20.436 13.5074C20.3929 13.5041 20.3505 13.5013 20.3071 13.4978C20.1598 13.4862 20.0105 13.4732 19.8614 13.4604C19.7773 13.4531 19.6937 13.4463 19.609 13.4386C19.467 13.4259 19.3234 13.4121 19.1796 13.3983C19.0856 13.3892 18.9916 13.3802 18.8968 13.3706C18.7553 13.3564 18.6129 13.3416 18.4698 13.3263C18.3711 13.3157 18.272 13.3049 18.1726 13.2938C18.0294 13.2779 17.8857 13.2617 17.7409 13.2448C17.6402 13.233 17.5386 13.2205 17.4372 13.2081C17.2906 13.1903 17.1441 13.1726 16.9959 13.1536C16.8984 13.1411 16.7996 13.1277 16.7014 13.1148C16.1696 13.0446 15.6276 12.9671 15.0752 12.8821C14.9617 12.8646 14.8488 12.8476 14.7343 12.8295C14.5891 12.8065 14.4423 12.7822 14.2958 12.7581C14.1734 12.7381 14.0512 12.7181 13.9279 12.6972C13.783 12.6728 13.6371 12.6474 13.4909 12.6219C13.363 12.5996 13.2348 12.577 13.106 12.5538C12.9605 12.5278 12.8143 12.5012 12.6674 12.474C12.5348 12.4495 12.4012 12.4242 12.2676 12.3988C12.122 12.3712 11.9764 12.3436 11.8295 12.3149C11.6888 12.2874 11.5466 12.2588 11.4046 12.2304C11.2622 12.2019 11.1204 12.1738 10.9767 12.1443C10.8061 12.1092 10.6334 12.0725 10.4612 12.036C10.3512 12.0128 10.2426 11.9905 10.132 11.9667C9.17664 11.7606 8.16328 11.656 7.11859 11.656L1.81461 11.662C1.76148 11.4831 1.69867 11.2517 1.63641 10.9792C1.93133 10.9138 2.15375 10.6537 2.15828 10.3388C2.16359 9.97018 1.86898 9.66752 1.50164 9.66221C1.4718 9.66221 1.44258 9.66158 1.41273 9.66088C1.25719 8.27346 1.31 6.47939 2.12523 4.79603C2.95258 5.59807 4.53656 6.784 6.8032 6.98002C7.49586 7.03978 8.1982 7.00221 8.90883 6.86971C8.96883 6.99072 9.06578 7.09471 9.19461 7.16275C9.29391 7.21541 9.40063 7.2401 9.50531 7.2401C9.70969 7.2401 9.90766 7.1451 10.036 6.97682C10.1495 7.05908 10.2861 7.10525 10.4272 7.10525C10.5232 7.10525 10.6198 7.08455 10.7119 7.04127C11.0319 6.88986 11.1752 6.51635 11.0459 6.1926C11.808 5.85408 12.5777 5.41033 13.3537 4.86174C13.3555 4.86049 13.3572 4.8594 13.359 4.85815C13.3595 4.85783 13.3598 4.85744 13.3602 4.85713C13.5836 4.69908 13.8073 4.53307 14.0316 4.35775L17.7858 7.47072C18.6918 8.22072 19.7905 8.58674 20.8838 8.58674C22.0834 8.58674 23.2757 8.14424 24.1968 7.28713C24.6449 7.58783 25.1386 7.859 25.6644 8.1033C25.6863 8.1165 25.7089 8.129 25.7327 8.13986C25.9921 8.25916 26.2621 8.37189 26.5374 8.47916C26.5608 8.48814 26.5843 8.49541 26.608 8.50166C27.2398 8.74432 27.9018 8.95479 28.5739 9.13744C28.5798 9.13924 28.5855 9.1415 28.5915 9.14314C28.6198 9.15072 28.6481 9.15775 28.6765 9.16518C29.4698 9.37713 30.2752 9.55064 31.0595 9.6926C31.0732 9.75861 31.0967 9.82377 31.1318 9.88564C31.2545 10.1023 31.4798 10.2236 31.7125 10.2236C31.8238 10.2236 31.9365 10.1956 32.0405 10.137C32.1699 10.0637 32.2956 9.98861 32.4196 9.9126C34.7255 10.2432 36.6413 10.3135 37.184 10.3273C37.569 10.5106 38.1726 10.8951 38.4847 11.3435ZM15.1908 3.3783C15.2118 3.35924 15.2327 3.3401 15.2537 3.32096C15.2921 3.28588 15.3302 3.25182 15.3688 3.21619C15.3758 3.20978 15.3818 3.20275 15.3884 3.19611C15.4062 3.17963 15.4239 3.16338 15.4416 3.14682C15.4417 3.14674 15.4418 3.14666 15.4419 3.14658C15.538 3.05666 15.6343 2.96525 15.7305 2.87221C15.7552 2.84846 15.7804 2.82533 15.805 2.80143L16.7477 1.85877L16.8523 1.75416C17.1664 1.86518 17.6769 2.06932 18.3129 2.40791L17.5286 3.19221C17.2679 3.45291 17.2679 3.87424 17.5286 4.13486C17.6586 4.26486 17.8293 4.33018 17.9999 4.33018C18.1706 4.33018 18.3413 4.26486 18.4713 4.13486L19.4919 3.11424C19.8202 3.33299 20.1645 3.58104 20.5194 3.86299C20.5807 3.91174 20.6426 3.96205 20.7045 4.01275L19.5279 5.19119C19.2679 5.45252 19.2679 5.87385 19.5292 6.13455C19.6586 6.26455 19.8292 6.32924 19.9999 6.32924C20.1706 6.32924 20.342 6.26393 20.472 6.13393L21.702 4.90143C22.0748 5.26158 22.4515 5.65838 22.8264 6.09682C22.9089 6.1933 22.9966 6.28697 23.0871 6.37908C23.0922 6.38463 23.0968 6.39057 23.1021 6.39596C23.1115 6.40549 23.1216 6.41479 23.1311 6.42432C23.1359 6.42916 23.1405 6.43416 23.1454 6.439C21.8661 7.50486 19.9635 7.54486 18.6376 6.44354L15.0707 3.48705C15.1106 3.45135 15.1508 3.41463 15.1908 3.3783ZM38.6666 13.2802C28.7206 19.1595 12.6866 14.8749 10.8327 14.3515C10.778 14.3368 10.722 14.3302 10.6666 14.3302C10.492 14.3302 10.3213 14.3988 10.1953 14.5255L9.72398 14.9968H1.33336V12.9961L7.11937 12.9895C7.40828 12.9895 7.69383 12.9992 7.97617 13.0166C8.49047 13.0483 8.99297 13.1081 9.4793 13.1967C9.60383 13.2195 9.72766 13.2436 9.85008 13.2701C9.91086 13.2832 9.97055 13.2953 10.0311 13.3083C10.1916 13.3425 10.3515 13.3763 10.5105 13.4095C10.6091 13.4299 10.7071 13.45 10.8051 13.4701C10.9451 13.4987 11.0844 13.5268 11.2232 13.5546C11.3113 13.5721 11.3998 13.59 11.4875 13.6072C11.6955 13.6481 11.9023 13.688 12.1079 13.7269C12.1878 13.7421 12.267 13.7566 12.3466 13.7713C12.4936 13.7987 12.64 13.8256 12.7857 13.852C12.8694 13.8672 12.953 13.8823 13.0363 13.8971C13.2149 13.9289 13.3926 13.9599 13.5692 13.9902C13.6214 13.9991 13.6737 14.0082 13.7258 14.017C13.9219 14.0502 14.1165 14.0823 14.3101 14.1137C14.3802 14.125 14.4499 14.1361 14.5197 14.1473C14.6795 14.1728 14.8384 14.1976 14.9964 14.2218C15.053 14.2305 15.11 14.2394 15.1665 14.2479C15.3754 14.2795 15.583 14.31 15.789 14.3395C15.8309 14.3455 15.8723 14.3511 15.9141 14.3571C16.0877 14.3816 16.2603 14.4053 16.4319 14.4284C16.4841 14.4354 16.5363 14.4424 16.5883 14.4493C17.0092 14.505 17.4239 14.5563 17.8324 14.6033C17.8689 14.6075 17.9052 14.6116 17.9416 14.6157C18.1267 14.6367 18.3106 14.657 18.4931 14.6763C18.5152 14.6786 18.5376 14.681 18.5597 14.6834C18.7712 14.7056 18.9811 14.7267 19.1891 14.7466C19.1908 14.7467 19.1923 14.7469 19.1939 14.7471C19.3961 14.7663 19.5963 14.7845 19.7952 14.8017C19.8171 14.8036 19.839 14.8056 19.8608 14.8074C20.2705 14.8426 20.6734 14.8734 21.0695 14.9C21.0772 14.9006 21.0849 14.901 21.0927 14.9016C21.7007 14.9423 22.2926 14.9732 22.8687 14.9953C23.6262 15.0242 24.3569 15.0381 25.0598 15.0381C25.4327 15.0381 25.797 15.0338 26.1545 15.0265C26.1573 15.0264 26.16 15.0264 26.1627 15.0263C26.8443 15.0122 27.4984 14.9853 28.1252 14.9474C28.1359 14.9468 28.1465 14.9462 28.1571 14.9455C28.7769 14.9077 29.3702 14.8592 29.9371 14.802C29.952 14.8006 29.9669 14.799 29.9818 14.7975C30.1104 14.7844 30.2377 14.7709 30.3636 14.7569C30.375 14.7556 30.3865 14.7544 30.3979 14.7531C30.8096 14.7071 31.2068 14.6564 31.5897 14.602C31.6063 14.5996 31.6228 14.5972 31.6394 14.5949C31.7497 14.579 31.8589 14.5629 31.9668 14.5464C31.9841 14.5438 32.0013 14.5412 32.0185 14.5385C32.1384 14.5201 32.257 14.5014 32.3738 14.4823C32.3742 14.4822 32.3746 14.4821 32.375 14.4821C32.618 14.4424 32.8545 14.4011 33.0848 14.3586C33.0998 14.3559 33.1146 14.3531 33.1296 14.3503C33.2266 14.3322 33.3226 14.314 33.4173 14.2956C33.4366 14.2918 33.4558 14.2881 33.4749 14.2843C33.5723 14.2653 33.6684 14.246 33.7634 14.2264C33.7738 14.2243 33.7843 14.2222 33.7946 14.2201C34.0096 14.1757 34.2185 14.1304 34.4212 14.0843C34.434 14.0814 34.4465 14.0785 34.4592 14.0756C34.5449 14.056 34.6295 14.0363 34.713 14.0165C34.7323 14.0119 34.7516 14.0073 34.7709 14.0027C34.8518 13.9833 34.9316 13.9638 35.0105 13.9443C35.0249 13.9407 35.0395 13.9372 35.0539 13.9336C35.2427 13.8865 35.4255 13.8388 35.6023 13.791C35.6105 13.7888 35.6184 13.7866 35.6264 13.7844C35.7041 13.7633 35.7806 13.7421 35.856 13.7209C35.8731 13.716 35.8902 13.7113 35.9071 13.7064C35.9756 13.687 36.0432 13.6676 36.1098 13.6481C36.1251 13.6437 36.1404 13.6392 36.1555 13.6348C36.2333 13.612 36.3099 13.5891 36.3849 13.5663C36.3865 13.5658 36.3881 13.5653 36.3897 13.5649C36.4712 13.54 36.5513 13.5153 36.6296 13.4906C36.6302 13.4904 36.6306 13.4903 36.6311 13.4901C36.7043 13.467 36.7759 13.444 36.8463 13.421C36.8599 13.4166 36.8733 13.4122 36.8867 13.4078C36.9455 13.3885 37.0034 13.3693 37.0602 13.3502C37.0742 13.3455 37.0882 13.3408 37.1021 13.3361C37.1631 13.3155 37.223 13.2949 37.2818 13.2745C37.2884 13.2722 37.2951 13.2699 37.3016 13.2676C37.4352 13.221 37.563 13.1749 37.6851 13.1296C37.695 13.1259 37.7047 13.1222 37.7145 13.1185C37.7645 13.0999 37.8136 13.0814 37.8616 13.0631C37.8734 13.0586 37.885 13.0541 37.8966 13.0496C37.9452 13.031 37.9929 13.0124 38.0395 12.9941C38.047 12.9911 38.0546 12.9881 38.062 12.9853C38.1721 12.9417 38.2765 12.8993 38.3751 12.8581C38.3803 12.856 38.3852 12.8538 38.3905 12.8517C38.4332 12.8338 38.4749 12.8161 38.5155 12.7987C38.5244 12.7949 38.5331 12.7911 38.542 12.7873C38.5798 12.771 38.6166 12.755 38.6524 12.7392C38.657 12.7372 38.6621 12.735 38.6667 12.733L38.6666 13.2802Z"/>
</mask>
<path d="M39.996 11.5973C39.9948 11.5828 39.9936 11.5683 39.9914 11.5541C39.9874 11.5283 39.9825 11.5028 39.9756 11.4779C39.6634 9.96346 37.8063 9.14002 37.5924 9.04939C37.5138 9.01603 37.4291 8.99807 37.3438 8.99674C37.2959 8.99611 35.0775 8.95283 32.3998 8.55939C32.3925 8.55807 32.3856 8.55557 32.3782 8.55439C32.1655 8.52307 31.9495 8.48908 31.7316 8.45236C31.7111 8.44885 31.6908 8.44666 31.6705 8.4451C31.0577 8.34275 30.4299 8.22135 29.8057 8.07791C29.7803 8.06854 29.7543 8.06018 29.7273 8.05385C29.4633 7.99182 29.1999 7.9265 28.9373 7.85518C28.9067 7.84697 28.8762 7.8419 28.8456 7.83815C28.2481 7.67572 27.6638 7.49025 27.1092 7.27939C27.0808 7.26314 27.0513 7.24807 27.0199 7.2358C26.7692 7.13846 26.5246 7.0365 26.2873 6.92713C26.256 6.91291 26.2241 6.90205 26.192 6.89299C25.6223 6.6258 25.102 6.32463 24.6541 5.98564C24.6398 5.9726 24.6251 5.95979 24.6094 5.94783C24.5922 5.93471 24.5759 5.92127 24.559 5.90799C24.5495 5.89947 24.5402 5.89072 24.5302 5.88275C24.3707 5.75635 24.2285 5.63189 24.1003 5.50697C24.0885 5.49533 24.0762 5.48377 24.0646 5.47213C24.0595 5.46697 24.0544 5.46189 24.0493 5.45674C24.022 5.42924 23.9953 5.40174 23.9693 5.37424C23.9249 5.32674 23.8813 5.27885 23.8395 5.2301C20.4616 1.27939 16.9722 0.38541 16.8262 0.349395C16.6066 0.295489 16.3772 0.356269 16.214 0.508457C16.2077 0.514316 16.2008 0.519316 16.1947 0.525488L14.868 1.85283C14.4747 2.23549 14.0627 2.60416 13.6094 2.9808C13.588 2.99846 13.5682 3.01752 13.5495 3.03744C13.2383 3.29346 12.929 3.53018 12.6216 3.74908C12.6113 3.75565 12.6007 3.76166 12.5905 3.76893C12.3979 3.90424 12.2085 4.03096 12.0212 4.15025C12.001 4.16307 11.9818 4.17689 11.9634 4.19143C11.5085 4.47853 11.0581 4.724 10.6126 4.92799C10.5851 4.93611 10.5577 4.94549 10.5309 4.95736C10.3355 5.04471 10.1442 5.12268 9.95484 5.19268C9.92688 5.20299 9.90047 5.21557 9.87477 5.22908C9.79227 5.25861 9.70992 5.28674 9.62773 5.3133C9.60852 5.3176 9.58922 5.32135 9.57031 5.32744C9.36828 5.39143 9.17102 5.44541 8.97695 5.4901C8.95453 5.49533 8.93266 5.50158 8.91133 5.50893C8.35305 5.63275 7.80352 5.68682 7.26344 5.67072C7.25656 5.67025 7.24977 5.66924 7.24281 5.669C7.00414 5.66104 6.77414 5.63971 6.55281 5.60635C6.54672 5.60549 6.54063 5.60533 6.53453 5.60463C3.99398 5.21557 2.55352 3.29182 2.54023 3.27283C2.41461 3.10064 2.23266 2.99166 2.00312 2.99768C1.99625 2.99775 1.98961 2.99689 1.98266 2.99721C1.90531 2.99932 1.83031 3.01541 1.76008 3.04252C1.63078 3.09229 1.51797 3.18111 1.44023 3.30025C1.37398 3.40221 1.31141 3.50479 1.25062 3.60775C1.24937 3.60986 1.24812 3.61197 1.24688 3.61408C1.18852 3.71314 1.13219 3.8126 1.07875 3.91252C1.07656 3.91658 1.07406 3.92057 1.07195 3.92463C1.07008 3.92807 1.06875 3.93166 1.06695 3.93518C0.821328 4.39783 0.627187 4.86783 0.47625 5.3376C0.469688 5.35377 0.463203 5.36994 0.457891 5.38682C0.394531 5.58947 0.338594 5.7915 0.289219 5.99346C0.283672 6.01619 0.279375 6.039 0.276328 6.06166C0.166016 6.53518 0.0952344 7.00424 0.0553125 7.46096C0.0499219 7.48744 0.0454687 7.51439 0.0432031 7.54205C0.0271875 7.75205 0.0165625 7.95939 0.0111719 8.16338C0.0105469 8.19104 0.0121875 8.21814 0.0148437 8.24494C0.00695312 8.73236 0.0305469 9.19861 0.0732813 9.63314C0.0730469 9.65869 0.0738281 9.68439 0.0765625 9.71041C0.101875 9.95377 0.133203 10.1864 0.168594 10.4064C0.172344 10.4301 0.177734 10.4531 0.183828 10.4758C0.261875 10.9512 0.356484 11.3665 0.445078 11.702C0.186094 11.793 0 12.0396 0 12.3302V15.6635C0 16.0315 0.297969 16.3302 0.666641 16.3302H10C10.1773 16.3302 10.3466 16.2602 10.4713 16.1349L10.8634 15.7428C12.622 16.2168 18.5573 17.6702 25.1747 17.6695C30.1173 17.6695 35.4407 16.8581 39.6847 14.2221C39.8807 14.1008 40 13.8861 40 13.6561V11.6561C40 11.6363 39.9978 11.6168 39.996 11.5973ZM38.4847 11.3435C38.2384 11.4595 37.9016 11.6071 37.4686 11.7725C37.4648 11.7739 37.461 11.7754 37.4573 11.7768C37.3966 11.7999 37.3339 11.8235 37.2695 11.8472C37.2616 11.8502 37.2537 11.8531 37.2456 11.856C37.183 11.8791 37.1184 11.9024 37.0523 11.9259C37.0437 11.9289 37.0353 11.932 37.0266 11.9351C36.8777 11.9879 36.72 12.0417 36.5535 12.0964C36.5422 12.1001 36.5303 12.1039 36.5189 12.1076C36.4507 12.1299 36.3812 12.1522 36.3101 12.1747C36.2802 12.1842 36.2495 12.1936 36.2191 12.2031C36.1651 12.2199 36.1105 12.2367 36.0548 12.2537C36.0171 12.2652 35.9787 12.2766 35.9402 12.2881C35.89 12.3031 35.8391 12.3181 35.7876 12.3331C35.7445 12.3456 35.7013 12.3581 35.6573 12.3706C35.6086 12.3846 35.559 12.3985 35.5091 12.4124C35.4616 12.4256 35.4141 12.4389 35.3656 12.4522C35.3175 12.4653 35.2682 12.4785 35.2191 12.4916C35.1674 12.5053 35.1164 12.5192 35.0637 12.5329C35.0194 12.5445 34.9735 12.556 34.9284 12.5674C34.8116 12.5973 34.6921 12.6271 34.57 12.6566C34.5315 12.6659 34.4937 12.6753 34.4547 12.6845C34.389 12.7002 34.3215 12.7156 34.2543 12.7311C34.2104 12.7413 34.1668 12.7514 34.1223 12.7614C34.0541 12.7768 33.9846 12.7921 33.9149 12.8073C33.8698 12.8171 33.8247 12.827 33.779 12.8368C33.7072 12.8522 33.6345 12.8674 33.5611 12.8826C33.5165 12.8918 33.4714 12.901 33.4262 12.9102C33.3499 12.9256 33.2732 12.941 33.1953 12.9562C33.1529 12.9645 33.1097 12.9726 33.0668 12.9808C32.9839 12.9967 32.9009 13.0124 32.8162 13.028C32.7862 13.0335 32.7552 13.0388 32.7249 13.0443C32.4123 13.1007 32.0874 13.1549 31.7502 13.2062C31.7204 13.2107 31.6912 13.2154 31.6613 13.2199C31.5642 13.2344 31.4654 13.2485 31.3663 13.2625C31.3233 13.2686 31.2805 13.2748 31.2371 13.2808C31.1406 13.2942 31.0428 13.3071 30.9445 13.3199C30.8973 13.3261 30.8501 13.3322 30.8025 13.3382C30.7033 13.3508 30.6033 13.3631 30.5022 13.3752C30.4557 13.3807 30.4087 13.3861 30.3618 13.3915C30.2569 13.4036 30.1516 13.4156 30.0446 13.4271C30.0058 13.4313 29.9662 13.4353 29.9271 13.4393C29.403 13.4942 28.8552 13.5416 28.283 13.5799C28.2391 13.5828 28.1956 13.5859 28.1514 13.5888C28.0335 13.5963 27.9141 13.6032 27.7942 13.6099C27.7404 13.613 27.6866 13.616 27.6323 13.6189C27.5143 13.6252 27.3952 13.631 27.2752 13.6363C27.2183 13.6389 27.161 13.6413 27.1037 13.6438C26.9822 13.6488 26.8601 13.6536 26.7366 13.6579C26.6825 13.6598 26.6278 13.6613 26.5734 13.663C26.4437 13.667 26.3137 13.6709 26.1818 13.674C26.1467 13.6748 26.1109 13.6753 26.0757 13.676C25.6127 13.6858 25.1365 13.6895 24.6471 13.6865C24.602 13.6863 24.5574 13.6863 24.5121 13.6859C24.3772 13.6847 24.2404 13.6827 24.1035 13.6805C24.037 13.6795 23.9706 13.6785 23.9036 13.6772C23.7718 13.6746 23.6388 13.6714 23.5052 13.6679C23.4319 13.666 23.3584 13.6639 23.2846 13.6617C23.1513 13.6576 23.0173 13.6531 22.8823 13.6481C22.8077 13.6454 22.7327 13.6423 22.6576 13.6392C22.5198 13.6335 22.3816 13.6277 22.242 13.621C22.1728 13.6176 22.1026 13.6138 22.0329 13.6102C21.8847 13.6025 21.7366 13.5949 21.5863 13.5861C21.5612 13.5846 21.5355 13.5828 21.5102 13.5813C21.158 13.5601 20.7997 13.5354 20.436 13.5074C20.3929 13.5041 20.3505 13.5013 20.3071 13.4978C20.1598 13.4862 20.0105 13.4732 19.8614 13.4604C19.7773 13.4531 19.6937 13.4463 19.609 13.4386C19.467 13.4259 19.3234 13.4121 19.1796 13.3983C19.0856 13.3892 18.9916 13.3802 18.8968 13.3706C18.7553 13.3564 18.6129 13.3416 18.4698 13.3263C18.3711 13.3157 18.272 13.3049 18.1726 13.2938C18.0294 13.2779 17.8857 13.2617 17.7409 13.2448C17.6402 13.233 17.5386 13.2205 17.4372 13.2081C17.2906 13.1903 17.1441 13.1726 16.9959 13.1536C16.8984 13.1411 16.7996 13.1277 16.7014 13.1148C16.1696 13.0446 15.6276 12.9671 15.0752 12.8821C14.9617 12.8646 14.8488 12.8476 14.7343 12.8295C14.5891 12.8065 14.4423 12.7822 14.2958 12.7581C14.1734 12.7381 14.0512 12.7181 13.9279 12.6972C13.783 12.6728 13.6371 12.6474 13.4909 12.6219C13.363 12.5996 13.2348 12.577 13.106 12.5538C12.9605 12.5278 12.8143 12.5012 12.6674 12.474C12.5348 12.4495 12.4012 12.4242 12.2676 12.3988C12.122 12.3712 11.9764 12.3436 11.8295 12.3149C11.6888 12.2874 11.5466 12.2588 11.4046 12.2304C11.2622 12.2019 11.1204 12.1738 10.9767 12.1443C10.8061 12.1092 10.6334 12.0725 10.4612 12.036C10.3512 12.0128 10.2426 11.9905 10.132 11.9667C9.17664 11.7606 8.16328 11.656 7.11859 11.656L1.81461 11.662C1.76148 11.4831 1.69867 11.2517 1.63641 10.9792C1.93133 10.9138 2.15375 10.6537 2.15828 10.3388C2.16359 9.97018 1.86898 9.66752 1.50164 9.66221C1.4718 9.66221 1.44258 9.66158 1.41273 9.66088C1.25719 8.27346 1.31 6.47939 2.12523 4.79603C2.95258 5.59807 4.53656 6.784 6.8032 6.98002C7.49586 7.03978 8.1982 7.00221 8.90883 6.86971C8.96883 6.99072 9.06578 7.09471 9.19461 7.16275C9.29391 7.21541 9.40063 7.2401 9.50531 7.2401C9.70969 7.2401 9.90766 7.1451 10.036 6.97682C10.1495 7.05908 10.2861 7.10525 10.4272 7.10525C10.5232 7.10525 10.6198 7.08455 10.7119 7.04127C11.0319 6.88986 11.1752 6.51635 11.0459 6.1926C11.808 5.85408 12.5777 5.41033 13.3537 4.86174C13.3555 4.86049 13.3572 4.8594 13.359 4.85815C13.3595 4.85783 13.3598 4.85744 13.3602 4.85713C13.5836 4.69908 13.8073 4.53307 14.0316 4.35775L17.7858 7.47072C18.6918 8.22072 19.7905 8.58674 20.8838 8.58674C22.0834 8.58674 23.2757 8.14424 24.1968 7.28713C24.6449 7.58783 25.1386 7.859 25.6644 8.1033C25.6863 8.1165 25.7089 8.129 25.7327 8.13986C25.9921 8.25916 26.2621 8.37189 26.5374 8.47916C26.5608 8.48814 26.5843 8.49541 26.608 8.50166C27.2398 8.74432 27.9018 8.95479 28.5739 9.13744C28.5798 9.13924 28.5855 9.1415 28.5915 9.14314C28.6198 9.15072 28.6481 9.15775 28.6765 9.16518C29.4698 9.37713 30.2752 9.55064 31.0595 9.6926C31.0732 9.75861 31.0967 9.82377 31.1318 9.88564C31.2545 10.1023 31.4798 10.2236 31.7125 10.2236C31.8238 10.2236 31.9365 10.1956 32.0405 10.137C32.1699 10.0637 32.2956 9.98861 32.4196 9.9126C34.7255 10.2432 36.6413 10.3135 37.184 10.3273C37.569 10.5106 38.1726 10.8951 38.4847 11.3435ZM15.1908 3.3783C15.2118 3.35924 15.2327 3.3401 15.2537 3.32096C15.2921 3.28588 15.3302 3.25182 15.3688 3.21619C15.3758 3.20978 15.3818 3.20275 15.3884 3.19611C15.4062 3.17963 15.4239 3.16338 15.4416 3.14682C15.4417 3.14674 15.4418 3.14666 15.4419 3.14658C15.538 3.05666 15.6343 2.96525 15.7305 2.87221C15.7552 2.84846 15.7804 2.82533 15.805 2.80143L16.7477 1.85877L16.8523 1.75416C17.1664 1.86518 17.6769 2.06932 18.3129 2.40791L17.5286 3.19221C17.2679 3.45291 17.2679 3.87424 17.5286 4.13486C17.6586 4.26486 17.8293 4.33018 17.9999 4.33018C18.1706 4.33018 18.3413 4.26486 18.4713 4.13486L19.4919 3.11424C19.8202 3.33299 20.1645 3.58104 20.5194 3.86299C20.5807 3.91174 20.6426 3.96205 20.7045 4.01275L19.5279 5.19119C19.2679 5.45252 19.2679 5.87385 19.5292 6.13455C19.6586 6.26455 19.8292 6.32924 19.9999 6.32924C20.1706 6.32924 20.342 6.26393 20.472 6.13393L21.702 4.90143C22.0748 5.26158 22.4515 5.65838 22.8264 6.09682C22.9089 6.1933 22.9966 6.28697 23.0871 6.37908C23.0922 6.38463 23.0968 6.39057 23.1021 6.39596C23.1115 6.40549 23.1216 6.41479 23.1311 6.42432C23.1359 6.42916 23.1405 6.43416 23.1454 6.439C21.8661 7.50486 19.9635 7.54486 18.6376 6.44354L15.0707 3.48705C15.1106 3.45135 15.1508 3.41463 15.1908 3.3783ZM38.6666 13.2802C28.7206 19.1595 12.6866 14.8749 10.8327 14.3515C10.778 14.3368 10.722 14.3302 10.6666 14.3302C10.492 14.3302 10.3213 14.3988 10.1953 14.5255L9.72398 14.9968H1.33336V12.9961L7.11937 12.9895C7.40828 12.9895 7.69383 12.9992 7.97617 13.0166C8.49047 13.0483 8.99297 13.1081 9.4793 13.1967C9.60383 13.2195 9.72766 13.2436 9.85008 13.2701C9.91086 13.2832 9.97055 13.2953 10.0311 13.3083C10.1916 13.3425 10.3515 13.3763 10.5105 13.4095C10.6091 13.4299 10.7071 13.45 10.8051 13.4701C10.9451 13.4987 11.0844 13.5268 11.2232 13.5546C11.3113 13.5721 11.3998 13.59 11.4875 13.6072C11.6955 13.6481 11.9023 13.688 12.1079 13.7269C12.1878 13.7421 12.267 13.7566 12.3466 13.7713C12.4936 13.7987 12.64 13.8256 12.7857 13.852C12.8694 13.8672 12.953 13.8823 13.0363 13.8971C13.2149 13.9289 13.3926 13.9599 13.5692 13.9902C13.6214 13.9991 13.6737 14.0082 13.7258 14.017C13.9219 14.0502 14.1165 14.0823 14.3101 14.1137C14.3802 14.125 14.4499 14.1361 14.5197 14.1473C14.6795 14.1728 14.8384 14.1976 14.9964 14.2218C15.053 14.2305 15.11 14.2394 15.1665 14.2479C15.3754 14.2795 15.583 14.31 15.789 14.3395C15.8309 14.3455 15.8723 14.3511 15.9141 14.3571C16.0877 14.3816 16.2603 14.4053 16.4319 14.4284C16.4841 14.4354 16.5363 14.4424 16.5883 14.4493C17.0092 14.505 17.4239 14.5563 17.8324 14.6033C17.8689 14.6075 17.9052 14.6116 17.9416 14.6157C18.1267 14.6367 18.3106 14.657 18.4931 14.6763C18.5152 14.6786 18.5376 14.681 18.5597 14.6834C18.7712 14.7056 18.9811 14.7267 19.1891 14.7466C19.1908 14.7467 19.1923 14.7469 19.1939 14.7471C19.3961 14.7663 19.5963 14.7845 19.7952 14.8017C19.8171 14.8036 19.839 14.8056 19.8608 14.8074C20.2705 14.8426 20.6734 14.8734 21.0695 14.9C21.0772 14.9006 21.0849 14.901 21.0927 14.9016C21.7007 14.9423 22.2926 14.9732 22.8687 14.9953C23.6262 15.0242 24.3569 15.0381 25.0598 15.0381C25.4327 15.0381 25.797 15.0338 26.1545 15.0265C26.1573 15.0264 26.16 15.0264 26.1627 15.0263C26.8443 15.0122 27.4984 14.9853 28.1252 14.9474C28.1359 14.9468 28.1465 14.9462 28.1571 14.9455C28.7769 14.9077 29.3702 14.8592 29.9371 14.802C29.952 14.8006 29.9669 14.799 29.9818 14.7975C30.1104 14.7844 30.2377 14.7709 30.3636 14.7569C30.375 14.7556 30.3865 14.7544 30.3979 14.7531C30.8096 14.7071 31.2068 14.6564 31.5897 14.602C31.6063 14.5996 31.6228 14.5972 31.6394 14.5949C31.7497 14.579 31.8589 14.5629 31.9668 14.5464C31.9841 14.5438 32.0013 14.5412 32.0185 14.5385C32.1384 14.5201 32.257 14.5014 32.3738 14.4823C32.3742 14.4822 32.3746 14.4821 32.375 14.4821C32.618 14.4424 32.8545 14.4011 33.0848 14.3586C33.0998 14.3559 33.1146 14.3531 33.1296 14.3503C33.2266 14.3322 33.3226 14.314 33.4173 14.2956C33.4366 14.2918 33.4558 14.2881 33.4749 14.2843C33.5723 14.2653 33.6684 14.246 33.7634 14.2264C33.7738 14.2243 33.7843 14.2222 33.7946 14.2201C34.0096 14.1757 34.2185 14.1304 34.4212 14.0843C34.434 14.0814 34.4465 14.0785 34.4592 14.0756C34.5449 14.056 34.6295 14.0363 34.713 14.0165C34.7323 14.0119 34.7516 14.0073 34.7709 14.0027C34.8518 13.9833 34.9316 13.9638 35.0105 13.9443C35.0249 13.9407 35.0395 13.9372 35.0539 13.9336C35.2427 13.8865 35.4255 13.8388 35.6023 13.791C35.6105 13.7888 35.6184 13.7866 35.6264 13.7844C35.7041 13.7633 35.7806 13.7421 35.856 13.7209C35.8731 13.716 35.8902 13.7113 35.9071 13.7064C35.9756 13.687 36.0432 13.6676 36.1098 13.6481C36.1251 13.6437 36.1404 13.6392 36.1555 13.6348C36.2333 13.612 36.3099 13.5891 36.3849 13.5663C36.3865 13.5658 36.3881 13.5653 36.3897 13.5649C36.4712 13.54 36.5513 13.5153 36.6296 13.4906C36.6302 13.4904 36.6306 13.4903 36.6311 13.4901C36.7043 13.467 36.7759 13.444 36.8463 13.421C36.8599 13.4166 36.8733 13.4122 36.8867 13.4078C36.9455 13.3885 37.0034 13.3693 37.0602 13.3502C37.0742 13.3455 37.0882 13.3408 37.1021 13.3361C37.1631 13.3155 37.223 13.2949 37.2818 13.2745C37.2884 13.2722 37.2951 13.2699 37.3016 13.2676C37.4352 13.221 37.563 13.1749 37.6851 13.1296C37.695 13.1259 37.7047 13.1222 37.7145 13.1185C37.7645 13.0999 37.8136 13.0814 37.8616 13.0631C37.8734 13.0586 37.885 13.0541 37.8966 13.0496C37.9452 13.031 37.9929 13.0124 38.0395 12.9941C38.047 12.9911 38.0546 12.9881 38.062 12.9853C38.1721 12.9417 38.2765 12.8993 38.3751 12.8581C38.3803 12.856 38.3852 12.8538 38.3905 12.8517C38.4332 12.8338 38.4749 12.8161 38.5155 12.7987C38.5244 12.7949 38.5331 12.7911 38.542 12.7873C38.5798 12.771 38.6166 12.755 38.6524 12.7392C38.657 12.7372 38.6621 12.735 38.6667 12.733L38.6666 13.2802Z" fill="#CF4E32" stroke="white" strokeWidth="0.6" mask="url(#path-1-inside-1_1053_460)"/>
<path d="M6.76996 8.37741C6.45262 8.56405 6.3466 8.97272 6.53332 9.29007C6.6573 9.50139 6.87996 9.61874 7.10863 9.61874C7.22332 9.61874 7.33996 9.58944 7.44598 9.52671C7.7573 9.34335 8.05199 9.14468 8.32394 8.93405C8.61527 8.70874 8.66863 8.29007 8.44324 7.99874M6.76996 8.37741L6.82053 8.46368C7.08679 8.30759 7.33827 8.13725 7.56903 7.95861C7.81758 7.76747 8.17221 7.81244 8.36422 8.06002L8.44324 7.99874M6.76996 8.37741L6.82065 8.46361C6.55091 8.62225 6.46081 8.96963 6.61951 9.23935L6.61957 9.23946C6.7248 9.41882 6.91382 9.51874 7.10863 9.51874C7.20624 9.51874 7.30516 9.49384 7.39505 9.44065L7.39523 9.44054C7.70315 9.25919 7.99431 9.06287 8.26271 8.85499L8.26277 8.85495C8.51038 8.66345 8.55576 8.3076 8.36415 8.05993L8.44324 7.99874M6.76996 8.37741C7.03262 8.22343 7.28058 8.05546 7.50793 7.87944C7.79996 7.65475 8.2173 7.70741 8.44324 7.99874" fill="#CF4E32" stroke="white" strokeWidth="0.2"/>
<path d="M4.71217 9.35133L4.7122 9.35133C5.0131 9.26573 5.32643 9.43964 5.41256 9.74117C5.49815 10.0421 5.32297 10.356 5.02226 10.4409L5.02199 10.441C4.69834 10.5334 4.36262 10.6128 4.02419 10.6769L4.02397 10.6769C3.98818 10.6838 3.95183 10.6872 3.91749 10.6872C3.65073 10.6872 3.41321 10.4978 3.36103 10.2264C3.30271 9.91866 3.5045 9.62243 3.81148 9.56409L3.81148 9.56409C4.11976 9.50549 4.42062 9.43418 4.71217 9.35133Z" fill="#CF4E32" stroke="white" strokeWidth="0.2"/>
<path d="M13.7927 9.6748C13.666 9.87879 13.4487 9.99011 13.2253 9.99011C13.1053 9.99011 12.9839 9.95808 12.8746 9.89011C12.512 9.66542 12.17 9.42472 11.858 9.17675C11.5706 8.94746 11.5227 8.52808 11.752 8.24011L12.6886 8.13347C12.9606 8.35019 13.2593 8.55949 13.5773 8.75683C13.8899 8.95089 13.9866 9.36222 13.7927 9.6748ZM13.7927 9.6748L13.7077 9.62207C13.7077 9.62207 13.7077 9.62206 13.7077 9.62206L13.7927 9.6748Z" fill="#CF4E32" stroke="white" strokeWidth="0.2"/>
<path d="M16.0432 10.0297L16.0428 10.0296C15.7493 9.92438 15.4251 10.0786 15.3201 10.3742C15.2153 10.6693 15.3699 10.9929 15.6646 11.0978C16.0345 11.2284 16.4169 11.3497 16.8114 11.4604C16.8627 11.4746 16.9143 11.4814 16.9645 11.4814C17.2122 11.4814 17.4399 11.3175 17.5095 11.0673L17.5096 11.0669C17.5946 10.7664 17.4187 10.4536 17.117 10.3691L16.0432 10.0297ZM16.0432 10.0297C16.3901 10.1525 16.7482 10.2658 17.1169 10.3691L16.0432 10.0297Z" fill="#CF4E32" stroke="white" strokeWidth="0.2"/>
<path d="M27.2706 11.1967L27.3676 11.1723C27.2911 10.8692 27.4753 10.5609 27.7784 10.4844L27.7785 10.4844C28.15 10.3905 28.5114 10.2859 28.8621 10.1726L28.8622 10.1725C29.1589 10.0763 29.4792 10.2401 29.5755 10.5369C29.6718 10.8351 29.5086 11.1545 29.2106 11.2509L29.2105 11.2509C28.838 11.3715 28.4521 11.4822 28.0561 11.5824L28.0557 11.5825C28.0094 11.5944 27.9625 11.6001 27.9166 11.6001C27.6639 11.6001 27.4327 11.4288 27.3675 11.1721L27.2706 11.1967ZM27.2706 11.1967C27.3473 11.4988 27.6193 11.7001 27.9166 11.7001C27.9706 11.7001 28.0259 11.6934 28.0806 11.6794L29.6706 10.506C29.5573 10.1568 29.1807 9.96407 28.8313 10.0774C28.4826 10.1901 28.1233 10.2941 27.754 10.3874C27.3973 10.4774 27.1806 10.8401 27.2706 11.1967Z" fill="#CF4E32" stroke="white" strokeWidth="0.2"/>
<path d="M23.9274 12.2971C23.9153 12.2978 23.9027 12.2978 23.8913 12.2978C23.5394 12.2978 23.2447 12.0224 23.226 11.6671M23.9274 12.2971L23.3259 11.6618C23.3095 11.3489 23.5493 11.082 23.862 11.0656L23.862 11.0656C24.2436 11.0455 24.6213 11.0154 24.993 10.9759C25.3088 10.9448 25.5838 11.1684 25.6166 11.4789L25.6166 11.4791C25.6501 11.7901 25.4246 12.0689 25.114 12.1024L25.1247 12.2018M23.9274 12.2971C24.332 12.2758 24.7313 12.2437 25.1247 12.2018M23.9274 12.2971L25.716 11.4684C25.7554 11.8344 25.49 12.1625 25.1247 12.2018M23.226 11.6671L23.3259 11.6619C23.3418 11.9636 23.5921 12.1978 23.8913 12.1978C23.9032 12.1978 23.9129 12.1978 23.9215 12.1973L23.9221 12.1972C24.325 12.176 24.7225 12.1441 25.1141 12.1023L25.1247 12.2018M23.226 11.6671C23.2067 11.2991 23.4888 10.9851 23.8567 10.9658L23.226 11.6671Z" fill="#CF4E32" stroke="white" strokeWidth="0.2"/>
<path d="M19.7401 12.1473C20.1322 12.1966 20.5308 12.2366 20.9341 12.2666M19.7401 12.1473L19.7526 12.0481M19.7401 12.1473L19.7526 12.0481C19.7526 12.0481 19.7526 12.0481 19.7526 12.0481M19.7401 12.1473C19.3748 12.1013 19.1168 11.7673 19.1628 11.402M20.9341 12.2666L19.1628 11.402M20.9341 12.2666C20.9507 12.2679 20.9675 12.2686 20.9841 12.2686C21.3294 12.2686 21.6221 12.0013 21.6481 11.6507L20.9341 12.2666ZM19.7526 12.0481C20.143 12.0972 20.5399 12.137 20.9415 12.1669L20.9421 12.1669C20.9562 12.168 20.9703 12.1686 20.9841 12.1686C21.2774 12.1686 21.5262 11.9414 21.5484 11.6433L21.5484 11.6433C21.5715 11.3312 21.337 11.0597 21.0247 11.0364L21.0321 10.9367L21.0247 11.0364C20.6431 11.0083 20.266 10.9708 19.8955 10.9239L19.9081 10.8246L19.8956 10.9239C19.5838 10.8847 19.3017 11.104 19.262 11.4146M19.7526 12.0481C19.4424 12.009 19.2229 11.7253 19.262 11.4146M19.262 11.4146C19.262 11.4145 19.262 11.4145 19.262 11.4145L19.1628 11.402M19.262 11.4146C19.262 11.4146 19.262 11.4146 19.262 11.4147L19.1628 11.402" fill="#CF4E32" stroke="white" strokeWidth="0.2"/>
</svg>
