<svg width="32" height="31" viewBox="0 0 32 31" fill="none" xmlns="http://www.w3.org/2000/svg">
<g clip-path="url(#clip0_882_169)">
<path d="M30.2824 10.8268C29.6049 10.1731 28.6607 9.76729 27.6251 9.76729C27.559 9.76729 27.4925 9.76887 27.4267 9.77238V8.05359C27.4267 6.90246 26.9402 5.85504 26.1565 5.10152C25.3736 4.34719 24.285 3.87855 23.089 3.87891H8.5075C7.31151 3.87855 6.2229 4.34719 5.44001 5.10152C4.65628 5.85504 4.16974 6.90246 4.16974 8.05359V9.77238C4.10406 9.76887 4.03752 9.76729 3.97141 9.76729C2.93545 9.76729 1.99216 10.1731 1.31417 10.8268C0.635263 11.4794 0.212774 12.3874 0.213626 13.384C0.212774 14.026 0.38871 14.6337 0.695653 15.1574C0.990787 15.6619 1.40877 16.0893 1.90961 16.4068C1.92635 16.4633 1.95247 16.5831 1.97085 16.7749C1.99326 16.9984 2.00799 17.3198 2.00799 17.7618C2.00799 19.3572 2.00799 20.5099 2.00799 20.5099C2.00756 21.4206 2.39371 22.2519 3.01453 22.8483C3.63414 23.4458 4.49745 23.8171 5.44446 23.8167H5.91875L5.64566 26.1956H7.11755L8.10042 23.8167H23.4963L24.4792 26.1956H25.9507L25.6772 23.8167H26.152C27.099 23.8171 27.9623 23.4458 28.5819 22.8483C29.2028 22.2519 29.5889 21.4206 29.5885 20.5099C29.5885 20.5099 29.5885 19.3572 29.5885 17.7618C29.5885 17.3744 29.5995 17.0805 29.6178 16.8629C29.6309 16.7003 29.6477 16.5804 29.6648 16.4987C29.6729 16.4582 29.6803 16.428 29.6872 16.4064C30.1881 16.0893 30.6056 15.6619 30.9008 15.1574C31.2077 14.6337 31.3832 14.026 31.3828 13.384C31.3836 12.3874 30.9612 11.4794 30.2824 10.8268ZM5.47063 8.05359C5.47063 7.2443 5.80942 6.51785 6.36005 5.98711C6.91148 5.45713 7.66666 5.13105 8.5075 5.13064H23.089C23.9298 5.131 24.685 5.45713 25.2364 5.98711C25.7871 6.51785 26.1255 7.2443 26.1259 8.05359V10.0682C25.6903 10.2505 25.2977 10.509 24.9683 10.8268C24.2895 11.4794 23.867 12.3874 23.8678 13.384C23.8678 13.6575 23.8678 17.3249 23.8678 17.3249C23.867 17.4805 23.8038 17.616 23.6984 17.719C23.5915 17.8204 23.4511 17.8816 23.289 17.8816H8.30752C8.14546 17.8816 8.00502 17.8204 7.89812 17.719C7.7928 17.616 7.72912 17.4805 7.7287 17.3249C7.7287 17.3249 7.7287 13.6575 7.7287 13.384C7.72912 12.3874 7.30749 11.4794 6.62828 10.8268C6.29844 10.509 5.90615 10.2505 5.4707 10.0682V8.05359H5.47063ZM29.7677 14.543C29.5672 14.8852 29.2795 15.176 28.935 15.3853C28.9064 15.4026 28.8566 15.4337 28.8003 15.4796C28.7517 15.5193 28.6991 15.5704 28.6529 15.6285C28.5709 15.731 28.5105 15.8481 28.466 15.9718C28.3995 16.1592 28.3599 16.3683 28.3313 16.6511C28.3032 16.9335 28.2877 17.2903 28.2877 17.7618C28.2877 19.3572 28.2877 20.5099 28.2877 20.5099C28.2872 21.0792 28.0501 21.5888 27.6623 21.9628C27.2742 22.336 26.7439 22.5646 26.152 22.565H5.44452C4.85261 22.5646 4.32242 22.3359 3.93427 21.9628C3.54648 21.5888 3.30936 21.0792 3.30894 20.5099C3.30894 20.5099 3.30894 19.3572 3.30894 17.7618C3.30851 17.3512 3.29713 17.0275 3.27545 16.7643C3.25914 16.567 3.23795 16.4032 3.20892 16.2598C3.16484 16.0461 3.10603 15.8693 2.99992 15.7059C2.94769 15.6257 2.88158 15.5522 2.81705 15.4972C2.75301 15.4414 2.69377 15.4049 2.66151 15.3853C2.31664 15.1758 2.02887 14.8851 1.82925 14.543C1.62848 14.2 1.51415 13.8075 1.51415 13.384C1.51458 12.7291 1.78846 12.1417 2.23378 11.7119C2.68074 11.2829 3.29055 11.0197 3.97141 11.0193C4.65189 11.0197 5.2617 11.2829 5.70866 11.7119C6.15398 12.1417 6.42787 12.7291 6.4283 13.384C6.4283 13.6574 6.4283 17.3249 6.4283 17.3249C6.42787 17.8226 6.63972 18.2784 6.97851 18.604C7.3165 18.9301 7.79037 19.134 8.30758 19.1336H23.2891C23.8062 19.134 24.2802 18.9301 24.6177 18.604C24.9569 18.2784 25.1688 17.8226 25.1684 17.3249C25.1684 17.3249 25.1684 13.6574 25.1684 13.384C25.1688 12.7291 25.4427 12.1417 25.888 11.7119C26.335 11.2829 26.9448 11.0197 27.6253 11.0193C28.3061 11.0197 28.9159 11.2829 29.3629 11.7119C29.8082 12.1417 30.0821 12.7291 30.0825 13.384C30.0824 13.8076 29.9681 14.2 29.7677 14.543Z" fill="#CF4E32"/>
<path d="M10.4024 9.88348C10.7485 9.88348 11.0289 9.61318 11.0289 9.28084C11.0289 8.94768 10.7485 8.67773 10.4024 8.67773C10.0566 8.67773 9.77661 8.94762 9.77661 9.28084C9.77661 9.61318 10.0566 9.88348 10.4024 9.88348Z" fill="#CF4E32"/>
<path d="M21.3266 9.88348C21.6723 9.88348 21.9531 9.61318 21.9531 9.28084C21.9531 8.94768 21.6723 8.67773 21.3266 8.67773C20.9808 8.67773 20.7004 8.94762 20.7004 9.28084C20.7004 9.61318 20.9808 9.88348 21.3266 9.88348Z" fill="#CF4E32"/>
<path d="M10.4024 14.4739C10.7485 14.4739 11.0289 14.204 11.0289 13.8708C11.0289 13.5381 10.7485 13.2686 10.4024 13.2686C10.0566 13.2686 9.77661 13.5381 9.77661 13.8708C9.77661 14.204 10.0566 14.4739 10.4024 14.4739Z" fill="#CF4E32"/>
<path d="M21.3266 14.4739C21.6723 14.4739 21.9531 14.204 21.9531 13.8708C21.9531 13.5381 21.6723 13.2686 21.3266 13.2686C20.9808 13.2686 20.7004 13.5381 20.7004 13.8708C20.7004 14.204 20.9808 14.4739 21.3266 14.4739Z" fill="#CF4E32"/>
<path d="M15.8646 9.88348C16.2104 9.88348 16.4908 9.61318 16.4908 9.28084C16.4908 8.94768 16.2104 8.67773 15.8646 8.67773C15.5189 8.67773 15.2385 8.94762 15.2385 9.28084C15.2385 9.61318 15.5189 9.88348 15.8646 9.88348Z" fill="#CF4E32"/>
<path d="M15.8646 14.4739C16.2104 14.4739 16.4908 14.204 16.4908 13.8708C16.4908 13.5381 16.2104 13.2686 15.8646 13.2686C15.5189 13.2686 15.2385 13.5381 15.2385 13.8708C15.2385 14.204 15.5189 14.4739 15.8646 14.4739Z" fill="#CF4E32"/>
</g>
<defs>
<clipPath id="clip0_882_169">
<rect width="31.1692" height="30" fill="white" transform="translate(0.213623 0.0371094)"/>
</clipPath>
</defs>
</svg>
