<svg width="23" height="32" viewBox="0 0 23 32" fill="none" xmlns="http://www.w3.org/2000/svg">
<path d="M19.517 1.14391C19.5112 1.09157 19.5055 1.04341 19.5 1C23 2.5 23 5.5 21.6384 7.46619C21.3642 7.89827 20.4594 8.532 19.0336 7.61022C19.0086 7.59406 18.9843 7.5777 18.9605 7.56115C17.0458 6.22569 19.77 3.4646 19.517 1.14391Z" stroke="#CF4E32" stroke-width="0.7"/>
<path d="M18.8762 7.66699L15.1665 14.3337H18.0697L20.1665 8.14318L18.8762 7.66699Z" stroke="#CF4E32" stroke-width="0.7"/>
<path d="M18.3332 14.333H3.6665C3.11422 14.333 2.6665 14.7807 2.6665 15.333V22.9997C2.6665 27.418 6.24823 30.9997 10.6665 30.9997H11.3332C15.7515 30.9997 19.3332 27.4179 19.3332 22.9997V15.333C19.3332 14.7807 18.8855 14.333 18.3332 14.333Z" stroke="#CF4E32" stroke-width="0.7"/>
<path d="M1.31008 10.2945L1.03221 7.19255C1.01819 7.03606 1.1818 6.92526 1.32191 6.99636L4.41085 8.56378M1.31008 10.2945L4.41085 8.56378M1.31008 10.2945L3.48062 14.333H7.66667L4.41085 8.56378" stroke="#CF4E32" stroke-width="0.7"/>
<path d="M15.1667 14.3333H8.5V1H15.1667V14.3333Z" stroke="#CF4E32" stroke-width="0.7"/>
<path d="M11.8335 3.5H15.1668" stroke="#CF4E32" stroke-width="0.7"/>
<path d="M11.8335 8.5H15.1668" stroke="#CF4E32" stroke-width="0.7"/>
<path d="M12.6665 6H15.1665" stroke="#CF4E32" stroke-width="0.7"/>
<path d="M12.6665 11H15.1665" stroke="#CF4E32" stroke-width="0.7"/>
</svg>
