<svg width="30" height="30" viewBox="0 0 30 30" fill="none" xmlns="http://www.w3.org/2000/svg">
<path d="M10.7604 19.7417L25.75 5.91667M15.629 15.25L10.7583 10.7583M25.75 24.5833L18.75 18.128M11.75 8.25C11.75 10.183 10.183 11.75 8.25 11.75C6.31701 11.75 4.75 10.183 4.75 8.25C4.75 6.31701 6.31701 4.75 8.25 4.75C10.183 4.75 11.75 6.31701 11.75 8.25ZM11.75 22.25C11.75 24.183 10.183 25.75 8.25 25.75C6.31701 25.75 4.75 24.183 4.75 22.25C4.75 20.3169 6.31701 18.75 8.25 18.75C10.183 18.75 11.75 20.3169 11.75 22.25Z" stroke="#CF4E32" strokeWidth="1.2" strokeLinecap="round" strokeLinejoin="round"/>
</svg>
