<svg width="40" height="32" viewBox="0 0 40 32" fill="none" xmlns="http://www.w3.org/2000/svg">
<path d="M20.3399 23.5798C20.2982 23.5798 9.64237 23.615 8.07774 23.615C8.04084 23.615 8.00429 23.6222 7.97019 23.6364C7.93609 23.6505 7.90511 23.6712 7.879 23.6972C7.8529 23.7233 7.83219 23.7543 7.81805 23.7884C7.80392 23.8225 7.79664 23.859 7.79662 23.8959C7.79662 24.8301 7.72748 29.6592 7.7256 30.2692C7.72471 30.5655 7.75632 30.9179 8.25287 30.9179C12.1563 30.9179 16.4759 30.9745 20.3788 30.9069C20.5499 30.9039 20.7235 30.8366 20.7235 30.5827C20.7235 29.9384 20.7284 24.2761 20.7284 23.9145C20.7202 23.819 20.675 23.7305 20.6024 23.668C20.5298 23.6054 20.4356 23.5738 20.3399 23.5798Z" fill="white"/>
<path d="M16.0404 25.7725C15.6953 25.7725 9.61424 25.7945 9.1169 25.7944C9.1169 27.0133 9.10396 29.1331 9.10376 29.6882C9.9564 29.6882 15.6263 29.6825 16.0341 29.6827C16.0342 29.1089 16.0404 25.8296 16.0404 25.7725Z" fill="white"/>
<path d="M16.0404 25.5752C15.2555 25.5761 14.4706 25.5801 13.6858 25.5828C12.4998 25.5868 11.3137 25.5906 10.1276 25.5945C9.7908 25.5955 9.45387 25.5971 9.11694 25.5971C9.06479 25.5979 9.01498 25.619 8.9781 25.6558C8.94121 25.6927 8.92015 25.7425 8.91939 25.7947C8.91939 26.9024 8.91247 28.0101 8.90803 29.1178C8.90724 29.308 8.90665 29.4982 8.90625 29.6885C8.90702 29.7406 8.92807 29.7904 8.96496 29.8273C9.00184 29.8642 9.05165 29.8853 9.1038 29.886C9.97383 29.8856 10.8438 29.8849 11.7137 29.8839C12.8446 29.883 13.9755 29.882 15.1064 29.8812C15.4159 29.8812 15.7251 29.881 16.0342 29.8806C16.0864 29.8799 16.1362 29.8588 16.1731 29.8219C16.21 29.785 16.231 29.7352 16.2317 29.683C16.2317 28.5271 16.2336 27.3712 16.2372 26.2153C16.2372 26.0678 16.2374 25.9203 16.238 25.7727C16.238 25.5186 15.8429 25.5181 15.8429 25.7727C15.8424 26.84 15.8406 27.9073 15.8374 28.9746C15.8374 29.2107 15.8372 29.4468 15.8366 29.683L16.0342 29.4855C15.2703 29.4851 14.5064 29.4856 13.7426 29.4872L10.2613 29.49C9.87551 29.49 9.48982 29.4903 9.1042 29.4909L9.30175 29.6885C9.30225 28.695 9.31035 27.7014 9.31331 26.7079C9.31423 26.4034 9.31476 26.099 9.31489 25.7947L9.11734 25.9922C9.93847 25.9922 10.7596 25.9877 11.5807 25.9849L15.1083 25.9732C15.4191 25.9722 15.73 25.9707 16.0408 25.9703C16.2947 25.9701 16.2951 25.575 16.0404 25.5752Z" fill="#CF4E32"/>
<path d="M16.0852 24.5557C15.3004 24.5565 14.5155 24.5605 13.7306 24.5632C12.5446 24.5671 11.3585 24.571 10.1725 24.5749C9.83554 24.5759 9.49871 24.5775 9.16178 24.5775C8.90753 24.5775 8.90714 24.9726 9.16178 24.9726C9.98292 24.9726 10.804 24.9681 11.6251 24.9653L15.1527 24.9535C15.4636 24.9525 15.7744 24.9511 16.0852 24.9508C16.3394 24.9508 16.3399 24.5557 16.0852 24.5557Z" fill="#CF4E32"/>
<path d="M19.886 26.6055C19.8053 26.6055 18.3549 26.6122 18.2382 26.6122C18.2382 26.72 18.2351 27.6013 18.2351 27.771C18.4345 27.771 19.7891 27.7693 19.8847 27.7694C19.8845 27.594 19.886 26.6623 19.886 26.6055Z" fill="#F6F6F6"/>
<path d="M9.82759 30.9736V31.5789C9.72644 31.5789 8.91618 31.5851 8.76416 31.5852C8.76416 31.3257 8.76416 30.9736 8.76416 30.9736" fill="#CF4E32"/>
<path d="M19.6899 30.9736V31.5789C19.5887 31.5789 18.7784 31.5851 18.6265 31.5852C18.6265 31.3257 18.6265 30.9736 18.6265 30.9736" fill="#CF4E32"/>
<path d="M18.6224 24.3983C18.4942 24.396 18.3681 24.4314 18.2597 24.5C18.1499 24.5745 18.0682 24.6836 18.0278 24.8101C17.9887 24.9277 17.9849 25.0542 18.0166 25.174C18.0484 25.2938 18.1145 25.4018 18.2067 25.4846C18.3141 25.569 18.4444 25.6192 18.5807 25.6286C18.717 25.638 18.853 25.6063 18.971 25.5374C19.0771 25.4652 19.1588 25.3626 19.2054 25.2431C19.252 25.1235 19.2613 24.9927 19.2321 24.8677C19.2099 24.7419 19.1449 24.6276 19.0481 24.5442C18.9275 24.4475 18.777 24.3959 18.6224 24.3983C18.57 24.3983 18.5198 24.4191 18.4828 24.4561C18.4457 24.4932 18.4249 24.5434 18.4249 24.5958C18.4249 24.6482 18.4457 24.6984 18.4828 24.7355C18.5198 24.7725 18.57 24.7934 18.6224 24.7934C18.6468 24.7934 18.6725 24.7987 18.6967 24.7977C18.6458 24.7999 18.6703 24.7941 18.6898 24.7983C18.6971 24.7999 18.7043 24.8016 18.7114 24.8034C18.7219 24.8062 18.7322 24.8094 18.7424 24.8128C18.7643 24.8204 18.7709 24.8353 18.7337 24.8084C18.749 24.8195 18.769 24.8276 18.7854 24.8375C18.8172 24.8566 18.7489 24.8048 18.776 24.8297C18.7819 24.835 18.7878 24.8396 18.7935 24.8456C18.7993 24.8516 18.8046 24.8567 18.8098 24.8625C18.8236 24.8778 18.8259 24.8963 18.8023 24.8516C18.8096 24.8654 18.8199 24.8777 18.8273 24.8911C18.8318 24.8993 18.8351 24.9085 18.8399 24.9166C18.8093 24.8647 18.8311 24.8954 18.8371 24.9146C18.842 24.9303 18.8461 24.9464 18.8492 24.9626C18.8529 24.9811 18.8485 25.0074 18.8484 24.9503C18.8484 24.9602 18.8505 24.9713 18.851 24.9815C18.8521 24.9998 18.8522 25.0181 18.851 25.0363C18.8495 25.0473 18.8487 25.0584 18.8485 25.0695C18.8441 25.0186 18.8532 25.0394 18.8492 25.0597C18.8452 25.0801 18.8398 25.1002 18.8329 25.1199C18.8254 25.1415 18.8107 25.1479 18.8378 25.11C18.8345 25.1158 18.8315 25.1217 18.8289 25.1278C18.8243 25.1366 18.819 25.1451 18.8141 25.1534C18.8042 25.1688 18.7844 25.1841 18.8224 25.1453C18.8086 25.1592 18.797 25.1749 18.7824 25.1879C18.7677 25.2008 18.7491 25.203 18.7917 25.1817C18.7846 25.1853 18.7779 25.1916 18.7711 25.1957C18.7552 25.2056 18.7376 25.2124 18.7217 25.2219C18.7677 25.1945 18.7473 25.2112 18.7294 25.217C18.7228 25.2192 18.7159 25.2213 18.7087 25.2232C18.6979 25.2261 18.6871 25.2287 18.6762 25.2308C18.6218 25.2416 18.7076 25.2308 18.6711 25.2317C18.6505 25.2325 18.6302 25.234 18.6095 25.2336C18.5972 25.2336 18.5849 25.2321 18.5726 25.2315C18.5293 25.2296 18.6195 25.2419 18.5782 25.2322C18.5598 25.228 18.5415 25.2244 18.5235 25.2187C18.5136 25.2155 18.503 25.2101 18.4927 25.2077C18.5438 25.2196 18.5179 25.2186 18.5015 25.2099C18.4925 25.2051 18.4835 25.2 18.4748 25.1943C18.459 25.1844 18.4451 25.1639 18.4817 25.2016C18.47 25.1897 18.4563 25.1799 18.4447 25.1677C18.4379 25.1606 18.4321 25.1519 18.425 25.1453C18.462 25.1797 18.4433 25.1697 18.4324 25.1529C18.4215 25.1361 18.4141 25.117 18.4037 25.0999C18.4312 25.1444 18.4149 25.1275 18.4087 25.109C18.4059 25.1007 18.4036 25.0924 18.4013 25.084C18.399 25.0756 18.3969 25.067 18.3953 25.0584C18.3909 25.0375 18.3982 25.0172 18.3953 25.0683C18.3961 25.0503 18.3922 25.0313 18.3922 25.013C18.3922 25.0015 18.3922 24.99 18.3933 24.9785C18.3968 24.9233 18.3855 25.0097 18.3933 24.9759C18.3973 24.9551 18.4024 24.9346 18.4086 24.9144C18.4144 24.8966 18.4308 24.8766 18.4033 24.9233C18.4083 24.9149 18.4118 24.9052 18.4165 24.8964C18.4212 24.8876 18.4264 24.8791 18.4316 24.8708C18.4591 24.8281 18.4075 24.8956 18.4299 24.8716C18.4434 24.8572 18.4568 24.8436 18.4714 24.8303C18.4992 24.8051 18.4306 24.8568 18.4629 24.8375C18.4728 24.8315 18.4827 24.825 18.4926 24.8193C18.5003 24.816 18.5079 24.8122 18.5152 24.8079C18.4837 24.8206 18.4774 24.8233 18.4967 24.8157C18.5033 24.8132 18.5099 24.8109 18.5165 24.8088C18.5374 24.8025 18.5587 24.7973 18.5803 24.7933C18.6212 24.7848 18.5309 24.796 18.5735 24.7945C18.5895 24.794 18.6055 24.7927 18.6216 24.7926C18.6739 24.7926 18.7242 24.7718 18.7612 24.7347C18.7983 24.6977 18.8191 24.6474 18.8191 24.595C18.8191 24.5426 18.7983 24.4924 18.7612 24.4553C18.7242 24.4183 18.6739 24.3975 18.6216 24.3975L18.6224 24.3983Z" fill="#CF4E32"/>
<path d="M20.3401 23.3823C19.7625 23.3829 19.185 23.3861 18.6074 23.3879L14.7536 23.4C13.3773 23.4043 12.0013 23.4083 10.6255 23.412C10.0931 23.4135 9.56053 23.4148 9.02793 23.416C8.83696 23.4165 8.64599 23.4168 8.45502 23.4171C8.30091 23.4072 8.14623 23.4103 7.99265 23.4265C7.87994 23.4485 7.77864 23.5097 7.70667 23.5992C7.63469 23.6886 7.59667 23.8007 7.59932 23.9155C7.59774 23.9995 7.59872 24.0834 7.59823 24.1677C7.59652 24.4294 7.59415 24.6913 7.59112 24.9532C7.58361 25.6749 7.57508 26.3966 7.56554 27.1184C7.55665 27.8281 7.54779 28.5378 7.53896 29.2475C7.53593 29.494 7.5331 29.7406 7.53047 29.9871C7.51741 30.1884 7.52549 30.3905 7.55457 30.5902C7.57066 30.6847 7.60838 30.7743 7.66478 30.8519C7.72119 30.9295 7.79475 30.993 7.87974 31.0375C8.12669 31.1584 8.43398 31.1155 8.69959 31.1158C9.31352 31.1163 9.92742 31.1179 10.5413 31.1205C11.7995 31.1252 13.0577 31.1301 14.3158 31.1353C15.5816 31.1388 16.8473 31.1373 18.1131 31.1308C18.7194 31.1267 19.3255 31.1203 19.9316 31.1117C20.1744 31.1081 20.4886 31.1554 20.7043 31.017C20.8698 30.9109 20.9194 30.7305 20.9208 30.5445C20.929 29.4465 20.9222 28.3482 20.9231 27.2502C20.9241 26.1605 20.9249 25.0707 20.9257 23.9807C20.9285 23.9024 20.9154 23.8243 20.8871 23.7513C20.8588 23.6782 20.8159 23.6116 20.7611 23.5556C20.7063 23.4997 20.6407 23.4554 20.5682 23.4255C20.4958 23.3957 20.418 23.3809 20.3397 23.382C20.0854 23.3721 20.0858 23.7672 20.3397 23.7771C20.5504 23.7852 20.5306 23.9263 20.5305 24.0826V24.6174L20.529 26.398C20.528 27.6431 20.5271 28.8882 20.5261 30.1333C20.5261 30.2769 20.5276 30.4208 20.5261 30.5645C20.5261 30.6075 20.5274 30.6548 20.4945 30.6822C20.4296 30.7364 20.2765 30.7109 20.2007 30.7119C19.9159 30.7165 19.631 30.7205 19.3462 30.7239C18.1303 30.7383 16.9145 30.7444 15.6986 30.742C13.2613 30.7411 10.8241 30.7206 8.38686 30.7199C8.22349 30.7199 8.02218 30.7342 7.95896 30.5752C7.92615 30.4647 7.91413 30.3489 7.9235 30.234C7.92429 30.0631 7.92656 29.8921 7.92844 29.7212C7.93542 29.1035 7.94303 28.4857 7.95126 27.868C7.96736 26.5926 7.9882 25.317 7.99403 24.0415C7.99403 23.9637 7.96756 23.8356 8.06604 23.8126C8.12184 23.8065 8.17812 23.8063 8.23396 23.812C8.39022 23.812 8.54649 23.8118 8.70275 23.8113C9.1697 23.8104 9.63662 23.8093 10.1035 23.808C11.3963 23.8047 12.6891 23.801 13.9818 23.797C15.2993 23.793 16.617 23.7889 17.9346 23.7846L20.2274 23.7773H20.3404C20.5943 23.7772 20.5951 23.3821 20.3401 23.3823Z" fill="#CF4E32"/>
<path d="M19.886 26.4082C19.4193 26.409 18.9527 26.4123 18.4859 26.414C18.4034 26.414 18.3208 26.4149 18.2382 26.4149C18.186 26.4156 18.1362 26.4367 18.0993 26.4736C18.0624 26.5105 18.0414 26.5603 18.0407 26.6125C18.0407 26.9988 18.0377 27.385 18.0376 27.7713C18.0383 27.8235 18.0594 27.8733 18.0963 27.9102C18.1331 27.9471 18.183 27.9682 18.2352 27.9689C18.7849 27.9689 19.3347 27.9669 19.8847 27.9672C19.9369 27.9665 19.9867 27.9454 20.0236 27.9085C20.0605 27.8716 20.0815 27.8218 20.0823 27.7696C20.0823 27.3818 20.0837 26.9938 20.0838 26.6058C20.0838 26.3515 19.6887 26.3511 19.6887 26.6058C19.6887 26.9938 19.6873 27.3818 19.6872 27.7696L19.8847 27.5721C19.3349 27.5721 18.7851 27.5735 18.2352 27.5738L18.4327 27.7713C18.4327 27.385 18.4357 26.9988 18.4358 26.6125L18.2382 26.81C18.7111 26.81 19.1839 26.8062 19.6567 26.8042C19.7332 26.8042 19.8096 26.8034 19.886 26.8033C20.1406 26.8029 20.1406 26.4078 19.886 26.4082Z" fill="#CF4E32"/>
<path d="M18.3107 28.9534C18.8101 28.9534 19.3094 28.9514 19.8087 28.9517C20.0629 28.9517 20.0633 28.5566 19.8087 28.5566C19.3094 28.5566 18.8101 28.558 18.3107 28.5583C18.0565 28.5583 18.056 28.9534 18.3107 28.9534Z" fill="#CF4E32"/>
<path d="M18.3107 29.7151C18.8101 29.7151 19.3094 29.7131 19.8087 29.7135C20.0629 29.7135 20.0633 29.3184 19.8087 29.3184C19.3094 29.3184 18.8101 29.3196 18.3107 29.32C18.0565 29.32 18.056 29.7151 18.3107 29.7151Z" fill="#CF4E32"/>
<path d="M17.5665 30.805C17.5685 28.9367 17.5704 27.0684 17.5723 25.2001C17.5723 24.6651 17.5723 24.1301 17.5723 23.5951C17.5723 23.3409 17.1772 23.3405 17.1772 23.5951C17.1772 25.4635 17.1757 27.3318 17.1728 29.2C17.1721 29.735 17.1714 30.27 17.1709 30.805C17.1709 31.0592 17.566 31.0596 17.566 30.805H17.5665Z" fill="#CF4E32"/>
<path d="M19.8832 25.1377C19.8124 25.1377 19.7419 25.1407 19.6712 25.1408C19.6192 25.1422 19.5698 25.1634 19.5331 25.2002C19.4963 25.2369 19.4751 25.2864 19.4736 25.3383L19.4807 25.3908C19.4898 25.4237 19.5073 25.4538 19.5315 25.478C19.569 25.5143 19.619 25.535 19.6712 25.5359C19.7419 25.5359 19.8124 25.5329 19.8832 25.5328C19.9351 25.5314 19.9845 25.5101 20.0213 25.4734C20.058 25.4366 20.0793 25.3872 20.0807 25.3352L20.0736 25.2827C20.0645 25.2498 20.047 25.2197 20.0228 25.1956C19.9853 25.1592 19.9354 25.1385 19.8832 25.1377Z" fill="#CF4E32"/>
<path d="M19.8832 24.4658C19.8124 24.4658 19.7419 24.4688 19.6712 24.4688C19.6193 24.4703 19.5699 24.4915 19.5331 24.5283C19.4964 24.565 19.4751 24.6144 19.4736 24.6663L19.4807 24.7189C19.4898 24.7519 19.5073 24.7819 19.5315 24.8061C19.569 24.8425 19.619 24.8631 19.6712 24.8639C19.7419 24.8639 19.8124 24.861 19.8832 24.8609C19.9351 24.8588 19.9846 24.8383 20.0228 24.803C20.058 24.7648 20.0785 24.7153 20.0807 24.6634L20.0736 24.6108C20.0645 24.5779 20.047 24.5478 20.0228 24.5237C19.9853 24.4874 19.9354 24.4667 19.8832 24.4658Z" fill="#CF4E32"/>
<path d="M9.63008 30.9739V31.5792L9.82764 31.3817C9.47322 31.383 9.11871 31.3877 8.7642 31.3879L8.96176 31.5854C8.96176 31.3813 8.96176 31.1775 8.96176 30.9739C8.96176 30.9215 8.94094 30.8713 8.9039 30.8342C8.86685 30.7972 8.8166 30.7764 8.7642 30.7764C8.71181 30.7764 8.66156 30.7972 8.62451 30.8342C8.58746 30.8713 8.56665 30.9215 8.56665 30.9739C8.56665 31.1781 8.56665 31.3819 8.56665 31.5854C8.56742 31.6376 8.58848 31.6874 8.62536 31.7243C8.66224 31.7612 8.71205 31.7822 8.7642 31.783C9.11871 31.783 9.47322 31.7781 9.82764 31.7768C9.8798 31.776 9.92962 31.755 9.96651 31.7181C10.0034 31.6812 10.0244 31.6314 10.0252 31.5792V30.9739C10.0252 30.9215 10.0044 30.8713 9.96733 30.8342C9.93028 30.7972 9.88003 30.7764 9.82764 30.7764C9.77524 30.7764 9.72499 30.7972 9.68795 30.8342C9.6509 30.8713 9.63008 30.9215 9.63008 30.9739Z" fill="#CF4E32"/>
<path d="M19.4924 30.9739V31.5792L19.6899 31.3817C19.3354 31.383 18.9809 31.3877 18.6265 31.3879L18.8241 31.5854C18.8241 31.3813 18.8241 31.1775 18.8241 30.9739C18.8241 30.9215 18.8032 30.8713 18.7662 30.8342C18.7292 30.7972 18.6789 30.7764 18.6265 30.7764C18.5741 30.7764 18.5239 30.7972 18.4868 30.8342C18.4498 30.8713 18.429 30.9215 18.429 30.9739C18.429 31.1781 18.429 31.3819 18.429 31.5854C18.4297 31.6376 18.4507 31.6875 18.4876 31.7243C18.5245 31.7612 18.5743 31.7823 18.6265 31.783C18.9809 31.783 19.3354 31.7781 19.6899 31.7768C19.7421 31.776 19.7919 31.755 19.8288 31.7181C19.8657 31.6812 19.8867 31.6314 19.8875 31.5792V30.9739C19.8875 30.9215 19.8667 30.8713 19.8296 30.8342C19.7926 30.7972 19.7423 30.7764 19.6899 30.7764C19.6375 30.7764 19.5873 30.7972 19.5502 30.8342C19.5132 30.8713 19.4924 30.9215 19.4924 30.9739Z" fill="#CF4E32"/>
<path d="M26.3155 29.1609C26.2203 28.7643 26.1579 28.3606 26.1289 27.9538C26.0685 26.929 26.0697 25.9941 26.313 24.9968C26.5486 24.1604 26.8894 23.5856 27.5865 23.1568C28.0122 22.895 29.0732 22.6762 30.5893 22.6859C32.1064 22.676 33.2702 22.9533 33.6959 23.2153C34.393 23.6441 34.6312 24.1604 34.8668 24.9968C35.1104 25.9945 35.1115 26.929 35.0509 27.9538C35.0184 28.507 34.859 29.3748 34.6341 29.881C34.261 30.7206 33.7566 31.0189 32.8573 31.2067C31.3631 31.5306 29.8168 31.5306 28.3226 31.2067C27.4232 31.0191 26.9187 30.7206 26.5457 29.881C26.4481 29.6481 26.3711 29.4072 26.3155 29.1609Z" fill="white"/>
<path d="M27.0427 30.6275C26.835 30.4194 26.6696 30.173 26.5557 29.902L26.6366 29.9296C27.2977 30.3602 29.3976 30.495 30.6507 30.49C31.9035 30.4949 33.9091 30.2781 34.5227 29.8886L34.6646 29.8076C34.6547 29.833 34.6448 29.857 34.6339 29.881C34.2609 30.7206 33.7564 31.0189 32.8571 31.2068C31.3629 31.5307 29.8166 31.5307 28.3224 31.2068C27.7652 31.0903 27.3594 30.9314 27.0427 30.6275Z" fill="white"/>
<path d="M30.5899 25.5929C30.0341 25.5945 29.4613 25.5591 29.2154 25.5994C29.1998 25.6012 29.1853 25.6085 29.1746 25.62C29.1639 25.6316 29.1578 25.6466 29.1572 25.6623C29.1581 25.7669 29.174 26.1155 29.3236 26.2316C29.4342 26.3176 29.9162 26.3944 30.5895 26.4029C31.2633 26.3944 31.7452 26.3176 31.8562 26.2316C32.0058 26.1155 32.0217 25.7669 32.0225 25.6623C32.022 25.6465 32.0159 25.6315 32.0052 25.62C31.9945 25.6085 31.98 25.6012 31.9644 25.5994C31.7185 25.5591 31.1457 25.5945 30.5899 25.5929Z" fill="#F6F6F6"/>
<path d="M26.1224 24.9439C25.9498 25.6984 25.8754 26.472 25.9012 27.2454C25.9053 27.9012 25.9789 28.5547 26.1207 29.195C26.2491 29.7355 26.448 30.2815 26.8326 30.6951C27.1924 31.0818 27.694 31.2697 28.1989 31.3813C29.5955 31.6958 31.0404 31.7313 32.4508 31.4858C33.0091 31.3871 33.6105 31.2797 34.0766 30.9334C34.5093 30.6121 34.7767 30.1305 34.9404 29.6249C35.1456 28.9435 35.2564 28.2372 35.2699 27.5257C35.3184 26.6593 35.2469 25.7905 35.0573 24.9437C34.9981 24.6968 34.6168 24.8012 34.6764 25.0487C34.8371 25.7537 34.907 26.4763 34.8844 27.199C34.8836 27.822 34.8173 28.4433 34.6868 29.0525C34.5748 29.5365 34.4138 30.0438 34.0677 30.4156C33.7438 30.7636 33.2934 30.9102 32.8404 31.0083C31.5237 31.3 30.1628 31.3329 28.8336 31.1051C28.32 31.0137 27.7563 30.9261 27.325 30.6091C26.9496 30.3331 26.7323 29.8868 26.5989 29.452C26.4145 28.8101 26.3151 28.1468 26.3032 27.4791C26.2585 26.6637 26.3259 25.8461 26.5035 25.0491C26.5627 24.8022 26.1819 24.6966 26.1224 24.9441V24.9439Z" fill="#CF4E32"/>
<path d="M26.5036 25.0491C26.6933 24.3828 27.0038 23.7781 27.5947 23.3856C28.0231 23.101 28.6022 23.0132 29.1313 22.9534C30.011 22.8549 30.8987 22.8492 31.7795 22.9364C32.1405 22.9705 32.4986 23.0301 32.8512 23.1147C33.086 23.1649 33.314 23.2432 33.5301 23.3478C33.8213 23.5023 34.0694 23.7271 34.2517 24.0017C34.4453 24.3273 34.5885 24.6803 34.6765 25.0488C34.7456 25.293 35.127 25.1892 35.0575 24.9438C34.967 24.5823 34.8322 24.2333 34.656 23.9049C34.4776 23.6016 34.2348 23.3411 33.9448 23.1417C33.4411 22.7876 32.7865 22.6725 32.1893 22.5902C31.2515 22.4656 30.3028 22.447 29.3609 22.5349C28.7568 22.589 28.0708 22.6594 27.53 22.9607C26.7719 23.3831 26.3537 24.134 26.123 24.9438C26.0532 25.1887 26.4343 25.2932 26.5041 25.0488L26.5036 25.0491Z" fill="#CF4E32"/>
<path d="M27.1058 24.9227C27.5 24.7731 27.9094 24.6671 28.3267 24.6066C28.8166 24.5254 29.3105 24.4703 29.8062 24.4413C30.757 24.3843 31.7112 24.4289 32.6526 24.5744C33.1384 24.6344 33.6155 24.7514 34.0739 24.9231C34.1244 24.9367 34.1783 24.9298 34.2238 24.9039C34.2694 24.878 34.3028 24.8352 34.317 24.7848C34.3296 24.7343 34.3222 24.6808 34.2965 24.6356C34.2707 24.5903 34.2286 24.5568 34.1787 24.5418C33.7682 24.3865 33.3416 24.2775 32.9069 24.2168C32.3957 24.1334 31.8805 24.0762 31.3634 24.0453C30.3877 23.9904 29.4088 24.0389 28.4432 24.1899C27.9501 24.2497 27.4658 24.3678 27.0005 24.5418C26.9508 24.5571 26.9088 24.5907 26.8831 24.6359C26.8574 24.681 26.8499 24.7343 26.8622 24.7848C26.8763 24.8352 26.9098 24.878 26.9552 24.9039C27.0007 24.9298 27.0546 24.9367 27.1052 24.9231L27.1058 24.9227Z" fill="#CF4E32"/>
<path d="M26.1862 24.9481C26.3749 25.6124 26.8952 26.2008 27.4156 26.6338C27.9945 27.1156 28.7007 27.3879 29.4346 27.5332C30.0998 27.6677 30.7835 27.6855 31.4548 27.5859C32.1839 27.4772 32.9433 27.2492 33.5428 26.8072C33.8765 26.5613 34.1763 26.2723 34.4343 25.9478C34.6845 25.6547 34.8745 25.3151 34.9935 24.9484C35.0627 24.7034 34.682 24.5988 34.6125 24.8434C34.4425 25.4423 33.952 25.9659 33.4848 26.3547C32.9534 26.797 32.2837 27.0305 31.6121 27.1603C31.0217 27.2762 30.4158 27.2901 29.8207 27.2016C29.1422 27.0989 28.4423 26.9001 27.878 26.4966C27.5772 26.2762 27.3063 26.0175 27.0723 25.7272C26.8458 25.4699 26.6739 25.1692 26.5672 24.8434C26.498 24.5991 26.1165 24.703 26.1862 24.9484V24.9481Z" fill="#CF4E32"/>
<path d="M26.5368 30.0996C26.9121 30.3387 27.3952 30.4197 27.8264 30.4893C28.4244 30.5817 29.027 30.64 29.6316 30.6641C30.7865 30.7243 31.9445 30.6681 33.0881 30.4962C33.595 30.4172 34.1784 30.3345 34.6227 30.0585C34.8383 29.9246 34.6402 29.5827 34.4232 29.7174C34.0783 29.9316 33.6002 30.0096 33.1864 30.0817C32.6086 30.1793 32.0256 30.2423 31.4404 30.2704C30.341 30.332 29.2383 30.2885 28.1472 30.1406C27.6801 30.0755 27.1272 30.0075 26.7362 29.7583C26.5212 29.6212 26.3227 29.9631 26.5368 30.0995V30.0996Z" fill="#CF4E32"/>
<path d="M29.2563 24.4592C29.3404 24.6582 29.6177 24.7957 29.8021 24.8771C30.0411 24.9826 30.3157 24.9795 30.5725 24.9795C30.8293 24.9795 31.1059 24.983 31.3461 24.8771C31.5306 24.7958 31.8078 24.6582 31.8919 24.4592C31.9166 24.4136 31.923 24.3602 31.9098 24.31C31.8966 24.2598 31.8649 24.2165 31.821 24.1889C31.7756 24.1628 31.7219 24.1556 31.6713 24.1689C31.6207 24.1821 31.5774 24.2148 31.5507 24.2598C31.5362 24.2941 31.5526 24.2732 31.5231 24.3019C31.4984 24.3264 31.472 24.3491 31.444 24.3698C31.359 24.4329 31.2666 24.4855 31.1688 24.5264C30.986 24.5992 30.7655 24.5844 30.5727 24.5844C30.385 24.5844 30.1726 24.5978 29.9933 24.5309C29.8959 24.4916 29.8036 24.4407 29.7185 24.3792C29.6885 24.3584 29.6602 24.3353 29.6338 24.3101C29.6229 24.2996 29.6126 24.2886 29.6029 24.277C29.6227 24.3012 29.6005 24.2653 29.598 24.2596C29.5713 24.2146 29.528 24.1819 29.4774 24.1686C29.4268 24.1553 29.3731 24.1625 29.3277 24.1887C29.2835 24.2161 29.2515 24.2594 29.2383 24.3097C29.2251 24.36 29.2318 24.4134 29.2568 24.459L29.2563 24.4592Z" fill="#CF4E32"/>
<path d="M30.5899 25.3959C30.2498 25.3959 29.9098 25.3815 29.5697 25.3831C29.3327 25.3842 28.9663 25.3573 28.9601 25.6854C28.9482 25.9009 29.0034 26.1149 29.1181 26.2978C29.2328 26.4526 29.4234 26.4923 29.6035 26.523C30.1985 26.6203 30.8046 26.6289 31.4021 26.5484C31.5767 26.5256 31.7826 26.5077 31.9374 26.4145C32.1426 26.291 32.1913 26.0233 32.2123 25.8043C32.2253 25.6708 32.2282 25.5192 32.0944 25.441C31.9744 25.3922 31.8445 25.3726 31.7155 25.384C31.3401 25.3752 30.9648 25.3959 30.5894 25.3955C30.3352 25.3955 30.3348 25.7906 30.5894 25.7906C30.8572 25.7906 31.125 25.7833 31.3928 25.7793C31.5002 25.7777 31.6078 25.7766 31.7152 25.7793C31.7916 25.7761 31.8681 25.7839 31.9424 25.8022L31.8552 25.7515L31.8756 25.7736L31.8248 25.6865C31.8193 25.6646 31.8232 25.7235 31.8227 25.733C31.8211 25.7656 31.8189 25.7985 31.8147 25.8309C31.8082 25.8897 31.7949 25.9476 31.7752 26.0034C31.7665 26.0306 31.7532 26.0561 31.7357 26.0787C31.7533 26.0589 31.7423 26.0688 31.7272 26.0796C31.7032 26.0965 31.7569 26.0712 31.7097 26.0863C31.6878 26.0933 31.6658 26.1 31.6436 26.1061C30.9474 26.2389 30.2324 26.2389 29.5362 26.1061C29.5165 26.1009 29.4978 26.0947 29.4786 26.0893C29.4675 26.0856 29.4565 26.0818 29.4458 26.0776C29.4689 26.0878 29.4712 26.0885 29.4527 26.0797C29.4375 26.069 29.4265 26.0588 29.4442 26.0788C29.4267 26.0563 29.4133 26.0308 29.4047 26.0035C29.3849 25.9477 29.3716 25.8898 29.3652 25.831C29.3609 25.7986 29.3588 25.7657 29.3571 25.7331C29.3571 25.7232 29.3606 25.6647 29.3551 25.6866L29.3042 25.7737L29.3247 25.7516L29.2374 25.8023C29.306 25.7846 29.3769 25.777 29.4476 25.7799C29.5605 25.7767 29.6736 25.778 29.7865 25.7799C30.0543 25.7839 30.322 25.7915 30.5899 25.7912C30.8441 25.7902 30.8446 25.3956 30.5899 25.3959Z" fill="#CF4E32"/>
<path d="M28.2935 25.6259C28.2634 25.6236 28.2332 25.6277 28.2049 25.638C28.1766 25.6484 28.1508 25.6646 28.1293 25.6857C28.1077 25.7068 28.091 25.7323 28.0801 25.7604C28.0693 25.7885 28.0645 25.8186 28.0663 25.8487C28.0649 25.8787 28.0699 25.9087 28.0809 25.9366C28.0919 25.9645 28.1087 25.9898 28.1301 26.0109C28.1516 26.0319 28.1772 26.0482 28.2053 26.0586C28.2335 26.0691 28.2635 26.0735 28.2935 26.0716C28.3235 26.0739 28.3537 26.0698 28.3821 26.0595C28.4104 26.0492 28.4362 26.0329 28.4577 26.0118C28.4793 25.9907 28.496 25.9652 28.5069 25.9371C28.5177 25.909 28.5224 25.8788 28.5206 25.8487C28.5229 25.8185 28.5185 25.7882 28.5078 25.7599C28.4971 25.7315 28.4804 25.7058 28.4587 25.6846C28.4371 25.6634 28.4111 25.6472 28.3826 25.637C28.354 25.6269 28.3236 25.6231 28.2935 25.6259Z" fill="#CF4E32"/>
<path d="M28.2933 25.4275C28.2086 25.4263 28.1253 25.4495 28.0534 25.4943C27.9746 25.5468 27.9161 25.6246 27.8874 25.7148C27.8753 25.755 27.8688 25.7967 27.8683 25.8387C27.8673 25.8808 27.8723 25.9228 27.8829 25.9635C27.9023 26.0416 27.9455 26.1117 28.0065 26.1641C28.0495 26.2003 28.0988 26.2283 28.152 26.2467C28.2137 26.266 28.2787 26.2724 28.343 26.2655C28.4072 26.2587 28.4694 26.2386 28.5256 26.2067C28.559 26.1869 28.5891 26.1618 28.6145 26.1325C28.6501 26.0904 28.6777 26.0423 28.6962 25.9904C28.7091 25.9511 28.7165 25.9103 28.718 25.869C28.7196 25.8276 28.716 25.7861 28.7075 25.7455C28.6992 25.7041 28.6842 25.6642 28.663 25.6277C28.6433 25.5915 28.6171 25.5592 28.5857 25.5324C28.5422 25.4952 28.4919 25.4668 28.4375 25.4488C28.3908 25.4341 28.3421 25.427 28.2931 25.4275C28.2408 25.4281 28.1907 25.4488 28.1533 25.4854C28.1257 25.5131 28.1069 25.5483 28.0993 25.5866C28.0917 25.6249 28.0956 25.6646 28.1106 25.7007C28.1255 25.7368 28.1508 25.7677 28.1833 25.7894C28.2158 25.8111 28.254 25.8227 28.2931 25.8227C28.3084 25.8227 28.3238 25.8238 28.3389 25.8258L28.2864 25.8188C28.3076 25.8219 28.3283 25.8276 28.348 25.8358L28.3008 25.816C28.3153 25.8225 28.329 25.8304 28.3418 25.8397L28.3018 25.8088C28.315 25.8191 28.3269 25.831 28.3373 25.8442L28.3064 25.8042C28.3163 25.8177 28.3247 25.8323 28.3313 25.8477L28.3116 25.8005C28.3194 25.8201 28.3249 25.8406 28.3278 25.8615L28.3207 25.809C28.3237 25.8339 28.3237 25.859 28.3207 25.8838L28.3277 25.8312C28.3248 25.8533 28.319 25.8749 28.3104 25.8955L28.3302 25.8483C28.3237 25.8627 28.3157 25.8764 28.3065 25.8891L28.3374 25.8491C28.3267 25.8629 28.3145 25.8753 28.3008 25.8861L28.3408 25.8552C28.3264 25.8659 28.3107 25.8748 28.2941 25.8818L28.3412 25.8621C28.3211 25.8699 28.3002 25.8753 28.2788 25.8782L28.3313 25.8712C28.3055 25.8742 28.2794 25.8742 28.2536 25.8712L28.3061 25.8782C28.2844 25.8751 28.2632 25.8693 28.2429 25.861L28.2902 25.8807C28.275 25.874 28.2606 25.8656 28.2473 25.8558L28.2868 25.8868C28.2731 25.8756 28.2608 25.8629 28.2501 25.8488L28.2811 25.8883C28.2704 25.874 28.2614 25.8585 28.2544 25.8421L28.2742 25.8892C28.2665 25.8702 28.2613 25.8503 28.2584 25.83L28.2655 25.8825C28.2626 25.8588 28.2626 25.8348 28.2655 25.8111L28.2583 25.8636C28.2612 25.8432 28.2664 25.8231 28.274 25.8039L28.2542 25.8511C28.261 25.8348 28.2698 25.8194 28.2804 25.8053L28.2496 25.8453C28.2603 25.8316 28.2726 25.8193 28.2864 25.8086L28.2464 25.8395C28.2594 25.83 28.2734 25.8219 28.2881 25.8153L28.2409 25.8351C28.2623 25.8262 28.2848 25.8201 28.3078 25.8171L28.2553 25.8242C28.2679 25.8228 28.2806 25.822 28.2933 25.8219C28.3456 25.8211 28.3955 25.8004 28.433 25.764C28.4606 25.7364 28.4794 25.7012 28.487 25.6628C28.4946 25.6245 28.4907 25.5848 28.4758 25.5487C28.4608 25.5126 28.4355 25.4818 28.403 25.4601C28.3706 25.4384 28.3324 25.4268 28.2933 25.4268V25.4275Z" fill="#CF4E32"/>
<path d="M32.8999 25.6259C32.8698 25.6236 32.8397 25.6278 32.8113 25.6381C32.783 25.6484 32.7572 25.6647 32.7357 25.6858C32.7142 25.7069 32.6975 25.7324 32.6866 25.7605C32.6757 25.7886 32.671 25.8187 32.6727 25.8488C32.6714 25.8788 32.6764 25.9088 32.6874 25.9368C32.6984 25.9647 32.7152 25.9901 32.7367 26.0111C32.7582 26.0321 32.7839 26.0484 32.8121 26.0588C32.8403 26.0692 32.8704 26.0736 32.9004 26.0716C32.9305 26.074 32.9607 26.0699 32.989 26.0595C33.0173 26.0492 33.0431 26.033 33.0647 26.0119C33.0862 25.9908 33.1029 25.9653 33.1138 25.9371C33.1246 25.909 33.1293 25.8789 33.1276 25.8488C33.1298 25.8185 33.1254 25.7882 33.1147 25.7598C33.1039 25.7314 33.0871 25.7057 33.0655 25.6845C33.0438 25.6633 33.0177 25.647 32.9891 25.6369C32.9606 25.6268 32.9301 25.6231 32.8999 25.6259Z" fill="#CF4E32"/>
<path d="M32.8999 25.428C32.8152 25.4268 32.7319 25.45 32.6601 25.4948C32.5813 25.5473 32.5227 25.6251 32.494 25.7153C32.4819 25.7555 32.4755 25.7972 32.475 25.8391C32.474 25.8812 32.4789 25.9232 32.4895 25.964C32.5089 26.042 32.5521 26.1121 32.6131 26.1646C32.6561 26.2008 32.7055 26.2288 32.7586 26.2472C32.8204 26.2665 32.8854 26.2729 32.9496 26.266C33.0139 26.2591 33.0761 26.2391 33.1323 26.2072C33.1657 26.1873 33.1957 26.1623 33.2212 26.133C33.2567 26.0909 33.2844 26.0427 33.3029 25.9909C33.3158 25.9516 33.3231 25.9108 33.3246 25.8695C33.3262 25.828 33.3227 25.7866 33.3142 25.746C33.3059 25.7045 33.2909 25.6647 33.2697 25.6282C33.25 25.592 33.2237 25.5597 33.1924 25.5329C33.1488 25.4958 33.0985 25.4674 33.0442 25.4493C32.9975 25.4346 32.9487 25.4275 32.8997 25.428C32.8473 25.428 32.7971 25.4488 32.76 25.4859C32.723 25.5229 32.7021 25.5732 32.7021 25.6256C32.7021 25.678 32.723 25.7282 32.76 25.7653C32.7971 25.8023 32.8473 25.8231 32.8997 25.8231C32.9151 25.8232 32.9304 25.8243 32.9456 25.8263L32.8931 25.8193C32.9142 25.8224 32.9349 25.8281 32.9547 25.8363L32.9075 25.8165C32.9219 25.823 32.9356 25.8309 32.9484 25.8402L32.9084 25.8093C32.9216 25.8196 32.9336 25.8315 32.944 25.8447L32.913 25.8047C32.923 25.8182 32.9314 25.8328 32.938 25.8482L32.9183 25.801C32.9262 25.8206 32.9316 25.8411 32.9346 25.862L32.9275 25.8095C32.9304 25.8343 32.9304 25.8594 32.9275 25.8843L32.9345 25.8317C32.9316 25.8538 32.9257 25.8754 32.9172 25.8959L32.9369 25.8488C32.9305 25.8632 32.9225 25.8769 32.9132 25.8896L32.9442 25.8496C32.9335 25.8634 32.9213 25.8758 32.9076 25.8866L32.9471 25.8556C32.9327 25.8664 32.917 25.8753 32.9004 25.8823L32.9476 25.8626C32.9275 25.8704 32.9066 25.8758 32.8852 25.8787L32.9376 25.8716C32.9118 25.8747 32.8857 25.8747 32.8599 25.8716L32.9124 25.8787C32.8908 25.8756 32.8696 25.8698 32.8493 25.8615L32.8965 25.8812C32.8814 25.8745 32.867 25.8661 32.8537 25.8563L32.8932 25.8872C32.8792 25.8763 32.8665 25.8638 32.8554 25.8498L32.8864 25.8893C32.8757 25.875 32.8667 25.8595 32.8596 25.8431L32.8794 25.8902C32.8717 25.8712 32.8664 25.8513 32.8635 25.8309L32.8707 25.8835C32.8677 25.8598 32.8677 25.8358 32.8707 25.8121L32.8635 25.8646C32.8663 25.8441 32.8716 25.8241 32.8792 25.8049L32.8594 25.8521C32.8663 25.8358 32.8751 25.8204 32.8857 25.8062L32.8548 25.8463C32.8655 25.8325 32.8779 25.8202 32.8917 25.8096L32.8522 25.8405C32.8652 25.831 32.8792 25.8229 32.8939 25.8163L32.8467 25.8361C32.8681 25.8271 32.8906 25.8211 32.9136 25.8181L32.8611 25.8252C32.8737 25.8237 32.8863 25.8229 32.899 25.8228C32.9513 25.8221 33.0012 25.8014 33.0387 25.765C33.0663 25.7373 33.0851 25.7021 33.0927 25.6638C33.1003 25.6255 33.0964 25.5858 33.0815 25.5497C33.0665 25.5136 33.0412 25.4828 33.0087 25.461C32.9763 25.4393 32.9381 25.4277 32.899 25.4277L32.8999 25.428Z" fill="#CF4E32"/>
<path d="M24.0127 2.24646C24.3141 2.22336 24.6169 2.22878 24.9173 2.26266C25.2546 2.30119 25.5306 2.34247 25.7633 2.60068C26.0026 2.86599 26.0514 3.11046 26.122 3.46705C26.2711 4.22052 26.404 5.78435 26.2615 6.12286C26.1134 6.34936 25.8763 6.46927 25.7123 6.30007C25.5372 6.11891 25.5561 5.82248 25.5356 5.55924C25.5013 5.11475 25.3584 4.09033 25.2659 3.65463C25.2577 3.57177 25.2218 3.4941 25.1639 3.43425C25.0938 3.39652 25.0137 3.3815 24.9347 3.39129C24.7473 3.37857 24.559 3.38462 24.3728 3.40936" fill="white"/>
<path d="M24.1468 8.02037C23.8828 8.28993 23.28 8.81305 21.1898 8.84367C19.0998 8.81305 18.497 8.28993 18.233 8.02037C17.977 7.79575 17.8554 7.45625 17.7761 7.12505C17.5114 6.02014 17.9133 4.38469 18.1183 3.31958C18.1781 3.00789 18.2539 2.69949 18.3455 2.39562C18.4081 2.17011 17.9909 1.61241 17.9236 1.34651C17.8944 1.25526 17.8912 1.15767 17.9143 1.0647C17.9387 1.00405 18.0594 0.944979 18.1217 0.92473C18.4062 0.83188 19.1558 0.65586 19.7009 0.543945L23.311 0.932138C23.5114 1.09336 23.6616 1.30842 23.744 1.55206C23.907 1.91467 24.1696 2.88703 24.2616 3.31958C24.4666 4.38469 24.8686 6.02014 24.6039 7.12505C24.5248 7.45625 24.403 7.79575 24.147 8.02037" fill="white"/>
<path d="M18.0934 8.15886C18.5864 8.66084 19.2949 8.85573 19.9728 8.95065C20.6975 9.05294 21.4322 9.0636 22.1596 8.98236C22.6538 8.93924 23.1385 8.8211 23.5971 8.632C23.8549 8.51939 24.0889 8.35879 24.2867 8.15876C24.465 7.97711 24.1858 7.69757 24.0073 7.87932C23.9458 7.9424 23.8803 8.00146 23.8111 8.05613C23.8586 8.01889 23.7885 8.07193 23.7764 8.08053C23.7527 8.09712 23.7285 8.11322 23.704 8.12883C23.6435 8.16715 23.581 8.20232 23.5171 8.23452C23.1376 8.40692 22.7335 8.51912 22.3194 8.5671C21.6357 8.66 20.9431 8.6681 20.2574 8.5912C19.8135 8.55328 19.3777 8.44934 18.9645 8.28282C18.8265 8.2195 18.6945 8.14383 18.5701 8.05672C18.5611 8.0504 18.5246 8.02166 18.5687 8.05623C18.5558 8.04635 18.5428 8.03647 18.5303 8.02551C18.5106 8.00842 18.4898 7.99133 18.4702 7.97365C18.4366 7.94333 18.4042 7.91172 18.3725 7.87942C18.1941 7.69767 17.9148 7.97711 18.0931 8.15886H18.0934Z" fill="#CF4E32"/>
<path d="M17.9043 8.34762C17.7288 9.16026 18.893 9.49502 19.4687 9.61444C20.1865 9.76001 20.9201 9.81121 21.6511 9.76675C22.2819 9.72981 22.93 9.64298 23.524 9.41777C23.9399 9.25973 24.7186 8.88131 24.5039 8.30732C24.4888 8.25751 24.4552 8.21538 24.41 8.18964C24.3648 8.1639 24.3114 8.15653 24.2609 8.16903C24.2105 8.18325 24.1678 8.21671 24.1419 8.26218C24.1161 8.30765 24.1091 8.36148 24.1226 8.41203C24.1621 8.51851 24.107 8.5997 24.0318 8.67665C24.0081 8.70075 23.9824 8.72307 23.9573 8.7452C23.9375 8.76327 23.916 8.77935 23.8932 8.7932C23.7455 8.89306 23.5863 8.97471 23.419 9.03639C22.9059 9.21888 22.3695 9.32763 21.8258 9.35939C21.1517 9.41367 20.4735 9.38581 19.8062 9.27642C19.3956 9.20728 18.969 9.11028 18.616 8.90038C18.5508 8.86545 18.4905 8.82203 18.4366 8.77128C18.4135 8.74994 18.3927 8.72663 18.3706 8.70421C18.3641 8.69759 18.3336 8.65758 18.3644 8.69877C18.3532 8.68386 18.3425 8.66914 18.3326 8.65284C18.3227 8.63654 18.2857 8.5514 18.3053 8.60691C18.2971 8.5837 18.2918 8.5595 18.2839 8.53639C18.279 8.52186 18.2802 8.48255 18.2839 8.54162C18.283 8.52582 18.2812 8.51021 18.2816 8.49431C18.2816 8.48245 18.2831 8.4706 18.2834 8.45885C18.2842 8.42408 18.2735 8.50725 18.2858 8.45233C18.3393 8.2044 17.9585 8.09841 17.9048 8.34723L17.9043 8.34762Z" fill="#CF4E32"/>
<path d="M20.7517 4.34677C20.7449 4.10171 20.7701 3.80123 20.9924 3.69771C21.1559 3.62155 21.4439 3.6421 21.551 3.7872C21.6595 3.94722 21.7227 4.13361 21.7339 4.32662C21.7339 4.88669 21.7776 5.49703 21.7776 6.04297C21.7812 6.1495 21.752 6.25457 21.6937 6.34384C21.5908 6.48845 21.3866 6.51888 21.2108 6.49507C21.061 6.47472 20.9006 6.4117 20.8363 6.275C20.8079 6.20171 20.795 6.12336 20.7983 6.04485C20.7958 5.9518 20.7661 4.86278 20.7517 4.34677Z" fill="#F6F6F6"/>
<path d="M20.9492 4.34636C20.9463 4.21282 20.9294 3.96459 21.0641 3.88211C21.124 3.84627 21.1953 3.8348 21.2633 3.85008C21.3313 3.86536 21.3909 3.90622 21.4296 3.9642C21.5457 4.1736 21.5348 4.38558 21.5398 4.61711C21.5457 4.89181 21.5578 5.16641 21.5673 5.44101C21.5718 5.56853 21.5756 5.69605 21.5779 5.82357C21.5944 5.94441 21.5872 6.06731 21.5566 6.18539C21.491 6.34511 21.2358 6.32249 21.1068 6.2652C20.9778 6.20791 20.9967 6.07644 20.9934 5.95643C20.9899 5.82538 20.9863 5.69431 20.9827 5.5632C20.9716 5.15742 20.9604 4.75168 20.9492 4.34597C20.9422 4.09221 20.5469 4.09122 20.5541 4.34597C20.5665 4.79257 20.5788 5.23918 20.5909 5.68578C20.5946 5.81824 20.5955 5.95099 20.6019 6.08336C20.6016 6.22911 20.6543 6.36999 20.7503 6.47966C20.8463 6.58933 20.979 6.66029 21.1235 6.67928C21.4037 6.73232 21.7317 6.67572 21.8855 6.40952C21.9533 6.27597 21.9842 6.12668 21.9749 5.97717C21.9739 5.80599 21.969 5.63491 21.9632 5.46353C21.9514 5.11386 21.9344 4.76429 21.9318 4.41442C21.9298 4.1499 21.8683 3.82304 21.6733 3.62559C21.4747 3.42448 21.1038 3.40344 20.8647 3.54064C20.5866 3.70026 20.5478 4.05744 20.5541 4.34567C20.5596 4.60022 20.9547 4.60111 20.9492 4.34636Z" fill="#CF4E32"/>
<path d="M20.5276 4.58261C20.6664 4.58794 20.8049 4.5996 20.9437 4.60493C20.9961 4.60493 21.0463 4.58412 21.0834 4.54707C21.1204 4.51002 21.1412 4.45977 21.1412 4.40738C21.1412 4.35498 21.1204 4.30473 21.0834 4.26769C21.0463 4.23064 20.9961 4.20982 20.9437 4.20982C20.8049 4.20449 20.6664 4.19283 20.5276 4.1875C20.4752 4.1875 20.425 4.20831 20.3879 4.24536C20.3509 4.28241 20.3301 4.33266 20.3301 4.38505C20.3301 4.43745 20.3509 4.4877 20.3879 4.52475C20.425 4.56179 20.4752 4.58261 20.5276 4.58261Z" fill="#CF4E32"/>
<path d="M20.5276 5.28085C20.6664 5.28628 20.8049 5.29794 20.9437 5.30327C20.9961 5.30327 21.0463 5.28246 21.0834 5.24541C21.1204 5.20836 21.1412 5.15811 21.1412 5.10572C21.1412 5.05332 21.1204 5.00308 21.0834 4.96603C21.0463 4.92898 20.9961 4.90816 20.9437 4.90816C20.8049 4.90283 20.6664 4.89117 20.5276 4.88574C20.4752 4.88574 20.425 4.90656 20.3879 4.9436C20.3509 4.98065 20.3301 5.0309 20.3301 5.0833C20.3301 5.13569 20.3509 5.18594 20.3879 5.22299C20.425 5.26004 20.4752 5.28085 20.5276 5.28085Z" fill="#CF4E32"/>
<path d="M20.5276 5.95272C20.6664 5.95806 20.8049 5.96971 20.9437 5.97505C20.9961 5.97505 21.0463 5.95423 21.0834 5.91719C21.1204 5.88014 21.1412 5.82989 21.1412 5.77749C21.1412 5.7251 21.1204 5.67485 21.0834 5.6378C21.0463 5.60075 20.9961 5.57994 20.9437 5.57994C20.8049 5.57461 20.6664 5.56295 20.5276 5.55762C20.4752 5.55762 20.425 5.57843 20.3879 5.61548C20.3509 5.65253 20.3301 5.70278 20.3301 5.75517C20.3301 5.80757 20.3509 5.85781 20.3879 5.89486C20.425 5.93191 20.4752 5.95272 20.5276 5.95272Z" fill="#CF4E32"/>
<path d="M19.0892 0.831C19.0633 0.976498 19.1376 1.11548 19.3289 1.20773C19.6181 1.34731 20.3717 1.49172 21.1899 1.47927C22.2354 1.47927 23.2559 1.46791 23.2559 0.9521C23.2559 0.597689 22.1701 0.413964 21.2646 0.414063C20.2004 0.414458 19.13 0.602134 19.0892 0.831Z" fill="white"/>
<path d="M18.8917 0.830759C18.8444 1.18725 19.1791 1.38105 19.4706 1.47153C19.8191 1.57115 20.1773 1.63259 20.539 1.65476C20.972 1.68352 21.4063 1.68873 21.8399 1.67036C22.1949 1.67545 22.5491 1.63414 22.8934 1.54748C23.1339 1.47518 23.3855 1.33304 23.4411 1.06713C23.4961 0.803497 23.3225 0.614339 23.0966 0.508747C22.7896 0.379728 22.4643 0.299283 22.1325 0.270299C21.2826 0.173971 20.4228 0.210294 19.584 0.377966C19.3584 0.428639 18.9643 0.509636 18.8983 0.778309C18.8377 1.02525 19.2186 1.13055 19.2793 0.883309C19.2883 0.846959 19.2538 0.921535 19.2544 0.919955C19.259 0.908299 19.2962 0.889235 19.2583 0.911658C19.2907 0.890858 19.3244 0.872056 19.3591 0.855355C19.4663 0.814199 19.5766 0.781954 19.689 0.758949C20.0062 0.691521 20.3282 0.648918 20.652 0.631526C21.3006 0.588954 21.9786 0.5933 22.6121 0.756183C22.718 0.780261 22.8212 0.815284 22.9198 0.860689C22.9411 0.871258 22.9615 0.883012 22.9823 0.894471C22.9799 0.893285 23.0394 0.932895 23.0119 0.911756C23.0267 0.923434 23.0406 0.936248 23.0534 0.950082C23.0642 0.961639 23.0658 0.963812 23.055 0.945242C23.0733 0.976752 23.0624 0.928647 23.0579 0.944254C23.0557 0.952156 23.0525 0.991667 23.06 0.961935C23.0473 1.01271 23.0559 1.01024 23.0273 1.04096C23.0516 1.01458 23.004 1.06239 23.0048 1.0617C22.9546 1.10328 23.0328 1.04599 22.9751 1.08383C22.9334 1.11102 22.8885 1.13282 22.8413 1.14872C22.5828 1.22591 22.3146 1.26582 22.0448 1.26725C21.6814 1.28474 21.3148 1.288 20.951 1.28039C20.5787 1.27563 20.2077 1.23501 19.8431 1.15909C19.7117 1.1333 19.5827 1.09662 19.4574 1.04945C19.4045 1.02976 19.3561 0.999517 19.3153 0.960552C19.2999 0.942953 19.2891 0.921755 19.2841 0.898916C19.279 0.876076 19.2798 0.852331 19.2863 0.82987C19.2861 0.777556 19.2652 0.727458 19.2282 0.690466C19.1912 0.653473 19.1411 0.632576 19.0888 0.632317C19.0367 0.633728 18.9872 0.65513 18.9505 0.692082C18.9138 0.729033 18.8928 0.778695 18.8917 0.830759Z" fill="#CF4E32"/>
<path d="M23.2108 1.10181C23.3935 1.2313 23.5071 1.4898 23.5775 1.66049C23.6494 1.83641 23.7066 2.01856 23.7619 2.20031C23.882 2.59541 23.9961 2.99694 24.0768 3.40232C24.27 4.3735 24.5074 5.3581 24.4927 6.35427C24.485 6.86929 24.4084 7.51312 24.0068 7.87978C23.8187 8.05165 24.0987 8.3304 24.2863 8.15922C24.6957 7.78525 24.8312 7.17896 24.8742 6.64694C24.9043 6.10127 24.8725 5.55394 24.7792 5.01545C24.6419 4.0499 24.4357 3.09541 24.1621 2.15931C24.014 1.66266 23.854 1.07504 23.4102 0.760632C23.2028 0.613356 23.0052 0.955815 23.2108 1.10181Z" fill="#CF4E32"/>
<path d="M19.6479 0.352972C19.3203 0.420403 18.994 0.49363 18.6688 0.572652C18.4219 0.632708 18.1238 0.673997 17.9039 0.808728C17.3565 1.14408 18.0219 1.87453 18.1385 2.26816C18.1536 2.31932 18.1597 2.32318 18.1533 2.3616C18.1618 2.31063 18.1347 2.41375 18.1311 2.42679L18.0975 2.54602C18.0519 2.70949 18.0086 2.87356 17.9729 3.03931C17.9038 3.35767 17.845 3.67869 17.7815 3.99814C17.6321 4.67395 17.5363 5.36051 17.495 6.05141C17.4683 6.7547 17.5382 7.65337 18.0927 8.1597C18.2804 8.33079 18.5604 8.05214 18.3721 7.88026C18.132 7.66108 18.0282 7.34924 17.9585 7.03977C17.8996 6.75251 17.8756 6.45921 17.8868 6.16619C17.9129 5.52822 17.994 4.89369 18.1293 4.26967C18.246 3.66881 18.3669 3.0726 18.5258 2.48181C18.6522 2.01114 18.1522 1.6512 18.0967 1.21865C18.0917 1.19595 18.0908 1.17254 18.0939 1.14951C18.0791 1.166 18.0774 1.16926 18.0891 1.1585C18.1069 1.14699 18.1254 1.13647 18.1444 1.12699C18.1881 1.10899 18.2331 1.0942 18.2789 1.08274C18.4189 1.04214 18.5605 1.00638 18.7019 0.971414C19.0504 0.885346 19.4005 0.806325 19.7523 0.734349C20.0011 0.682985 19.8958 0.302102 19.6473 0.353367L19.6479 0.352972Z" fill="#CF4E32"/>
<path d="M17.9737 1.27701C18.4511 1.23164 18.9327 1.28283 19.3898 1.42755C19.4404 1.44147 19.4943 1.43476 19.5399 1.40888C19.5855 1.383 19.6189 1.34008 19.6328 1.28956C19.6468 1.23904 19.64 1.18505 19.6142 1.13948C19.5883 1.09391 19.5454 1.06049 19.4948 1.04657C19.0037 0.891694 18.4866 0.835728 17.9737 0.881906C17.9217 0.883159 17.8722 0.904375 17.8354 0.941156C17.7986 0.977936 17.7774 1.02746 17.7761 1.07946C17.7765 1.13173 17.7975 1.18174 17.8344 1.21869C17.8714 1.25565 17.9214 1.2766 17.9737 1.27701Z" fill="#CF4E32"/>
<path d="M24.0128 2.44325C24.4072 2.40455 24.8053 2.42452 25.1939 2.50252C25.3463 2.53694 25.4865 2.61198 25.5997 2.71969C25.7129 2.82739 25.7948 2.96374 25.8367 3.11424C25.9183 3.39887 25.9755 3.68993 26.0078 3.98427C26.0496 4.28831 26.0794 4.59432 26.1003 4.90043C26.1235 5.18553 26.1301 5.47174 26.1201 5.75761C26.1177 5.80601 26.1142 5.85428 26.1095 5.90242C26.1083 5.91556 26.1068 5.92889 26.105 5.94193C26.105 5.93867 26.1093 5.91289 26.105 5.93521C26.1006 5.95754 26.0976 5.97858 26.0923 5.99991C26.0763 6.0654 25.9606 6.211 25.875 6.18127C25.7642 6.14284 25.7541 5.89876 25.7478 5.80819C25.7379 5.66417 25.7312 5.52045 25.7166 5.37683C25.6835 5.05402 25.64 4.73221 25.5931 4.41118C25.5677 4.23763 25.541 4.06438 25.5111 3.89162C25.4945 3.73722 25.4591 3.58543 25.4057 3.43962C25.3025 3.20838 25.0957 3.20008 24.8737 3.18961C24.7065 3.18567 24.5391 3.19277 24.3728 3.21085C24.1212 3.23189 24.1191 3.62719 24.3728 3.60596C24.527 3.5889 24.682 3.58128 24.8371 3.58314C24.8865 3.58511 24.9358 3.58788 24.986 3.58926C25.0116 3.58995 25.058 3.60615 25.0379 3.58462C25.0785 3.62798 25.0817 3.73743 25.0932 3.796C25.1564 4.12088 25.204 4.44931 25.2486 4.77725C25.2907 5.08751 25.3299 5.39876 25.3467 5.71148C25.3653 6.05957 25.4618 6.61905 25.9332 6.57311C26.0341 6.55692 26.1301 6.51851 26.2144 6.46067C26.2986 6.40283 26.3689 6.327 26.4203 6.23866C26.4703 6.14054 26.4982 6.03264 26.5021 5.92257C26.5266 5.64257 26.528 5.36101 26.506 5.08079C26.4705 4.42067 26.414 3.73041 26.2408 3.09004C26.1274 2.67054 25.8533 2.30151 25.4316 2.15838C25.2171 2.09599 24.9959 2.0598 24.7727 2.05061C24.5196 2.02942 24.2653 2.02872 24.0121 2.04854C23.7604 2.06889 23.7582 2.46419 24.0121 2.44365L24.0128 2.44325Z" fill="#CF4E32"/>
<path d="M39.7584 13.7761C39.69 13.657 39.5849 13.5631 39.4588 13.5086C39.2512 13.4057 39.0203 13.3586 38.789 13.3719L38.0985 13.4114C38.1391 13.328 38.1626 13.2373 38.1677 13.1447C38.1653 12.9339 38.0922 12.7299 37.9602 12.5654C37.6343 12.1168 36.91 11.953 36.3813 11.8016C35.799 11.6347 35.0828 11.4885 34.53 11.3711L32.7173 11.3841C32.3059 11.4625 31.6453 11.5739 31.063 11.7407C30.5343 11.8922 29.7797 12.1168 29.4537 12.5654C29.3217 12.7299 29.2487 12.9339 29.2462 13.1447C29.2554 13.2877 29.3048 13.4253 29.3888 13.5414C29.3882 13.5404 29.3873 13.5395 29.3866 13.5386C29.3899 13.57 29.3932 13.6014 29.3965 13.6328L28.5702 13.5592C28.3389 13.5459 28.108 13.593 27.9004 13.6959C27.7743 13.7504 27.6692 13.8442 27.6008 13.9634C27.5634 14.0557 27.551 14.1563 27.5648 14.2549C27.5787 14.3536 27.6184 14.4468 27.6798 14.5252C27.8046 14.6803 27.9553 14.8126 28.1252 14.9162C28.2953 15.0199 28.444 15.155 28.5635 15.3143C28.7451 15.5908 28.901 15.9635 29.4229 16.0679L29.6465 16.0868C29.6596 16.2142 29.6737 16.3428 29.6944 16.4699C29.7286 16.7475 29.8242 17.0141 29.9743 17.2502C30.1667 17.5108 30.4306 17.71 30.7339 17.8237C31.0358 17.9361 31.3488 18.0156 31.6678 18.0608C31.979 18.1144 32.2915 18.1629 32.6061 18.1872C32.9725 18.2153 33.3362 18.2158 33.7063 18.2158C34.0978 18.2158 34.4413 18.2158 34.8078 18.1872C35.1227 18.1629 35.4352 18.1144 35.7462 18.0608C36.0651 18.0156 36.3782 17.9361 36.68 17.8237C36.9833 17.71 37.2472 17.5108 37.4396 17.2502C37.68 16.9012 37.73 16.46 37.7728 16.0379L37.7802 15.9652L37.9446 15.9289C38.6403 15.8245 38.6131 15.4039 38.7948 15.1275C38.9143 14.9681 39.063 14.833 39.2331 14.7293C39.403 14.6257 39.5537 14.4934 39.6785 14.3384C39.7401 14.26 39.78 14.1667 39.794 14.068C39.8081 13.9692 39.7958 13.8686 39.7584 13.7761Z" fill="#F6F6F6"/>
<path d="M38.6335 13.3674L37.9969 13.3516L37.9417 14.3811L37.783 15.945C38.6463 15.885 38.6009 15.4227 38.7957 15.1263C38.9152 14.967 39.064 14.8319 39.234 14.7282C39.4039 14.6246 39.5546 14.4923 39.6794 14.3373C39.7408 14.2588 39.7805 14.1656 39.7944 14.067C39.8082 13.9683 39.7958 13.8677 39.7584 13.7754C39.69 13.6563 39.5849 13.5624 39.4588 13.5079C39.2512 13.405 39.0204 13.3579 38.789 13.3712L38.6335 13.3674Z" fill="#F6F6F6"/>
<path d="M28.4699 15.195C28.3654 15.09 28.25 14.9964 28.1257 14.9158C27.9558 14.8122 27.8051 14.68 27.6803 14.5249C27.6189 14.4465 27.5792 14.3532 27.5653 14.2546C27.5515 14.1559 27.5639 14.0554 27.6013 13.963C27.6697 13.8439 27.7748 13.7501 27.9009 13.6956C28.1085 13.5926 28.3394 13.5455 28.5707 13.5589L29.3933 13.5992C29.43 13.9574 29.4733 14.3818 29.4733 14.3818L29.6412 16.0375C29.6431 16.0562 29.6451 16.075 29.6469 16.0939C28.9414 16.0622 28.7691 15.6264 28.5637 15.3135C28.5358 15.2715 28.5044 15.2318 28.4699 15.195Z" fill="#F6F6F6"/>
<path d="M32.9131 11.1424C32.3533 11.2486 31.7916 11.3487 31.239 11.4882C30.691 11.6269 30.0904 11.788 29.6284 12.1263C29.363 12.3083 29.169 12.5766 29.0793 12.8856C29.0417 13.0524 29.0482 13.2262 29.098 13.3898C29.1479 13.5534 29.2395 13.7012 29.3637 13.8187C29.8273 14.2928 30.566 14.4174 31.1911 14.5173C32.7034 14.7617 34.2436 14.7801 35.7612 14.5718C36.3866 14.4841 37.0467 14.391 37.6223 14.1163C37.9059 13.9931 38.1376 13.7745 38.2772 13.4985C38.3468 13.3359 38.3722 13.1579 38.3509 12.9824C38.3296 12.8069 38.2623 12.6401 38.1559 12.499C37.7724 11.9394 37.0477 11.7835 36.4348 11.61C35.7654 11.4206 35.0796 11.2933 34.4 11.1492C34.1519 11.0966 34.046 11.4774 34.295 11.5301C34.8612 11.6502 35.4297 11.761 35.9916 11.9011C36.2415 11.9633 36.49 12.0334 36.737 12.1061C36.9904 12.1724 37.2348 12.2689 37.4651 12.3937C37.5827 12.4552 37.6867 12.5397 37.7709 12.6422C37.8552 12.7447 37.9181 12.8631 37.9557 12.9904C38.0224 13.2608 37.8471 13.515 37.6288 13.6602C37.1781 13.9601 36.5829 14.0412 36.0599 14.1285C34.6968 14.3491 33.3097 14.3809 31.9379 14.223C31.5849 14.1835 31.2329 14.1315 30.8842 14.0643C30.605 14.0169 30.3325 13.936 30.0727 13.8232C29.8286 13.7099 29.5659 13.5433 29.4729 13.2758C29.3789 13.0059 29.5467 12.7205 29.7417 12.5404C29.9563 12.3604 30.2034 12.2232 30.4697 12.1361C30.7453 12.0352 31.026 11.9489 31.3106 11.8776C31.8737 11.7326 32.4475 11.6307 33.0187 11.5227C33.2682 11.4753 33.1625 11.0944 32.9137 11.1418L32.9131 11.1424Z" fill="#CF4E32"/>
<path d="M29.276 14.3814L29.4317 15.9153C29.4763 16.3553 29.5107 16.811 29.7202 17.2093C30.1574 18.043 31.1985 18.1971 32.0367 18.3176C32.5344 18.3845 33.0361 18.416 33.5382 18.412C34.0248 18.4228 34.5117 18.4075 34.9968 18.3662C35.4804 18.3234 35.9595 18.2398 36.4291 18.1164C36.8387 18.0006 37.2489 17.8024 37.5222 17.4659C37.8392 17.0758 37.9142 16.5834 37.9646 16.0982C38.0239 15.526 38.0809 14.9535 38.139 14.3811C38.1386 14.3289 38.1177 14.2788 38.0808 14.2418C38.0438 14.2049 37.9937 14.1839 37.9414 14.1836C37.8894 14.1847 37.8398 14.2059 37.803 14.2427C37.7662 14.2795 37.745 14.3291 37.7439 14.3811L37.6006 15.7937C37.561 16.1852 37.5473 16.6135 37.3719 16.9741C36.9983 17.7418 35.9728 17.8411 35.2262 17.9436C34.7859 17.9978 34.3424 18.0224 33.8988 18.0172C33.4367 18.0184 32.9728 18.0231 32.5122 17.9808C32.0628 17.9421 31.6171 17.8681 31.1794 17.7595C30.8132 17.666 30.4452 17.5126 30.1963 17.2162C29.9136 16.8799 29.8764 16.4071 29.8338 15.9882C29.7794 15.4525 29.7251 14.9169 29.6707 14.3812C29.6693 14.3293 29.6481 14.2799 29.6113 14.2431C29.5746 14.2064 29.5251 14.1851 29.4732 14.1837C29.4209 14.1841 29.3709 14.205 29.3339 14.242C29.2969 14.2789 29.276 14.329 29.2756 14.3812L29.276 14.3814Z" fill="#CF4E32"/>
<path d="M33.6488 10.4307C33.4519 10.4316 33.2555 10.45 33.0619 10.4858C32.8982 10.503 32.7398 10.5537 32.5967 10.6349C32.4659 10.722 32.4805 10.8649 32.5473 10.9919C32.6451 11.1547 32.7549 11.3098 32.8759 11.4562C32.9654 11.6045 33.0705 11.7428 33.1895 11.8687C33.2775 11.9469 33.4358 11.9825 33.6487 11.9825C33.8616 11.9825 34.0199 11.9469 34.1078 11.8687C34.2268 11.7428 34.332 11.6045 34.4214 11.4562C34.5424 11.3098 34.6522 11.1547 34.75 10.9919C34.8169 10.8649 34.8314 10.722 34.7006 10.6349C34.5574 10.5537 34.3991 10.503 34.2354 10.4858C34.0419 10.4501 33.8456 10.4316 33.6488 10.4307Z" fill="#CF4E32"/>
<path d="M28.5709 13.3608C28.1727 13.3439 27.6325 13.4782 27.4309 13.8629C27.2202 14.2656 27.4966 14.6863 27.8119 14.9305C27.9815 15.044 28.144 15.1678 28.2984 15.3013C28.3944 15.4126 28.4786 15.5334 28.5498 15.6619C28.6395 15.8113 28.7585 15.941 28.8996 16.0433C29.0407 16.1457 29.2009 16.2185 29.3708 16.2575C29.6186 16.3113 29.7246 15.9306 29.4758 15.8765C29.3551 15.8515 29.2408 15.8018 29.1401 15.7305C29.0395 15.6593 28.9547 15.568 28.8909 15.4624C28.8225 15.3586 28.7632 15.249 28.688 15.1497C28.5792 15.0153 28.4507 14.8982 28.307 14.8021C28.0944 14.6495 27.7172 14.4441 27.7559 14.1291C27.7739 13.9828 27.9168 13.9009 28.0398 13.8471C28.2075 13.7763 28.3892 13.7451 28.5709 13.7559C28.8252 13.7666 28.8247 13.3714 28.5709 13.3608Z" fill="#CF4E32"/>
<path d="M28.3305 14.4992L28.6454 14.6344C28.6674 14.6486 28.6927 14.6567 28.7188 14.6579C28.745 14.6638 28.7723 14.6626 28.7978 14.6544C28.8229 14.6475 28.8463 14.6358 28.8668 14.6198C28.8873 14.6039 28.9045 14.5841 28.9173 14.5615C28.9302 14.539 28.9385 14.5141 28.9417 14.4883C28.9449 14.4625 28.943 14.4364 28.9361 14.4114L28.9164 14.3641C28.8992 14.3348 28.8748 14.3104 28.8455 14.2932L28.5307 14.158C28.5088 14.1438 28.4834 14.1357 28.4573 14.1346C28.4312 14.1286 28.4039 14.1298 28.3783 14.138C28.3533 14.1449 28.3298 14.1566 28.3093 14.1726C28.2888 14.1885 28.2716 14.2083 28.2588 14.2309C28.2459 14.2535 28.2376 14.2784 28.2344 14.3042C28.2312 14.3299 28.2331 14.3561 28.24 14.3811L28.2598 14.4283C28.277 14.4576 28.3014 14.482 28.3307 14.4992H28.3305Z" fill="#CF4E32"/>
<path d="M30.8291 12.4349C30.7119 12.4865 30.6196 12.5821 30.5721 12.701C30.5245 12.8199 30.5255 12.9527 30.5748 13.0709C30.6673 13.2829 30.8385 13.3808 31.0442 13.459C31.5324 13.6449 32.0805 13.704 32.5966 13.7547C33.2798 13.8235 33.9677 13.8324 34.6525 13.7813C35.1875 13.7541 35.7174 13.6633 36.231 13.5111C36.4549 13.4377 36.6945 13.3402 36.8187 13.1258C36.8857 12.9991 36.9019 12.8517 36.8642 12.7134C36.8264 12.5752 36.7375 12.4565 36.6155 12.3813C36.3974 12.2494 36.1985 12.591 36.416 12.7225C36.5612 12.8104 36.4779 12.9657 36.3634 13.0309C36.2476 13.0916 36.1249 13.1381 35.9979 13.1692C35.572 13.2823 35.1361 13.3539 34.6964 13.3829C33.6574 13.4674 32.5645 13.4337 31.5463 13.1946C31.3784 13.1609 31.2148 13.1082 31.0588 13.0376C31.027 13.0239 30.9987 13.0034 30.9756 12.9777C30.9526 12.9519 30.9354 12.9215 30.9252 12.8885C30.9385 12.9305 30.9252 12.8829 30.9241 12.8903C30.9298 12.876 30.9343 12.8612 30.9376 12.8461C30.959 12.813 30.9913 12.7883 31.0288 12.7763C31.0738 12.7495 31.1064 12.7062 31.1197 12.6557C31.1329 12.6051 31.1258 12.5513 31.0998 12.506C31.0725 12.4616 31.0292 12.4295 30.9788 12.4163C30.9285 12.4031 30.8749 12.4098 30.8294 12.4351L30.8291 12.4349Z" fill="#CF4E32"/>
<path d="M31.9473 11.9627C31.6549 12.2232 31.8396 12.6385 32.1502 12.7776C32.4674 12.9005 32.8033 12.9683 33.1434 12.9783C33.5608 13.0114 33.9803 13.0063 34.3968 12.9632C34.6844 12.9426 34.9671 12.8775 35.2347 12.7703C35.3598 12.7206 35.4681 12.6363 35.547 12.5273C35.6019 12.4353 35.624 12.3275 35.6096 12.2214C35.5952 12.1153 35.5453 12.0172 35.468 11.9431C35.2902 11.7608 35.0108 12.0403 35.1886 12.2225C35.3243 12.3614 34.9438 12.462 34.8597 12.4844C34.5425 12.5609 34.2175 12.5997 33.8912 12.6001C33.4934 12.6177 33.0949 12.5937 32.7021 12.5286C32.5782 12.5081 32.4565 12.4757 32.3388 12.4319C32.2667 12.4009 32.1299 12.328 32.2265 12.242C32.4168 12.0725 32.1365 11.794 31.9471 11.9627H31.9473Z" fill="#CF4E32"/>
<path d="M38.7889 13.5691C39.0441 13.5582 39.6432 13.6413 39.6045 14.01C39.5673 14.3656 39.1107 14.5539 38.8702 14.7554C38.7489 14.8536 38.6488 14.9755 38.5762 15.1138C38.5326 15.2004 38.5007 15.2923 38.4576 15.3793C38.3438 15.6085 38.1559 15.6954 37.8933 15.7376C37.843 15.7518 37.8002 15.7853 37.7743 15.8308C37.7485 15.8762 37.7415 15.9301 37.755 15.9806C37.77 16.0305 37.8036 16.0727 37.8488 16.0985C37.8941 16.1242 37.9475 16.1315 37.998 16.1189C38.1363 16.1038 38.2702 16.0615 38.392 15.9944C38.5138 15.9274 38.6212 15.8369 38.7079 15.7282C38.8177 15.58 38.8597 15.3989 38.9556 15.2435C39.1309 14.9593 39.4873 14.8313 39.7171 14.5981C39.9616 14.3498 40.1086 13.9462 39.9006 13.6286C39.6734 13.2829 39.1782 13.1578 38.7887 13.1743C38.5355 13.1849 38.5341 13.5802 38.7887 13.5694L38.7889 13.5691Z" fill="#CF4E32"/>
<path d="M38.8301 13.9709L38.5153 14.1061C38.4723 14.134 38.4402 14.1758 38.4246 14.2247C38.4108 14.276 38.4179 14.3307 38.4443 14.3769C38.4705 14.4213 38.5128 14.4538 38.5624 14.4677L38.6149 14.4747C38.6499 14.4747 38.6844 14.4654 38.7146 14.4477L39.0293 14.3125C39.0723 14.2849 39.1045 14.2431 39.1202 14.1944C39.1338 14.1431 39.1267 14.0884 39.1004 14.0422C39.0742 13.9977 39.0317 13.9651 38.9819 13.9513L38.9293 13.9443C38.8943 13.9443 38.8599 13.9536 38.8296 13.9713L38.8301 13.9709Z" fill="#CF4E32"/>
<path d="M5.50188 14.2769C5.30433 15.5001 6.1951 16.4391 7.38339 16.9277C8.14742 17.2419 9.15949 17.3551 10.1367 17.3446C11.1944 17.3332 12.7058 16.9066 13.6806 16.0534C14.2284 15.574 14.476 15.0829 14.3194 14.362C14.2465 14.04 14.1105 13.7356 13.9194 13.4665C13.7282 13.1973 13.4855 12.9687 13.2055 12.7939C11.5054 11.7119 8.78325 11.7733 6.99816 12.608C6.44222 12.8526 5.98155 13.2724 5.6864 13.8032C5.60061 13.9506 5.53836 14.1104 5.50188 14.2769Z" fill="white"/>
<path d="M5.15148 12.5123C5.1416 12.5094 5.13173 12.5067 5.12185 12.5039C4.76566 12.6605 4.47871 13.098 4.53906 13.4142C4.79016 13.3986 4.94257 13.5284 5.09785 13.6728C5.26991 13.8329 5.37017 13.9764 5.53345 14.1493C5.5747 14.0299 5.62605 13.9143 5.68695 13.8036C5.79701 13.5939 5.93748 13.4017 6.10379 13.2331C5.95314 13.0661 5.79031 12.9106 5.61662 12.7678C5.48103 12.6512 5.32261 12.5642 5.15148 12.5123Z" fill="white"/>
<path d="M0.994001 10.9855C0.872891 10.9779 0.751363 10.9907 0.634453 11.0232C0.366472 11.1004 0.136223 11.3782 0.211096 11.6468C0.280239 11.8966 0.557407 12.0164 0.801683 12.103C2.09507 12.5615 3.24977 12.9784 4.54375 13.4373C4.45139 13.0654 4.86773 12.5052 5.31421 12.4507C5.26659 12.3357 4.92265 12.2038 4.71335 12.1323C4.08503 11.9166 3.4172 11.7175 2.77169 11.4989C2.32482 11.3476 1.92507 11.2124 1.47149 11.0829C1.34275 11.0439 1.21141 11.014 1.07846 10.9935C1.0504 10.9899 1.02235 10.9871 0.994001 10.9855Z" fill="white"/>
<path d="M5.47656 14.7881C5.64517 15.9459 5.84421 16.9403 6.78042 17.7183C7.75544 18.5283 9.08113 18.7443 10.3132 18.6429C11.2524 18.5655 12.2044 18.331 12.9759 17.7672C13.8468 17.1309 14.193 16.1756 14.3325 15.1363L14.3532 14.9609C14.2981 15.3799 14.0623 15.7196 13.6807 16.0534C12.7058 16.9066 11.1945 17.3332 10.1368 17.3445C9.15956 17.3551 8.14749 17.2419 7.38345 16.9277C6.39687 16.522 5.61534 15.8059 5.49138 14.8745L5.47656 14.7881Z" fill="white"/>
<path d="M5.31148 14.225C5.25656 14.5789 5.284 14.9406 5.39167 15.2822C5.49935 15.6237 5.68435 15.9358 5.9323 16.1942C6.4572 16.7622 7.19407 17.1276 7.93609 17.3153C8.37653 17.4225 8.82562 17.4904 9.27807 17.5182C9.69402 17.5535 10.1122 17.5545 10.5283 17.5212C11.3043 17.446 12.0605 17.2319 12.7606 16.889C13.4233 16.5645 14.1583 16.0747 14.4482 15.3659C14.7467 14.6364 14.4335 13.7733 13.9576 13.1954C13.4727 12.6065 12.7328 12.2629 12.0136 12.0532C11.2557 11.8399 10.4682 11.7516 9.68187 11.7916C8.91469 11.8199 8.15617 11.9638 7.43193 12.2184C6.68192 12.4889 5.97003 12.9109 5.56188 13.6211C5.44558 13.8074 5.36096 14.0118 5.31148 14.2259C5.26486 14.4744 5.64555 14.5809 5.69257 14.3309C5.76072 13.9679 5.99966 13.6197 6.25559 13.3609C6.5167 13.1043 6.82268 12.8979 7.15832 12.7518C7.78786 12.4759 8.45652 12.2997 9.14028 12.2296C10.4921 12.0786 12.0344 12.2273 13.1843 13.0175C13.7542 13.4093 14.1846 14.0982 14.1678 14.8044C14.1516 15.4865 13.5441 15.9727 13.0108 16.3017C12.392 16.6746 11.7103 16.9313 10.9992 17.059C10.2563 17.1821 9.49869 17.1863 8.75455 17.0715C8.00207 16.9704 7.26776 16.7456 6.64586 16.2997C6.15543 15.9477 5.74215 15.4233 5.68101 14.8054C5.66504 14.6472 5.66893 14.4877 5.69257 14.3305C5.7048 14.28 5.6973 14.2267 5.6716 14.1816C5.6459 14.1364 5.60394 14.1028 5.55428 14.0875C5.50386 14.074 5.45018 14.0809 5.40477 14.1066C5.35937 14.1323 5.32587 14.1748 5.31148 14.225Z" fill="#CF4E32"/>
<path d="M5.2592 12.2593C4.99036 12.3109 4.7509 12.4621 4.5886 12.6825C4.49574 12.7884 4.42625 12.9127 4.38468 13.0472C4.34312 13.1818 4.33041 13.3236 4.34739 13.4634C4.36147 13.5138 4.39492 13.5567 4.44046 13.5826C4.48599 13.6085 4.53991 13.6153 4.59048 13.6017C4.64027 13.5866 4.68237 13.553 4.7081 13.5077C4.73383 13.4625 4.74123 13.4092 4.72877 13.3587C4.72255 13.3213 4.73124 13.4113 4.72995 13.364C4.72995 13.3514 4.72847 13.3389 4.72847 13.3263C4.72847 13.3042 4.73292 13.2819 4.73252 13.26C4.73331 13.3121 4.72887 13.2867 4.73252 13.2675C4.7347 13.256 4.73717 13.2447 4.73993 13.2334C4.74606 13.2082 4.75356 13.1834 4.76206 13.159C4.76542 13.1492 4.77855 13.1282 4.77727 13.1189L4.76739 13.1432C4.77075 13.1355 4.77421 13.1279 4.77776 13.1204C4.78853 13.0974 4.80028 13.0748 4.81283 13.0527C4.82666 13.0282 4.84157 13.0043 4.85728 12.9809C4.86577 12.9682 4.87486 12.9559 4.88365 12.9433C4.90607 12.9112 4.85787 12.9742 4.88503 12.9414C4.91998 12.8985 4.95777 12.858 4.99813 12.8201C5.01709 12.7984 5.03912 12.7796 5.06352 12.7642C5.04248 12.7803 5.03794 12.784 5.0497 12.7752L5.0656 12.7637C5.07627 12.7561 5.08703 12.7488 5.098 12.7417C5.12141 12.7265 5.14561 12.7121 5.1703 12.6993C5.18354 12.6924 5.19697 12.6863 5.21031 12.6796C5.24498 12.6625 5.1708 12.6934 5.20962 12.6796C5.25987 12.6613 5.31182 12.6481 5.36469 12.6401C5.41459 12.6265 5.45717 12.5939 5.48323 12.5493C5.50964 12.5031 5.51674 12.4484 5.50298 12.397C5.48773 12.3473 5.45409 12.3053 5.40892 12.2796C5.36376 12.2539 5.31049 12.2464 5.25999 12.2587L5.2592 12.2593Z" fill="#CF4E32"/>
<path d="M5.28612 14.8406C5.40347 15.6431 5.54956 16.4717 6.01006 17.1583C6.50552 17.8969 7.28813 18.3921 8.13188 18.6423C9.0024 18.9004 9.92864 18.9097 10.8219 18.7827C11.7448 18.6515 12.685 18.3312 13.381 17.6889C14.0834 17.0409 14.3968 16.1131 14.5231 15.1888C14.5353 15.1383 14.5277 15.0851 14.5021 15.04C14.4764 14.9948 14.4345 14.9612 14.3849 14.9458C14.3343 14.9323 14.2805 14.9392 14.235 14.9651C14.1895 14.991 14.156 15.0337 14.1419 15.0841C14.0385 15.8404 13.824 16.6143 13.308 17.1987C12.7372 17.845 11.8967 18.1812 11.0672 18.3432C9.49392 18.6503 7.5332 18.4668 6.46779 17.1206C5.93232 16.4439 5.78811 15.5659 5.66681 14.7359C5.65266 14.6855 5.61921 14.6427 5.57372 14.6168C5.52823 14.591 5.47437 14.584 5.42382 14.5976C5.37398 14.6126 5.33182 14.6462 5.30607 14.6915C5.28033 14.7367 5.27297 14.7901 5.28553 14.8406H5.28612Z" fill="#CF4E32"/>
<path d="M4.58759 13.2435C3.91413 13.0046 3.241 12.7645 2.5682 12.5232C2.23828 12.4052 1.90837 12.2874 1.57845 12.1698C1.27057 12.06 0.935812 11.9754 0.644716 11.8257C0.447162 11.7242 0.303541 11.5497 0.47808 11.3484C0.688968 11.1052 1.06086 11.1764 1.3323 11.2497C2.00033 11.4288 2.65038 11.6718 3.30843 11.8835C3.68556 12.0048 4.06368 12.123 4.43953 12.2484C4.5951 12.3002 4.75314 12.3498 4.90378 12.4143C4.95957 12.4377 5.01392 12.4644 5.06656 12.4941C5.08923 12.5107 5.11292 12.5258 5.13748 12.5394C5.1278 12.5369 5.13172 12.5417 5.14924 12.5539C5.1281 12.5052 5.12109 12.4958 5.1282 12.5258C5.17354 12.7756 5.55442 12.6698 5.50918 12.4208C5.46246 12.1639 5.05688 12.0472 4.85083 11.9724C4.48961 11.8411 4.12107 11.7286 3.7549 11.6119C2.99669 11.3699 2.24727 11.0934 1.48007 10.8809C1.12813 10.7832 0.721071 10.7198 0.389378 10.9166C0.11063 11.0819 -0.0856402 11.4245 0.0365468 11.747C0.152511 12.0532 0.461287 12.1908 0.748728 12.294C1.13722 12.4336 1.5267 12.5706 1.91558 12.7095C2.77099 13.0149 3.62649 13.3201 4.4821 13.6252C4.72213 13.7105 4.82545 13.3289 4.5871 13.2443L4.58759 13.2435Z" fill="#CF4E32"/>
<path d="M6.18811 13.0359C5.89069 12.7252 5.56957 12.4122 5.13999 12.305C5.08946 12.291 5.03548 12.2977 4.98991 12.3236C4.94434 12.3495 4.91092 12.3924 4.897 12.4429C4.88307 12.4935 4.88979 12.5475 4.91567 12.593C4.94154 12.6386 4.98447 12.672 5.03499 12.6859C5.08425 12.6979 5.13283 12.7126 5.18048 12.7299C5.19131 12.7355 5.20274 12.74 5.21456 12.743C5.20814 12.7451 5.1796 12.7271 5.20636 12.7398C5.22474 12.7485 5.24321 12.7571 5.26128 12.7664C5.33406 12.8055 5.40344 12.8506 5.46872 12.9013L5.48995 12.9175C5.45815 12.8921 5.50674 12.9302 5.48995 12.9175C5.50971 12.9337 5.53025 12.9499 5.55001 12.9669C5.59169 13.0019 5.63209 13.0385 5.6717 13.0755C5.75329 13.1526 5.83113 13.2336 5.90877 13.3145C5.94605 13.351 5.9962 13.3715 6.04844 13.3715C6.10067 13.3715 6.15082 13.351 6.18811 13.3145C6.22421 13.2769 6.24438 13.2268 6.24438 13.1747C6.24438 13.1226 6.22421 13.0726 6.18811 13.035V13.0359Z" fill="#CF4E32"/>
<path d="M4.67097 13.6218C4.69112 13.6298 4.71174 13.6366 4.73271 13.6421C4.72352 13.6408 4.69675 13.6254 4.72066 13.6374C4.73054 13.6421 4.73962 13.6467 4.74901 13.6517C4.78457 13.6708 4.81529 13.6973 4.85005 13.7169C4.80995 13.6943 4.83395 13.7043 4.84531 13.7136C4.85361 13.7204 4.86191 13.7273 4.87011 13.7343C4.8866 13.7483 4.9028 13.7627 4.9189 13.7773C4.95199 13.807 4.98459 13.8378 5.0162 13.8694C5.14115 13.9943 5.2499 14.1341 5.36952 14.2645C5.40675 14.3012 5.45692 14.3218 5.50919 14.3218C5.56147 14.3218 5.61164 14.3012 5.64886 14.2645C5.68489 14.2269 5.70501 14.1769 5.70501 14.1248C5.70501 14.0728 5.68489 14.0227 5.64886 13.9852C5.52273 13.8482 5.40844 13.7003 5.27489 13.5703C5.13899 13.4204 4.96735 13.3072 4.77597 13.2415C4.75096 13.2346 4.72483 13.2327 4.69908 13.2359C4.67333 13.2391 4.64846 13.2473 4.6259 13.2601C4.60333 13.273 4.58352 13.2901 4.56757 13.3106C4.55163 13.331 4.53988 13.3545 4.53298 13.3795C4.52609 13.4045 4.52419 13.4306 4.52739 13.4564C4.53059 13.4821 4.53884 13.507 4.55165 13.5295C4.56447 13.5521 4.5816 13.5719 4.60207 13.5879C4.62254 13.6038 4.64596 13.6156 4.67097 13.6225V13.6218Z" fill="#CF4E32"/>
<path d="M7.53834 14.2832C7.79911 13.9474 8.20459 13.7795 8.60582 13.6755C9.10501 13.5532 9.61905 13.5025 10.1325 13.5249C10.6533 13.5455 11.168 13.6437 11.6598 13.8163C12.0916 13.9558 12.4967 14.1672 12.8581 14.4417C13.0159 14.561 13.153 14.7055 13.2639 14.8693C13.3547 14.9992 13.403 15.1541 13.4022 15.3126C13.3951 15.5669 13.7902 15.5667 13.7973 15.3126C13.8082 14.9185 13.5774 14.5687 13.3025 14.306C12.929 13.9693 12.495 13.7065 12.0236 13.5315C10.9577 13.1099 9.79072 13.0136 8.67013 13.2549C8.15461 13.3659 7.59346 13.5737 7.2594 14.0042C7.22387 14.042 7.2041 14.092 7.2041 14.1439C7.2041 14.1958 7.22387 14.2458 7.2594 14.2836C7.29661 14.3203 7.34678 14.3409 7.39907 14.3409C7.45135 14.3409 7.50153 14.3203 7.53874 14.2836L7.53834 14.2832Z" fill="#CF4E32"/>
<path d="M12.9424 12.5005C13.656 11.7374 14.2067 11.1104 14.8953 10.351C14.9896 10.247 15.0817 10.1217 15.2202 10.099C15.2904 10.0954 15.3593 10.1188 15.4127 10.1645C15.4662 10.2102 15.5 10.2747 15.5072 10.3447C15.5053 10.41 15.4795 10.4724 15.4346 10.52C14.7501 11.294 14.0766 12.058 13.3572 12.8215" fill="white"/>
<path d="M11.074 14.7561C11.2307 14.8411 11.397 14.9074 11.5692 14.9536C11.6713 14.9825 11.7792 14.9838 11.882 14.9574C11.9754 14.9247 12.0589 14.8687 12.1248 14.7948C12.4736 14.4067 13.2151 13.1642 13.3133 12.9557C13.3324 12.9159 13.3377 12.871 13.3285 12.8279C13.2889 12.7205 13.042 12.6151 12.9362 12.5822C12.9362 12.5822 12.8868 12.5698 12.8209 12.5508C12.0134 13.0465 11.1662 13.4949 10.3592 13.9911C10.3156 14.018 10.2669 14.0531 10.2649 14.1042C10.2671 14.1251 10.2734 14.1452 10.2836 14.1635C10.2938 14.1818 10.3076 14.1978 10.3242 14.2106C10.5501 14.4234 10.802 14.6066 11.074 14.7561Z" fill="white"/>
<path d="M13.0821 12.64C13.6681 12.0131 14.2387 11.3723 14.8136 10.7353C14.8873 10.6536 14.9617 10.5724 15.035 10.4905C15.0832 10.4222 15.1422 10.3622 15.2096 10.3127C15.241 10.296 15.2879 10.2864 15.3039 10.3353C15.3218 10.39 15.202 10.4853 15.1688 10.5229C14.8698 10.8609 14.5702 11.1982 14.2699 11.5348C13.9235 11.9208 13.5729 12.303 13.2181 12.6814C13.0439 12.8664 13.3227 13.1463 13.4975 12.9607C13.8639 12.5716 14.2251 12.1776 14.581 11.7788C14.7553 11.5844 14.929 11.3894 15.102 11.1938C15.1861 11.099 15.2701 11.0041 15.3541 10.9092C15.4535 10.8087 15.5459 10.7015 15.6307 10.5883C15.6914 10.4955 15.7142 10.3829 15.6944 10.2737C15.6746 10.1646 15.6136 10.0672 15.5242 10.0016C15.4379 9.93428 15.3302 9.9003 15.2209 9.90586C15.1116 9.91143 15.0079 9.95618 14.9289 10.0319C14.7598 10.1902 14.6024 10.3604 14.4579 10.5414C14.2933 10.7237 14.129 10.9063 13.9652 11.089C13.5812 11.5159 13.1955 11.9411 12.8036 12.3606C12.63 12.5462 12.9089 12.8262 13.0829 12.6399L13.0821 12.64Z" fill="#CF4E32"/>
<path d="M10.9742 14.9258C11.2879 15.0897 11.7033 15.2786 12.0488 15.1002C12.2627 14.9898 12.4063 14.7664 12.542 14.5755C12.8255 14.1767 13.0839 13.7579 13.3295 13.3348C13.4104 13.1952 13.5357 13.0245 13.5313 12.8569C13.5241 12.584 13.1757 12.4442 12.9548 12.382C12.9144 12.3649 12.8707 12.3569 12.8268 12.3586C12.783 12.3603 12.74 12.3717 12.701 12.3919C12.6112 12.4412 12.5251 12.4988 12.4371 12.5513C12.267 12.6526 12.0959 12.7526 11.9241 12.8512C11.5734 13.0531 11.2209 13.2517 10.8711 13.4552C10.6796 13.5666 10.4884 13.6789 10.2999 13.7952C10.135 13.8968 9.99268 14.0619 10.1122 14.2611C10.2011 14.4093 10.3789 14.5243 10.5133 14.6261C10.6593 14.7374 10.8134 14.8376 10.9743 14.926C11.1979 15.0474 11.3975 14.7064 11.1738 14.5848C11.0301 14.506 10.8919 14.4177 10.7602 14.3203C10.7015 14.2773 10.6445 14.2322 10.5891 14.185C10.5549 14.1553 10.4616 14.0927 10.4555 14.0511V14.1561C10.4493 14.1842 10.5196 14.124 10.5399 14.1116C10.5938 14.0786 10.648 14.046 10.7023 14.0136C10.8109 13.9484 10.92 13.884 11.0294 13.8203C11.2351 13.7004 11.4416 13.5823 11.6484 13.4647C12.075 13.2211 12.5017 12.9777 12.9207 12.7211L12.7685 12.7408C12.8303 12.7561 12.8913 12.7746 12.9511 12.7961C13.0095 12.8314 13.0695 12.8636 13.1311 12.8927C13.1494 12.9131 13.1554 12.9183 13.149 12.9083C13.1314 12.8927 13.1281 12.8776 13.1391 12.8631C13.1319 12.8753 13.1255 12.8879 13.1199 12.9009C13.1007 12.9374 13.0803 12.9735 13.0606 13.0095C12.9223 13.2551 12.7759 13.4957 12.626 13.734C12.4596 13.9988 12.2901 14.2632 12.1015 14.5127C12.0375 14.5974 11.9464 14.7273 11.8295 14.7664C11.6281 14.8337 11.3465 14.6754 11.1737 14.585C10.9486 14.467 10.7487 14.8078 10.9742 14.9258Z" fill="#CF4E32"/>
</svg>
