<svg width="34" height="34" viewBox="0 0 34 34" fill="none" xmlns="http://www.w3.org/2000/svg">
<path d="M17.9589 2.77343C17.7446 2.77687 17.5301 2.79002 17.3161 2.81194C16.7455 2.87041 16.1782 2.99447 15.6254 3.18648L7.45475 6.02335C7.45165 6.02466 7.44855 6.02598 7.44546 6.02733C5.83533 6.6132 4.75999 8.14867 4.75999 9.86163V10.4101C4.75999 10.4256 4.77048 10.4385 4.77061 10.454L3.04804 11.3159C3.04537 11.3172 3.04271 11.3186 3.04007 11.3199C0.155457 12.8129 -0.928862 16.4761 0.908426 19.031L7.61413 31.8633C8.45281 33.4689 10.653 33.808 11.9358 32.5287L18.6416 25.839H18.6429C18.7085 25.7733 18.7855 25.7227 18.8713 25.6889L29.9253 21.318C32.3827 20.3465 34 17.9676 34 15.3255C34 13.1718 32.9219 11.1585 31.1299 9.9639L22.2288 4.02851C20.9509 3.17655 19.4587 2.74931 17.9589 2.77343ZM18.1568 4.1321C18.3903 4.13505 18.6228 4.15173 18.8541 4.18124C19.7792 4.29926 20.6774 4.62869 21.4744 5.16007L30.3755 11.0955C31.7905 12.0387 32.64 13.6251 32.64 15.3255C32.64 17.4136 31.3668 19.2858 29.4246 20.0537L18.3719 24.4245C18.113 24.5267 17.8764 24.681 17.68 24.8774L10.9756 31.5645C10.315 32.2233 9.25162 32.06 8.82007 31.2338L2.10772 18.3869C2.09072 18.3548 2.07118 18.3242 2.04929 18.2952C0.663877 16.4452 1.43435 13.6834 3.66561 12.5285L5.1053 11.8073C5.44301 13.0324 6.05445 14.1645 7.12804 14.8992L15.6068 20.7005C17.2739 21.8414 19.398 22.0857 21.2805 21.3539L29.8576 18.0216C30.7128 17.6897 31.28 16.8606 31.28 15.9431V15.9006C31.28 14.3305 29.6897 13.2 28.212 13.7291C25.4035 14.7347 20.8516 16.3601 20.8516 16.3601C20.7647 16.3879 20.6843 16.4329 20.6152 16.4924C20.546 16.5519 20.4896 16.6247 20.4491 16.7064C20.4087 16.7882 20.3851 16.8773 20.3798 16.9683C20.3745 17.0594 20.3876 17.1505 20.4182 17.2364C20.4489 17.3223 20.4965 17.4012 20.5583 17.4683C20.62 17.5355 20.6946 17.5895 20.7777 17.6272C20.8607 17.6649 20.9505 17.6855 21.0417 17.6877C21.1329 17.69 21.2236 17.6739 21.3084 17.6405C21.3084 17.6405 25.8606 16.0153 28.6702 15.0094C29.3006 14.7837 29.92 15.2213 29.92 15.9006V15.9431C29.92 16.304 29.7023 16.6228 29.3662 16.7533L20.7878 20.0869C19.322 20.6566 17.6722 20.4664 16.3744 19.5782L7.89569 13.7769C6.78343 13.0158 6.11999 11.758 6.11999 10.4101V9.86163C6.11999 8.71653 6.83277 7.69878 7.90897 7.30632L7.9103 7.30499L16.0716 4.47077C16.7505 4.235 17.4563 4.12326 18.1568 4.1321Z" fill="#CF4E32"/>
</svg>
