<svg width="20" height="32" viewBox="0 0 20 32" fill="none" xmlns="http://www.w3.org/2000/svg">
<path d="M19.3195 9.57678C19.3234 9.56814 19.3269 9.55929 19.3303 9.55044C19.3332 9.54298 19.336 9.53552 19.3385 9.52805C19.3411 9.5201 19.3434 9.51202 19.3457 9.50386C19.3481 9.49515 19.3504 9.48645 19.3524 9.47767C19.354 9.47048 19.3553 9.46315 19.3566 9.45583C19.3584 9.44594 19.36 9.43606 19.3612 9.42611C19.3619 9.41947 19.3625 9.41277 19.363 9.40606C19.3639 9.39542 19.3645 9.38478 19.3646 9.37413C19.3647 9.37109 19.3651 9.36812 19.3651 9.36501C19.365 4.20112 15.1639 0 10 0C4.83613 0 0.63501 4.20112 0.63501 9.36501C0.63501 9.36805 0.635425 9.37109 0.635494 9.37413C0.635701 9.38478 0.636254 9.39542 0.637083 9.40606C0.637636 9.41277 0.63812 9.41947 0.638949 9.42611C0.640124 9.43606 0.641714 9.44594 0.643511 9.45583C0.644824 9.46315 0.646068 9.47041 0.647727 9.47767C0.649662 9.48645 0.652012 9.49515 0.654431 9.50386C0.656712 9.51195 0.658993 9.52003 0.661619 9.52798C0.664107 9.53552 0.66701 9.54298 0.669843 9.55051C0.67323 9.55936 0.676755 9.56814 0.680626 9.57678C0.683597 9.58334 0.686776 9.58977 0.690025 9.59627C0.694586 9.60539 0.699286 9.61438 0.704401 9.62315C0.706059 9.62599 0.707303 9.62889 0.708962 9.63172L6.36225 19.0538C6.26397 19.1167 6.17163 19.1904 6.08717 19.2749C5.78037 19.5816 5.61139 19.9895 5.61139 20.4233C5.61139 20.8572 5.7803 21.2651 6.0871 21.5718C6.32002 21.8047 7.07993 22.2449 7.86749 22.6695H5.02378C4.43306 22.6695 3.9525 23.1501 3.9525 23.7408V25.3996C3.9525 25.6858 4.18452 25.9179 4.47086 25.9179H4.50542V30.9287C4.50542 31.5194 4.98597 32 5.57669 32H14.4233C15.0141 32 15.4946 31.5194 15.4946 30.9287V25.9179H15.5292C15.8155 25.9179 16.0475 25.6858 16.0475 25.3996V23.7408C16.0475 23.1501 15.567 22.6695 14.9763 22.6695H12.1327C12.9202 22.2448 13.6801 21.8047 13.913 21.5718C14.2198 21.2651 14.3888 20.8572 14.3888 20.4233C14.3888 19.9895 14.2199 19.5816 13.9131 19.2749C13.8285 19.1903 13.7361 19.1167 13.6379 19.0538L19.2912 9.63165C19.2929 9.62882 19.2942 9.62592 19.2958 9.62308C19.3008 9.61431 19.3056 9.60525 19.3102 9.59613C19.3133 9.5897 19.3166 9.58327 19.3195 9.57678ZM12.0905 18.9451L14.9178 9.52093C14.9183 9.51941 14.9187 9.51782 14.9192 9.5163L14.9199 9.51395C14.9208 9.51098 14.9212 9.50794 14.9221 9.5049C14.9257 9.49177 14.9292 9.47863 14.9318 9.46516C14.9334 9.45693 14.9344 9.44878 14.9356 9.44062C14.9368 9.43212 14.9383 9.42376 14.9391 9.41512C14.9405 9.40178 14.9409 9.38851 14.9412 9.37517C14.9412 9.37178 14.9416 9.36847 14.9416 9.36501C14.9416 9.21399 15.5239 8.77754 16.6349 8.77754C17.5861 8.77754 18.1483 9.09698 18.2908 9.2838L12.5747 18.8105C12.4059 18.83 12.2429 18.8755 12.0905 18.9451ZM7.42523 18.8105L1.70919 9.28373C1.8517 9.09692 2.41388 8.77747 3.36503 8.77747C4.47612 8.77747 5.05834 9.21393 5.05834 9.36494C5.05834 9.3684 5.05875 9.37171 5.05882 9.3751C5.0591 9.38837 5.05951 9.40171 5.06082 9.41505C5.06165 9.42369 5.06317 9.43205 5.06442 9.44055C5.06566 9.44878 5.06656 9.45693 5.06815 9.46509C5.07078 9.47857 5.07423 9.49177 5.0779 9.50483C5.07872 9.5078 5.07921 9.51084 5.08011 9.51388L5.0808 9.5163C5.08128 9.51782 5.0817 9.51934 5.08218 9.52086L7.90938 18.945C7.75712 18.8755 7.59408 18.83 7.42523 18.8105ZM10.5184 9.36501C10.5184 9.21399 11.1006 8.77754 12.2117 8.77754C13.2389 8.77754 13.8129 9.15013 13.8939 9.32582L10.5184 20.5777V9.36501ZM9.48166 20.5777L6.10611 9.32582C6.18711 9.15013 6.76118 8.77754 7.78836 8.77754C8.89944 8.77754 9.48166 9.21399 9.48166 9.36501V20.5777ZM10 1.03672C14.1366 1.03672 17.5778 4.06828 18.2201 8.02619C17.779 7.84518 17.2358 7.74082 16.635 7.74082C15.7047 7.74082 14.9113 7.99025 14.4233 8.3887C13.9354 7.99025 13.142 7.74082 12.2117 7.74082C11.2814 7.74082 10.488 7.99025 10 8.3887C9.51207 7.99025 8.71864 7.74082 7.78836 7.74082C6.85808 7.74082 6.06464 7.99025 5.57669 8.3887C5.08875 7.99025 4.29531 7.74082 3.36503 7.74082C2.76429 7.74082 2.22105 7.84518 1.77989 8.02619C2.42224 4.06828 5.86345 1.03672 10 1.03672ZM6.64797 20.4233C6.64797 20.2664 6.70907 20.1189 6.82006 20.0079C6.93099 19.897 7.07848 19.8359 7.23544 19.8359C7.3924 19.8359 7.53982 19.8969 7.65082 20.0079H7.65089C7.80785 20.1659 8.28626 21.01 8.80469 21.9925C7.82209 21.4741 6.97806 20.9957 6.81999 20.8386C6.70907 20.7277 6.64797 20.5802 6.64797 20.4233ZM4.98922 23.7408C4.98922 23.7217 5.00477 23.7063 5.02378 23.7063H9.48166V24.8812H4.98922V23.7408ZM5.54214 30.9287V25.9179H9.48166V30.9633H5.57669C5.55769 30.9633 5.54214 30.9478 5.54214 30.9287ZM14.4579 30.9287C14.4579 30.9478 14.4424 30.9633 14.4233 30.9633H10.5184V25.9179H14.4579V30.9287ZM15.0108 23.7408V24.8812H10.5184V23.7063H14.9763C14.9953 23.7063 15.0108 23.7217 15.0108 23.7408ZM13.18 20.8387C13.0221 20.9957 12.178 21.4741 11.1954 21.9925C11.7139 21.01 12.1922 20.1659 12.3492 20.0079C12.4601 19.897 12.6076 19.8359 12.7646 19.8359C12.9216 19.8359 13.069 19.8969 13.18 20.0079C13.291 20.1189 13.3521 20.2664 13.3521 20.4233C13.3521 20.5802 13.291 20.7277 13.18 20.8387Z" fill="white"/>
</svg>
