<svg width="30" height="30" viewBox="0 0 30 30" fill="none" xmlns="http://www.w3.org/2000/svg">
<path d="M1.93555 15.4842H14.5162V8.70996H1.93555V15.4842ZM2.90329 9.6777H13.5484V14.5164H2.90329V9.6777Z" fill="white"/>
<path d="M2.90332 19.8388H5.80655V16.9355H2.90332V19.8388ZM3.87106 17.9033H4.8388V18.871H3.87106V17.9033Z" fill="white"/>
<path d="M6.77417 19.8388H9.6774V16.9355H6.77417V19.8388ZM7.74191 17.9033H8.70965V18.871H7.74191V17.9033Z" fill="white"/>
<path d="M10.6453 19.8388H13.5485V16.9355H10.6453V19.8388ZM11.613 17.9033H12.5807V18.871H11.613V17.9033Z" fill="white"/>
<path d="M2.90332 23.7099H5.80655V20.8066H2.90332V23.7099ZM3.87106 21.7744H4.8388V22.7421H3.87106V21.7744Z" fill="white"/>
<path d="M6.77417 23.7099H9.6774V20.8066H6.77417V23.7099ZM7.74191 21.7744H8.70965V22.7421H7.74191V21.7744Z" fill="white"/>
<path d="M10.6453 23.7099H13.5485V20.8066H10.6453V23.7099ZM11.613 21.7744H12.5807V22.7421H11.613V21.7744Z" fill="white"/>
<path d="M2.90332 27.581H5.80655V24.6777H2.90332V27.581ZM3.87106 25.6455H4.8388V26.6132H3.87106V25.6455Z" fill="white"/>
<path d="M6.77417 27.581H9.6774V24.6777H6.77417V27.581ZM7.74191 25.6455H8.70965V26.6132H7.74191V25.6455Z" fill="white"/>
<path d="M10.6453 27.581H13.5485V24.6777H10.6453V27.581ZM11.613 25.6455H12.5807V26.6132H11.613V25.6455Z" fill="white"/>
<path d="M12.5805 12.5811H11.6128V13.5488H12.5805V12.5811Z" fill="white"/>
<path d="M10.6452 12.5811H7.74194V13.5488H10.6452V12.5811Z" fill="white"/>
<path d="M11.6128 2.90332H4.83862V3.87106H11.6128V2.90332Z" fill="white"/>
<path d="M11.613 4.83887H10.6453V5.80661H11.613V4.83887Z" fill="white"/>
<path d="M24.1935 8.96661V6.77419C24.1935 5.97387 23.5423 5.32258 22.7419 5.32258H16.4516V4.83871C16.4516 3.77129 15.5835 2.90323 14.5161 2.90323H13.5484V0H2.90323V2.90323H1.93548C0.868064 2.90323 0 3.77129 0 4.83871L0.00241935 19.8871L0.839032 28.2576C0.938226 29.2505 1.76661 30 2.76532 30H13.6863C14.6845 30 15.5129 29.2505 15.6121 28.2571L16.3069 21.2903H19.0094C18.9194 21.8202 18.871 22.3563 18.871 22.8934C18.871 24.7897 19.4269 26.626 20.4789 28.2039L20.8065 28.695V30H21.7742V28.4018L21.284 27.6663C20.3385 26.2485 19.8387 24.5976 19.8387 22.8934C19.8387 22.1908 19.9253 21.4887 20.0952 20.806L20.7915 18.0208L20.8065 13.6389C20.8065 13.0548 21.2806 12.5806 21.8642 12.5806C22.3969 12.5806 22.8479 12.9789 22.9142 13.5073L23.7663 20.3226H25.1105L25.6602 15.375L24.1935 12.9305V10.2271L29.0323 14.2592V18.8085L26.6289 27.9411L26.6129 30H27.5806V28.1269L29.984 18.9944L30 13.8053L24.1935 8.96661ZM3.87097 0.967742H4.83871V1.93548H5.80645V0.967742H6.77419V1.93548H7.74194V0.967742H8.70968V1.93548H9.67742V0.967742H10.6452V1.93548H11.6129V0.967742H12.5806V6.77419H3.87097V0.967742ZM14.6492 28.1608C14.5998 28.6577 14.1856 29.0323 13.6863 29.0323H2.76532C2.26597 29.0323 1.85177 28.6577 1.80242 28.1608L0.967742 19.8387V4.83871C0.967742 4.30548 1.40177 3.87097 1.93548 3.87097H2.90323V6.77419H1.93548V7.74194H14.5161V6.77419H13.5484V3.87097H14.5161C15.0494 3.87097 15.4839 4.30548 15.4839 4.83871L15.4863 19.7903L14.6492 28.1608ZM23.2258 12.1466C22.8634 11.8161 22.3858 11.6129 21.8642 11.6129C20.7474 11.6129 19.8387 12.5216 19.8387 13.6389V17.8437L19.2184 20.3226H16.4032L16.4516 19.8387V9.19355V6.29032H22.7419C23.009 6.29032 23.2258 6.5071 23.2258 6.77419V12.1466ZM24.6624 15.5927L24.4215 17.761L24.1935 15.9397V14.8118L24.6624 15.5927Z" fill="white"/>
<path d="M18.3871 11.1288C18.7283 11.1288 19.0617 11.0368 19.3549 10.8646C19.6481 11.0368 19.9815 11.1288 20.3226 11.1288C21.39 11.1288 22.2581 10.2607 22.2581 9.1933C22.2581 8.12588 21.39 7.25781 20.3226 7.25781C19.9815 7.25781 19.6481 7.34975 19.3549 7.52201C19.0617 7.34975 18.7283 7.25781 18.3871 7.25781C17.3197 7.25781 16.4517 8.12588 16.4517 9.1933C16.4517 10.2607 17.3197 11.1288 18.3871 11.1288ZM18.3871 8.22555C18.6218 8.22555 18.8502 8.31507 19.0312 8.47765L19.3549 8.76943L19.6786 8.47765C19.8596 8.31507 20.088 8.22555 20.3226 8.22555C20.8559 8.22555 21.2904 8.65959 21.2904 9.1933C21.2904 9.72701 20.8559 10.161 20.3226 10.161C20.088 10.161 19.8596 10.0715 19.6786 9.90894L19.3549 9.61717L19.0312 9.90894C18.8502 10.0715 18.6218 10.161 18.3871 10.161C17.8534 10.161 17.4194 9.72701 17.4194 9.1933C17.4194 8.65959 17.8534 8.22555 18.3871 8.22555Z" fill="white"/>
<path d="M18.3872 12.0967H17.4194V17.4193H18.3872V12.0967Z" fill="white"/>
<path d="M18.3872 18.3867H17.4194V19.3545H18.3872V18.3867Z" fill="white"/>
</svg>
