<svg width="40" height="40" viewBox="0 0 40 40" fill="none" xmlns="http://www.w3.org/2000/svg">
<path d="M10.0386 23.394L4.70514 29.4894C4.62964 29.5757 4.52434 29.6196 4.41828 29.6196C4.32898 29.6196 4.23969 29.5887 4.16753 29.5255C4.00905 29.3868 3.99305 29.1461 4.13142 28.9879L9.46486 22.8925C9.60322 22.7329 9.84429 22.7181 10.0025 22.8564C10.1609 22.9952 10.1769 23.2359 10.0386 23.394ZM9.37076 26.5719C10.2112 26.5719 10.8946 27.2554 10.8946 28.0958C10.8946 28.9362 10.2112 29.6196 9.37076 29.6196C8.53036 29.6196 7.84692 28.9362 7.84692 28.0958C7.84692 27.2554 8.53036 26.5719 9.37076 26.5719ZM9.37076 27.3338C8.95071 27.3338 8.60884 27.6757 8.60884 28.0958C8.60884 28.5158 8.95071 28.8577 9.37076 28.8577C9.79081 28.8577 10.1327 28.5158 10.1327 28.0958C10.1327 27.6757 9.79081 27.3338 9.37076 27.3338ZM4.79924 25.81C3.95884 25.81 3.2754 25.1266 3.2754 24.2862C3.2754 23.4458 3.95884 22.7623 4.79924 22.7623C5.63964 22.7623 6.32308 23.4458 6.32308 24.2862C6.32308 25.1266 5.63964 25.81 4.79924 25.81ZM4.79924 25.0481C5.21929 25.0481 5.56116 24.7062 5.56116 24.2862C5.56116 23.8661 5.21929 23.5242 4.79924 23.5242C4.37919 23.5242 4.03732 23.8661 4.03732 24.2862C4.03732 24.7062 4.37919 25.0481 4.79924 25.0481ZM39.185 32.5586C39.1898 32.7532 39.0469 32.9202 38.8539 32.9455C38.8079 32.9517 36.6217 33.2299 32.65 33.3648C32.6373 33.3661 32.6257 33.3715 32.6127 33.3715C32.5961 33.3715 32.5791 33.3698 32.5619 33.3676C31.3096 33.4092 29.8879 33.437 28.2956 33.4371C24.1551 33.4371 18.8989 33.2515 12.7185 32.6588C12.3496 33.1247 11.7917 33.4293 11.1595 33.4293H3.01048C1.90181 33.4293 1 32.5111 1 31.3824V16.5304C1 16.485 1.00815 16.44 1.02415 16.3972C1.58447 14.8943 2.36452 13.7067 3.48325 12.667C2.94313 12.0995 2.73367 11.4019 2.9256 10.7967C3.08332 10.3004 3.48592 9.94545 4.00265 9.84686C4.71413 9.71131 5.51042 10.0804 6.21557 10.8554C7.06991 10.6118 7.99527 10.7334 8.77845 11.2215C9.99973 11.9821 10.9366 12.7965 11.6782 13.7423C12.0363 12.9363 12.7493 11.4146 13.7703 9.62545C13.9727 9.26902 14.354 9.04768 14.7648 9.04768H17.0281C17.0098 8.92219 16.9896 8.79716 16.9896 8.66672C16.9896 7.19644 18.186 6 19.6563 6C21.1266 6 22.3234 7.19644 22.3234 8.66672C22.3234 8.79533 22.3092 8.92189 22.2912 9.04768H23.1234C23.1052 8.92219 23.0849 8.79716 23.0849 8.66672C23.0849 7.19644 24.2814 6 25.7517 6C27.2219 6 28.4188 7.19644 28.4188 8.66672C28.4188 8.79533 28.4046 8.92189 28.3865 9.04768H29.2188C29.2006 8.92219 29.1803 8.79716 29.1803 8.66672C29.1803 7.19644 30.3768 6 31.847 6C33.3173 6 34.5141 7.19644 34.5141 8.66672C34.5141 8.79533 34.5 8.92189 34.4819 9.04768H36.7999C36.9908 9.04768 37.1518 9.18871 37.1775 9.37767C37.1949 9.50788 38.9387 22.5171 39.185 32.5586ZM29.9808 9.04776H33.71C33.7354 8.92295 33.7522 8.79625 33.7522 8.6668C33.7522 7.61657 32.8976 6.762 31.847 6.762C30.7964 6.762 29.9422 7.61657 29.9422 8.6668C29.9422 8.79724 29.9556 8.92463 29.9808 9.04776ZM23.8854 9.04776H27.6146C27.64 8.92295 27.6568 8.79625 27.6568 8.6668C27.6568 7.61657 26.8023 6.762 25.7517 6.762C24.7011 6.762 23.8469 7.61657 23.8469 8.6668C23.8469 8.79724 23.8603 8.92463 23.8854 9.04776ZM17.7901 9.04776H21.5193C21.5446 8.92295 21.5615 8.79625 21.5615 8.6668C21.5615 7.61657 20.7069 6.762 19.6563 6.762C18.6057 6.762 17.7515 7.61657 17.7515 8.6668C17.7515 8.79724 17.7649 8.92463 17.7901 9.04776ZM4.05812 12.168C4.46361 11.8416 4.90172 11.5265 5.39148 11.2215C5.41556 11.2065 5.44139 11.1964 5.46569 11.1822C5.0058 10.7446 4.5315 10.5235 4.14513 10.5954C3.90444 10.6412 3.7247 10.799 3.65179 11.0274C3.54428 11.3667 3.69049 11.7871 4.04281 12.1524L4.05812 12.168ZM12.408 16.5996C11.6256 14.5367 10.453 13.1621 8.37592 11.8681C7.57979 11.3725 6.59013 11.3725 5.794 11.8681C5.3511 12.144 4.95719 12.4255 4.59154 12.7147C5.0653 13.1973 5.4903 13.62 5.86067 13.9813C6.21534 13.7548 6.63371 13.6192 7.08492 13.6192C8.34537 13.6192 9.37069 14.6445 9.37069 15.905C9.37069 17.1654 8.34537 18.1907 7.08492 18.1907C5.82448 18.1907 4.79916 17.1654 4.79916 15.905C4.79916 15.3714 4.99048 14.8863 5.29807 14.4969C4.92122 14.1289 4.49051 13.6997 4.01103 13.2107C2.98808 14.1551 2.28414 15.2226 1.76192 16.5996V31.3823C1.76192 32.091 2.32224 32.6673 3.01048 32.6673H11.1594C11.8477 32.6673 12.408 32.091 12.408 31.3823V16.5996ZM5.84467 15.0257C5.66768 15.2746 5.56116 15.5769 5.56116 15.905C5.56116 16.7454 6.2446 17.4289 7.085 17.4289C7.9254 17.4289 8.60884 16.7454 8.60884 15.905C8.60884 15.0646 7.9254 14.3812 7.085 14.3812C6.85056 14.3812 6.63105 14.4388 6.43249 14.5337C7.07319 15.1447 7.44691 15.4765 7.45369 15.4828C7.61141 15.6219 7.62673 15.8626 7.48752 16.0204C7.4124 16.106 7.3071 16.1495 7.2018 16.1495C7.11212 16.1495 7.02214 16.1182 6.94991 16.0542C6.94252 16.0478 6.53459 15.6853 5.84467 15.0257ZM28.7174 32.674C31.9945 19.6794 35.2937 11.8574 36.2073 9.8096H30.3329C30.681 10.2694 31.2273 10.5715 31.847 10.5715C32.0576 10.5715 32.228 10.7419 32.228 10.9525C32.228 11.1631 32.0576 11.3334 31.847 11.3334C30.7873 11.3334 29.8775 10.7073 29.4478 9.8096H24.2376C24.5856 10.2694 25.1319 10.5715 25.7517 10.5715C25.9623 10.5715 26.1326 10.7419 26.1326 10.9525C26.1326 11.1631 25.9623 11.3334 25.7517 11.3334C24.6919 11.3334 23.7822 10.7073 23.3525 9.8096H18.1422C18.4903 10.2694 19.0366 10.5715 19.6563 10.5715C19.8669 10.5715 20.0373 10.7419 20.0373 10.9525C20.0373 11.1631 19.8669 11.3334 19.6563 11.3334C18.5965 11.3334 17.6868 10.7073 17.2571 9.8096H14.7649C14.6295 9.8096 14.4989 9.88511 14.4323 10.0023C13.1952 12.1703 12.4203 13.9324 12.1922 14.4704C12.564 15.0567 12.8819 15.6893 13.1458 16.3971C13.1618 16.4399 13.1699 16.4849 13.1699 16.5303V31.3822C13.1699 31.5726 13.1359 31.7535 13.0879 31.9286C19.328 32.5164 24.6034 32.6866 28.7174 32.674ZM38.4141 32.2297C38.1908 24.1797 37.0368 14.3535 36.5951 10.8246C35.4049 13.5985 32.4527 21.0263 29.5044 32.6696C30.5097 32.6607 31.4368 32.6408 32.2879 32.6144C32.6883 30.1975 34.0661 22.2753 34.0807 22.1919C34.1172 21.9847 34.3154 21.8471 34.5211 21.8817C34.7288 21.9178 34.8675 22.115 34.8314 22.3222C34.8171 22.4042 33.4941 30.0114 33.0647 32.5878C35.8671 32.4818 37.6984 32.3074 38.4141 32.2297ZM15.8471 16.667H18.8948C19.1054 16.667 19.2757 16.4966 19.2757 16.286C19.2757 16.0754 19.1054 15.905 18.8948 15.905H15.8471C15.6365 15.905 15.4661 16.0754 15.4661 16.286C15.4661 16.4966 15.6365 16.667 15.8471 16.667ZM21.9424 16.667H24.9901C25.2007 16.667 25.3711 16.4966 25.3711 16.286C25.3711 16.0754 25.2007 15.905 24.9901 15.905H21.9424C21.7319 15.905 21.5615 16.0754 21.5615 16.286C21.5615 16.4966 21.7319 16.667 21.9424 16.667ZM28.0378 16.667H31.0855C31.2961 16.667 31.4664 16.4966 31.4664 16.286C31.4664 16.0754 31.2961 15.905 31.0855 15.905H28.0378C27.8272 15.905 27.6568 16.0754 27.6568 16.286C27.6568 16.4966 27.8272 16.667 28.0378 16.667ZM23.4663 20.4766H20.4186C20.208 20.4766 20.0376 20.6469 20.0376 20.8575C20.0376 21.0681 20.208 21.2385 20.4186 21.2385H23.4663C23.6769 21.2385 23.8472 21.0681 23.8472 20.8575C23.8472 20.6469 23.6769 20.4766 23.4663 20.4766ZM17.3709 20.4766H14.3232C14.1126 20.4766 13.9423 20.6469 13.9423 20.8575C13.9423 21.0681 14.1126 21.2385 14.3232 21.2385H17.3709C17.5815 21.2385 17.7519 21.0681 17.7519 20.8575C17.7519 20.6469 17.5815 20.4766 17.3709 20.4766ZM26.514 21.2385H29.5616C29.7722 21.2385 29.9426 21.0681 29.9426 20.8575C29.9426 20.6469 29.7722 20.4766 29.5616 20.4766H26.514C26.3034 20.4766 26.133 20.6469 26.133 20.8575C26.133 21.0681 26.3034 21.2385 26.514 21.2385ZM21.9424 25.0481H18.8948C18.6842 25.0481 18.5138 25.2184 18.5138 25.429C18.5138 25.6396 18.6842 25.81 18.8948 25.81H21.9424C22.153 25.81 22.3234 25.6396 22.3234 25.429C22.3234 25.2184 22.153 25.0481 21.9424 25.0481ZM28.0378 25.0481H24.9901C24.7795 25.0481 24.6092 25.2184 24.6092 25.429C24.6092 25.6396 24.7795 25.81 24.9901 25.81H28.0378C28.2484 25.81 28.4188 25.6396 28.4188 25.429C28.4188 25.2184 28.2484 25.0481 28.0378 25.0481ZM36.3616 24.291C36.1544 24.3263 36.0149 24.5235 36.0506 24.7307C36.2452 25.8654 36.3423 27.5418 36.3565 30.006C36.3576 30.2155 36.528 30.3848 36.7374 30.3848H36.7396C36.9498 30.3837 37.1194 30.2121 37.1184 30.0016C37.1039 27.4945 37.0034 25.7787 36.8014 24.602C36.7664 24.3947 36.5688 24.256 36.3616 24.291Z" fill="white" stroke="white" stroke-width="0.37"/>
</svg>
