<svg width="32" height="24" viewBox="0 0 32 24" fill="none" xmlns="http://www.w3.org/2000/svg">
<path d="M7.79786 15.0183L3.42286 20.0182C3.36092 20.0891 3.27454 20.1251 3.18755 20.1251C3.1143 20.1251 3.04105 20.0997 2.98186 20.0479C2.85186 19.9341 2.83873 19.7366 2.95223 19.6069L7.32723 14.6069C7.44073 14.4759 7.63848 14.4637 7.76823 14.5772C7.89823 14.6911 7.91136 14.8885 7.79786 15.0183ZM7.25005 17.6251C7.93942 17.6251 8.50005 18.1857 8.50005 18.8751C8.50005 19.5644 7.93942 20.1251 7.25005 20.1251C6.56067 20.1251 6.00005 19.5644 6.00005 18.8751C6.00005 18.1857 6.56067 17.6251 7.25005 17.6251ZM7.25005 18.2501C6.90548 18.2501 6.62505 18.5305 6.62505 18.8751C6.62505 19.2196 6.90548 19.5001 7.25005 19.5001C7.59461 19.5001 7.87505 19.2196 7.87505 18.8751C7.87505 18.5305 7.59461 18.2501 7.25005 18.2501ZM3.50005 17.0001C2.81067 17.0001 2.25005 16.4394 2.25005 15.7501C2.25005 15.0607 2.81067 14.5001 3.50005 14.5001C4.18942 14.5001 4.75004 15.0607 4.75004 15.7501C4.75004 16.4394 4.18942 17.0001 3.50005 17.0001ZM3.50005 16.3751C3.84461 16.3751 4.12505 16.0946 4.12505 15.7501C4.12505 15.4055 3.84461 15.1251 3.50005 15.1251C3.15548 15.1251 2.87505 15.4055 2.87505 15.7501C2.87505 16.0946 3.15548 16.3751 3.50005 16.3751ZM31.7065 22.5359C31.7105 22.6956 31.5933 22.8326 31.4349 22.8533C31.3972 22.8584 29.6039 23.0866 26.3459 23.1973C26.3355 23.1983 26.326 23.2028 26.3153 23.2028C26.3017 23.2028 26.2877 23.2013 26.2737 23.1995C25.2464 23.2336 24.0802 23.2564 22.774 23.2565C19.3775 23.2565 15.0659 23.1043 9.99617 22.6181C9.69361 23.0003 9.23592 23.2501 8.71736 23.2501H2.03273C1.12329 23.2501 0.383545 22.4969 0.383545 21.5711V9.38806C0.383545 9.35081 0.390233 9.31388 0.403358 9.27881C0.862983 8.04594 1.50286 7.07175 2.42055 6.21887C1.97748 5.75337 1.80567 5.18119 1.96311 4.68469C2.09248 4.27756 2.42273 3.98644 2.84661 3.90556C3.43023 3.79437 4.08342 4.09712 4.66186 4.73287C5.36267 4.533 6.12173 4.63281 6.76417 5.03319C7.76598 5.65706 8.53448 6.32513 9.14286 7.101C9.43661 6.43981 10.0214 5.19156 10.859 3.72394C11.025 3.43156 11.3378 3.25 11.6747 3.25H13.5313C13.5164 3.14706 13.4997 3.0445 13.4997 2.9375C13.4997 1.73144 14.4812 0.75 15.6872 0.75C16.8933 0.75 17.875 1.73144 17.875 2.9375C17.875 3.043 17.8634 3.14681 17.8486 3.25H18.5313C18.5164 3.14706 18.4997 3.0445 18.4997 2.9375C18.4997 1.73144 19.4812 0.75 20.6872 0.75C21.8933 0.75 22.875 1.73144 22.875 2.9375C22.875 3.043 22.8634 3.14681 22.8486 3.25H23.5313C23.5164 3.14706 23.4997 3.0445 23.4997 2.9375C23.4997 1.73144 24.4812 0.75 25.6872 0.75C26.8933 0.75 27.875 1.73144 27.875 2.9375C27.875 3.043 27.8634 3.14681 27.8486 3.25H29.75C29.9066 3.25 30.0387 3.36569 30.0598 3.52069C30.0741 3.6275 31.5045 14.2989 31.7065 22.5359ZM24.1564 3.25006H27.2154C27.2362 3.14769 27.25 3.04375 27.25 2.93756C27.25 2.07606 26.549 1.37506 25.6872 1.37506C24.8254 1.37506 24.1247 2.07606 24.1247 2.93756C24.1247 3.04456 24.1357 3.14906 24.1564 3.25006ZM19.1564 3.25006H22.2154C22.2362 3.14769 22.25 3.04375 22.25 2.93756C22.25 2.07606 21.549 1.37506 20.6872 1.37506C19.8254 1.37506 19.1247 2.07606 19.1247 2.93756C19.1247 3.04456 19.1357 3.14906 19.1564 3.25006ZM14.1564 3.25006H17.2154C17.2362 3.14769 17.25 3.04375 17.25 2.93756C17.25 2.07606 16.549 1.37506 15.6872 1.37506C14.8254 1.37506 14.1247 2.07606 14.1247 2.93756C14.1247 3.04456 14.1357 3.14906 14.1564 3.25006ZM2.89211 5.80956C3.22473 5.54187 3.58411 5.28338 3.98586 5.03319C4.00561 5.02088 4.02679 5.01262 4.04673 5.00094C3.66948 4.642 3.28042 4.46062 2.96348 4.51962C2.76605 4.55719 2.61861 4.68656 2.5588 4.87394C2.47061 5.15225 2.59055 5.49713 2.87955 5.79681L2.89211 5.80956ZM9.74148 9.44481C9.09967 7.75262 8.13779 6.625 6.43398 5.56356C5.78092 5.15706 4.96911 5.15706 4.31605 5.56356C3.95273 5.78987 3.62961 6.02081 3.32967 6.258C3.71829 6.65394 4.06692 7.00069 4.37073 7.29706C4.66167 7.11125 5.00486 7 5.37498 7C6.40892 7 7.24998 7.84106 7.24998 8.875C7.24998 9.90894 6.40892 10.75 5.37498 10.75C4.34104 10.75 3.49998 9.90894 3.49998 8.875C3.49998 8.43731 3.65692 8.03937 3.90923 7.72C3.60011 7.41812 3.24679 7.06606 2.85348 6.66494C2.01436 7.43956 1.43692 8.31525 1.00855 9.44481V21.571C1.00855 22.1524 1.46817 22.6251 2.03273 22.6251H8.7173C9.28186 22.6251 9.74148 22.1524 9.74148 21.571V9.44481ZM4.35761 8.15375C4.21242 8.35794 4.12505 8.60588 4.12505 8.87506C4.12505 9.56444 4.68567 10.1251 5.37504 10.1251C6.06442 10.1251 6.62505 9.56444 6.62505 8.87506C6.62505 8.18569 6.06442 7.62506 5.37504 7.62506C5.18273 7.62506 5.00267 7.67231 4.8398 7.75012C5.36536 8.25138 5.67192 8.52356 5.67748 8.52869C5.80686 8.64281 5.81942 8.84025 5.70523 8.96969C5.64361 9.03988 5.55723 9.07556 5.47086 9.07556C5.39729 9.07556 5.32348 9.04994 5.26423 8.99744C5.25817 8.99219 4.92354 8.69481 4.35761 8.15375ZM23.12 22.6306C25.8082 11.9711 28.5145 5.55481 29.2639 3.875H24.4452C24.7307 4.25219 25.1789 4.5 25.6872 4.5C25.86 4.5 25.9997 4.63975 25.9997 4.8125C25.9997 4.98525 25.86 5.125 25.6872 5.125C24.8179 5.125 24.0717 4.61138 23.7192 3.875H19.4452C19.7307 4.25219 20.1789 4.5 20.6872 4.5C20.86 4.5 20.9997 4.63975 20.9997 4.8125C20.9997 4.98525 20.86 5.125 20.6872 5.125C19.8179 5.125 19.0717 4.61138 18.7192 3.875H14.4452C14.7307 4.25219 15.1789 4.5 15.6872 4.5C15.86 4.5 15.9997 4.63975 15.9997 4.8125C15.9997 4.98525 15.86 5.125 15.6872 5.125C14.8179 5.125 14.0717 4.61138 13.7192 3.875H11.6748C11.5637 3.875 11.4566 3.93694 11.402 4.03306C10.3872 5.8115 9.75161 7.25694 9.56442 7.69825C9.86942 8.17919 10.1302 8.69806 10.3467 9.27869C10.3598 9.31381 10.3665 9.35069 10.3665 9.38794V21.5709C10.3665 21.7271 10.3386 21.8755 10.2992 22.0191C15.4179 22.5013 19.7453 22.6409 23.12 22.6306ZM31.0742 22.2661C30.891 15.6628 29.9444 7.60231 29.582 4.70756C28.6057 6.983 26.184 13.076 23.7656 22.6269C24.5902 22.6196 25.3507 22.6034 26.0489 22.5817C26.3773 20.5991 27.5075 14.1006 27.5195 14.0322C27.5494 13.8622 27.712 13.7493 27.8808 13.7777C28.0511 13.8073 28.1649 13.9691 28.1353 14.139C28.1236 14.2063 27.0383 20.4464 26.6861 22.5599C28.9849 22.4729 30.4871 22.3299 31.0742 22.2661ZM12.5625 9.50006H15.0625C15.2353 9.50006 15.375 9.36031 15.375 9.18756C15.375 9.01481 15.2353 8.87506 15.0625 8.87506H12.5625C12.3898 8.87506 12.25 9.01481 12.25 9.18756C12.25 9.36031 12.3898 9.50006 12.5625 9.50006ZM17.5625 9.50006H20.0625C20.2353 9.50006 20.375 9.36031 20.375 9.18756C20.375 9.01481 20.2353 8.87506 20.0625 8.87506H17.5625C17.3898 8.87506 17.25 9.01481 17.25 9.18756C17.25 9.36031 17.3898 9.50006 17.5625 9.50006ZM22.5625 9.50006H25.0625C25.2353 9.50006 25.375 9.36031 25.375 9.18756C25.375 9.01481 25.2353 8.87506 25.0625 8.87506H22.5625C22.3898 8.87506 22.25 9.01481 22.25 9.18756C22.25 9.36031 22.3898 9.50006 22.5625 9.50006ZM18.8125 12.6251H16.3125C16.1398 12.6251 16 12.7648 16 12.9376C16 13.1103 16.1398 13.2501 16.3125 13.2501H18.8125C18.9853 13.2501 19.125 13.1103 19.125 12.9376C19.125 12.7648 18.9853 12.6251 18.8125 12.6251ZM13.8125 12.6251H11.3125C11.1398 12.6251 11 12.7648 11 12.9376C11 13.1103 11.1398 13.2501 11.3125 13.2501H13.8125C13.9853 13.2501 14.125 13.1103 14.125 12.9376C14.125 12.7648 13.9853 12.6251 13.8125 12.6251ZM21.3125 13.2501H23.8125C23.9853 13.2501 24.125 13.1103 24.125 12.9376C24.125 12.7648 23.9853 12.6251 23.8125 12.6251H21.3125C21.1398 12.6251 21 12.7648 21 12.9376C21 13.1103 21.1398 13.2501 21.3125 13.2501ZM17.5625 16.3751H15.0625C14.8898 16.3751 14.75 16.5148 14.75 16.6876C14.75 16.8603 14.8898 17.0001 15.0625 17.0001H17.5625C17.7353 17.0001 17.875 16.8603 17.875 16.6876C17.875 16.5148 17.7353 16.3751 17.5625 16.3751ZM22.5625 16.3751H20.0625C19.8898 16.3751 19.75 16.5148 19.75 16.6876C19.75 16.8603 19.8898 17.0001 20.0625 17.0001H22.5625C22.7353 17.0001 22.875 16.8603 22.875 16.6876C22.875 16.5148 22.7353 16.3751 22.5625 16.3751ZM29.3905 15.754C29.2205 15.783 29.1061 15.9447 29.1354 16.1147C29.295 17.0455 29.3747 18.4206 29.3863 20.4421C29.3872 20.6139 29.527 20.7527 29.6988 20.7527H29.7006C29.873 20.7518 30.0122 20.6111 30.0113 20.4384C29.9994 18.3819 29.917 16.9744 29.7513 16.0091C29.7226 15.8391 29.5605 15.7253 29.3905 15.754Z" fill="white" stroke="white" stroke-width="0.384"/>
</svg>
