<svg width="30" height="30" viewBox="0 0 30 30" fill="none" xmlns="http://www.w3.org/2000/svg">
<path d="M20.4378 17.6129H23.2741L23.2728 15.5444L22.9592 15.4525C22.9327 15.4446 20.4012 14.669 18.7442 11.5161H20.6612L20.6603 9.50594L20.4212 9.38531C20.3968 9.37311 18.0413 8.14461 16.005 4.66031C16.4492 4.34371 16.7418 3.82766 16.7418 3.24194C16.7418 2.28126 15.9606 1.5 14.9999 1.5C14.0392 1.5 13.258 2.28126 13.258 3.24194C13.258 3.82766 13.5506 4.34371 13.9948 4.65987C11.958 8.14461 9.60294 9.37268 9.57942 9.38487L9.3386 9.50506V11.5161H11.2552C9.59815 14.669 7.06712 15.4446 7.04142 15.452L6.7257 15.5426V17.6129H9.56157C7.82486 21.6564 4.4455 22.8496 4.41066 22.8614L4.11279 22.9602V25.0161H12.8225V28.5H17.1773V25.0161H25.887V22.9602L25.5891 22.8609C25.5534 22.8492 22.1797 21.6738 20.4378 17.6129ZM14.9999 2.37097C15.4798 2.37097 15.8709 2.76203 15.8709 3.24194C15.8709 3.72184 15.4798 4.1129 14.9999 4.1129C14.5196 4.1129 14.1289 3.72184 14.1289 3.24194C14.1289 2.76203 14.5196 2.37097 14.9999 2.37097ZM10.2096 10.6452V10.029C10.9103 9.60914 12.9945 8.16377 14.8253 4.96645C14.8836 4.97211 14.9402 4.98387 14.9999 4.98387C15.0596 4.98387 15.1162 4.97211 15.1745 4.96645C17.0053 8.16377 19.0891 9.60914 19.7902 10.029V10.6452H18.3309H11.6689H10.2096ZM7.59666 16.7419V16.178C8.43497 15.8431 10.7335 14.6769 12.2311 11.5161H17.7691C19.2668 14.6769 21.5652 15.8435 22.4035 16.178V16.7419H7.59666ZM16.3063 27.629H13.6934V25.0161H16.3063V27.629ZM25.016 24.1452H4.98376V23.5721C5.94357 23.1649 8.93708 21.6067 10.5035 17.6129H19.4958C21.0627 21.6067 24.0562 23.1645 25.016 23.5721V24.1452Z" fill="#CF4E32"/>
<path d="M18.0484 9.33828C17.3238 9.33828 16.5077 9.12403 15.6236 8.70117L15.2478 9.48722C16.2503 9.96625 17.1927 10.2093 18.0484 10.2093V9.33828Z" fill="#CF4E32"/>
<path d="M14.7901 8.251C14.2889 7.94747 13.9679 7.69402 13.9644 7.69141L13.4222 8.37294C13.437 8.38426 13.7863 8.66123 14.3389 8.99612L14.7901 8.251Z" fill="#CF4E32"/>
<path d="M16.5194 13.8313L16.964 14.5808C17.8651 14.0456 18.3341 13.5879 18.3537 13.5683L17.7436 12.9473C17.7392 12.9516 17.3211 13.3562 16.5194 13.8313Z" fill="#CF4E32"/>
<path d="M10.2096 15.4377V16.3087C12.3435 16.3087 14.311 15.8893 16.0573 15.0623L15.6849 14.2754C14.0558 15.0466 12.2137 15.4377 10.2096 15.4377Z" fill="#CF4E32"/>
<path d="M12.1737 20.8341C14.5101 22.1463 18.1812 23.7109 22.4032 23.7109V22.84C18.1568 22.84 14.4387 21.1072 12.6005 20.0742L12.1737 20.8341Z" fill="#CF4E32"/>
<path d="M10.3843 19.7031C10.3973 19.7126 10.7157 19.95 11.2849 20.3062L11.7469 19.5681C11.2117 19.2332 10.9086 19.008 10.9056 19.0059L10.3843 19.7031Z" fill="#CF4E32"/>
<path d="M4.98387 9.77419C4.98387 8.96463 4.42645 8.28876 3.67742 8.0941V1.5H2.80645V8.0941C2.05698 8.28876 1.5 8.96463 1.5 9.77419C1.5 10.7349 2.28126 11.5161 3.24194 11.5161C4.20261 11.5161 4.98387 10.7349 4.98387 9.77419ZM3.24194 10.6452C2.7616 10.6452 2.37097 10.2545 2.37097 9.77419C2.37097 9.29385 2.7616 8.90323 3.24194 8.90323C3.72184 8.90323 4.1129 9.29385 4.1129 9.77419C4.1129 10.2545 3.72184 10.6452 3.24194 10.6452Z" fill="#CF4E32"/>
<path d="M8.46764 7.16129C9.42832 7.16129 10.2096 6.38003 10.2096 5.41936C10.2096 4.60979 9.65216 3.93392 8.90313 3.73926V1.5H8.03216V3.73926C7.28269 3.93392 6.72571 4.60979 6.72571 5.41936C6.72571 6.38003 7.50697 7.16129 8.46764 7.16129ZM8.46764 4.54839C8.94755 4.54839 9.33861 4.93945 9.33861 5.41936C9.33861 5.89926 8.94755 6.29032 8.46764 6.29032C7.9873 6.29032 7.59668 5.89926 7.59668 5.41936C7.59668 4.93945 7.9873 4.54839 8.46764 4.54839Z" fill="#CF4E32"/>
<path d="M27.1935 5.04571V1.5H26.3226V5.04571C25.5731 5.24037 25.0161 5.91624 25.0161 6.72581C25.0161 7.68648 25.7974 8.46774 26.758 8.46774C27.7187 8.46774 28.5 7.68648 28.5 6.72581C28.5 5.91624 27.9426 5.24037 27.1935 5.04571ZM26.758 7.59677C26.2777 7.59677 25.8871 7.20571 25.8871 6.72581C25.8871 6.2459 26.2777 5.85484 26.758 5.85484C27.238 5.85484 27.629 6.2459 27.629 6.72581C27.629 7.20571 27.238 7.59677 26.758 7.59677Z" fill="#CF4E32"/>
<path d="M23.2742 14.129C24.2348 14.129 25.0161 13.3478 25.0161 12.3871C25.0161 11.5775 24.4587 10.9017 23.7096 10.707V1.5H22.8387V10.707C22.0892 10.9017 21.5322 11.5775 21.5322 12.3871C21.5322 13.3478 22.3135 14.129 23.2742 14.129ZM23.2742 11.5161C23.7541 11.5161 24.1451 11.9068 24.1451 12.3871C24.1451 12.8674 23.7541 13.2581 23.2742 13.2581C22.7938 13.2581 22.4032 12.8674 22.4032 12.3871C22.4032 11.9068 22.7938 11.5161 23.2742 11.5161Z" fill="#CF4E32"/>
</svg>
