<svg width="34" height="34" viewBox="0 0 34 34" fill="none" xmlns="http://www.w3.org/2000/svg">
<g clip-path="url(#clip0_1052_164)">
<path d="M26.0481 15.9227L26.1599 15.626C26.245 15.3999 26.2931 15.1589 26.2931 14.9097V14.5052V13.9552H26.8431H28.0496C28.3134 13.9552 28.5274 13.7412 28.5274 13.4774V12.5179C28.5274 12.254 28.3134 12.0401 28.0496 12.0401H26.8431H26.2931V11.4901V11.0785C26.2931 9.95068 25.368 9.02503 24.2396 9.02503H20.4116C19.8321 9.02503 19.3078 9.26982 18.9334 9.6653C18.3113 10.3229 17.2643 10.3407 16.6577 9.61478L16.6576 9.61466C15.5989 8.34686 14.0056 7.54414 12.2216 7.54414H12.1401C11.4804 7.54414 10.945 8.0795 10.945 8.73922V18.004C10.945 18.6665 11.4824 19.2037 12.1456 19.2037H12.2216C14.1709 19.2037 15.8935 18.2385 16.9394 16.7577L16.9395 16.7576C17.4697 16.007 18.4717 15.9635 19.1248 16.4946L26.0481 15.9227ZM26.0481 15.9227L26.2489 16.1681M26.0481 15.9227L26.2489 16.1681M26.2489 16.1681C27.4657 17.6556 29.7961 19.9655 32.9357 20.4425C33.2669 20.4934 33.4929 20.8018 33.4421 21.1313L33.442 21.1322C33.3965 21.4308 33.1389 21.6458 32.8458 21.6458C32.8061 21.6458 32.7817 21.6436 32.7642 21.6405L32.7642 21.6404L32.7532 21.6387C29.7048 21.1737 27.3596 19.2413 25.8775 17.6066C25.4391 17.123 24.6231 17.5161 24.7544 18.1722L26.6393 27.5928C26.7823 28.3088 26.2356 28.9757 25.5057 28.9757H23.7277C23.1759 28.9757 22.7001 28.5859 22.5917 28.0449L20.4523 17.345L20.38 16.9832M26.2489 16.1681L20.38 16.9832M20.38 16.9832L20.0178 16.9129M20.38 16.9832L20.0178 16.9129M20.0178 16.9129C19.6849 16.8483 19.3796 16.7018 19.1248 16.4946L20.0178 16.9129Z" stroke="#CF4E32" stroke-width="1.1"/>
<path d="M7.52812 14.0906H6.75828C6.20279 14.0906 5.75352 13.6386 5.75352 13.0827C5.75352 12.5269 6.20351 12.0748 6.75828 12.0748H7.52812C8.08288 12.0748 8.53288 12.5269 8.53288 13.0827C8.53288 13.6385 8.08216 14.0906 7.52812 14.0906Z" fill="#CF4E32" stroke="white" stroke-width="0.3"/>
<path d="M1.36936 12.0748H2.1392C2.69325 12.0748 3.14396 12.5269 3.14396 13.0827C3.14396 13.6385 2.69325 14.0906 2.1392 14.0906H1.36936C0.814596 14.0906 0.3646 13.6385 0.3646 13.0827C0.3646 12.5269 0.815314 12.0748 1.36936 12.0748Z" fill="#CF4E32" stroke="white" stroke-width="0.3"/>
<path d="M8.50813 10.5394C8.28548 10.8726 7.92016 11.0521 7.547 11.0521C7.32671 11.0521 7.10328 10.9886 6.90651 10.8569L6.26602 10.4297M8.50813 10.5394C8.86247 10.0087 8.71979 9.29215 8.18984 8.9378L7.55014 8.50976C7.0194 8.15463 6.30287 8.29731 5.94852 8.82805C5.59339 9.35878 5.73607 10.0761 6.26602 10.4297M8.50813 10.5394L8.38338 10.4561C8.18979 10.7458 7.87231 10.9021 7.547 10.9021C7.35558 10.9021 7.16135 10.847 6.98995 10.7323L6.98975 10.7321L6.34927 10.3049L6.26602 10.4297M8.50813 10.5394L8.38341 10.4561C8.69175 9.99419 8.56755 9.37079 8.10647 9.06249L8.10642 9.06247L7.46672 8.63443L7.46672 8.63443C7.0049 8.32541 6.3816 8.44953 6.07327 8.91134L6.07319 8.91146C5.7641 9.37339 5.88841 9.99741 6.34926 10.3049L6.26602 10.4297" fill="#CF4E32" stroke="white" stroke-width="0.3"/>
<path d="M1.23578 6.89107L1.23577 6.89106L0.596106 6.46305C0.135575 6.15467 0.0108601 5.53121 0.319811 5.06949L0.319895 5.06936C0.626643 4.60993 1.25004 4.48415 1.71351 4.79335L2.3523 5.22052L2.3523 5.22052C2.81344 5.52885 2.93754 6.15303 2.62927 6.61407L2.62925 6.6141C2.43567 6.90379 2.11816 7.06015 1.79284 7.06015C1.60107 7.06015 1.4069 7.0056 1.23578 6.89107Z" fill="#CF4E32" stroke="white" stroke-width="0.3"/>
<path d="M6.98995 15.4314L6.98986 15.4314L6.3494 15.8595C6.34939 15.8595 6.34938 15.8595 6.34937 15.8595C5.88827 16.1678 5.76422 16.7919 6.07313 17.2529L6.07322 17.253C6.38162 17.7142 7.00503 17.8389 7.46672 17.53L7.55014 17.6547L7.46672 17.53L8.10642 17.102L8.10647 17.1019C8.56755 16.7936 8.69175 16.1702 8.38341 15.7083L6.98995 15.4314ZM6.98995 15.4314C7.16106 15.3168 7.35523 15.2623 7.547 15.2623M6.98995 15.4314L7.547 15.2623M7.547 15.2623C7.87231 15.2623 8.18979 15.4186 8.38338 15.7083L7.547 15.2623Z" fill="#CF4E32" stroke="white" stroke-width="0.3"/>
<path d="M0.595801 19.7022L0.596012 19.702L1.23572 19.274L1.23573 19.274C1.40714 19.1592 1.60137 19.1041 1.79279 19.1041C2.1179 19.1041 2.4355 19.2611 2.6292 19.5509L2.62922 19.551C2.93748 20.012 2.8134 20.6361 2.35232 20.9445C2.3523 20.9445 2.35228 20.9445 2.35226 20.9445L1.71272 21.3717C1.71271 21.3717 1.71269 21.3717 1.71268 21.3717C1.24982 21.6802 0.627262 21.5565 0.319065 21.0957C0.0106071 20.6329 0.135788 20.0088 0.595801 19.7022Z" fill="#CF4E32" stroke="white" stroke-width="0.3"/>
</g>
<defs>
<clipPath id="clip0_1052_164">
<rect width="34" height="34" fill="white"/>
</clipPath>
</defs>
</svg>
