<?xml version="1.0" encoding="UTF-8" standalone="no"?>
<!DOCTYPE svg PUBLIC "-//W3C//DTD SVG 1.1//EN" "http://www.w3.org/Graphics/SVG/1.1/DTD/svg11.dtd">
<svg width="100%" height="100%" viewBox="0 0 412 90" version="1.1" xmlns="http://www.w3.org/2000/svg" xmlns:xlink="http://www.w3.org/1999/xlink" xml:space="preserve" xmlns:serif="http://www.serif.com/" style="fill-rule:evenodd;clip-rule:evenodd;stroke-linejoin:round;stroke-miterlimit:2;">
    <g id="_1672915293376" transform="matrix(0.998541,0,0,0.997925,-90.5065,-202.803)">
        <path d="M185.693,215.218C180.9,215.218 175.779,216.182 170.721,217.929C166.467,209.391 157.71,204.275 148.66,203.403C116.69,200.285 90.972,238.813 90.639,263.388C90.571,267.278 107.239,267.345 107.316,263.388C107.771,232.182 130.654,207.226 149.68,209.461C156.349,210.256 160.994,214.361 163.448,220.908C149.594,227.597 137.434,239.222 134.821,250.653C130.111,271.74 162.783,272.191 171.371,250.913C173.856,244.76 174.934,233.254 172.385,223.036C175.761,221.691 179.189,220.908 182.494,220.908C203.441,220.908 196.476,246.825 188.879,262.655C187.045,266.442 203.441,267.593 205.105,264.112C209.98,253.977 216.208,215.218 185.693,215.218ZM152.738,253.19C139.601,253.19 150.198,236.13 165.015,226.835C167.117,238.999 163.024,253.19 152.738,253.19ZM307.814,219.676C300.729,219.676 293.821,222.58 288.054,227.904C285.945,224.212 281.803,222.638 281.17,224.989C280.604,226.951 283.087,227.452 281.091,233.371C279.346,238.481 275.916,243.696 274.034,255.094C273.957,255.358 273.957,255.59 273.957,255.822C273.512,258.256 273.175,260.751 273.029,263.388C272.756,267.278 288.406,267.32 288.406,263.388C288.457,253.459 294.706,225.619 307.814,225.213C309.37,225.126 314.243,224.935 314.243,222.432C314.243,220.031 309.37,219.676 307.814,219.676ZM334.861,225.585L347.514,225.585C349.037,225.585 353.923,225.292 353.923,222.833C353.923,220.387 349.037,220.06 347.514,220.06L336.763,220.06C337.985,216.766 339.174,213.98 340.217,212.027C342.21,208.257 327.169,207.127 325.331,210.546C321.079,218.557 316.838,233.601 314.856,242.33C311.062,258.711 322.999,265.851 338.051,266.16C339.578,266.194 344.478,265.837 344.561,263.388C344.679,260.917 339.795,260.632 338.254,260.632C330.602,260.632 327.971,253.571 329.691,244.905C330.912,238.796 332.818,231.777 334.861,225.585ZM363.618,222.204L352.263,262.655C350.836,266.931 364.785,267.593 365.927,264.112L377.27,223.66C378.702,219.398 364.778,218.76 363.618,222.204ZM414.134,240.476C421.947,237.902 429.182,233.01 432,223.66C433.242,219.493 419.252,218.931 418.255,222.018C415.603,230.378 410.111,238.254 400.628,239.193C400.58,239.193 400.508,239.222 400.433,239.222C400.107,239.226 399.758,239.226 399.463,239.226L406.821,213.054C408.224,208.807 394.287,208.154 393.145,211.597L384.797,241.254C381.881,241.908 378.92,242.67 376.248,243.655C373.853,244.561 374.071,246.601 376.248,247.57C378.269,248.406 380.661,248.562 382.848,248.183L378.788,262.655C377.373,266.931 391.289,267.593 392.471,264.112L397.856,244.905C398.319,244.847 398.736,244.813 399.113,244.789C411.388,244.077 418.619,250.935 418.829,263.388C418.908,267.352 433.014,267.278 432.953,263.388C432.67,249.896 424.652,243.067 414.134,240.476ZM222.839,227.394C220.071,229.708 221.524,233.117 227.535,230.121C235.773,226.053 252.764,222.365 255.728,237.393C256.23,240.112 256.106,242.604 255.386,244.813C240.163,236.304 213.176,240.368 214.811,255.698C216.097,267.593 236.78,268.234 251.964,259.713C251.839,260.851 251.595,262.064 251.218,263.388C250.187,266.968 264.749,267.469 265.345,263.388C266.02,258.405 264.85,254.275 262.481,250.955C265.875,246.668 268.017,241.457 268.017,235.468C268.017,215.62 236.279,216.257 222.839,227.394ZM227.934,254.642C224.428,247.015 244.977,242.359 250.647,252.056C243.236,258.723 230.459,259.978 227.934,254.642ZM490.759,235.468C490.759,215.62 459.02,216.257 445.555,227.394C442.799,229.708 444.26,233.117 450.279,230.121C458.514,226.053 475.508,222.365 478.455,237.393C479.005,240.112 478.807,242.604 478.166,244.813C462.881,236.304 435.918,240.368 437.565,255.698C438.833,267.593 459.516,268.234 474.713,259.713C474.561,260.851 474.345,262.064 473.951,263.388C472.917,266.968 487.497,267.469 488.073,263.388C488.794,258.405 487.614,254.275 485.234,250.935C488.624,246.668 490.759,241.457 490.759,235.468ZM450.689,254.642C447.158,247.015 467.711,242.359 473.41,252.056C465.981,258.723 453.196,259.978 450.689,254.642Z" style="fill:rgb(150,194,43);"/>
        <path d="M363.654,281.803L363.654,280.21C364.942,279.641 366.293,279.359 367.713,279.359C369.114,279.359 370.169,279.648 370.882,280.227C371.589,280.803 372.041,281.455 372.237,282.176C372.427,282.9 372.525,283.654 372.525,284.432L372.525,290.225L372.604,293.2L371.116,293.2L371.116,290.888L371.059,290.888C370.146,292.57 368.667,293.412 366.621,293.412C365.629,293.412 364.796,293.227 364.122,292.859C363.45,292.487 362.953,292.014 362.64,291.43C362.319,290.845 362.16,290.219 362.16,289.56C362.16,287.688 362.897,286.443 364.37,285.82C365.841,285.196 367.711,284.885 369.974,284.885L370.851,284.885L370.851,284.407C370.851,281.98 369.805,280.767 367.713,280.767C366.244,280.767 364.89,281.113 363.654,281.803ZM370.851,286.294L369.335,286.294C367.684,286.294 366.368,286.523 365.39,286.983C364.411,287.444 363.918,288.267 363.918,289.449C363.918,289.963 364.043,290.416 364.291,290.799C364.539,291.19 364.867,291.486 365.28,291.694C365.686,291.903 366.124,292.006 366.598,292.006C367.525,292.006 368.303,291.801 368.941,291.399C369.578,290.995 370.057,290.432 370.378,289.719C370.691,289.004 370.851,288.192 370.851,287.28L370.851,286.294ZM378.896,293.2L377.221,293.2L377.221,282.068L377.119,279.571L378.71,279.571L378.71,282.493L378.74,282.493C378.935,281.607 379.315,280.86 379.884,280.236C380.445,279.616 381.173,279.306 382.063,279.306C382.501,279.306 382.997,279.404 383.545,279.598L383.545,281.197C383.134,281.002 382.69,280.905 382.217,280.905C381.592,280.905 381.025,281.094 380.52,281.475C380.012,281.856 379.613,282.387 379.325,283.065C379.037,283.747 378.896,284.513 378.896,285.368L378.896,293.2ZM387.657,276.166L389.332,275.56L389.332,279.571L392.572,279.571L392.572,280.979L389.332,280.979L389.332,289.348C389.332,290.127 389.388,290.707 389.509,291.092C389.628,291.478 389.801,291.726 390.027,291.837C390.249,291.951 390.558,292.006 390.952,292.006C391.594,292.006 392.162,291.908 392.653,291.716L392.653,293.119C392.095,293.315 391.467,293.412 390.763,293.412C389.822,293.412 389.119,293.192 388.663,292.748C388.202,292.305 387.923,291.81 387.816,291.261C387.711,290.715 387.657,290.11 387.657,289.449L387.657,280.979L384.868,280.979L384.868,279.571L387.657,279.571L387.657,276.166ZM401.438,286.394C401.438,285.42 401.572,284.513 401.841,283.662C402.106,282.812 402.51,282.064 403.05,281.413C403.586,280.763 404.255,280.258 405.043,279.899C405.835,279.541 406.734,279.359 407.735,279.359C409.065,279.359 410.202,279.674 411.159,280.298C412.112,280.921 412.829,281.767 413.312,282.839C413.796,283.907 414.034,285.093 414.034,286.394C414.034,287.692 413.79,288.874 413.304,289.942C412.817,291.003 412.099,291.85 411.151,292.474C410.202,293.097 409.065,293.412 407.735,293.412C406.407,293.412 405.269,293.097 404.321,292.474C403.374,291.85 402.656,291.003 402.168,289.942C401.682,288.874 401.438,287.692 401.438,286.394ZM403.196,286.394C403.196,287.015 403.281,287.649 403.444,288.303C403.612,288.954 403.874,289.56 404.232,290.124C404.59,290.68 405.065,291.137 405.65,291.482C406.232,291.832 406.926,292.006 407.735,292.006C408.547,292.006 409.241,291.832 409.827,291.486C410.416,291.141 410.885,290.686 411.248,290.117C411.607,289.552 411.868,288.945 412.032,288.295C412.197,287.649 412.276,287.015 412.276,286.394C412.276,285.527 412.124,284.664 411.824,283.809C411.519,282.954 411.027,282.233 410.345,281.644C409.666,281.059 408.795,280.767 407.735,280.767C406.676,280.767 405.805,281.059 405.126,281.644C404.445,282.233 403.953,282.954 403.652,283.809C403.346,284.664 403.196,285.527 403.196,286.394ZM418.332,293.2L418.332,280.979L415.488,280.979L415.488,279.571L418.332,279.571L418.332,276.783C418.332,275.772 418.521,274.976 418.903,274.396C419.285,273.814 419.718,273.421 420.206,273.214C420.696,273.005 421.144,272.904 421.553,272.904C422.304,272.904 422.942,272.983 423.465,273.143L423.465,274.524C423.04,274.382 422.472,274.311 421.76,274.311C420.59,274.311 420.006,275.09 420.006,276.646L420.006,279.571L423.225,279.571L423.225,280.979L420.006,280.979L420.006,293.2L418.332,293.2ZM434.03,293.2L434.03,280.979L431.186,280.979L431.186,279.571L434.03,279.571L434.03,276.783C434.03,275.772 434.22,274.976 434.601,274.396C434.983,273.814 435.415,273.421 435.903,273.214C436.394,273.005 436.843,272.904 437.249,272.904C438.003,272.904 438.64,272.983 439.163,273.143L439.163,274.524C438.738,274.382 438.171,274.311 437.458,274.311C436.289,274.311 435.705,275.09 435.705,276.646L435.705,279.571L438.924,279.571L438.924,280.979L435.705,280.979L435.705,293.2L434.03,293.2ZM440.878,286.394C440.878,285.42 441.012,284.513 441.283,283.662C441.548,282.812 441.951,282.064 442.49,281.413C443.028,280.763 443.696,280.258 444.483,279.899C445.276,279.541 446.176,279.359 447.177,279.359C448.506,279.359 449.644,279.674 450.601,280.298C451.553,280.921 452.271,281.767 452.753,282.839C453.236,283.907 453.474,285.093 453.474,286.394C453.474,287.692 453.23,288.874 452.745,289.942C452.258,291.003 451.54,291.85 450.592,292.474C449.644,293.097 448.506,293.412 447.177,293.412C445.847,293.412 444.709,293.097 443.762,292.474C442.814,291.85 442.098,291.003 441.61,289.942C441.123,288.874 440.878,287.692 440.878,286.394ZM442.636,286.394C442.636,287.015 442.722,287.649 442.884,288.303C443.053,288.954 443.314,289.56 443.674,290.124C444.031,290.68 444.506,291.137 445.09,291.482C445.672,291.832 446.367,292.006 447.177,292.006C447.988,292.006 448.683,291.832 449.269,291.486C449.857,291.141 450.325,290.686 450.689,290.117C451.047,289.552 451.31,288.945 451.473,288.295C451.637,287.649 451.716,287.015 451.716,286.394C451.716,285.527 451.566,284.664 451.264,283.809C450.959,282.954 450.468,282.233 449.785,281.644C449.107,281.059 448.235,280.767 447.177,280.767C446.118,280.767 445.245,281.059 444.567,281.644C443.887,282.233 443.395,282.954 443.093,283.809C442.788,284.664 442.636,285.527 442.636,286.394ZM458.57,293.2L456.896,293.2L456.896,282.068L456.794,279.571L458.383,279.571L458.383,282.493L458.414,282.493C458.61,281.607 458.992,280.86 459.557,280.236C460.12,279.616 460.847,279.306 461.737,279.306C462.176,279.306 462.671,279.404 463.22,279.598L463.22,281.197C462.809,281.002 462.365,280.905 461.891,280.905C461.267,280.905 460.701,281.094 460.195,281.475C459.686,281.856 459.288,282.387 458.999,283.065C458.712,283.747 458.57,284.513 458.57,285.368L458.57,293.2ZM466.747,293.2L466.747,282.149L466.668,279.571L468.319,279.571L468.319,282.228L468.368,282.228C468.702,281.409 469.201,280.727 469.878,280.177C470.556,279.635 471.344,279.359 472.247,279.359C473.338,279.359 474.242,279.606 474.967,280.102C475.69,280.6 476.16,281.307 476.371,282.228L476.398,282.228C476.796,281.347 477.372,280.652 478.116,280.133C478.86,279.616 479.703,279.359 480.646,279.359C483.654,279.359 485.159,280.944 485.159,284.115L485.159,293.2L483.485,293.2L483.485,284.19C483.485,281.909 482.537,280.767 480.646,280.767C479.889,280.767 479.215,280.961 478.627,281.347C478.041,281.737 477.586,282.272 477.272,282.958C476.952,283.644 476.793,284.411 476.793,285.257L476.793,293.2L475.118,293.2L475.118,284.19C475.118,281.909 474.161,280.767 472.247,280.767C471.484,280.767 470.804,280.984 470.22,281.418C469.634,281.851 469.188,282.414 468.882,283.106C468.577,283.796 468.423,284.513 468.423,285.257L468.423,293.2L466.747,293.2Z" style="fill:rgb(150,194,43);"/>
        <path d="M501.149,206.788C503.938,209.579 503.938,214.135 501.149,216.927C498.348,219.717 493.798,219.717 491.007,216.927C488.218,214.135 488.218,209.579 491.007,206.788C493.798,203.998 498.348,203.998 501.149,206.788ZM500.42,207.515C498.028,205.122 494.126,205.122 491.731,207.515C489.341,209.901 489.341,213.803 491.731,216.198C494.126,218.591 498.028,218.591 500.42,216.198C502.812,213.803 502.812,209.901 500.42,207.515ZM494.085,211.399L496.306,211.399C496.777,211.399 497.151,211.347 497.417,211.252C497.682,211.149 497.887,210.997 498.028,210.783C498.159,210.568 498.231,210.335 498.231,210.085C498.231,209.711 498.097,209.406 497.827,209.173C497.563,208.932 497.136,208.813 496.553,208.813L494.085,208.813L494.085,211.399ZM493.056,215.762L494.085,215.762L494.085,212.291L495.283,212.291C495.552,212.291 495.74,212.304 495.862,212.325C496.015,212.37 496.181,212.435 496.332,212.541C496.488,212.636 496.659,212.813 496.855,213.062C497.051,213.305 497.296,213.664 497.601,214.135L498.633,215.762L499.937,215.762L498.577,213.635C498.305,213.221 498.017,212.871 497.718,212.599C497.576,212.466 497.372,212.34 497.094,212.209C497.84,212.105 498.399,211.863 498.758,211.48C499.117,211.099 499.298,210.638 499.298,210.085C499.298,209.65 499.187,209.264 498.974,208.898C498.751,208.549 498.467,208.303 498.103,208.16C497.739,208.018 497.209,207.954 496.519,207.954L493.056,207.954L493.056,215.762Z" style="fill:rgb(150,194,43);"/>
    </g>
</svg>
