<svg width="34" height="34" viewBox="0 0 34 34" fill="none" xmlns="http://www.w3.org/2000/svg">
<path d="M16.5664 28.504H30.4585L31.9662 26.9182H15.2931L16.5664 28.504ZM7.89527 18.8485C7.851 18.7027 7.69737 18.6194 7.55415 18.6636C7.40833 18.7079 7.32501 18.8615 7.36927 19.0074C7.61665 19.8276 8.02807 20.5046 8.52803 21.028C9.07486 21.6009 9.73366 21.9837 10.4029 22.1581C10.5487 22.1972 10.6997 22.1061 10.7388 21.9602C10.7779 21.8144 10.6867 21.6634 10.5409 21.6243C9.96542 21.4759 9.40036 21.1426 8.92644 20.6452C8.48116 20.1869 8.11661 19.5802 7.89527 18.8485ZM22.5451 9.99246H22.4722C22.4722 9.38835 22.2457 8.85974 21.7952 8.40666C21.3447 7.95617 20.8161 7.72963 20.2094 7.72963V7.65411C20.8135 7.65411 21.3421 7.42757 21.7952 6.97448C22.2457 6.52139 22.4722 5.99279 22.4722 5.38867H22.5451C22.5451 5.99279 22.7717 6.52139 23.2221 6.97448C23.6726 7.42757 24.2012 7.65151 24.808 7.65151V7.72442C24.2038 7.72442 23.6752 7.95096 23.2221 8.40145C22.7717 8.85714 22.5451 9.38574 22.5451 9.99246ZM25.9094 14.8202H25.8756C25.8756 14.5442 25.7714 14.2994 25.5631 14.0937C25.3548 13.888 25.1126 13.7838 24.8366 13.7838V13.75C25.1126 13.75 25.3574 13.6458 25.5631 13.4401C25.7714 13.2318 25.8756 12.9896 25.8756 12.7136H25.9094C25.9094 12.9896 26.0136 13.2344 26.2219 13.4401C26.4276 13.6484 26.6698 13.7526 26.9484 13.7526V13.7864C26.6724 13.7864 26.4276 13.8906 26.2219 14.0963C26.0136 14.302 25.9094 14.5442 25.9094 14.8202ZM28.9456 11.5835H28.8831C28.8831 11.0757 28.6931 10.633 28.3155 10.2529C27.9353 9.87268 27.4926 9.68259 26.9849 9.68259V9.6201C27.4926 9.6201 27.9353 9.43001 28.3155 9.04983C28.6957 8.66966 28.8831 8.22698 28.8831 7.71921H28.9456C28.9456 8.22698 29.1357 8.66966 29.5159 9.04983C29.8961 9.43001 30.3388 9.6201 30.8465 9.6201V9.68259C30.3388 9.68259 29.8961 9.87268 29.5159 10.2529C29.1331 10.633 28.9456 11.0757 28.9456 11.5835ZM12.1371 10.0758C14.2047 10.0758 16.0795 10.9143 17.4362 12.2709C18.7928 13.6276 19.6313 15.4998 19.6313 17.57C19.6313 18.2652 19.5376 18.937 19.3605 19.575H22.3524C22.48 18.9266 22.5451 18.2548 22.5451 17.57C22.5451 14.6952 21.3812 12.0939 19.4959 10.2112C17.6132 8.32333 15.0119 7.15936 12.1371 7.15936C9.26235 7.15936 6.661 8.32593 4.77834 10.2086C2.89308 12.0913 1.72911 14.6926 1.72911 17.5674C1.72911 20.4421 2.89568 23.0435 4.77834 24.9261C6.661 26.8088 9.26495 27.9754 12.1371 27.9754C13.1396 27.9754 14.1083 27.8348 15.0249 27.5692L14.4208 26.8166C14.3687 26.7619 14.3375 26.6864 14.3375 26.6057C14.3375 26.4338 14.4755 26.2958 14.6473 26.2958H15.8035L14.5041 24.6788C13.7594 24.9261 12.9652 25.0616 12.1371 25.0616C10.0696 25.0616 8.19473 24.2231 6.83807 22.8664C5.48141 21.5098 4.64293 19.6375 4.64293 17.5674C4.64293 15.4998 5.48141 13.625 6.83807 12.2683C8.19473 10.9143 10.0696 10.0758 12.1371 10.0758ZM18.7069 19.575C18.8996 18.9397 19.0037 18.2678 19.0037 17.57C19.0037 15.6743 18.2356 13.9557 16.9909 12.7136C15.7462 11.4715 14.0302 10.7007 12.1345 10.7007C10.2388 10.7007 8.52022 11.4689 7.27813 12.7136C6.03344 13.9583 5.26528 15.6743 5.26528 17.57C5.26528 19.4657 6.03344 21.1843 7.27813 22.4263C8.52022 23.6684 10.2388 24.4392 12.1345 24.4392C13.3297 24.4392 14.452 24.1345 15.4311 23.5981L14.4078 22.317C14.301 22.1842 14.3218 21.9889 14.4546 21.8821C14.5119 21.8353 14.5796 21.8144 14.6473 21.8144H15.8035L14.4078 20.075C14.301 19.9422 14.3218 19.7469 14.4546 19.6401C14.5119 19.5932 14.5796 19.5724 14.6473 19.5724H18.7069V19.575ZM15.9649 23.27L16.004 23.244L16.0456 23.3716L16.5977 24.059H30.4247L31.9662 22.4368H15.2931L15.9649 23.27ZM12.1371 6.43286C15.2124 6.43286 17.996 7.68015 20.0115 9.69561C22.0269 11.7111 23.2742 14.4947 23.2742 17.57C23.2742 18.2548 23.2117 18.924 23.0946 19.575H32.6901C32.862 19.575 33 19.713 33 19.8849C33 19.976 32.9609 20.0568 32.8984 20.114L31.2788 21.817H32.6901C32.862 21.817 33 21.955 33 22.1269C33 22.218 32.9609 22.2988 32.8984 22.356L31.2788 24.059H32.6901C32.862 24.059 33 24.197 33 24.3689C33 24.46 32.9609 24.5408 32.8984 24.598L31.2788 26.301H32.6901C32.7656 26.301 32.8438 26.3297 32.9037 26.387C33.026 26.5041 33.0312 26.6994 32.9141 26.8244L30.8335 29.0144C30.7762 29.0847 30.6903 29.1263 30.5939 29.1263H16.4206C16.3295 29.1263 16.2409 29.0873 16.1811 29.0118L15.5197 28.1863C14.4546 28.5248 13.3167 28.7097 12.1397 28.7097C9.06445 28.7097 6.28082 27.4624 4.26536 25.4469C2.24729 23.4289 1 20.6452 1 17.5674C1 14.4921 2.24729 11.7085 4.26276 9.69301C6.27561 7.67755 9.06184 6.43286 12.1371 6.43286ZM30.4247 26.2984L31.9662 24.6762H15.2931L16.5951 26.2984H30.4247ZM30.4247 21.8144L31.9662 20.1922H15.2931L16.5951 21.8144H30.4247Z" fill="#CF4E32" stroke="#CF4E32" stroke-width="0.5"/>
</svg>
