<svg width="30" height="30" viewBox="0 0 30 30" fill="none" xmlns="http://www.w3.org/2000/svg">
<path d="M14.776 16.6897L13.3107 15.2244C11.1938 13.1075 7.76158 13.1075 5.64472 15.2244L4.81641 16.0527L13.9476 25.1839L14.776 24.3556C16.8929 22.2388 16.8929 18.8066 14.776 16.6897Z" fill="white"/>
<path d="M15.1171 17.0642C15.0102 16.9355 14.8967 16.8103 14.7761 16.6897L13.3107 15.2244C11.1938 13.1075 7.76163 13.1075 5.64477 15.2244L4.81641 16.0527L6.9972 18.2336L7.82556 17.4052C9.82192 15.409 12.9875 15.2956 15.1171 17.0642Z" fill="#D4D2D0"/>
<path d="M11.6369 27.1656L2.83562 18.3644C2.31586 17.8446 2.31586 17.0019 2.83562 16.4821L3.0035 16.3142C3.57613 15.7416 4.50453 15.7416 5.07715 16.3142L13.6871 24.9241C14.2597 25.4967 14.2597 26.4251 13.6871 26.9978L13.5192 27.1656C12.9994 27.6854 12.1567 27.6854 11.6369 27.1656Z" fill="white"/>
<path d="M5.31857 18.9651L5.48645 18.7972C6.05908 18.2246 6.98748 18.2246 7.5601 18.7972L5.07715 16.3142C4.50453 15.7416 3.57613 15.7416 3.0035 16.3142L2.83562 16.4821C2.31586 17.0019 2.31586 17.8446 2.83562 18.3644L5.31857 20.8473C4.79876 20.3276 4.79876 19.4848 5.31857 18.9651Z" fill="#D4D2D0"/>
<path d="M13.2981 15.2131L15.3569 13.1544C18.0556 10.4556 20.5731 7.57744 22.8335 4.50156C23.1271 4.10211 23.4426 3.71906 23.7659 3.39573C24.1407 3.0209 24.5945 2.75886 25.0621 2.5762C26.5404 1.99911 28.0024 3.46103 27.4252 4.93935C27.2426 5.40686 26.981 5.86115 26.6062 6.23598C26.2829 6.55921 25.8994 6.87421 25.4999 7.16783C22.424 9.42826 19.5459 11.9457 16.8471 14.6445L14.7884 16.7033" fill="white"/>
<path d="M25.9189 3.43099C25.5545 3.71714 25.1703 4.04835 24.7953 4.42332C24.472 4.74655 24.132 5.10508 23.8004 5.46619C21.2442 8.24632 18.5958 10.9939 15.8969 13.6928L13.8382 15.7516L13.2979 15.2112L15.3566 13.1524C18.0555 10.4536 20.573 7.57584 22.8333 4.4999C23.1271 4.10015 23.4427 3.71714 23.766 3.39392C24.1409 3.01894 24.5942 2.75675 25.0622 2.57414C25.8016 2.28585 26.5368 2.5068 27.0149 2.98486C26.8834 2.85354 26.4946 2.97902 25.9189 3.43099Z" fill="#D4D2D0"/>
<path d="M27.33 2.67025C26.6825 2.02272 25.7511 1.82696 24.8996 2.15938C24.3227 2.3847 23.8351 2.69411 23.4501 3.07909C23.1346 3.39461 22.8062 3.7839 22.4737 4.23617C20.3236 7.16194 17.8229 10.0559 15.0411 12.8376L13.2851 14.5936C12.4791 13.9042 11.5107 13.4503 10.4583 13.2727C10.2153 13.2315 9.98491 13.3955 9.94388 13.6386C9.90289 13.8817 10.0667 14.112 10.3098 14.153C11.3312 14.3254 12.2597 14.8051 12.995 15.5403L14.4604 17.0057C16.3998 18.9452 16.3998 22.1009 14.4604 24.0403L13.9476 24.5531L5.44766 16.053L5.96041 15.5403C6.72265 14.778 7.68747 14.2926 8.75054 14.1364C8.99445 14.1006 9.16315 13.8738 9.12735 13.6299C9.0915 13.386 8.8648 13.2176 8.62085 13.2531C7.36637 13.4374 6.22819 14.01 5.32919 14.9089L4.68827 15.5499C4.48316 15.4762 4.26469 15.4377 4.04033 15.4377C3.52946 15.4377 3.04911 15.6367 2.6879 15.998L2.52001 16.1658C1.82699 16.8589 1.82699 17.9864 2.52001 18.6793L8.24409 24.4034C8.41843 24.5777 8.70108 24.5777 8.87532 24.4034C9.04965 24.2291 9.04965 23.9464 8.87532 23.7722L3.15119 18.0482C2.98411 17.8811 2.8921 17.6589 2.8921 17.4227C2.8921 17.1864 2.98411 16.9642 3.15119 16.7971L3.31907 16.6292C3.51174 16.4366 3.76784 16.3305 4.04028 16.3305C4.31268 16.3305 4.56877 16.4366 4.76144 16.6292L13.3714 25.2392C13.7691 25.6368 13.7691 26.2839 13.3714 26.6815L13.2035 26.8494C13.0364 27.0165 12.8142 27.1085 12.578 27.1085C12.3417 27.1085 12.1195 27.0165 11.9524 26.8494L9.94631 24.8433C9.77198 24.669 9.48932 24.669 9.31509 24.8433C9.14075 25.0177 9.14075 25.3003 9.31509 25.4745L11.3212 27.4806C11.6677 27.8271 12.1228 28.0004 12.578 28.0004C13.0331 28.0004 13.4882 27.8271 13.8348 27.4806L14.0027 27.3128C14.5424 26.773 14.6912 25.9885 14.4497 25.3134L15.0917 24.6714C17.2688 22.4944 17.3722 19.0188 15.4053 16.7162L17.1626 14.959C19.5796 12.5419 22.0852 10.333 24.6098 8.39372C24.8053 8.24355 24.842 7.96328 24.6919 7.76777C24.5417 7.57226 24.2614 7.53555 24.0659 7.68571C21.5107 9.6486 18.9757 11.8833 16.5313 14.3277L14.7881 16.0708L13.9292 15.2118L15.6723 13.4687C18.4859 10.6551 21.0162 7.72664 23.193 4.76461C23.4987 4.34855 23.7975 3.99373 24.0813 3.71012C24.3784 3.41294 24.763 3.17091 25.2241 2.99073C25.8413 2.74982 26.3904 2.99322 26.6985 3.30137C27.0067 3.60952 27.2501 4.15862 27.0092 4.77573C26.8287 5.23795 26.5868 5.62258 26.2902 5.91915C26.0086 6.20078 25.6536 6.49943 25.2352 6.80697C25.0366 6.95297 24.9939 7.23232 25.1399 7.43098C25.2859 7.62965 25.5652 7.6723 25.7639 7.52635C26.2185 7.19231 26.608 6.86395 26.9215 6.55047C27.3057 6.16615 27.6149 5.67839 27.8407 5.10048C28.1734 4.24907 27.9776 3.31782 27.33 2.67025Z" fill="#CF4E32"/>
</svg>
