<svg width="31" height="30" viewBox="0 0 31 30" fill="none" xmlns="http://www.w3.org/2000/svg">
<path d="M28.0115 11.2935C27.4028 10.6864 26.5547 10.3096 25.6244 10.3096C25.565 10.3096 25.5052 10.3111 25.4462 10.3143V8.7183C25.4462 7.64939 25.0091 6.67678 24.3051 5.97709C23.6018 5.27663 22.6239 4.84147 21.5495 4.8418H8.45059C7.37619 4.84147 6.39827 5.27663 5.69499 5.97709C4.99094 6.67678 4.55388 7.64939 4.55388 8.7183V10.3143C4.49487 10.3111 4.4351 10.3096 4.3757 10.3096C3.44509 10.3096 2.5977 10.6864 1.98865 11.2935C1.37877 11.8994 0.999237 12.7425 1 13.668C0.999237 14.2641 1.15728 14.8284 1.43302 15.3147C1.69814 15.7831 2.07363 16.1801 2.52354 16.4748C2.53858 16.5273 2.56204 16.6386 2.57856 16.8166C2.59869 17.0242 2.61192 17.3226 2.61192 17.733C2.61192 19.2145 2.61192 20.2849 2.61192 20.2849C2.61154 21.1305 2.95842 21.9025 3.51612 22.4563C4.07273 23.0111 4.84826 23.3559 5.69898 23.3555H6.12505L5.87972 25.5644H7.20196L8.08489 23.3555H21.9153L22.7983 25.5644H24.1202L23.8746 23.3555H24.301C25.1517 23.3559 25.9273 23.0111 26.4839 22.4563C27.0416 21.9025 27.3885 21.1305 27.3881 20.2849C27.3881 20.2849 27.3881 19.2145 27.3881 17.733C27.3881 17.3733 27.398 17.1005 27.4145 16.8984C27.4263 16.7474 27.4413 16.6361 27.4567 16.5602C27.464 16.5226 27.4706 16.4945 27.4768 16.4745C27.9268 16.1801 28.3019 15.7831 28.567 15.3147C28.8427 14.8284 29.0004 14.2641 29 13.668C29.0008 12.7425 28.6213 11.8994 28.0115 11.2935ZM5.7225 8.7183C5.7225 7.96681 6.02683 7.29225 6.52148 6.79942C7.01684 6.30729 7.69524 6.00451 8.45059 6.00413H21.5495C22.3048 6.00445 22.9832 6.30729 23.4786 6.79942C23.9732 7.29225 24.2772 7.96681 24.2776 8.7183V10.589C23.8863 10.7583 23.5336 10.9983 23.2377 11.2935C22.6279 11.8994 22.2484 12.7425 22.2491 13.668C22.2491 13.9219 22.2491 17.3274 22.2491 17.3274C22.2484 17.4719 22.1916 17.5977 22.0969 17.6933C22.0009 17.7874 21.8748 17.8444 21.7292 17.8444H8.27094C8.12536 17.8444 7.9992 17.7874 7.90316 17.6933C7.80855 17.5977 7.75135 17.4719 7.75097 17.3274C7.75097 17.3274 7.75097 13.9219 7.75097 13.668C7.75135 12.7425 7.37259 11.8994 6.76244 11.2935C6.46614 10.9983 6.11373 10.7583 5.72255 10.589V8.7183H5.7225ZM27.5491 14.7442C27.3691 15.062 27.1105 15.3319 26.8011 15.5263C26.7754 15.5424 26.7306 15.5712 26.6801 15.6139C26.6365 15.6507 26.5892 15.6982 26.5477 15.7521C26.474 15.8473 26.4197 15.9561 26.3798 16.071C26.32 16.245 26.2845 16.4391 26.2588 16.7017C26.2335 16.964 26.2196 17.2953 26.2196 17.733C26.2196 19.2145 26.2196 20.2849 26.2196 20.2849C26.2192 20.8135 26.0062 21.2867 25.6578 21.634C25.3091 21.9806 24.8328 22.1929 24.3011 22.1932H5.69904C5.16731 22.1929 4.69103 21.9805 4.34234 21.634C3.99398 21.2867 3.78098 20.8135 3.78059 20.2849C3.78059 20.2849 3.78059 19.2145 3.78059 17.733C3.78021 17.3518 3.76998 17.0512 3.75052 16.8068C3.73586 16.6236 3.71683 16.4715 3.69074 16.3384C3.65115 16.14 3.59832 15.9758 3.503 15.824C3.45608 15.7496 3.39669 15.6813 3.33872 15.6303C3.28119 15.5785 3.22798 15.5445 3.19899 15.5263C2.88919 15.3318 2.63068 15.0619 2.45136 14.7442C2.271 14.4257 2.16829 14.0612 2.16829 13.668C2.16868 13.0598 2.41472 12.5144 2.81476 12.1153C3.21627 11.7169 3.76408 11.4725 4.3757 11.4722C4.987 11.4725 5.53481 11.717 5.93632 12.1153C6.33636 12.5144 6.5824 13.0598 6.58279 13.668C6.58279 13.9219 6.58279 17.3274 6.58279 17.3274C6.5824 17.7896 6.77272 18.2128 7.07705 18.5152C7.38068 18.8179 7.80637 19.0073 8.27099 19.0069H21.7292C22.1938 19.0073 22.6195 18.8179 22.9228 18.5152C23.2275 18.2128 23.4178 17.7896 23.4174 17.3274C23.4174 17.3274 23.4174 13.9219 23.4174 13.668C23.4178 13.0598 23.6639 12.5144 24.0639 12.1153C24.4654 11.7169 25.0132 11.4725 25.6245 11.4722C26.2361 11.4725 26.7839 11.717 27.1855 12.1153C27.5855 12.5144 27.8315 13.0598 27.8319 13.668C27.8318 14.0613 27.7291 14.4257 27.5491 14.7442Z" fill="#CF4E32"/>
<path d="M10.1527 10.4184C10.4637 10.4184 10.7156 10.1675 10.7156 9.85886C10.7156 9.54949 10.4637 9.29883 10.1527 9.29883C9.84208 9.29883 9.59058 9.54943 9.59058 9.85886C9.59058 10.1675 9.84208 10.4184 10.1527 10.4184Z" fill="#CF4E32"/>
<path d="M19.9663 10.4184C20.2769 10.4184 20.5291 10.1675 20.5291 9.85886C20.5291 9.54949 20.2769 9.29883 19.9663 9.29883C19.6557 9.29883 19.4038 9.54943 19.4038 9.85886C19.4038 10.1675 19.6557 10.4184 19.9663 10.4184Z" fill="#CF4E32"/>
<path d="M10.1527 14.6798C10.4637 14.6798 10.7156 14.4292 10.7156 14.1198C10.7156 13.8108 10.4637 13.5605 10.1527 13.5605C9.84208 13.5605 9.59058 13.8108 9.59058 14.1198C9.59058 14.4292 9.84208 14.6798 10.1527 14.6798Z" fill="#CF4E32"/>
<path d="M19.9663 14.6798C20.2769 14.6798 20.5291 14.4292 20.5291 14.1198C20.5291 13.8108 20.2769 13.5605 19.9663 13.5605C19.6557 13.5605 19.4038 13.8108 19.4038 14.1198C19.4038 14.4292 19.6557 14.6798 19.9663 14.6798Z" fill="#CF4E32"/>
<path d="M15.0595 10.4184C15.3702 10.4184 15.622 10.1675 15.622 9.85886C15.622 9.54949 15.3702 9.29883 15.0595 9.29883C14.749 9.29883 14.4971 9.54943 14.4971 9.85886C14.4971 10.1675 14.749 10.4184 15.0595 10.4184Z" fill="#CF4E32"/>
<path d="M15.0595 14.6798C15.3702 14.6798 15.622 14.4292 15.622 14.1198C15.622 13.8108 15.3702 13.5605 15.0595 13.5605C14.749 13.5605 14.4971 13.8108 14.4971 14.1198C14.4971 14.4292 14.749 14.6798 15.0595 14.6798Z" fill="#CF4E32"/>
</svg>
