<svg width="34" height="34" viewBox="0 0 34 34" fill="none" xmlns="http://www.w3.org/2000/svg">
<g clip-path="url(#clip0_1053_267)">
<path d="M27.2 19.175H23.5017C23.9866 18.2021 24.26 17.106 24.26 15.9472C24.26 14.1353 23.5927 12.4763 22.4912 11.203C22.6728 10.9208 22.8419 10.6281 22.9932 10.3314C25.856 4.71831 26.6764 1.37126 25.501 0.0991782C25.4507 0.0447301 25.3817 0.0113721 25.3078 0.00578942C25.2561 0.00192981 25.2049 0 25.1534 0C22.8124 0 20.5889 3.96802 18.5096 8.04446C18.3878 8.28328 18.2748 8.53084 18.1714 8.78213C17.7899 8.71996 17.3987 8.68709 16.9999 8.68709C16.6538 8.68709 16.3134 8.71197 15.9801 8.75904C15.8793 8.51575 15.7693 8.27597 15.6513 8.04446C13.5719 3.96775 11.3487 0 9.00754 0C8.95619 0 8.90471 0.00192981 8.85316 0.00578942C8.77927 0.0113721 8.71028 0.0446612 8.65997 0.0991782C7.48472 1.37106 8.30502 4.7181 11.1678 10.3315C11.3002 10.5911 11.4466 10.8475 11.6027 11.0969C10.4452 12.3835 9.73983 14.0845 9.73983 15.9473C9.73983 17.1061 10.0132 18.2023 10.4982 19.1751H6.79964C5.14634 19.1751 3.80127 20.5202 3.80127 22.1735V22.9865C3.80127 24.6399 5.14634 25.985 6.79964 25.985H9.83515L9.83487 31.0016C9.83487 32.6549 11.18 34.0001 12.8334 34.0001H13.6464C15.2997 34.0001 16.6448 32.6549 16.6448 31.0016V29.4388H17.3548V31.0016C17.3548 32.6549 18.6999 34 20.3533 34H21.1662C22.8195 34 24.1646 32.6549 24.1646 31.0016L24.1649 25.985H27.2001C28.8535 25.985 30.1986 24.6399 30.1986 22.9865V22.1735C30.1985 20.52 28.8534 19.175 27.2 19.175ZM19.0315 8.31057C20.412 5.60402 22.96 0.608095 25.144 0.586178C25.4806 1.04919 25.6682 2.10859 24.8825 4.52553C24.3924 6.03285 23.6037 7.84486 22.4713 10.0652C22.3508 10.3015 22.218 10.5351 22.0765 10.7625C21.979 10.6669 21.8789 10.5741 21.7762 10.4841C21.8592 10.3593 21.934 10.2329 21.9984 10.1067C23.3219 7.51652 23.6117 5.9192 22.8845 5.22336C22.8403 5.18118 22.7841 5.15382 22.7237 5.14507C21.3522 4.94912 20.2779 6.80677 19.2964 8.72816C19.2489 8.82128 19.2057 8.91708 19.1651 9.01674C19.0305 8.97463 18.8939 8.93658 18.756 8.90226C18.8416 8.70101 18.9336 8.50272 19.0315 8.31057ZM21.3178 10.1144C20.8277 9.75069 20.2904 9.44729 19.7168 9.21503C19.7484 9.13894 19.7818 9.06581 19.8182 8.99475C20.4091 7.83777 21.4923 5.71739 22.5331 5.71739C22.5356 5.71739 22.5383 5.71739 22.5409 5.71746C22.7923 6.06428 22.9029 7.04889 21.4766 9.84035C21.43 9.93161 21.3766 10.0233 21.3178 10.1144ZM9.27854 4.52553C8.49276 2.10852 8.68037 1.04919 9.01698 0.586178C11.2008 0.608716 13.749 5.60422 15.1294 8.31057C15.2217 8.49156 15.3084 8.67806 15.3898 8.86732C15.2511 8.89882 15.1139 8.93445 14.9784 8.9738C14.9427 8.88923 14.9048 8.80708 14.8646 8.72823C13.8831 6.80691 12.8097 4.94788 11.4373 5.14521C11.3769 5.15396 11.3207 5.18125 11.2765 5.2235C10.5495 5.9192 10.8393 7.51652 12.1626 10.1069C12.212 10.2034 12.2675 10.2998 12.3276 10.3952C12.2241 10.4825 12.123 10.5724 12.0247 10.6652C11.9055 10.4686 11.7931 10.2679 11.6897 10.0654C10.5571 7.84459 9.76844 6.03257 9.27854 4.52553ZM12.7924 10.0337C12.7536 9.96937 12.7173 9.90473 12.6844 9.84022C11.2582 7.04868 11.3687 6.06421 11.6202 5.71746C11.6227 5.71739 11.6253 5.71739 11.6279 5.71739C12.6685 5.71739 13.7519 7.8379 14.3428 8.99448C14.3705 9.04872 14.3962 9.1042 14.4211 9.16079C13.8388 9.38278 13.2921 9.67722 12.7924 10.0337ZM16.707 9.27974V12.2107C16.707 12.3725 16.8381 12.5036 16.9999 12.5036C17.1617 12.5036 17.2928 12.3725 17.2928 12.2107V9.27974C20.8376 9.43358 23.6741 12.3652 23.6741 15.9472C23.6741 19.6274 20.6801 22.6215 16.9999 22.6215C15.1274 22.6215 13.433 21.8462 12.2198 20.6C12.1921 20.5288 12.1376 20.4714 12.0683 20.4398C10.9864 19.2531 10.3257 17.6758 10.3257 15.9472C10.3257 12.3652 13.1622 9.43358 16.707 9.27974ZM12.2402 21.4249C13.5156 22.5346 15.1806 23.2073 16.9999 23.2073C18.8192 23.2073 20.4842 22.5345 21.7596 21.4249V23.1865C21.7596 25.67 19.7391 27.6905 17.2557 27.6905H16.7441C14.2607 27.6905 12.2402 25.67 12.2402 23.1865V21.4249ZM29.6127 22.9865C29.6127 24.1296 28.8134 25.0888 27.7446 25.3364V22.1402C27.7446 21.9783 27.6135 21.8473 27.4517 21.8473C27.2898 21.8473 27.1587 21.9783 27.1587 22.1402V25.3991H23.8719C23.7101 25.3991 23.5789 25.5302 23.5789 25.692L23.5787 30.7086H18.9251C18.7633 30.7086 18.6322 30.8397 18.6322 31.0016C18.6322 31.1634 18.7633 31.2945 18.9251 31.2945H23.5602C23.4151 32.487 22.3971 33.4141 21.1661 33.4141H20.3532C19.0228 33.4141 17.9405 32.3318 17.9405 31.0016V29.1458C17.9405 28.984 17.8095 28.8529 17.6476 28.8529H16.3518C16.19 28.8529 16.0589 28.984 16.0589 29.1458V31.0016C16.0589 32.3319 14.9766 33.4142 13.6464 33.4142H12.8333C11.6022 33.4142 10.5841 32.4871 10.4391 31.2945H14.9546C15.1164 31.2945 15.2475 31.1634 15.2475 31.0016C15.2475 30.8397 15.1164 30.7086 14.9546 30.7086H10.4207L10.421 25.692C10.421 25.6144 10.3902 25.5399 10.3352 25.4849C10.2802 25.43 10.2057 25.3991 10.1281 25.3991H7.09255V22.1402C7.09255 21.9783 6.96146 21.8473 6.79964 21.8473C6.63781 21.8473 6.50672 21.9783 6.50672 22.1402V25.3807C5.31417 25.2357 4.3871 24.2177 4.3871 22.9865V22.1735C4.3871 20.9424 5.31417 19.9244 6.50672 19.7793V21.0064C6.50672 21.1682 6.63781 21.2993 6.79964 21.2993C6.96146 21.2993 7.09255 21.1682 7.09255 21.0064V19.7609H10.8248C11.0669 20.1516 11.3449 20.5177 11.6544 20.8546V23.1866C11.6544 25.9932 13.9376 28.2764 16.7441 28.2764H17.2557C20.0622 28.2764 22.3454 25.9932 22.3454 23.1866V20.8546C22.6548 20.5177 22.9329 20.1516 23.1751 19.7609H27.1587V21.0064C27.1587 21.1682 27.2898 21.2993 27.4517 21.2993C27.6135 21.2993 27.7446 21.1682 27.7446 21.0064V19.8236C28.8135 20.0712 29.6127 21.0305 29.6127 22.1735V22.9865Z" fill="#CF4E32"/>
<path d="M13.1822 15.6155C13.6337 15.6155 14.0009 15.2484 14.0009 14.797C14.0009 14.3457 13.6337 13.9785 13.1822 13.9785C12.7309 13.9785 12.3638 14.3457 12.3638 14.797C12.3638 15.2484 12.7309 15.6155 13.1822 15.6155ZM13.1822 14.5644C13.3106 14.5644 13.4151 14.6688 13.4151 14.7971C13.4151 14.9254 13.3106 15.0298 13.1822 15.0298C13.054 15.0298 12.9496 14.9254 12.9496 14.7971C12.9496 14.6688 13.054 14.5644 13.1822 14.5644Z" fill="#CF4E32"/>
<path d="M20.2844 15.6155C20.7357 15.6155 21.1028 15.2484 21.1028 14.797C21.1028 14.3457 20.7357 13.9785 20.2844 13.9785C19.833 13.9785 19.4658 14.3457 19.4658 14.797C19.4658 15.2484 19.833 15.6155 20.2844 15.6155ZM20.2844 14.5644C20.4127 14.5644 20.517 14.6688 20.517 14.7971C20.517 14.9254 20.4127 15.0298 20.2844 15.0298C20.1561 15.0298 20.0517 14.9254 20.0517 14.7971C20.0517 14.6688 20.1561 14.5644 20.2844 14.5644Z" fill="#CF4E32"/>
<path d="M15.7224 20.609H17L18.2774 20.6088C18.4393 20.6088 18.5703 20.4777 18.5703 20.3159C18.5703 20.1541 18.4392 20.023 18.2774 20.023L17.2929 20.0231V17.7041C17.6621 17.5661 18.3143 17.2439 18.3143 16.6914C18.3143 16.4474 18.2238 16.0381 17.618 16.0381C17.5281 16.0381 17.4338 16.045 17.334 16.0522C17.226 16.0601 17.1142 16.0682 17 16.0682C16.8857 16.0682 16.774 16.0601 16.666 16.0522C16.5661 16.045 16.4718 16.0381 16.3819 16.0381C15.7761 16.0381 15.6856 16.4474 15.6856 16.6914C15.6856 17.2441 16.3378 17.5661 16.707 17.7042V20.0231H15.7224C15.5605 20.0231 15.4294 20.1542 15.4294 20.316C15.4294 20.4779 15.5605 20.609 15.7224 20.609ZM16.2714 16.6914C16.2714 16.663 16.2736 16.6439 16.2757 16.6319C16.2929 16.6282 16.3251 16.624 16.3818 16.624C16.4504 16.624 16.5344 16.6301 16.6233 16.6366C16.7363 16.6448 16.8643 16.6542 16.9999 16.6542C17.1355 16.6542 17.2634 16.6448 17.3765 16.6366C17.4654 16.6301 17.5493 16.624 17.618 16.624C17.6746 16.624 17.7069 16.6283 17.7241 16.6318C17.7262 16.6439 17.7285 16.663 17.7285 16.6914C17.7285 16.8405 17.3533 17.0676 17 17.1865C16.6465 17.0676 16.2714 16.8405 16.2714 16.6914Z" fill="#CF4E32"/>
</g>
<defs>
<clipPath id="clip0_1053_267">
<rect width="34" height="34" fill="white"/>
</clipPath>
</defs>
</svg>
