<svg width="32" height="30" viewBox="0 0 32 30" fill="none" xmlns="http://www.w3.org/2000/svg">
<path d="M15.5743 29.6979C15.571 29.6979 15.5679 29.6977 15.5648 29.6977H0.46973C0.336166 29.6977 0.208866 29.6409 0.119928 29.5414C0.0308332 29.4418 -0.0117569 29.3092 0.00280516 29.1764L2.5817 5.78667C2.60784 5.54851 2.80905 5.36844 3.04862 5.36844H6.61178V3.77743C6.61178 1.8615 8.17054 0.302734 10.0863 0.302734C10.4006 0.302734 10.7053 0.344698 10.995 0.423302C11.2848 0.344698 11.5893 0.302734 11.9037 0.302734C13.8197 0.302734 15.3783 1.8615 15.3783 3.77743V5.36844H19.1699C19.4138 5.36844 19.6171 5.55493 19.6379 5.79795L20.2251 12.6427H21.3487V11.6926C21.3487 10.2921 22.4882 9.15254 23.8888 9.15254C24.2221 9.15254 24.5408 9.21705 24.8326 9.33433C25.1245 9.21705 25.4432 9.15254 25.7765 9.15254C27.1771 9.15254 28.3166 10.292 28.3166 11.6926V12.6427H30.1475C30.3914 12.6427 30.5947 12.8292 30.6155 13.0722L31.9981 29.1877C32.0094 29.3189 31.9651 29.4486 31.8761 29.5455C31.7872 29.6424 31.6616 29.6977 31.5301 29.6977H21.1777C21.1768 29.6977 21.1759 29.6977 21.1749 29.6977H15.5839C15.5807 29.6977 15.5776 29.6979 15.5743 29.6979ZM28.1767 28.7582H31.0185L29.7166 13.5822H29.3145L28.1767 28.7582ZM21.6079 28.7582H27.2346L28.3723 13.5822H26.4293V14.3341C26.4293 14.5936 26.219 14.8039 25.9596 14.8039C25.7001 14.8039 25.4898 14.5936 25.4898 14.3341V13.5822H22.2885V14.3341C22.2885 14.5936 22.0782 14.8039 21.8188 14.8039C21.5593 14.8039 21.349 14.5936 21.349 14.3341V13.5822H20.306L21.6079 28.7582ZM16.3405 28.7582H19.9487L17.4697 26.5365L16.3405 28.7582ZM10.8525 28.7582H15.1389L16.2857 13.4598C16.286 13.4552 16.2863 13.4504 16.2868 13.4458L16.8218 6.30793H13.561V7.61116C13.561 7.87061 13.3507 8.0809 13.0913 8.0809C12.8318 8.0809 12.6215 7.87061 12.6215 7.61116V6.30793H7.55127V7.61116C7.55127 7.87061 7.34098 8.0809 7.08152 8.0809C6.82207 8.0809 6.61178 7.87061 6.61178 7.61116V6.30793H3.46951L0.99412 28.7582H1.74289L2.85681 20.3257C2.88765 20.0921 3.08683 19.9175 3.32248 19.9175H4.76068V18.6915C4.76068 17.8061 5.48095 17.0859 6.3661 17.0859C7.25126 17.0859 7.97153 17.8061 7.97153 18.6915V19.9175H9.0023C9.23232 19.9175 9.42852 20.0841 9.46578 20.3111L10.8525 28.7582ZM8.14956 28.7582H9.90029L8.69838 21.4365L8.14956 28.7582ZM2.69068 28.7582H7.20741L7.79976 20.857H3.73429L2.69068 28.7582ZM17.7881 25.5602L20.6073 28.0869L18.7388 6.30809H17.7638L17.225 13.4953L17.7881 25.5602ZM16.6455 21.2281L16.2183 26.9251L16.853 25.6765L16.6455 21.2281ZM5.70016 19.9175H7.0322V18.6915C7.0322 18.3241 6.73344 18.0254 6.36626 18.0254C5.99908 18.0254 5.70032 18.3241 5.70032 18.6915L5.70016 19.9175ZM26.4291 12.6429H27.3772V11.6928C27.3772 10.8388 26.705 10.1388 25.8619 10.0945C26.2165 10.5312 26.4291 11.0877 26.4291 11.6928V12.6429ZM24.1761 12.6429H25.4897V11.6928C25.4897 11.1629 25.2308 10.6922 24.8328 10.4008C24.4349 10.6922 24.1761 11.1629 24.1761 11.6928V12.6429ZM22.2884 12.6429H23.2366V11.6928C23.2366 11.0877 23.4493 10.5312 23.8039 10.0945C22.9607 10.1388 22.2884 10.8388 22.2884 11.6928V12.6429ZM13.561 5.3686H14.439V3.77743C14.439 2.60087 13.6333 1.60893 12.5448 1.32427C13.1724 1.95326 13.561 2.82087 13.561 3.77743V5.3686ZM9.3687 5.3686H12.6215V3.77743C12.6215 2.69952 11.9454 1.77679 10.9951 1.41055C10.0448 1.77679 9.3687 2.69952 9.3687 3.77743V5.3686ZM7.55127 5.3686H8.42922V3.77743C8.42922 2.82087 8.81785 1.95326 9.44543 1.32427C8.35687 1.60893 7.55127 2.60087 7.55127 3.77743V5.3686Z" fill="white"/>
</svg>
