<svg width="32" height="32" viewBox="0 0 32 32" fill="none" xmlns="http://www.w3.org/2000/svg">
<path d="M28.9034 0H3.09692V14.9677H28.9034V0ZM19.0969 13.9355H4.12918V1.03226H19.0969V13.9355ZM27.8711 13.9355H20.1292V1.03226H23.7421V8.25806H24.7743V1.03226H27.8711V13.9355Z" fill="white"/>
<path d="M12.9033 29.9357H18.0646V24.7744H12.9033V29.9357ZM13.9356 25.8067H17.0324V28.9034H13.9356V25.8067Z" fill="white"/>
<path d="M18.0646 8.86439L18.9162 8.13407L18.2447 7.35059L17.788 7.74233H12.9033V12.9036H18.0646V8.86439ZM17.0324 11.8714H13.9356V8.77459H16.5833L15.1335 10.0169L14.9131 9.57613L13.9898 10.0381L14.8016 11.6618L17.0324 9.74904V11.8714Z" fill="white"/>
<path d="M28.7366 17.5488H23.2259H3.26355L0.786133 23.7424H3.09684V32.0004H28.9033V23.7424H31.214L28.7366 17.5488ZM2.31078 22.7101L3.96239 18.5811H19.3673L17.7157 22.7101H2.31078ZM19.613 30.9682H4.1291V23.7424H18.414L19.613 20.7447V30.9682ZM27.871 30.9682H20.6452V20.7447L21.8442 23.7424H27.871V30.9682ZM22.543 22.7101L20.8914 18.5811H23.2259H28.0378L29.6894 22.7101H22.543Z" fill="white"/>
</svg>
